solid OpenSCAD_Model
  facet normal -0.143499 -0.98965 0
    outer loop
      vertex 137.6 -0.0199995 0
      vertex 141.6 -0.599999 58
      vertex 137.6 -0.0199995 58
    endloop
  endfacet
  facet normal -0.143499 -0.98965 -0
    outer loop
      vertex 141.6 -0.599999 58
      vertex 137.6 -0.0199995 0
      vertex 141.6 -0.599999 0
    endloop
  endfacet
  facet normal -0 0 1
    outer loop
      vertex 0 80.4 58
      vertex 137.6 0 58
      vertex 137.6 80.4 58
    endloop
  endfacet
  facet normal 0 0 1
    outer loop
      vertex 137.6 0 58
      vertex 0 80.4 58
      vertex 0 0 58
    endloop
  endfacet
  facet normal -0 0 1
    outer loop
      vertex 141.6 81 58
      vertex 173.6 -0.599999 58
      vertex 173.6 81 58
    endloop
  endfacet
  facet normal 0 0 1
    outer loop
      vertex 141.6 81 58
      vertex 141.6 -0.599999 58
      vertex 173.6 -0.599999 58
    endloop
  endfacet
  facet normal 0 0 1
    outer loop
      vertex 137.6 80.4 58
      vertex 141.6 81 58
      vertex 137.6 80.42 58
    endloop
  endfacet
  facet normal 0 0 1
    outer loop
      vertex 141.6 81 58
      vertex 137.6 80.4 58
      vertex 141.6 -0.599999 58
    endloop
  endfacet
  facet normal -0 0 1
    outer loop
      vertex 137.6 0 58
      vertex 141.6 -0.599999 58
      vertex 137.6 80.4 58
    endloop
  endfacet
  facet normal 0 0 1
    outer loop
      vertex 141.6 -0.599999 58
      vertex 137.6 0 58
      vertex 137.6 -0.0199995 58
    endloop
  endfacet
  facet normal 0 -1 0
    outer loop
      vertex 141.6 -0.599999 0
      vertex 173.6 -0.599999 58
      vertex 141.6 -0.599999 58
    endloop
  endfacet
  facet normal 0 -1 -0
    outer loop
      vertex 173.6 -0.599999 58
      vertex 141.6 -0.599999 0
      vertex 173.6 -0.599999 0
    endloop
  endfacet
  facet normal 1 0 0
    outer loop
      vertex 173.6 81 58
      vertex 173.6 79.6 57.2
      vertex 173.6 81 0
    endloop
  endfacet
  facet normal 1 0 0
    outer loop
      vertex 173.6 81 58
      vertex 173.6 0.799999 57.2
      vertex 173.6 79.6 57.2
    endloop
  endfacet
  facet normal 1 0 0
    outer loop
      vertex 173.6 0.799999 57.2
      vertex 173.6 -0.599999 58
      vertex 173.6 0.799999 0.799999
    endloop
  endfacet
  facet normal 1 -0 0
    outer loop
      vertex 173.6 -0.599999 58
      vertex 173.6 0.799999 57.2
      vertex 173.6 81 58
    endloop
  endfacet
  facet normal 1 -0 0
    outer loop
      vertex 173.6 79.6 0.799999
      vertex 173.6 81 0
      vertex 173.6 79.6 57.2
    endloop
  endfacet
  facet normal 1 -0 0
    outer loop
      vertex 173.6 0.799999 0.799999
      vertex 173.6 81 0
      vertex 173.6 79.6 0.799999
    endloop
  endfacet
  facet normal 1 0 0
    outer loop
      vertex 173.6 0.799999 0.799999
      vertex 173.6 -0.599999 0
      vertex 173.6 81 0
    endloop
  endfacet
  facet normal 1 0 0
    outer loop
      vertex 173.6 -0.599999 0
      vertex 173.6 0.799999 0.799999
      vertex 173.6 -0.599999 58
    endloop
  endfacet
  facet normal -1 0 0
    outer loop
      vertex 137.6 -0.0199995 0
      vertex 137.6 0 58
      vertex 137.6 0 0
    endloop
  endfacet
  facet normal -1 -0 0
    outer loop
      vertex 137.6 0 58
      vertex 137.6 -0.0199995 0
      vertex 137.6 -0.0199995 58
    endloop
  endfacet
  facet normal 0 0 -1
    outer loop
      vertex 0 0 0
      vertex 137.6 80.4 0
      vertex 137.6 0 0
    endloop
  endfacet
  facet normal -0 0 -1
    outer loop
      vertex 137.6 80.4 0
      vertex 0 0 0
      vertex 0 80.4 0
    endloop
  endfacet
  facet normal 0 0 -1
    outer loop
      vertex 141.6 -0.599999 0
      vertex 173.6 81 0
      vertex 173.6 -0.599999 0
    endloop
  endfacet
  facet normal 0 0 -1
    outer loop
      vertex 141.6 -0.599999 0
      vertex 141.6 81 0
      vertex 173.6 81 0
    endloop
  endfacet
  facet normal 0 0 -1
    outer loop
      vertex 137.6 0 0
      vertex 141.6 -0.599999 0
      vertex 137.6 -0.0199995 0
    endloop
  endfacet
  facet normal 0 0 -1
    outer loop
      vertex 141.6 -0.599999 0
      vertex 137.6 0 0
      vertex 141.6 81 0
    endloop
  endfacet
  facet normal 0 0 -1
    outer loop
      vertex 137.6 80.4 0
      vertex 141.6 81 0
      vertex 137.6 0 0
    endloop
  endfacet
  facet normal 0 0 -1
    outer loop
      vertex 141.6 81 0
      vertex 137.6 80.4 0
      vertex 137.6 80.42 0
    endloop
  endfacet
  facet normal -1 0 0
    outer loop
      vertex 137.6 80.4 0
      vertex 137.6 80.42 58
      vertex 137.6 80.42 0
    endloop
  endfacet
  facet normal -1 -0 0
    outer loop
      vertex 137.6 80.42 58
      vertex 137.6 80.4 0
      vertex 137.6 80.4 58
    endloop
  endfacet
  facet normal -0.143499 0.98965 0
    outer loop
      vertex 141.6 81 0
      vertex 137.6 80.42 58
      vertex 141.6 81 58
    endloop
  endfacet
  facet normal -0.143499 0.98965 0
    outer loop
      vertex 137.6 80.42 58
      vertex 141.6 81 0
      vertex 137.6 80.42 0
    endloop
  endfacet
  facet normal 0 1 -0
    outer loop
      vertex 173.6 81 0
      vertex 141.6 81 58
      vertex 173.6 81 58
    endloop
  endfacet
  facet normal 0 1 0
    outer loop
      vertex 141.6 81 58
      vertex 173.6 81 0
      vertex 141.6 81 0
    endloop
  endfacet
  facet normal -1 0 0
    outer loop
      vertex 0 80.4 0
      vertex 0 51.2 29
      vertex 0 80.4 58
    endloop
  endfacet
  facet normal -1 0 0
    outer loop
      vertex 0 80.4 0
      vertex 0 51.1059 27.5642
      vertex 0 51.2 29
    endloop
  endfacet
  facet normal -1 0 0
    outer loop
      vertex 0 80.4 0
      vertex 0 50.8252 26.153
      vertex 0 51.1059 27.5642
    endloop
  endfacet
  facet normal -1 0 0
    outer loop
      vertex 0 80.4 0
      vertex 0 50.3627 24.7905
      vertex 0 50.8252 26.153
    endloop
  endfacet
  facet normal -1 0 0
    outer loop
      vertex 0 80.4 0
      vertex 0 49.7263 23.5
      vertex 0 50.3627 24.7905
    endloop
  endfacet
  facet normal -1 0 0
    outer loop
      vertex 0 80.4 0
      vertex 0 48.9269 22.3036
      vertex 0 49.7263 23.5
    endloop
  endfacet
  facet normal -1 0 0
    outer loop
      vertex 0 80.4 0
      vertex 0 47.9782 21.2218
      vertex 0 48.9269 22.3036
    endloop
  endfacet
  facet normal -1 0 0
    outer loop
      vertex 0 80.4 0
      vertex 0 46.8964 20.2731
      vertex 0 47.9782 21.2218
    endloop
  endfacet
  facet normal -1 0 0
    outer loop
      vertex 0 80.4 0
      vertex 0 45.7 19.4737
      vertex 0 46.8964 20.2731
    endloop
  endfacet
  facet normal -1 0 0
    outer loop
      vertex 0 80.4 0
      vertex 0 44.4095 18.8373
      vertex 0 45.7 19.4737
    endloop
  endfacet
  facet normal -1 0 0
    outer loop
      vertex 0 80.4 0
      vertex 0 43.047 18.3748
      vertex 0 44.4095 18.8373
    endloop
  endfacet
  facet normal -1 0 0
    outer loop
      vertex 0 80.4 0
      vertex 0 41.6358 18.0941
      vertex 0 43.047 18.3748
    endloop
  endfacet
  facet normal -1 0 0
    outer loop
      vertex 0 80.4 0
      vertex 0 40.2 18
      vertex 0 41.6358 18.0941
    endloop
  endfacet
  facet normal -1 0 0
    outer loop
      vertex 0 0 0
      vertex 0 40.2 18
      vertex 0 80.4 0
    endloop
  endfacet
  facet normal -1 -0 0
    outer loop
      vertex 0 40.2 18
      vertex 0 0 0
      vertex 0 38.7642 18.0941
    endloop
  endfacet
  facet normal -1 -0 0
    outer loop
      vertex 0 38.7642 18.0941
      vertex 0 0 0
      vertex 0 37.353 18.3748
    endloop
  endfacet
  facet normal -1 -0 0
    outer loop
      vertex 0 29.2941 27.5642
      vertex 0 0 0
      vertex 0 29.2 29
    endloop
  endfacet
  facet normal -1 -0 0
    outer loop
      vertex 0 29.5748 26.153
      vertex 0 0 0
      vertex 0 29.2941 27.5642
    endloop
  endfacet
  facet normal -1 -0 0
    outer loop
      vertex 0 30.0373 24.7905
      vertex 0 0 0
      vertex 0 29.5748 26.153
    endloop
  endfacet
  facet normal -1 -0 0
    outer loop
      vertex 0 30.6737 23.5
      vertex 0 0 0
      vertex 0 30.0373 24.7905
    endloop
  endfacet
  facet normal -1 -0 0
    outer loop
      vertex 0 31.4731 22.3036
      vertex 0 0 0
      vertex 0 30.6737 23.5
    endloop
  endfacet
  facet normal -1 -0 0
    outer loop
      vertex 0 32.4218 21.2218
      vertex 0 0 0
      vertex 0 31.4731 22.3036
    endloop
  endfacet
  facet normal -1 -0 0
    outer loop
      vertex 0 33.5036 20.2731
      vertex 0 0 0
      vertex 0 32.4218 21.2218
    endloop
  endfacet
  facet normal -1 -0 0
    outer loop
      vertex 0 34.7 19.4737
      vertex 0 0 0
      vertex 0 33.5036 20.2731
    endloop
  endfacet
  facet normal -1 -0 0
    outer loop
      vertex 0 35.9905 18.8373
      vertex 0 0 0
      vertex 0 34.7 19.4737
    endloop
  endfacet
  facet normal -1 -0 0
    outer loop
      vertex 0 37.353 18.3748
      vertex 0 0 0
      vertex 0 35.9905 18.8373
    endloop
  endfacet
  facet normal -1 0 0
    outer loop
      vertex 0 51.1059 30.4358
      vertex 0 80.4 58
      vertex 0 51.2 29
    endloop
  endfacet
  facet normal -1 0 0
    outer loop
      vertex 0 50.8252 31.847
      vertex 0 80.4 58
      vertex 0 51.1059 30.4358
    endloop
  endfacet
  facet normal -1 0 0
    outer loop
      vertex 0 50.3627 33.2095
      vertex 0 80.4 58
      vertex 0 50.8252 31.847
    endloop
  endfacet
  facet normal -1 0 0
    outer loop
      vertex 0 49.7263 34.5
      vertex 0 80.4 58
      vertex 0 50.3627 33.2095
    endloop
  endfacet
  facet normal -1 0 0
    outer loop
      vertex 0 48.9269 35.6964
      vertex 0 80.4 58
      vertex 0 49.7263 34.5
    endloop
  endfacet
  facet normal -1 0 0
    outer loop
      vertex 0 47.9782 36.7782
      vertex 0 80.4 58
      vertex 0 48.9269 35.6964
    endloop
  endfacet
  facet normal -1 0 0
    outer loop
      vertex 0 46.8964 37.7269
      vertex 0 80.4 58
      vertex 0 47.9782 36.7782
    endloop
  endfacet
  facet normal -1 0 0
    outer loop
      vertex 0 45.7 38.5263
      vertex 0 80.4 58
      vertex 0 46.8964 37.7269
    endloop
  endfacet
  facet normal -1 0 0
    outer loop
      vertex 0 44.4095 39.1627
      vertex 0 80.4 58
      vertex 0 45.7 38.5263
    endloop
  endfacet
  facet normal -1 0 0
    outer loop
      vertex 0 43.047 39.6252
      vertex 0 80.4 58
      vertex 0 44.4095 39.1627
    endloop
  endfacet
  facet normal -1 0 0
    outer loop
      vertex 0 41.6358 39.9059
      vertex 0 80.4 58
      vertex 0 43.047 39.6252
    endloop
  endfacet
  facet normal -1 0 0
    outer loop
      vertex 0 40.2 40
      vertex 0 80.4 58
      vertex 0 41.6358 39.9059
    endloop
  endfacet
  facet normal -1 0 0
    outer loop
      vertex 0 0 58
      vertex 0 40.2 40
      vertex 0 38.7642 39.9059
    endloop
  endfacet
  facet normal -1 0 0
    outer loop
      vertex 0 0 58
      vertex 0 38.7642 39.9059
      vertex 0 37.353 39.6252
    endloop
  endfacet
  facet normal -1 0 0
    outer loop
      vertex 0 0 58
      vertex 0 37.353 39.6252
      vertex 0 35.9905 39.1627
    endloop
  endfacet
  facet normal -1 0 0
    outer loop
      vertex 0 0 58
      vertex 0 29.2 29
      vertex 0 0 0
    endloop
  endfacet
  facet normal -1 0 0
    outer loop
      vertex 0 29.2 29
      vertex 0 0 58
      vertex 0 29.2941 30.4358
    endloop
  endfacet
  facet normal -1 0 0
    outer loop
      vertex 0 29.2941 30.4358
      vertex 0 0 58
      vertex 0 29.5748 31.847
    endloop
  endfacet
  facet normal -1 0 0
    outer loop
      vertex 0 29.5748 31.847
      vertex 0 0 58
      vertex 0 30.0373 33.2095
    endloop
  endfacet
  facet normal -1 0 0
    outer loop
      vertex 0 30.0373 33.2095
      vertex 0 0 58
      vertex 0 30.6737 34.5
    endloop
  endfacet
  facet normal -1 0 0
    outer loop
      vertex 0 30.6737 34.5
      vertex 0 0 58
      vertex 0 31.4731 35.6964
    endloop
  endfacet
  facet normal -1 0 0
    outer loop
      vertex 0 40.2 40
      vertex 0 0 58
      vertex 0 80.4 58
    endloop
  endfacet
  facet normal -1 0 0
    outer loop
      vertex 0 34.7 38.5263
      vertex 0 0 58
      vertex 0 35.9905 39.1627
    endloop
  endfacet
  facet normal -1 0 0
    outer loop
      vertex 0 33.5036 37.7269
      vertex 0 0 58
      vertex 0 34.7 38.5263
    endloop
  endfacet
  facet normal -1 0 0
    outer loop
      vertex 0 32.4218 36.7782
      vertex 0 0 58
      vertex 0 33.5036 37.7269
    endloop
  endfacet
  facet normal -1 0 0
    outer loop
      vertex 0 31.4731 35.6964
      vertex 0 0 58
      vertex 0 32.4218 36.7782
    endloop
  endfacet
  facet normal 0 1 -0
    outer loop
      vertex 137.6 80.4 0
      vertex 0 80.4 58
      vertex 137.6 80.4 58
    endloop
  endfacet
  facet normal 0 1 0
    outer loop
      vertex 0 80.4 58
      vertex 137.6 80.4 0
      vertex 0 80.4 0
    endloop
  endfacet
  facet normal 0 -1 0
    outer loop
      vertex 0 0 0
      vertex 137.6 0 58
      vertex 0 0 58
    endloop
  endfacet
  facet normal 0 -1 -0
    outer loop
      vertex 137.6 0 58
      vertex 0 0 0
      vertex 137.6 0 0
    endloop
  endfacet
  facet normal 0 0 -1
    outer loop
      vertex 4 1.6 56.4
      vertex 171.1 78.8 56.4
      vertex 171.1 1.6 56.4
    endloop
  endfacet
  facet normal -0 0 -1
    outer loop
      vertex 171.1 78.8 56.4
      vertex 4 1.6 56.4
      vertex 4 78.8 56.4
    endloop
  endfacet
  facet normal -0 0 1
    outer loop
      vertex 4 78.8 1.6
      vertex 171.1 1.6 1.6
      vertex 171.1 78.8 1.6
    endloop
  endfacet
  facet normal 0 0 1
    outer loop
      vertex 171.1 1.6 1.6
      vertex 4 78.8 1.6
      vertex 4 1.6 1.6
    endloop
  endfacet
  facet normal 1 0 0
    outer loop
      vertex 4 78.8 56.4
      vertex 4 51.2 29
      vertex 4 78.8 1.6
    endloop
  endfacet
  facet normal 1 0 0
    outer loop
      vertex 4 78.8 56.4
      vertex 4 51.1059 30.4358
      vertex 4 51.2 29
    endloop
  endfacet
  facet normal 1 0 0
    outer loop
      vertex 4 78.8 56.4
      vertex 4 50.8252 31.847
      vertex 4 51.1059 30.4358
    endloop
  endfacet
  facet normal 1 0 0
    outer loop
      vertex 4 78.8 56.4
      vertex 4 50.3627 33.2095
      vertex 4 50.8252 31.847
    endloop
  endfacet
  facet normal 1 0 0
    outer loop
      vertex 4 78.8 56.4
      vertex 4 49.7263 34.5
      vertex 4 50.3627 33.2095
    endloop
  endfacet
  facet normal 1 0 0
    outer loop
      vertex 4 78.8 56.4
      vertex 4 48.9269 35.6964
      vertex 4 49.7263 34.5
    endloop
  endfacet
  facet normal 1 0 0
    outer loop
      vertex 4 78.8 56.4
      vertex 4 47.9782 36.7782
      vertex 4 48.9269 35.6964
    endloop
  endfacet
  facet normal 1 0 0
    outer loop
      vertex 4 78.8 56.4
      vertex 4 46.8964 37.7269
      vertex 4 47.9782 36.7782
    endloop
  endfacet
  facet normal 1 0 0
    outer loop
      vertex 4 78.8 56.4
      vertex 4 45.7 38.5263
      vertex 4 46.8964 37.7269
    endloop
  endfacet
  facet normal 1 0 0
    outer loop
      vertex 4 78.8 56.4
      vertex 4 44.4095 39.1627
      vertex 4 45.7 38.5263
    endloop
  endfacet
  facet normal 1 0 0
    outer loop
      vertex 4 78.8 56.4
      vertex 4 43.047 39.6252
      vertex 4 44.4095 39.1627
    endloop
  endfacet
  facet normal 1 0 0
    outer loop
      vertex 4 78.8 56.4
      vertex 4 41.6358 39.9059
      vertex 4 43.047 39.6252
    endloop
  endfacet
  facet normal 1 0 0
    outer loop
      vertex 4 78.8 56.4
      vertex 4 40.2 40
      vertex 4 41.6358 39.9059
    endloop
  endfacet
  facet normal 1 -0 0
    outer loop
      vertex 4 1.6 56.4
      vertex 4 40.2 40
      vertex 4 78.8 56.4
    endloop
  endfacet
  facet normal 1 0 0
    outer loop
      vertex 4 40.2 40
      vertex 4 1.6 56.4
      vertex 4 38.7642 39.9059
    endloop
  endfacet
  facet normal 1 0 0
    outer loop
      vertex 4 38.7642 39.9059
      vertex 4 1.6 56.4
      vertex 4 37.353 39.6252
    endloop
  endfacet
  facet normal 1 0 0
    outer loop
      vertex 4 29.2941 30.4358
      vertex 4 1.6 56.4
      vertex 4 29.2 29
    endloop
  endfacet
  facet normal 1 0 0
    outer loop
      vertex 4 29.5748 31.847
      vertex 4 1.6 56.4
      vertex 4 29.2941 30.4358
    endloop
  endfacet
  facet normal 1 0 0
    outer loop
      vertex 4 30.0373 33.2095
      vertex 4 1.6 56.4
      vertex 4 29.5748 31.847
    endloop
  endfacet
  facet normal 1 0 0
    outer loop
      vertex 4 30.6737 34.5
      vertex 4 1.6 56.4
      vertex 4 30.0373 33.2095
    endloop
  endfacet
  facet normal 1 0 0
    outer loop
      vertex 4 31.4731 35.6964
      vertex 4 1.6 56.4
      vertex 4 30.6737 34.5
    endloop
  endfacet
  facet normal 1 0 0
    outer loop
      vertex 4 32.4218 36.7782
      vertex 4 1.6 56.4
      vertex 4 31.4731 35.6964
    endloop
  endfacet
  facet normal 1 0 0
    outer loop
      vertex 4 33.5036 37.7269
      vertex 4 1.6 56.4
      vertex 4 32.4218 36.7782
    endloop
  endfacet
  facet normal 1 0 0
    outer loop
      vertex 4 34.7 38.5263
      vertex 4 1.6 56.4
      vertex 4 33.5036 37.7269
    endloop
  endfacet
  facet normal 1 0 0
    outer loop
      vertex 4 35.9905 39.1627
      vertex 4 1.6 56.4
      vertex 4 34.7 38.5263
    endloop
  endfacet
  facet normal 1 0 0
    outer loop
      vertex 4 37.353 39.6252
      vertex 4 1.6 56.4
      vertex 4 35.9905 39.1627
    endloop
  endfacet
  facet normal 1 -0 0
    outer loop
      vertex 4 51.1059 27.5642
      vertex 4 78.8 1.6
      vertex 4 51.2 29
    endloop
  endfacet
  facet normal 1 -0 0
    outer loop
      vertex 4 50.8252 26.153
      vertex 4 78.8 1.6
      vertex 4 51.1059 27.5642
    endloop
  endfacet
  facet normal 1 -0 0
    outer loop
      vertex 4 50.3627 24.7905
      vertex 4 78.8 1.6
      vertex 4 50.8252 26.153
    endloop
  endfacet
  facet normal 1 -0 0
    outer loop
      vertex 4 49.7263 23.5
      vertex 4 78.8 1.6
      vertex 4 50.3627 24.7905
    endloop
  endfacet
  facet normal 1 -0 0
    outer loop
      vertex 4 48.9269 22.3036
      vertex 4 78.8 1.6
      vertex 4 49.7263 23.5
    endloop
  endfacet
  facet normal 1 -0 0
    outer loop
      vertex 4 47.9782 21.2218
      vertex 4 78.8 1.6
      vertex 4 48.9269 22.3036
    endloop
  endfacet
  facet normal 1 -0 0
    outer loop
      vertex 4 46.8964 20.2731
      vertex 4 78.8 1.6
      vertex 4 47.9782 21.2218
    endloop
  endfacet
  facet normal 1 -0 0
    outer loop
      vertex 4 45.7 19.4737
      vertex 4 78.8 1.6
      vertex 4 46.8964 20.2731
    endloop
  endfacet
  facet normal 1 -0 0
    outer loop
      vertex 4 44.4095 18.8373
      vertex 4 78.8 1.6
      vertex 4 45.7 19.4737
    endloop
  endfacet
  facet normal 1 -0 0
    outer loop
      vertex 4 43.047 18.3748
      vertex 4 78.8 1.6
      vertex 4 44.4095 18.8373
    endloop
  endfacet
  facet normal 1 -0 0
    outer loop
      vertex 4 41.6358 18.0941
      vertex 4 78.8 1.6
      vertex 4 43.047 18.3748
    endloop
  endfacet
  facet normal 1 -0 0
    outer loop
      vertex 4 40.2 18
      vertex 4 78.8 1.6
      vertex 4 41.6358 18.0941
    endloop
  endfacet
  facet normal 1 0 0
    outer loop
      vertex 4 1.6 1.6
      vertex 4 40.2 18
      vertex 4 38.7642 18.0941
    endloop
  endfacet
  facet normal 1 0 0
    outer loop
      vertex 4 1.6 1.6
      vertex 4 38.7642 18.0941
      vertex 4 37.353 18.3748
    endloop
  endfacet
  facet normal 1 0 0
    outer loop
      vertex 4 1.6 1.6
      vertex 4 37.353 18.3748
      vertex 4 35.9905 18.8373
    endloop
  endfacet
  facet normal 1 0 0
    outer loop
      vertex 4 1.6 1.6
      vertex 4 29.2 29
      vertex 4 1.6 56.4
    endloop
  endfacet
  facet normal 1 0 0
    outer loop
      vertex 4 29.2 29
      vertex 4 1.6 1.6
      vertex 4 29.2941 27.5642
    endloop
  endfacet
  facet normal 1 0 0
    outer loop
      vertex 4 29.2941 27.5642
      vertex 4 1.6 1.6
      vertex 4 29.5748 26.153
    endloop
  endfacet
  facet normal 1 0 0
    outer loop
      vertex 4 29.5748 26.153
      vertex 4 1.6 1.6
      vertex 4 30.0373 24.7905
    endloop
  endfacet
  facet normal 1 0 0
    outer loop
      vertex 4 30.0373 24.7905
      vertex 4 1.6 1.6
      vertex 4 30.6737 23.5
    endloop
  endfacet
  facet normal 1 0 0
    outer loop
      vertex 4 40.2 18
      vertex 4 1.6 1.6
      vertex 4 78.8 1.6
    endloop
  endfacet
  facet normal 1 0 0
    outer loop
      vertex 4 34.7 19.4737
      vertex 4 1.6 1.6
      vertex 4 35.9905 18.8373
    endloop
  endfacet
  facet normal 1 0 0
    outer loop
      vertex 4 33.5036 20.2731
      vertex 4 1.6 1.6
      vertex 4 34.7 19.4737
    endloop
  endfacet
  facet normal 1 0 0
    outer loop
      vertex 4 32.4218 21.2218
      vertex 4 1.6 1.6
      vertex 4 33.5036 20.2731
    endloop
  endfacet
  facet normal 1 0 0
    outer loop
      vertex 4 31.4731 22.3036
      vertex 4 1.6 1.6
      vertex 4 32.4218 21.2218
    endloop
  endfacet
  facet normal 1 0 0
    outer loop
      vertex 4 30.6737 23.5
      vertex 4 1.6 1.6
      vertex 4 31.4731 22.3036
    endloop
  endfacet
  facet normal 0 -1 0
    outer loop
      vertex 165.8 78.8 25.7
      vertex 167.6 78.8 32.3
      vertex 165.8 78.8 32.3
    endloop
  endfacet
  facet normal 0 -1 -0
    outer loop
      vertex 167.6 78.8 32.3
      vertex 165.8 78.8 25.7
      vertex 167.6 78.8 25.7
    endloop
  endfacet
  facet normal 0 -1 0
    outer loop
      vertex 4 78.8 56.4
      vertex 160.2 78.8 32.3
      vertex 171.1 78.8 56.4
    endloop
  endfacet
  facet normal 0 -1 0
    outer loop
      vertex 4 78.8 56.4
      vertex 160.2 78.8 25.7
      vertex 160.2 78.8 32.3
    endloop
  endfacet
  facet normal 0 -1 0
    outer loop
      vertex 171.1 78.8 1.6
      vertex 165.8 78.8 25.7
      vertex 160.2 78.8 25.7
    endloop
  endfacet
  facet normal 0 -1 0
    outer loop
      vertex 165.8 78.8 25.7
      vertex 171.1 78.8 1.6
      vertex 167.6 78.8 25.7
    endloop
  endfacet
  facet normal 0 -1 0
    outer loop
      vertex 4 78.8 1.6
      vertex 160.2 78.8 25.7
      vertex 4 78.8 56.4
    endloop
  endfacet
  facet normal 0 -1 0
    outer loop
      vertex 171.1 78.8 1.6
      vertex 160.2 78.8 25.7
      vertex 4 78.8 1.6
    endloop
  endfacet
  facet normal 0 -1 0
    outer loop
      vertex 167.6 78.8 25.7
      vertex 171.1 78.8 1.6
      vertex 171.1 78.8 25.7
    endloop
  endfacet
  facet normal 0 -1 0
    outer loop
      vertex 165.8 78.8 32.3
      vertex 171.1 78.8 56.4
      vertex 160.2 78.8 32.3
    endloop
  endfacet
  facet normal 0 -1 0
    outer loop
      vertex 167.6 78.8 32.3
      vertex 171.1 78.8 56.4
      vertex 165.8 78.8 32.3
    endloop
  endfacet
  facet normal 0 -1 -0
    outer loop
      vertex 171.1 78.8 56.4
      vertex 167.6 78.8 32.3
      vertex 171.1 78.8 32.3
    endloop
  endfacet
  facet normal 0 1 -0
    outer loop
      vertex 171.1 1.6 1.6
      vertex 167.6 1.6 25.7
      vertex 171.1 1.6 25.7
    endloop
  endfacet
  facet normal 0 1 0
    outer loop
      vertex 167.6 1.6 25.7
      vertex 171.1 1.6 1.6
      vertex 165.8 1.6 25.7
    endloop
  endfacet
  facet normal 0 1 0
    outer loop
      vertex 165.8 1.6 25.7
      vertex 171.1 1.6 1.6
      vertex 160.2 1.6 25.7
    endloop
  endfacet
  facet normal 0 1 -0
    outer loop
      vertex 167.6 1.6 25.7
      vertex 165.8 1.6 32.3
      vertex 167.6 1.6 32.3
    endloop
  endfacet
  facet normal 0 1 0
    outer loop
      vertex 165.8 1.6 32.3
      vertex 167.6 1.6 25.7
      vertex 165.8 1.6 25.7
    endloop
  endfacet
  facet normal 0 1 0
    outer loop
      vertex 167.6 1.6 32.3
      vertex 171.1 1.6 56.4
      vertex 171.1 1.6 32.3
    endloop
  endfacet
  facet normal 0 1 0
    outer loop
      vertex 165.8 1.6 32.3
      vertex 171.1 1.6 56.4
      vertex 167.6 1.6 32.3
    endloop
  endfacet
  facet normal 0 1 0
    outer loop
      vertex 160.2 1.6 32.3
      vertex 171.1 1.6 56.4
      vertex 165.8 1.6 32.3
    endloop
  endfacet
  facet normal 0 1 0
    outer loop
      vertex 171.1 1.6 56.4
      vertex 160.2 1.6 32.3
      vertex 4 1.6 56.4
    endloop
  endfacet
  facet normal 0 1 -0
    outer loop
      vertex 160.2 1.6 25.7
      vertex 4 1.6 56.4
      vertex 160.2 1.6 32.3
    endloop
  endfacet
  facet normal 0 1 0
    outer loop
      vertex 4 1.6 1.6
      vertex 160.2 1.6 25.7
      vertex 171.1 1.6 1.6
    endloop
  endfacet
  facet normal 0 1 0
    outer loop
      vertex 160.2 1.6 25.7
      vertex 4 1.6 1.6
      vertex 4 1.6 56.4
    endloop
  endfacet
  facet normal 0 0 -1
    outer loop
      vertex 173.59 0.799999 57.2
      vertex 173.6 79.6 57.2
      vertex 173.6 0.799999 57.2
    endloop
  endfacet
  facet normal -0 0 -1
    outer loop
      vertex 173.6 79.6 57.2
      vertex 173.59 0.799999 57.2
      vertex 173.59 79.6 57.2
    endloop
  endfacet
  facet normal 0.305885 0 -0.952068
    outer loop
      vertex 171.1 1.6 56.4
      vertex 173.59 79.6 57.2
      vertex 173.59 0.799999 57.2
    endloop
  endfacet
  facet normal 0.305885 0 -0.952068
    outer loop
      vertex 173.59 79.6 57.2
      vertex 171.1 1.6 56.4
      vertex 171.1 78.8 56.4
    endloop
  endfacet
  facet normal 0.305886 0.952068 1.943e-08
    outer loop
      vertex 173.59 0.799999 57.2
      vertex 172.345 1.2 32.3
      vertex 171.1 1.6 56.4
    endloop
  endfacet
  facet normal 0.305886 0.952068 0
    outer loop
      vertex 173.59 0.799999 57.2
      vertex 172.345 1.2 25.7
      vertex 172.345 1.2 32.3
    endloop
  endfacet
  facet normal 0.305885 0.952068 0
    outer loop
      vertex 172.345 1.2 25.7
      vertex 171.1 1.6 1.6
      vertex 171.1 1.6 25.7
    endloop
  endfacet
  facet normal 0.305886 0.952068 -1.943e-08
    outer loop
      vertex 172.345 1.2 25.7
      vertex 173.59 0.799999 0.799999
      vertex 171.1 1.6 1.6
    endloop
  endfacet
  facet normal 0.305886 0.952068 -0
    outer loop
      vertex 173.59 0.799999 0.799999
      vertex 172.345 1.2 25.7
      vertex 173.59 0.799999 57.2
    endloop
  endfacet
  facet normal 0.305885 0.952068 0
    outer loop
      vertex 171.1 1.6 56.4
      vertex 172.345 1.2 32.3
      vertex 171.1 1.6 32.3
    endloop
  endfacet
  facet normal 0 -1 0
    outer loop
      vertex 173.59 79.6 0.799999
      vertex 173.6 79.6 57.2
      vertex 173.59 79.6 57.2
    endloop
  endfacet
  facet normal 0 -1 -0
    outer loop
      vertex 173.6 79.6 57.2
      vertex 173.59 79.6 0.799999
      vertex 173.6 79.6 0.799999
    endloop
  endfacet
  facet normal 0 1 -0
    outer loop
      vertex 173.6 0.799999 0.799999
      vertex 173.59 0.799999 57.2
      vertex 173.6 0.799999 57.2
    endloop
  endfacet
  facet normal 0 1 0
    outer loop
      vertex 173.59 0.799999 57.2
      vertex 173.6 0.799999 0.799999
      vertex 173.59 0.799999 0.799999
    endloop
  endfacet
  facet normal -0 0 1
    outer loop
      vertex 173.59 79.6 0.799999
      vertex 173.6 0.799999 0.799999
      vertex 173.6 79.6 0.799999
    endloop
  endfacet
  facet normal 0 0 1
    outer loop
      vertex 173.6 0.799999 0.799999
      vertex 173.59 79.6 0.799999
      vertex 173.59 0.799999 0.799999
    endloop
  endfacet
  facet normal 0.305885 -0.952068 0
    outer loop
      vertex 171.1 78.8 25.7
      vertex 171.1 78.8 1.6
      vertex 172.345 79.2 25.7
    endloop
  endfacet
  facet normal 0.305885 -0.952068 0
    outer loop
      vertex 172.345 79.2 32.3
      vertex 171.1 78.8 56.4
      vertex 171.1 78.8 32.3
    endloop
  endfacet
  facet normal 0.305885 -0.952068 -2.75493e-16
    outer loop
      vertex 171.1 78.8 56.4
      vertex 172.345 79.2 32.3
      vertex 173.59 79.6 57.2
    endloop
  endfacet
  facet normal 0.305885 -0.952068 0
    outer loop
      vertex 172.345 79.2 25.7
      vertex 173.59 79.6 57.2
      vertex 172.345 79.2 32.3
    endloop
  endfacet
  facet normal 0.305885 -0.952068 0
    outer loop
      vertex 172.345 79.2 25.7
      vertex 173.59 79.6 0.799999
      vertex 173.59 79.6 57.2
    endloop
  endfacet
  facet normal 0.305885 -0.952068 2.75493e-16
    outer loop
      vertex 173.59 79.6 0.799999
      vertex 172.345 79.2 25.7
      vertex 171.1 78.8 1.6
    endloop
  endfacet
  facet normal 0.305886 0 0.952068
    outer loop
      vertex 171.1 78.8 1.6
      vertex 173.59 0.799999 0.799999
      vertex 173.59 79.6 0.799999
    endloop
  endfacet
  facet normal 0.305886 0 0.952068
    outer loop
      vertex 173.59 0.799999 0.799999
      vertex 171.1 78.8 1.6
      vertex 171.1 1.6 1.6
    endloop
  endfacet
  facet normal 0 0.831472 0.555566
    outer loop
      vertex 4 31.4731 22.3036
      vertex 0 30.6737 23.5
      vertex 4 30.6737 23.5
    endloop
  endfacet
  facet normal 0 0.831472 0.555566
    outer loop
      vertex 0 30.6737 23.5
      vertex 4 31.4731 22.3036
      vertex 0 31.4731 22.3036
    endloop
  endfacet
  facet normal 0 -0.946931 0.321435
    outer loop
      vertex 0 50.3627 24.7905
      vertex 4 50.8252 26.153
      vertex 0 50.8252 26.153
    endloop
  endfacet
  facet normal 0 -0.946931 0.321435
    outer loop
      vertex 4 50.8252 26.153
      vertex 0 50.3627 24.7905
      vertex 4 50.3627 24.7905
    endloop
  endfacet
  facet normal 0 0.896874 -0.442286
    outer loop
      vertex 4 30.0373 33.2095
      vertex 0 30.6737 34.5
      vertex 4 30.6737 34.5
    endloop
  endfacet
  facet normal 0 0.896874 -0.442286
    outer loop
      vertex 0 30.6737 34.5
      vertex 4 30.0373 33.2095
      vertex 0 30.0373 33.2095
    endloop
  endfacet
  facet normal 0 0.321435 -0.946931
    outer loop
      vertex 0 35.9905 39.1627
      vertex 4 37.353 39.6252
      vertex 4 35.9905 39.1627
    endloop
  endfacet
  facet normal 0 0.321435 -0.946931
    outer loop
      vertex 4 37.353 39.6252
      vertex 0 35.9905 39.1627
      vertex 0 37.353 39.6252
    endloop
  endfacet
  facet normal 0 -0.0653981 0.997859
    outer loop
      vertex 0 41.6358 18.0941
      vertex 4 40.2 18
      vertex 4 41.6358 18.0941
    endloop
  endfacet
  facet normal 0 -0.0653981 0.997859
    outer loop
      vertex 4 40.2 18
      vertex 0 41.6358 18.0941
      vertex 0 40.2 18
    endloop
  endfacet
  facet normal 0 -0.555566 0.831472
    outer loop
      vertex 0 46.8964 20.2731
      vertex 4 45.7 19.4737
      vertex 4 46.8964 20.2731
    endloop
  endfacet
  facet normal 0 -0.555566 0.831472
    outer loop
      vertex 4 45.7 19.4737
      vertex 0 46.8964 20.2731
      vertex 0 45.7 19.4737
    endloop
  endfacet
  facet normal -0 0.195087 0.980786
    outer loop
      vertex 0 38.7642 18.0941
      vertex 4 37.353 18.3748
      vertex 4 38.7642 18.0941
    endloop
  endfacet
  facet normal 0 0.195087 0.980786
    outer loop
      vertex 4 37.353 18.3748
      vertex 0 38.7642 18.0941
      vertex 0 37.353 18.3748
    endloop
  endfacet
  facet normal 0 -0.751844 -0.659341
    outer loop
      vertex 0 48.9269 35.6964
      vertex 4 47.9782 36.7782
      vertex 0 47.9782 36.7782
    endloop
  endfacet
  facet normal 0 -0.751844 -0.659341
    outer loop
      vertex 4 47.9782 36.7782
      vertex 0 48.9269 35.6964
      vertex 4 48.9269 35.6964
    endloop
  endfacet
  facet normal 0 0.751844 0.659341
    outer loop
      vertex 4 32.4218 21.2218
      vertex 0 31.4731 22.3036
      vertex 4 31.4731 22.3036
    endloop
  endfacet
  facet normal 0 0.751844 0.659341
    outer loop
      vertex 0 31.4731 22.3036
      vertex 4 32.4218 21.2218
      vertex 0 32.4218 21.2218
    endloop
  endfacet
  facet normal 0 0.946931 0.321435
    outer loop
      vertex 4 30.0373 24.7905
      vertex 0 29.5748 26.153
      vertex 4 29.5748 26.153
    endloop
  endfacet
  facet normal 0 0.946931 0.321435
    outer loop
      vertex 0 29.5748 26.153
      vertex 4 30.0373 24.7905
      vertex 0 30.0373 24.7905
    endloop
  endfacet
  facet normal 0 0.896874 0.442286
    outer loop
      vertex 4 30.6737 23.5
      vertex 0 30.0373 24.7905
      vertex 4 30.0373 24.7905
    endloop
  endfacet
  facet normal 0 0.896874 0.442286
    outer loop
      vertex 0 30.0373 24.7905
      vertex 4 30.6737 23.5
      vertex 0 30.6737 23.5
    endloop
  endfacet
  facet normal 0 -0.946931 -0.321435
    outer loop
      vertex 0 50.8252 31.847
      vertex 4 50.3627 33.2095
      vertex 0 50.3627 33.2095
    endloop
  endfacet
  facet normal 0 -0.946931 -0.321435
    outer loop
      vertex 4 50.3627 33.2095
      vertex 0 50.8252 31.847
      vertex 4 50.8252 31.847
    endloop
  endfacet
  facet normal 0 0.195087 -0.980786
    outer loop
      vertex 0 37.353 39.6252
      vertex 4 38.7642 39.9059
      vertex 4 37.353 39.6252
    endloop
  endfacet
  facet normal 0 0.195087 -0.980786
    outer loop
      vertex 4 38.7642 39.9059
      vertex 0 37.353 39.6252
      vertex 0 38.7642 39.9059
    endloop
  endfacet
  facet normal -0 0.442286 0.896874
    outer loop
      vertex 0 35.9905 18.8373
      vertex 4 34.7 19.4737
      vertex 4 35.9905 18.8373
    endloop
  endfacet
  facet normal 0 0.442286 0.896874
    outer loop
      vertex 4 34.7 19.4737
      vertex 0 35.9905 18.8373
      vertex 0 34.7 19.4737
    endloop
  endfacet
  facet normal 0 0.555566 -0.831472
    outer loop
      vertex 0 33.5036 37.7269
      vertex 4 34.7 38.5263
      vertex 4 33.5036 37.7269
    endloop
  endfacet
  facet normal 0 0.555566 -0.831472
    outer loop
      vertex 4 34.7 38.5263
      vertex 0 33.5036 37.7269
      vertex 0 34.7 38.5263
    endloop
  endfacet
  facet normal 0 -0.0653981 -0.997859
    outer loop
      vertex 0 40.2 40
      vertex 4 41.6358 39.9059
      vertex 4 40.2 40
    endloop
  endfacet
  facet normal -0 -0.0653981 -0.997859
    outer loop
      vertex 4 41.6358 39.9059
      vertex 0 40.2 40
      vertex 0 41.6358 39.9059
    endloop
  endfacet
  facet normal 0 -0.195087 0.980786
    outer loop
      vertex 0 43.047 18.3748
      vertex 4 41.6358 18.0941
      vertex 4 43.047 18.3748
    endloop
  endfacet
  facet normal 0 -0.195087 0.980786
    outer loop
      vertex 4 41.6358 18.0941
      vertex 0 43.047 18.3748
      vertex 0 41.6358 18.0941
    endloop
  endfacet
  facet normal 0 -0.321435 -0.946931
    outer loop
      vertex 0 43.047 39.6252
      vertex 4 44.4095 39.1627
      vertex 4 43.047 39.6252
    endloop
  endfacet
  facet normal -0 -0.321435 -0.946931
    outer loop
      vertex 4 44.4095 39.1627
      vertex 0 43.047 39.6252
      vertex 0 44.4095 39.1627
    endloop
  endfacet
  facet normal 0 -0.831472 0.555566
    outer loop
      vertex 0 48.9269 22.3036
      vertex 4 49.7263 23.5
      vertex 0 49.7263 23.5
    endloop
  endfacet
  facet normal 0 -0.831472 0.555566
    outer loop
      vertex 4 49.7263 23.5
      vertex 0 48.9269 22.3036
      vertex 4 48.9269 22.3036
    endloop
  endfacet
  facet normal 0 -0.896874 -0.442286
    outer loop
      vertex 0 50.3627 33.2095
      vertex 4 49.7263 34.5
      vertex 0 49.7263 34.5
    endloop
  endfacet
  facet normal 0 -0.896874 -0.442286
    outer loop
      vertex 4 49.7263 34.5
      vertex 0 50.3627 33.2095
      vertex 4 50.3627 33.2095
    endloop
  endfacet
  facet normal 0 0.997859 0.0653981
    outer loop
      vertex 4 29.2941 27.5642
      vertex 0 29.2 29
      vertex 4 29.2 29
    endloop
  endfacet
  facet normal 0 0.997859 0.0653981
    outer loop
      vertex 0 29.2 29
      vertex 4 29.2941 27.5642
      vertex 0 29.2941 27.5642
    endloop
  endfacet
  facet normal 0 0.751844 -0.659341
    outer loop
      vertex 4 31.4731 35.6964
      vertex 0 32.4218 36.7782
      vertex 4 32.4218 36.7782
    endloop
  endfacet
  facet normal 0 0.751844 -0.659341
    outer loop
      vertex 0 32.4218 36.7782
      vertex 4 31.4731 35.6964
      vertex 0 31.4731 35.6964
    endloop
  endfacet
  facet normal 0 -0.442286 0.896874
    outer loop
      vertex 0 45.7 19.4737
      vertex 4 44.4095 18.8373
      vertex 4 45.7 19.4737
    endloop
  endfacet
  facet normal 0 -0.442286 0.896874
    outer loop
      vertex 4 44.4095 18.8373
      vertex 0 45.7 19.4737
      vertex 0 44.4095 18.8373
    endloop
  endfacet
  facet normal -0 0.0653981 0.997859
    outer loop
      vertex 0 40.2 18
      vertex 4 38.7642 18.0941
      vertex 4 40.2 18
    endloop
  endfacet
  facet normal 0 0.0653981 0.997859
    outer loop
      vertex 4 38.7642 18.0941
      vertex 0 40.2 18
      vertex 0 38.7642 18.0941
    endloop
  endfacet
  facet normal 0 -0.659341 0.751844
    outer loop
      vertex 0 47.9782 21.2218
      vertex 4 46.8964 20.2731
      vertex 4 47.9782 21.2218
    endloop
  endfacet
  facet normal 0 -0.659341 0.751844
    outer loop
      vertex 4 46.8964 20.2731
      vertex 0 47.9782 21.2218
      vertex 0 46.8964 20.2731
    endloop
  endfacet
  facet normal -0 0.659341 0.751844
    outer loop
      vertex 0 33.5036 20.2731
      vertex 4 32.4218 21.2218
      vertex 4 33.5036 20.2731
    endloop
  endfacet
  facet normal 0 0.659341 0.751844
    outer loop
      vertex 4 32.4218 21.2218
      vertex 0 33.5036 20.2731
      vertex 0 32.4218 21.2218
    endloop
  endfacet
  facet normal 0 0.997859 -0.0653981
    outer loop
      vertex 4 29.2 29
      vertex 0 29.2941 30.4358
      vertex 4 29.2941 30.4358
    endloop
  endfacet
  facet normal 0 0.997859 -0.0653981
    outer loop
      vertex 0 29.2941 30.4358
      vertex 4 29.2 29
      vertex 0 29.2 29
    endloop
  endfacet
  facet normal 0 -0.751844 0.659341
    outer loop
      vertex 0 47.9782 21.2218
      vertex 4 48.9269 22.3036
      vertex 0 48.9269 22.3036
    endloop
  endfacet
  facet normal 0 -0.751844 0.659341
    outer loop
      vertex 4 48.9269 22.3036
      vertex 0 47.9782 21.2218
      vertex 4 47.9782 21.2218
    endloop
  endfacet
  facet normal 0 -0.896874 0.442286
    outer loop
      vertex 0 49.7263 23.5
      vertex 4 50.3627 24.7905
      vertex 0 50.3627 24.7905
    endloop
  endfacet
  facet normal 0 -0.896874 0.442286
    outer loop
      vertex 4 50.3627 24.7905
      vertex 0 49.7263 23.5
      vertex 4 49.7263 23.5
    endloop
  endfacet
  facet normal -0 0.321435 0.946931
    outer loop
      vertex 0 37.353 18.3748
      vertex 4 35.9905 18.8373
      vertex 4 37.353 18.3748
    endloop
  endfacet
  facet normal 0 0.321435 0.946931
    outer loop
      vertex 4 35.9905 18.8373
      vertex 0 37.353 18.3748
      vertex 0 35.9905 18.8373
    endloop
  endfacet
  facet normal 0 0.980786 0.195087
    outer loop
      vertex 4 29.5748 26.153
      vertex 0 29.2941 27.5642
      vertex 4 29.2941 27.5642
    endloop
  endfacet
  facet normal 0 0.980786 0.195087
    outer loop
      vertex 0 29.2941 27.5642
      vertex 4 29.5748 26.153
      vertex 0 29.5748 26.153
    endloop
  endfacet
  facet normal 0 -0.659341 -0.751844
    outer loop
      vertex 0 46.8964 37.7269
      vertex 4 47.9782 36.7782
      vertex 4 46.8964 37.7269
    endloop
  endfacet
  facet normal -0 -0.659341 -0.751844
    outer loop
      vertex 4 47.9782 36.7782
      vertex 0 46.8964 37.7269
      vertex 0 47.9782 36.7782
    endloop
  endfacet
  facet normal 0 0.442286 -0.896874
    outer loop
      vertex 0 34.7 38.5263
      vertex 4 35.9905 39.1627
      vertex 4 34.7 38.5263
    endloop
  endfacet
  facet normal 0 0.442286 -0.896874
    outer loop
      vertex 4 35.9905 39.1627
      vertex 0 34.7 38.5263
      vertex 0 35.9905 39.1627
    endloop
  endfacet
  facet normal 0 -0.831472 -0.555566
    outer loop
      vertex 0 49.7263 34.5
      vertex 4 48.9269 35.6964
      vertex 0 48.9269 35.6964
    endloop
  endfacet
  facet normal 0 -0.831472 -0.555566
    outer loop
      vertex 4 48.9269 35.6964
      vertex 0 49.7263 34.5
      vertex 4 49.7263 34.5
    endloop
  endfacet
  facet normal -0 0.555566 0.831472
    outer loop
      vertex 0 34.7 19.4737
      vertex 4 33.5036 20.2731
      vertex 4 34.7 19.4737
    endloop
  endfacet
  facet normal 0 0.555566 0.831472
    outer loop
      vertex 4 33.5036 20.2731
      vertex 0 34.7 19.4737
      vertex 0 33.5036 20.2731
    endloop
  endfacet
  facet normal 0 -0.997859 0.0653981
    outer loop
      vertex 0 51.1059 27.5642
      vertex 4 51.2 29
      vertex 0 51.2 29
    endloop
  endfacet
  facet normal 0 -0.997859 0.0653981
    outer loop
      vertex 4 51.2 29
      vertex 0 51.1059 27.5642
      vertex 4 51.1059 27.5642
    endloop
  endfacet
  facet normal 0 -0.980786 0.195087
    outer loop
      vertex 0 50.8252 26.153
      vertex 4 51.1059 27.5642
      vertex 0 51.1059 27.5642
    endloop
  endfacet
  facet normal 0 -0.980786 0.195087
    outer loop
      vertex 4 51.1059 27.5642
      vertex 0 50.8252 26.153
      vertex 4 50.8252 26.153
    endloop
  endfacet
  facet normal 0 -0.555566 -0.831472
    outer loop
      vertex 0 45.7 38.5263
      vertex 4 46.8964 37.7269
      vertex 4 45.7 38.5263
    endloop
  endfacet
  facet normal -0 -0.555566 -0.831472
    outer loop
      vertex 4 46.8964 37.7269
      vertex 0 45.7 38.5263
      vertex 0 46.8964 37.7269
    endloop
  endfacet
  facet normal 0 0.946931 -0.321435
    outer loop
      vertex 4 29.5748 31.847
      vertex 0 30.0373 33.2095
      vertex 4 30.0373 33.2095
    endloop
  endfacet
  facet normal 0 0.946931 -0.321435
    outer loop
      vertex 0 30.0373 33.2095
      vertex 4 29.5748 31.847
      vertex 0 29.5748 31.847
    endloop
  endfacet
  facet normal 0 -0.980786 -0.195087
    outer loop
      vertex 0 51.1059 30.4358
      vertex 4 50.8252 31.847
      vertex 0 50.8252 31.847
    endloop
  endfacet
  facet normal 0 -0.980786 -0.195087
    outer loop
      vertex 4 50.8252 31.847
      vertex 0 51.1059 30.4358
      vertex 4 51.1059 30.4358
    endloop
  endfacet
  facet normal 0 -0.321435 0.946931
    outer loop
      vertex 0 44.4095 18.8373
      vertex 4 43.047 18.3748
      vertex 4 44.4095 18.8373
    endloop
  endfacet
  facet normal 0 -0.321435 0.946931
    outer loop
      vertex 4 43.047 18.3748
      vertex 0 44.4095 18.8373
      vertex 0 43.047 18.3748
    endloop
  endfacet
  facet normal 0 -0.195087 -0.980786
    outer loop
      vertex 0 41.6358 39.9059
      vertex 4 43.047 39.6252
      vertex 4 41.6358 39.9059
    endloop
  endfacet
  facet normal -0 -0.195087 -0.980786
    outer loop
      vertex 4 43.047 39.6252
      vertex 0 41.6358 39.9059
      vertex 0 43.047 39.6252
    endloop
  endfacet
  facet normal 0 -0.997859 -0.0653981
    outer loop
      vertex 0 51.2 29
      vertex 4 51.1059 30.4358
      vertex 0 51.1059 30.4358
    endloop
  endfacet
  facet normal 0 -0.997859 -0.0653981
    outer loop
      vertex 4 51.1059 30.4358
      vertex 0 51.2 29
      vertex 4 51.2 29
    endloop
  endfacet
  facet normal 0 -0.442286 -0.896874
    outer loop
      vertex 0 44.4095 39.1627
      vertex 4 45.7 38.5263
      vertex 4 44.4095 39.1627
    endloop
  endfacet
  facet normal -0 -0.442286 -0.896874
    outer loop
      vertex 4 45.7 38.5263
      vertex 0 44.4095 39.1627
      vertex 0 45.7 38.5263
    endloop
  endfacet
  facet normal 0 0.0653981 -0.997859
    outer loop
      vertex 0 38.7642 39.9059
      vertex 4 40.2 40
      vertex 4 38.7642 39.9059
    endloop
  endfacet
  facet normal 0 0.0653981 -0.997859
    outer loop
      vertex 4 40.2 40
      vertex 0 38.7642 39.9059
      vertex 0 40.2 40
    endloop
  endfacet
  facet normal 0 0.659341 -0.751844
    outer loop
      vertex 0 32.4218 36.7782
      vertex 4 33.5036 37.7269
      vertex 4 32.4218 36.7782
    endloop
  endfacet
  facet normal 0 0.659341 -0.751844
    outer loop
      vertex 4 33.5036 37.7269
      vertex 0 32.4218 36.7782
      vertex 0 33.5036 37.7269
    endloop
  endfacet
  facet normal 0 0.980786 -0.195087
    outer loop
      vertex 4 29.2941 30.4358
      vertex 0 29.5748 31.847
      vertex 4 29.5748 31.847
    endloop
  endfacet
  facet normal 0 0.980786 -0.195087
    outer loop
      vertex 0 29.5748 31.847
      vertex 4 29.2941 30.4358
      vertex 0 29.2941 30.4358
    endloop
  endfacet
  facet normal 0 0.831472 -0.555566
    outer loop
      vertex 4 30.6737 34.5
      vertex 0 31.4731 35.6964
      vertex 4 31.4731 35.6964
    endloop
  endfacet
  facet normal 0 0.831472 -0.555566
    outer loop
      vertex 0 31.4731 35.6964
      vertex 4 30.6737 34.5
      vertex 0 30.6737 34.5
    endloop
  endfacet
  facet normal -0.367379 0.930071 0
    outer loop
      vertex 165.8 1.59 32.3
      vertex 163.8 0.799999 26.7
      vertex 163.8 0.799999 31.3
    endloop
  endfacet
  facet normal -0.367379 0.930071 0
    outer loop
      vertex 163.8 0.799999 26.7
      vertex 165.8 1.59 32.3
      vertex 165.8 1.59 25.7
    endloop
  endfacet
  facet normal 1 -0 0
    outer loop
      vertex 160.2 1.59 32.3
      vertex 160.2 1.6 25.7
      vertex 160.2 1.6 32.3
    endloop
  endfacet
  facet normal 1 0 0
    outer loop
      vertex 160.2 1.6 25.7
      vertex 160.2 1.59 32.3
      vertex 160.2 1.59 25.7
    endloop
  endfacet
  facet normal -1 0 0
    outer loop
      vertex 165.8 1.59 25.7
      vertex 165.8 1.6 32.3
      vertex 165.8 1.6 25.7
    endloop
  endfacet
  facet normal -1 -0 0
    outer loop
      vertex 165.8 1.6 32.3
      vertex 165.8 1.59 25.7
      vertex 165.8 1.59 32.3
    endloop
  endfacet
  facet normal 0.367379 0.930071 -0
    outer loop
      vertex 162.2 0.799999 26.7
      vertex 160.2 1.59 32.3
      vertex 162.2 0.799999 31.3
    endloop
  endfacet
  facet normal 0.367379 0.930071 0
    outer loop
      vertex 160.2 1.59 32.3
      vertex 162.2 0.799999 26.7
      vertex 160.2 1.59 25.7
    endloop
  endfacet
  facet normal -0 0 1
    outer loop
      vertex 160.2 1.6 25.7
      vertex 165.8 1.59 25.7
      vertex 165.8 1.6 25.7
    endloop
  endfacet
  facet normal 0 0 1
    outer loop
      vertex 165.8 1.59 25.7
      vertex 160.2 1.6 25.7
      vertex 160.2 1.59 25.7
    endloop
  endfacet
  facet normal 0 0.784681 -0.619899
    outer loop
      vertex 163.8 0.799999 31.3
      vertex 160.2 1.59 32.3
      vertex 165.8 1.59 32.3
    endloop
  endfacet
  facet normal 0 0.784681 -0.619899
    outer loop
      vertex 160.2 1.59 32.3
      vertex 163.8 0.799999 31.3
      vertex 162.2 0.799999 31.3
    endloop
  endfacet
  facet normal 0 1 -0
    outer loop
      vertex 163.8 0.799999 26.7
      vertex 162.2 0.799999 31.3
      vertex 163.8 0.799999 31.3
    endloop
  endfacet
  facet normal 0 1 0
    outer loop
      vertex 162.2 0.799999 31.3
      vertex 163.8 0.799999 26.7
      vertex 162.2 0.799999 26.7
    endloop
  endfacet
  facet normal 0 0.784681 0.619899
    outer loop
      vertex 165.8 1.59 25.7
      vertex 162.2 0.799999 26.7
      vertex 163.8 0.799999 26.7
    endloop
  endfacet
  facet normal 0 0.784681 0.619899
    outer loop
      vertex 162.2 0.799999 26.7
      vertex 165.8 1.59 25.7
      vertex 160.2 1.59 25.7
    endloop
  endfacet
  facet normal 0 0 -1
    outer loop
      vertex 160.2 1.59 32.3
      vertex 165.8 1.6 32.3
      vertex 165.8 1.59 32.3
    endloop
  endfacet
  facet normal -0 0 -1
    outer loop
      vertex 165.8 1.6 32.3
      vertex 160.2 1.59 32.3
      vertex 160.2 1.6 32.3
    endloop
  endfacet
  facet normal 0 -0.784682 -0.619899
    outer loop
      vertex 162.2 79.6 31.3
      vertex 165.8 78.81 32.3
      vertex 160.2 78.81 32.3
    endloop
  endfacet
  facet normal 0 -0.784682 -0.619899
    outer loop
      vertex 165.8 78.81 32.3
      vertex 162.2 79.6 31.3
      vertex 163.8 79.6 31.3
    endloop
  endfacet
  facet normal 1 -0 0
    outer loop
      vertex 160.2 78.8 32.3
      vertex 160.2 78.81 25.7
      vertex 160.2 78.81 32.3
    endloop
  endfacet
  facet normal 1 0 0
    outer loop
      vertex 160.2 78.81 25.7
      vertex 160.2 78.8 32.3
      vertex 160.2 78.8 25.7
    endloop
  endfacet
  facet normal 0 0 -1
    outer loop
      vertex 160.2 78.8 32.3
      vertex 165.8 78.81 32.3
      vertex 165.8 78.8 32.3
    endloop
  endfacet
  facet normal -0 0 -1
    outer loop
      vertex 165.8 78.81 32.3
      vertex 160.2 78.8 32.3
      vertex 160.2 78.81 32.3
    endloop
  endfacet
  facet normal 0 -1 0
    outer loop
      vertex 162.2 79.6 26.7
      vertex 163.8 79.6 31.3
      vertex 162.2 79.6 31.3
    endloop
  endfacet
  facet normal 0 -1 -0
    outer loop
      vertex 163.8 79.6 31.3
      vertex 162.2 79.6 26.7
      vertex 163.8 79.6 26.7
    endloop
  endfacet
  facet normal -0.367378 -0.930072 0
    outer loop
      vertex 163.8 79.6 26.7
      vertex 165.8 78.81 32.3
      vertex 163.8 79.6 31.3
    endloop
  endfacet
  facet normal -0.367378 -0.930072 -0
    outer loop
      vertex 165.8 78.81 32.3
      vertex 163.8 79.6 26.7
      vertex 165.8 78.81 25.7
    endloop
  endfacet
  facet normal -1 0 0
    outer loop
      vertex 165.8 78.8 25.7
      vertex 165.8 78.81 32.3
      vertex 165.8 78.81 25.7
    endloop
  endfacet
  facet normal -1 -0 0
    outer loop
      vertex 165.8 78.81 32.3
      vertex 165.8 78.8 25.7
      vertex 165.8 78.8 32.3
    endloop
  endfacet
  facet normal -0 0 1
    outer loop
      vertex 160.2 78.81 25.7
      vertex 165.8 78.8 25.7
      vertex 165.8 78.81 25.7
    endloop
  endfacet
  facet normal 0 0 1
    outer loop
      vertex 165.8 78.8 25.7
      vertex 160.2 78.81 25.7
      vertex 160.2 78.8 25.7
    endloop
  endfacet
  facet normal 0 -0.784682 0.619899
    outer loop
      vertex 160.2 78.81 25.7
      vertex 163.8 79.6 26.7
      vertex 162.2 79.6 26.7
    endloop
  endfacet
  facet normal 0 -0.784682 0.619899
    outer loop
      vertex 163.8 79.6 26.7
      vertex 160.2 78.81 25.7
      vertex 165.8 78.81 25.7
    endloop
  endfacet
  facet normal 0.367378 -0.930072 0
    outer loop
      vertex 160.2 78.81 32.3
      vertex 162.2 79.6 26.7
      vertex 162.2 79.6 31.3
    endloop
  endfacet
  facet normal 0.367378 -0.930072 0
    outer loop
      vertex 162.2 79.6 26.7
      vertex 160.2 78.81 32.3
      vertex 160.2 78.81 25.7
    endloop
  endfacet
  facet normal 0.236816 0.971554 -0
    outer loop
      vertex 169.2 1.2 25.7
      vertex 167.6 1.59 32.3
      vertex 169.2 1.2 32.3
    endloop
  endfacet
  facet normal 0.236816 0.971554 0
    outer loop
      vertex 167.6 1.59 32.3
      vertex 169.2 1.2 25.7
      vertex 167.6 1.59 25.7
    endloop
  endfacet
  facet normal 0 0 -1
    outer loop
      vertex 169.2 1.2 32.3
      vertex 171.1 1.6 32.3
      vertex 172.345 1.2 32.3
    endloop
  endfacet
  facet normal 0 0 -1
    outer loop
      vertex 167.6 1.6 32.3
      vertex 169.2 1.2 32.3
      vertex 167.6 1.59 32.3
    endloop
  endfacet
  facet normal 0 0 -1
    outer loop
      vertex 169.2 1.2 32.3
      vertex 167.6 1.6 32.3
      vertex 171.1 1.6 32.3
    endloop
  endfacet
  facet normal 0 1 -0
    outer loop
      vertex 172.345 1.2 25.7
      vertex 169.2 1.2 32.3
      vertex 172.345 1.2 32.3
    endloop
  endfacet
  facet normal 0 1 0
    outer loop
      vertex 169.2 1.2 32.3
      vertex 172.345 1.2 25.7
      vertex 169.2 1.2 25.7
    endloop
  endfacet
  facet normal 1 -0 0
    outer loop
      vertex 167.6 1.59 32.3
      vertex 167.6 1.6 25.7
      vertex 167.6 1.6 32.3
    endloop
  endfacet
  facet normal 1 0 0
    outer loop
      vertex 167.6 1.6 25.7
      vertex 167.6 1.59 32.3
      vertex 167.6 1.59 25.7
    endloop
  endfacet
  facet normal 0 0 1
    outer loop
      vertex 171.1 1.6 25.7
      vertex 169.2 1.2 25.7
      vertex 172.345 1.2 25.7
    endloop
  endfacet
  facet normal -0 0 1
    outer loop
      vertex 167.6 1.6 25.7
      vertex 169.2 1.2 25.7
      vertex 171.1 1.6 25.7
    endloop
  endfacet
  facet normal 0 0 1
    outer loop
      vertex 169.2 1.2 25.7
      vertex 167.6 1.6 25.7
      vertex 167.6 1.59 25.7
    endloop
  endfacet
  facet normal 0 0 -1
    outer loop
      vertex 171.1 78.8 32.3
      vertex 169.2 79.2 32.3
      vertex 172.345 79.2 32.3
    endloop
  endfacet
  facet normal 0 0 -1
    outer loop
      vertex 167.6 78.8 32.3
      vertex 169.2 79.2 32.3
      vertex 171.1 78.8 32.3
    endloop
  endfacet
  facet normal 0 0 -1
    outer loop
      vertex 169.2 79.2 32.3
      vertex 167.6 78.8 32.3
      vertex 167.6 78.81 32.3
    endloop
  endfacet
  facet normal -0 0 1
    outer loop
      vertex 169.2 79.2 25.7
      vertex 171.1 78.8 25.7
      vertex 172.345 79.2 25.7
    endloop
  endfacet
  facet normal 0 0 1
    outer loop
      vertex 167.6 78.8 25.7
      vertex 169.2 79.2 25.7
      vertex 167.6 78.81 25.7
    endloop
  endfacet
  facet normal 0 0 1
    outer loop
      vertex 169.2 79.2 25.7
      vertex 167.6 78.8 25.7
      vertex 171.1 78.8 25.7
    endloop
  endfacet
  facet normal 0.236816 -0.971554 0
    outer loop
      vertex 167.6 78.81 25.7
      vertex 169.2 79.2 32.3
      vertex 167.6 78.81 32.3
    endloop
  endfacet
  facet normal 0.236816 -0.971554 0
    outer loop
      vertex 169.2 79.2 32.3
      vertex 167.6 78.81 25.7
      vertex 169.2 79.2 25.7
    endloop
  endfacet
  facet normal 1 -0 0
    outer loop
      vertex 167.6 78.8 32.3
      vertex 167.6 78.81 25.7
      vertex 167.6 78.81 32.3
    endloop
  endfacet
  facet normal 1 0 0
    outer loop
      vertex 167.6 78.81 25.7
      vertex 167.6 78.8 32.3
      vertex 167.6 78.8 25.7
    endloop
  endfacet
  facet normal 0 -1 0
    outer loop
      vertex 169.2 79.2 25.7
      vertex 172.345 79.2 32.3
      vertex 169.2 79.2 32.3
    endloop
  endfacet
  facet normal 0 -1 -0
    outer loop
      vertex 172.345 79.2 32.3
      vertex 169.2 79.2 25.7
      vertex 172.345 79.2 25.7
    endloop
  endfacet
endsolid OpenSCAD_Model
