solid OpenSCAD_Model
  facet normal -1 0 0
    outer loop
      vertex 167.6 1.6 1.6
      vertex 167.6 74.6 53.8
      vertex 167.6 74.6 1.6
    endloop
  endfacet
  facet normal -1 -0 0
    outer loop
      vertex 167.6 74.6 53.8
      vertex 167.6 1.6 1.6
      vertex 167.6 1.6 53.8
    endloop
  endfacet
  facet normal 0 0 1
    outer loop
      vertex 167.6 74.6 1.6
      vertex 126.6 38.1 1.6
      vertex 167.6 1.6 1.6
    endloop
  endfacet
  facet normal 0 0 1
    outer loop
      vertex 167.6 74.6 1.6
      vertex 126.532 39.1442 1.6
      vertex 126.6 38.1 1.6
    endloop
  endfacet
  facet normal 0 0 1
    outer loop
      vertex 167.6 74.6 1.6
      vertex 126.327 40.1706 1.6
      vertex 126.532 39.1442 1.6
    endloop
  endfacet
  facet normal 0 0 1
    outer loop
      vertex 167.6 74.6 1.6
      vertex 125.991 41.1615 1.6
      vertex 126.327 40.1706 1.6
    endloop
  endfacet
  facet normal 0 0 1
    outer loop
      vertex 167.6 74.6 1.6
      vertex 125.528 42.1 1.6
      vertex 125.991 41.1615 1.6
    endloop
  endfacet
  facet normal 0 0 1
    outer loop
      vertex 167.6 74.6 1.6
      vertex 124.947 42.9701 1.6
      vertex 125.528 42.1 1.6
    endloop
  endfacet
  facet normal 0 0 1
    outer loop
      vertex 167.6 74.6 1.6
      vertex 124.257 43.7569 1.6
      vertex 124.947 42.9701 1.6
    endloop
  endfacet
  facet normal 0 0 1
    outer loop
      vertex 167.6 74.6 1.6
      vertex 123.47 44.4468 1.6
      vertex 124.257 43.7569 1.6
    endloop
  endfacet
  facet normal 0 0 1
    outer loop
      vertex 167.6 74.6 1.6
      vertex 122.6 45.0282 1.6
      vertex 123.47 44.4468 1.6
    endloop
  endfacet
  facet normal 0 0 1
    outer loop
      vertex 167.6 74.6 1.6
      vertex 121.661 45.491 1.6
      vertex 122.6 45.0282 1.6
    endloop
  endfacet
  facet normal 0 0 1
    outer loop
      vertex 167.6 74.6 1.6
      vertex 120.671 45.8274 1.6
      vertex 121.661 45.491 1.6
    endloop
  endfacet
  facet normal 0 0 1
    outer loop
      vertex 167.6 74.6 1.6
      vertex 119.644 46.0316 1.6
      vertex 120.671 45.8274 1.6
    endloop
  endfacet
  facet normal 0 0 1
    outer loop
      vertex 167.6 74.6 1.6
      vertex 118.6 46.1 1.6
      vertex 119.644 46.0316 1.6
    endloop
  endfacet
  facet normal -0 0 1
    outer loop
      vertex 69.6 74.6 1.6
      vertex 118.6 46.1 1.6
      vertex 167.6 74.6 1.6
    endloop
  endfacet
  facet normal 0 0 1
    outer loop
      vertex 118.6 46.1 1.6
      vertex 69.6 74.6 1.6
      vertex 117.556 46.0316 1.6
    endloop
  endfacet
  facet normal 0 0 1
    outer loop
      vertex 117.556 46.0316 1.6
      vertex 69.6 74.6 1.6
      vertex 116.529 45.8274 1.6
    endloop
  endfacet
  facet normal 0 0 1
    outer loop
      vertex 116.529 45.8274 1.6
      vertex 69.6 74.6 1.6
      vertex 115.539 45.491 1.6
    endloop
  endfacet
  facet normal 0 0 1
    outer loop
      vertex 110.668 39.1442 1.6
      vertex 69.6 74.6 1.6
      vertex 110.6 38.1 1.6
    endloop
  endfacet
  facet normal 0 0 1
    outer loop
      vertex 110.873 40.1706 1.6
      vertex 69.6 74.6 1.6
      vertex 110.668 39.1442 1.6
    endloop
  endfacet
  facet normal 0 0 1
    outer loop
      vertex 111.209 41.1615 1.6
      vertex 69.6 74.6 1.6
      vertex 110.873 40.1706 1.6
    endloop
  endfacet
  facet normal 0 0 1
    outer loop
      vertex 111.672 42.1 1.6
      vertex 69.6 74.6 1.6
      vertex 111.209 41.1615 1.6
    endloop
  endfacet
  facet normal 0 0 1
    outer loop
      vertex 112.253 42.9701 1.6
      vertex 69.6 74.6 1.6
      vertex 111.672 42.1 1.6
    endloop
  endfacet
  facet normal 0 0 1
    outer loop
      vertex 112.943 43.7569 1.6
      vertex 69.6 74.6 1.6
      vertex 112.253 42.9701 1.6
    endloop
  endfacet
  facet normal 0 0 1
    outer loop
      vertex 113.73 44.4468 1.6
      vertex 69.6 74.6 1.6
      vertex 112.943 43.7569 1.6
    endloop
  endfacet
  facet normal 0 0 1
    outer loop
      vertex 114.6 45.0282 1.6
      vertex 69.6 74.6 1.6
      vertex 113.73 44.4468 1.6
    endloop
  endfacet
  facet normal 0 0 1
    outer loop
      vertex 115.539 45.491 1.6
      vertex 69.6 74.6 1.6
      vertex 114.6 45.0282 1.6
    endloop
  endfacet
  facet normal -0 0 1
    outer loop
      vertex 126.532 37.0558 1.6
      vertex 167.6 1.6 1.6
      vertex 126.6 38.1 1.6
    endloop
  endfacet
  facet normal -0 0 1
    outer loop
      vertex 126.327 36.0294 1.6
      vertex 167.6 1.6 1.6
      vertex 126.532 37.0558 1.6
    endloop
  endfacet
  facet normal -0 0 1
    outer loop
      vertex 125.991 35.0385 1.6
      vertex 167.6 1.6 1.6
      vertex 126.327 36.0294 1.6
    endloop
  endfacet
  facet normal -0 0 1
    outer loop
      vertex 125.528 34.1 1.6
      vertex 167.6 1.6 1.6
      vertex 125.991 35.0385 1.6
    endloop
  endfacet
  facet normal -0 0 1
    outer loop
      vertex 124.947 33.2299 1.6
      vertex 167.6 1.6 1.6
      vertex 125.528 34.1 1.6
    endloop
  endfacet
  facet normal -0 0 1
    outer loop
      vertex 124.257 32.4431 1.6
      vertex 167.6 1.6 1.6
      vertex 124.947 33.2299 1.6
    endloop
  endfacet
  facet normal -0 0 1
    outer loop
      vertex 123.47 31.7532 1.6
      vertex 167.6 1.6 1.6
      vertex 124.257 32.4431 1.6
    endloop
  endfacet
  facet normal -0 0 1
    outer loop
      vertex 122.6 31.1718 1.6
      vertex 167.6 1.6 1.6
      vertex 123.47 31.7532 1.6
    endloop
  endfacet
  facet normal -0 0 1
    outer loop
      vertex 121.661 30.709 1.6
      vertex 167.6 1.6 1.6
      vertex 122.6 31.1718 1.6
    endloop
  endfacet
  facet normal -0 0 1
    outer loop
      vertex 120.671 30.3726 1.6
      vertex 167.6 1.6 1.6
      vertex 121.661 30.709 1.6
    endloop
  endfacet
  facet normal -0 0 1
    outer loop
      vertex 119.644 30.1684 1.6
      vertex 167.6 1.6 1.6
      vertex 120.671 30.3726 1.6
    endloop
  endfacet
  facet normal -0 0 1
    outer loop
      vertex 118.6 30.1 1.6
      vertex 167.6 1.6 1.6
      vertex 119.644 30.1684 1.6
    endloop
  endfacet
  facet normal 0 0 1
    outer loop
      vertex 69.6 1.6 1.6
      vertex 118.6 30.1 1.6
      vertex 117.556 30.1684 1.6
    endloop
  endfacet
  facet normal 0 0 1
    outer loop
      vertex 69.6 1.6 1.6
      vertex 117.556 30.1684 1.6
      vertex 116.529 30.3726 1.6
    endloop
  endfacet
  facet normal 0 0 1
    outer loop
      vertex 69.6 1.6 1.6
      vertex 116.529 30.3726 1.6
      vertex 115.539 30.709 1.6
    endloop
  endfacet
  facet normal 0 0 1
    outer loop
      vertex 69.6 1.6 1.6
      vertex 115.539 30.709 1.6
      vertex 114.6 31.1718 1.6
    endloop
  endfacet
  facet normal 0 0 1
    outer loop
      vertex 69.6 1.6 1.6
      vertex 110.6 38.1 1.6
      vertex 69.6 74.6 1.6
    endloop
  endfacet
  facet normal 0 0 1
    outer loop
      vertex 110.6 38.1 1.6
      vertex 69.6 1.6 1.6
      vertex 110.668 37.0558 1.6
    endloop
  endfacet
  facet normal 0 0 1
    outer loop
      vertex 110.668 37.0558 1.6
      vertex 69.6 1.6 1.6
      vertex 110.873 36.0294 1.6
    endloop
  endfacet
  facet normal 0 0 1
    outer loop
      vertex 110.873 36.0294 1.6
      vertex 69.6 1.6 1.6
      vertex 111.209 35.0385 1.6
    endloop
  endfacet
  facet normal 0 0 1
    outer loop
      vertex 111.209 35.0385 1.6
      vertex 69.6 1.6 1.6
      vertex 111.672 34.1 1.6
    endloop
  endfacet
  facet normal 0 0 1
    outer loop
      vertex 111.672 34.1 1.6
      vertex 69.6 1.6 1.6
      vertex 112.253 33.2299 1.6
    endloop
  endfacet
  facet normal 0 0 1
    outer loop
      vertex 118.6 30.1 1.6
      vertex 69.6 1.6 1.6
      vertex 167.6 1.6 1.6
    endloop
  endfacet
  facet normal 0 0 1
    outer loop
      vertex 113.73 31.7532 1.6
      vertex 69.6 1.6 1.6
      vertex 114.6 31.1718 1.6
    endloop
  endfacet
  facet normal 0 0 1
    outer loop
      vertex 112.943 32.4431 1.6
      vertex 69.6 1.6 1.6
      vertex 113.73 31.7532 1.6
    endloop
  endfacet
  facet normal 0 0 1
    outer loop
      vertex 112.253 33.2299 1.6
      vertex 69.6 1.6 1.6
      vertex 112.943 32.4431 1.6
    endloop
  endfacet
  facet normal 1 -0 0
    outer loop
      vertex 69.6 1.6 53.8
      vertex 69.6 74.6 1.6
      vertex 69.6 74.6 53.8
    endloop
  endfacet
  facet normal 1 0 0
    outer loop
      vertex 69.6 74.6 1.6
      vertex 69.6 1.6 53.8
      vertex 69.6 1.6 1.6
    endloop
  endfacet
  facet normal 0 -1 0
    outer loop
      vertex 69.6 74.6 1.6
      vertex 167.6 74.6 53.8
      vertex 69.6 74.6 53.8
    endloop
  endfacet
  facet normal 0 -1 -0
    outer loop
      vertex 167.6 74.6 53.8
      vertex 69.6 74.6 1.6
      vertex 167.6 74.6 1.6
    endloop
  endfacet
  facet normal 0 1 -0
    outer loop
      vertex 167.6 1.6 1.6
      vertex 69.6 1.6 53.8
      vertex 167.6 1.6 53.8
    endloop
  endfacet
  facet normal 0 1 0
    outer loop
      vertex 69.6 1.6 53.8
      vertex 167.6 1.6 1.6
      vertex 69.6 1.6 1.6
    endloop
  endfacet
  facet normal -0.980632 -0.195859 0
    outer loop
      vertex 126.532 39.1442 0
      vertex 126.327 40.1706 1.6
      vertex 126.327 40.1706 0
    endloop
  endfacet
  facet normal -0.980632 -0.195859 0
    outer loop
      vertex 126.327 40.1706 1.6
      vertex 126.532 39.1442 0
      vertex 126.532 39.1442 1.6
    endloop
  endfacet
  facet normal -0.997886 -0.064984 0
    outer loop
      vertex 126.6 38.1 0
      vertex 126.532 39.1442 1.6
      vertex 126.532 39.1442 0
    endloop
  endfacet
  facet normal -0.997886 -0.064984 0
    outer loop
      vertex 126.532 39.1442 1.6
      vertex 126.6 38.1 0
      vertex 126.6 38.1 1.6
    endloop
  endfacet
  facet normal -0.321731 0.946831 0
    outer loop
      vertex 121.661 30.709 0
      vertex 120.671 30.3726 1.6
      vertex 121.661 30.709 1.6
    endloop
  endfacet
  facet normal -0.321731 0.946831 0
    outer loop
      vertex 120.671 30.3726 1.6
      vertex 121.661 30.709 0
      vertex 120.671 30.3726 0
    endloop
  endfacet
  facet normal -0.831638 -0.555318 0
    outer loop
      vertex 125.528 42.1 0
      vertex 124.947 42.9701 1.6
      vertex 124.947 42.9701 0
    endloop
  endfacet
  facet normal -0.831638 -0.555318 0
    outer loop
      vertex 124.947 42.9701 1.6
      vertex 125.528 42.1 0
      vertex 125.528 42.1 1.6
    endloop
  endfacet
  facet normal 0.896803 -0.442429 0
    outer loop
      vertex 111.209 41.1615 1.6
      vertex 111.672 42.1 0
      vertex 111.672 42.1 1.6
    endloop
  endfacet
  facet normal 0.896803 -0.442429 0
    outer loop
      vertex 111.672 42.1 0
      vertex 111.209 41.1615 1.6
      vertex 111.209 41.1615 0
    endloop
  endfacet
  facet normal 0.555626 -0.831432 0
    outer loop
      vertex 113.73 44.4468 0
      vertex 114.6 45.0282 1.6
      vertex 113.73 44.4468 1.6
    endloop
  endfacet
  facet normal 0.555626 -0.831432 0
    outer loop
      vertex 114.6 45.0282 1.6
      vertex 113.73 44.4468 0
      vertex 114.6 45.0282 0
    endloop
  endfacet
  facet normal 0.659194 -0.751973 0
    outer loop
      vertex 112.943 43.7569 0
      vertex 113.73 44.4468 1.6
      vertex 112.943 43.7569 1.6
    endloop
  endfacet
  facet normal 0.659194 -0.751973 0
    outer loop
      vertex 113.73 44.4468 1.6
      vertex 112.943 43.7569 0
      vertex 113.73 44.4468 0
    endloop
  endfacet
  facet normal 0.751842 -0.659343 0
    outer loop
      vertex 112.253 42.9701 1.6
      vertex 112.943 43.7569 0
      vertex 112.943 43.7569 1.6
    endloop
  endfacet
  facet normal 0.751842 -0.659343 0
    outer loop
      vertex 112.943 43.7569 0
      vertex 112.253 42.9701 1.6
      vertex 112.253 42.9701 0
    endloop
  endfacet
  facet normal -0.947036 0.321126 0
    outer loop
      vertex 125.991 35.0385 0
      vertex 126.327 36.0294 1.6
      vertex 126.327 36.0294 0
    endloop
  endfacet
  facet normal -0.947036 0.321126 0
    outer loop
      vertex 126.327 36.0294 1.6
      vertex 125.991 35.0385 0
      vertex 125.991 35.0385 1.6
    endloop
  endfacet
  facet normal 0.997886 -0.064984 0
    outer loop
      vertex 110.6 38.1 1.6
      vertex 110.668 39.1442 0
      vertex 110.668 39.1442 1.6
    endloop
  endfacet
  facet normal 0.997886 -0.064984 0
    outer loop
      vertex 110.668 39.1442 0
      vertex 110.6 38.1 1.6
      vertex 110.6 38.1 0
    endloop
  endfacet
  facet normal -0.555626 -0.831432 0
    outer loop
      vertex 122.6 45.0282 0
      vertex 123.47 44.4468 1.6
      vertex 122.6 45.0282 1.6
    endloop
  endfacet
  facet normal -0.555626 -0.831432 -0
    outer loop
      vertex 123.47 44.4468 1.6
      vertex 122.6 45.0282 0
      vertex 123.47 44.4468 0
    endloop
  endfacet
  facet normal 0.321731 0.946831 -0
    outer loop
      vertex 116.529 30.3726 0
      vertex 115.539 30.709 1.6
      vertex 116.529 30.3726 1.6
    endloop
  endfacet
  facet normal 0.321731 0.946831 0
    outer loop
      vertex 115.539 30.709 1.6
      vertex 116.529 30.3726 0
      vertex 115.539 30.709 0
    endloop
  endfacet
  facet normal -0.195014 0.9808 0
    outer loop
      vertex 120.671 30.3726 0
      vertex 119.644 30.1684 1.6
      vertex 120.671 30.3726 1.6
    endloop
  endfacet
  facet normal -0.195014 0.9808 0
    outer loop
      vertex 119.644 30.1684 1.6
      vertex 120.671 30.3726 0
      vertex 119.644 30.1684 0
    endloop
  endfacet
  facet normal 0.321731 -0.946831 0
    outer loop
      vertex 115.539 45.491 0
      vertex 116.529 45.8274 1.6
      vertex 115.539 45.491 1.6
    endloop
  endfacet
  facet normal 0.321731 -0.946831 0
    outer loop
      vertex 116.529 45.8274 1.6
      vertex 115.539 45.491 0
      vertex 116.529 45.8274 0
    endloop
  endfacet
  facet normal 0.831638 0.555318 0
    outer loop
      vertex 112.253 33.2299 1.6
      vertex 111.672 34.1 0
      vertex 111.672 34.1 1.6
    endloop
  endfacet
  facet normal 0.831638 0.555318 0
    outer loop
      vertex 111.672 34.1 0
      vertex 112.253 33.2299 1.6
      vertex 112.253 33.2299 0
    endloop
  endfacet
  facet normal -0.555626 0.831432 0
    outer loop
      vertex 123.47 31.7532 0
      vertex 122.6 31.1718 1.6
      vertex 123.47 31.7532 1.6
    endloop
  endfacet
  facet normal -0.555626 0.831432 0
    outer loop
      vertex 122.6 31.1718 1.6
      vertex 123.47 31.7532 0
      vertex 122.6 31.1718 0
    endloop
  endfacet
  facet normal 0.947036 -0.321126 0
    outer loop
      vertex 110.873 40.1706 1.6
      vertex 111.209 41.1615 0
      vertex 111.209 41.1615 1.6
    endloop
  endfacet
  facet normal 0.947036 -0.321126 0
    outer loop
      vertex 111.209 41.1615 0
      vertex 110.873 40.1706 1.6
      vertex 110.873 40.1706 0
    endloop
  endfacet
  facet normal -0.321731 -0.946831 0
    outer loop
      vertex 120.671 45.8274 0
      vertex 121.661 45.491 1.6
      vertex 120.671 45.8274 1.6
    endloop
  endfacet
  facet normal -0.321731 -0.946831 -0
    outer loop
      vertex 121.661 45.491 1.6
      vertex 120.671 45.8274 0
      vertex 121.661 45.491 0
    endloop
  endfacet
  facet normal -0.0653771 -0.997861 0
    outer loop
      vertex 118.6 46.1 0
      vertex 119.644 46.0316 1.6
      vertex 118.6 46.1 1.6
    endloop
  endfacet
  facet normal -0.0653771 -0.997861 -0
    outer loop
      vertex 119.644 46.0316 1.6
      vertex 118.6 46.1 0
      vertex 119.644 46.0316 0
    endloop
  endfacet
  facet normal 0.442086 -0.896973 0
    outer loop
      vertex 114.6 45.0282 0
      vertex 115.539 45.491 1.6
      vertex 114.6 45.0282 1.6
    endloop
  endfacet
  facet normal 0.442086 -0.896973 0
    outer loop
      vertex 115.539 45.491 1.6
      vertex 114.6 45.0282 0
      vertex 115.539 45.491 0
    endloop
  endfacet
  facet normal -0.831638 0.555318 0
    outer loop
      vertex 124.947 33.2299 0
      vertex 125.528 34.1 1.6
      vertex 125.528 34.1 0
    endloop
  endfacet
  facet normal -0.831638 0.555318 0
    outer loop
      vertex 125.528 34.1 1.6
      vertex 124.947 33.2299 0
      vertex 124.947 33.2299 1.6
    endloop
  endfacet
  facet normal 0.997886 0.064984 0
    outer loop
      vertex 110.668 37.0558 1.6
      vertex 110.6 38.1 0
      vertex 110.6 38.1 1.6
    endloop
  endfacet
  facet normal 0.997886 0.064984 0
    outer loop
      vertex 110.6 38.1 0
      vertex 110.668 37.0558 1.6
      vertex 110.668 37.0558 0
    endloop
  endfacet
  facet normal 0.947036 0.321126 0
    outer loop
      vertex 111.209 35.0385 1.6
      vertex 110.873 36.0294 0
      vertex 110.873 36.0294 1.6
    endloop
  endfacet
  facet normal 0.947036 0.321126 0
    outer loop
      vertex 110.873 36.0294 0
      vertex 111.209 35.0385 1.6
      vertex 111.209 35.0385 0
    endloop
  endfacet
  facet normal 0.659194 0.751973 -0
    outer loop
      vertex 113.73 31.7532 0
      vertex 112.943 32.4431 1.6
      vertex 113.73 31.7532 1.6
    endloop
  endfacet
  facet normal 0.659194 0.751973 0
    outer loop
      vertex 112.943 32.4431 1.6
      vertex 113.73 31.7532 0
      vertex 112.943 32.4431 0
    endloop
  endfacet
  facet normal -0.442086 -0.896973 0
    outer loop
      vertex 121.661 45.491 0
      vertex 122.6 45.0282 1.6
      vertex 121.661 45.491 1.6
    endloop
  endfacet
  facet normal -0.442086 -0.896973 -0
    outer loop
      vertex 122.6 45.0282 1.6
      vertex 121.661 45.491 0
      vertex 122.6 45.0282 0
    endloop
  endfacet
  facet normal 0.195014 -0.9808 0
    outer loop
      vertex 116.529 45.8274 0
      vertex 117.556 46.0316 1.6
      vertex 116.529 45.8274 1.6
    endloop
  endfacet
  facet normal 0.195014 -0.9808 0
    outer loop
      vertex 117.556 46.0316 1.6
      vertex 116.529 45.8274 0
      vertex 117.556 46.0316 0
    endloop
  endfacet
  facet normal -0.751842 -0.659343 0
    outer loop
      vertex 124.947 42.9701 0
      vertex 124.257 43.7569 1.6
      vertex 124.257 43.7569 0
    endloop
  endfacet
  facet normal -0.751842 -0.659343 0
    outer loop
      vertex 124.257 43.7569 1.6
      vertex 124.947 42.9701 0
      vertex 124.947 42.9701 1.6
    endloop
  endfacet
  facet normal -0.195014 -0.9808 0
    outer loop
      vertex 119.644 46.0316 0
      vertex 120.671 45.8274 1.6
      vertex 119.644 46.0316 1.6
    endloop
  endfacet
  facet normal -0.195014 -0.9808 -0
    outer loop
      vertex 120.671 45.8274 1.6
      vertex 119.644 46.0316 0
      vertex 120.671 45.8274 0
    endloop
  endfacet
  facet normal -0.751842 0.659343 0
    outer loop
      vertex 124.257 32.4431 0
      vertex 124.947 33.2299 1.6
      vertex 124.947 33.2299 0
    endloop
  endfacet
  facet normal -0.751842 0.659343 0
    outer loop
      vertex 124.947 33.2299 1.6
      vertex 124.257 32.4431 0
      vertex 124.257 32.4431 1.6
    endloop
  endfacet
  facet normal 0.442086 0.896973 -0
    outer loop
      vertex 115.539 30.709 0
      vertex 114.6 31.1718 1.6
      vertex 115.539 30.709 1.6
    endloop
  endfacet
  facet normal 0.442086 0.896973 0
    outer loop
      vertex 114.6 31.1718 1.6
      vertex 115.539 30.709 0
      vertex 114.6 31.1718 0
    endloop
  endfacet
  facet normal 0.0653771 -0.997861 0
    outer loop
      vertex 117.556 46.0316 0
      vertex 118.6 46.1 1.6
      vertex 117.556 46.0316 1.6
    endloop
  endfacet
  facet normal 0.0653771 -0.997861 0
    outer loop
      vertex 118.6 46.1 1.6
      vertex 117.556 46.0316 0
      vertex 118.6 46.1 0
    endloop
  endfacet
  facet normal 0.980632 -0.195859 0
    outer loop
      vertex 110.668 39.1442 1.6
      vertex 110.873 40.1706 0
      vertex 110.873 40.1706 1.6
    endloop
  endfacet
  facet normal 0.980632 -0.195859 0
    outer loop
      vertex 110.873 40.1706 0
      vertex 110.668 39.1442 1.6
      vertex 110.668 39.1442 0
    endloop
  endfacet
  facet normal -0.0653771 0.997861 0
    outer loop
      vertex 119.644 30.1684 0
      vertex 118.6 30.1 1.6
      vertex 119.644 30.1684 1.6
    endloop
  endfacet
  facet normal -0.0653771 0.997861 0
    outer loop
      vertex 118.6 30.1 1.6
      vertex 119.644 30.1684 0
      vertex 118.6 30.1 0
    endloop
  endfacet
  facet normal -0.442086 0.896973 0
    outer loop
      vertex 122.6 31.1718 0
      vertex 121.661 30.709 1.6
      vertex 122.6 31.1718 1.6
    endloop
  endfacet
  facet normal -0.442086 0.896973 0
    outer loop
      vertex 121.661 30.709 1.6
      vertex 122.6 31.1718 0
      vertex 121.661 30.709 0
    endloop
  endfacet
  facet normal -0.659194 0.751973 0
    outer loop
      vertex 124.257 32.4431 0
      vertex 123.47 31.7532 1.6
      vertex 124.257 32.4431 1.6
    endloop
  endfacet
  facet normal -0.659194 0.751973 0
    outer loop
      vertex 123.47 31.7532 1.6
      vertex 124.257 32.4431 0
      vertex 123.47 31.7532 0
    endloop
  endfacet
  facet normal 0.896803 0.442429 0
    outer loop
      vertex 111.672 34.1 1.6
      vertex 111.209 35.0385 0
      vertex 111.209 35.0385 1.6
    endloop
  endfacet
  facet normal 0.896803 0.442429 0
    outer loop
      vertex 111.209 35.0385 0
      vertex 111.672 34.1 1.6
      vertex 111.672 34.1 0
    endloop
  endfacet
  facet normal -0.896803 0.442429 0
    outer loop
      vertex 125.528 34.1 0
      vertex 125.991 35.0385 1.6
      vertex 125.991 35.0385 0
    endloop
  endfacet
  facet normal -0.896803 0.442429 0
    outer loop
      vertex 125.991 35.0385 1.6
      vertex 125.528 34.1 0
      vertex 125.528 34.1 1.6
    endloop
  endfacet
  facet normal -0.659194 -0.751973 0
    outer loop
      vertex 123.47 44.4468 0
      vertex 124.257 43.7569 1.6
      vertex 123.47 44.4468 1.6
    endloop
  endfacet
  facet normal -0.659194 -0.751973 -0
    outer loop
      vertex 124.257 43.7569 1.6
      vertex 123.47 44.4468 0
      vertex 124.257 43.7569 0
    endloop
  endfacet
  facet normal -0.997886 0.064984 0
    outer loop
      vertex 126.532 37.0558 0
      vertex 126.6 38.1 1.6
      vertex 126.6 38.1 0
    endloop
  endfacet
  facet normal -0.997886 0.064984 0
    outer loop
      vertex 126.6 38.1 1.6
      vertex 126.532 37.0558 0
      vertex 126.532 37.0558 1.6
    endloop
  endfacet
  facet normal 0.555626 0.831432 -0
    outer loop
      vertex 114.6 31.1718 0
      vertex 113.73 31.7532 1.6
      vertex 114.6 31.1718 1.6
    endloop
  endfacet
  facet normal 0.555626 0.831432 0
    outer loop
      vertex 113.73 31.7532 1.6
      vertex 114.6 31.1718 0
      vertex 113.73 31.7532 0
    endloop
  endfacet
  facet normal -0.896803 -0.442429 0
    outer loop
      vertex 125.991 41.1615 0
      vertex 125.528 42.1 1.6
      vertex 125.528 42.1 0
    endloop
  endfacet
  facet normal -0.896803 -0.442429 0
    outer loop
      vertex 125.528 42.1 1.6
      vertex 125.991 41.1615 0
      vertex 125.991 41.1615 1.6
    endloop
  endfacet
  facet normal -0.980632 0.195859 0
    outer loop
      vertex 126.327 36.0294 0
      vertex 126.532 37.0558 1.6
      vertex 126.532 37.0558 0
    endloop
  endfacet
  facet normal -0.980632 0.195859 0
    outer loop
      vertex 126.532 37.0558 1.6
      vertex 126.327 36.0294 0
      vertex 126.327 36.0294 1.6
    endloop
  endfacet
  facet normal -0.947036 -0.321126 0
    outer loop
      vertex 126.327 40.1706 0
      vertex 125.991 41.1615 1.6
      vertex 125.991 41.1615 0
    endloop
  endfacet
  facet normal -0.947036 -0.321126 0
    outer loop
      vertex 125.991 41.1615 1.6
      vertex 126.327 40.1706 0
      vertex 126.327 40.1706 1.6
    endloop
  endfacet
  facet normal 0.980632 0.195859 0
    outer loop
      vertex 110.873 36.0294 1.6
      vertex 110.668 37.0558 0
      vertex 110.668 37.0558 1.6
    endloop
  endfacet
  facet normal 0.980632 0.195859 0
    outer loop
      vertex 110.668 37.0558 0
      vertex 110.873 36.0294 1.6
      vertex 110.873 36.0294 0
    endloop
  endfacet
  facet normal 0.751842 0.659343 0
    outer loop
      vertex 112.943 32.4431 1.6
      vertex 112.253 33.2299 0
      vertex 112.253 33.2299 1.6
    endloop
  endfacet
  facet normal 0.751842 0.659343 0
    outer loop
      vertex 112.253 33.2299 0
      vertex 112.943 32.4431 1.6
      vertex 112.943 32.4431 0
    endloop
  endfacet
  facet normal 0.195014 0.9808 -0
    outer loop
      vertex 117.556 30.1684 0
      vertex 116.529 30.3726 1.6
      vertex 117.556 30.1684 1.6
    endloop
  endfacet
  facet normal 0.195014 0.9808 0
    outer loop
      vertex 116.529 30.3726 1.6
      vertex 117.556 30.1684 0
      vertex 116.529 30.3726 0
    endloop
  endfacet
  facet normal 0.831638 -0.555318 0
    outer loop
      vertex 111.672 42.1 1.6
      vertex 112.253 42.9701 0
      vertex 112.253 42.9701 1.6
    endloop
  endfacet
  facet normal 0.831638 -0.555318 0
    outer loop
      vertex 112.253 42.9701 0
      vertex 111.672 42.1 1.6
      vertex 111.672 42.1 0
    endloop
  endfacet
  facet normal 0.0653771 0.997861 -0
    outer loop
      vertex 118.6 30.1 0
      vertex 117.556 30.1684 1.6
      vertex 118.6 30.1 1.6
    endloop
  endfacet
  facet normal 0.0653771 0.997861 0
    outer loop
      vertex 117.556 30.1684 1.6
      vertex 118.6 30.1 0
      vertex 117.556 30.1684 0
    endloop
  endfacet
  facet normal 1 -0 0
    outer loop
      vertex 169.6 0 53.8
      vertex 169.6 76.2 0
      vertex 169.6 76.2 53.8
    endloop
  endfacet
  facet normal 1 0 0
    outer loop
      vertex 169.6 76.2 0
      vertex 169.6 0 53.8
      vertex 169.6 0 0
    endloop
  endfacet
  facet normal 0 0 1
    outer loop
      vertex 169.6 76.2 53.8
      vertex 167.6 74.6 53.8
      vertex 169.6 0 53.8
    endloop
  endfacet
  facet normal 0 0 1
    outer loop
      vertex 169.6 76.2 53.8
      vertex 69.6 74.6 53.8
      vertex 167.6 74.6 53.8
    endloop
  endfacet
  facet normal 0 0 1
    outer loop
      vertex 69.6 74.6 53.8
      vertex 68 74.6 53.8
      vertex 69.6 1.6 53.8
    endloop
  endfacet
  facet normal 0 0 1
    outer loop
      vertex 169.6 76.2 53.8
      vertex 68 74.6 53.8
      vertex 69.6 74.6 53.8
    endloop
  endfacet
  facet normal -0 0 1
    outer loop
      vertex 0 76.2 53.8
      vertex 68 74.6 53.8
      vertex 169.6 76.2 53.8
    endloop
  endfacet
  facet normal 0 0 1
    outer loop
      vertex 4 74.6 53.8
      vertex 0 76.2 53.8
      vertex 4 1.6 53.8
    endloop
  endfacet
  facet normal 0 0 1
    outer loop
      vertex 68 74.6 53.8
      vertex 0 76.2 53.8
      vertex 4 74.6 53.8
    endloop
  endfacet
  facet normal -0 0 1
    outer loop
      vertex 167.6 1.6 53.8
      vertex 169.6 0 53.8
      vertex 167.6 74.6 53.8
    endloop
  endfacet
  facet normal -0 0 1
    outer loop
      vertex 69.6 1.6 53.8
      vertex 169.6 0 53.8
      vertex 167.6 1.6 53.8
    endloop
  endfacet
  facet normal 0 0 1
    outer loop
      vertex 68 1.6 53.8
      vertex 69.6 1.6 53.8
      vertex 68 74.6 53.8
    endloop
  endfacet
  facet normal -0 0 1
    outer loop
      vertex 68 1.6 53.8
      vertex 169.6 0 53.8
      vertex 69.6 1.6 53.8
    endloop
  endfacet
  facet normal 0 0 1
    outer loop
      vertex 0 0 53.8
      vertex 68 1.6 53.8
      vertex 4 1.6 53.8
    endloop
  endfacet
  facet normal 0 0 1
    outer loop
      vertex 68 1.6 53.8
      vertex 0 0 53.8
      vertex 169.6 0 53.8
    endloop
  endfacet
  facet normal 0 0 1
    outer loop
      vertex 0 0 53.8
      vertex 4 1.6 53.8
      vertex 0 76.2 53.8
    endloop
  endfacet
  facet normal 0 0 -1
    outer loop
      vertex 169.6 0 0
      vertex 126.6 38.1 0
      vertex 169.6 76.2 0
    endloop
  endfacet
  facet normal 0 0 -1
    outer loop
      vertex 169.6 0 0
      vertex 126.532 37.0558 0
      vertex 126.6 38.1 0
    endloop
  endfacet
  facet normal 0 0 -1
    outer loop
      vertex 169.6 0 0
      vertex 126.327 36.0294 0
      vertex 126.532 37.0558 0
    endloop
  endfacet
  facet normal 0 0 -1
    outer loop
      vertex 169.6 0 0
      vertex 125.991 35.0385 0
      vertex 126.327 36.0294 0
    endloop
  endfacet
  facet normal 0 0 -1
    outer loop
      vertex 169.6 0 0
      vertex 125.528 34.1 0
      vertex 125.991 35.0385 0
    endloop
  endfacet
  facet normal 0 0 -1
    outer loop
      vertex 169.6 0 0
      vertex 124.947 33.2299 0
      vertex 125.528 34.1 0
    endloop
  endfacet
  facet normal 0 0 -1
    outer loop
      vertex 169.6 0 0
      vertex 124.257 32.4431 0
      vertex 124.947 33.2299 0
    endloop
  endfacet
  facet normal 0 0 -1
    outer loop
      vertex 169.6 0 0
      vertex 123.47 31.7532 0
      vertex 124.257 32.4431 0
    endloop
  endfacet
  facet normal 0 0 -1
    outer loop
      vertex 169.6 0 0
      vertex 122.6 31.1718 0
      vertex 123.47 31.7532 0
    endloop
  endfacet
  facet normal 0 0 -1
    outer loop
      vertex 169.6 0 0
      vertex 121.661 30.709 0
      vertex 122.6 31.1718 0
    endloop
  endfacet
  facet normal 0 0 -1
    outer loop
      vertex 169.6 0 0
      vertex 120.671 30.3726 0
      vertex 121.661 30.709 0
    endloop
  endfacet
  facet normal 0 0 -1
    outer loop
      vertex 169.6 0 0
      vertex 119.644 30.1684 0
      vertex 120.671 30.3726 0
    endloop
  endfacet
  facet normal 0 0 -1
    outer loop
      vertex 169.6 0 0
      vertex 118.6 30.1 0
      vertex 119.644 30.1684 0
    endloop
  endfacet
  facet normal 0 0 -1
    outer loop
      vertex 169.6 0 0
      vertex 117.556 30.1684 0
      vertex 118.6 30.1 0
    endloop
  endfacet
  facet normal 0 0 -1
    outer loop
      vertex 169.6 0 0
      vertex 116.529 30.3726 0
      vertex 117.556 30.1684 0
    endloop
  endfacet
  facet normal 0 0 -1
    outer loop
      vertex 0 0 0
      vertex 116.529 30.3726 0
      vertex 169.6 0 0
    endloop
  endfacet
  facet normal -0 0 -1
    outer loop
      vertex 116.529 30.3726 0
      vertex 0 0 0
      vertex 115.539 30.709 0
    endloop
  endfacet
  facet normal -0 0 -1
    outer loop
      vertex 110.668 37.0558 0
      vertex 0 0 0
      vertex 110.6 38.1 0
    endloop
  endfacet
  facet normal -0 0 -1
    outer loop
      vertex 110.873 36.0294 0
      vertex 0 0 0
      vertex 110.668 37.0558 0
    endloop
  endfacet
  facet normal -0 0 -1
    outer loop
      vertex 111.209 35.0385 0
      vertex 0 0 0
      vertex 110.873 36.0294 0
    endloop
  endfacet
  facet normal -0 0 -1
    outer loop
      vertex 111.672 34.1 0
      vertex 0 0 0
      vertex 111.209 35.0385 0
    endloop
  endfacet
  facet normal -0 0 -1
    outer loop
      vertex 112.253 33.2299 0
      vertex 0 0 0
      vertex 111.672 34.1 0
    endloop
  endfacet
  facet normal -0 0 -1
    outer loop
      vertex 112.943 32.4431 0
      vertex 0 0 0
      vertex 112.253 33.2299 0
    endloop
  endfacet
  facet normal -0 0 -1
    outer loop
      vertex 113.73 31.7532 0
      vertex 0 0 0
      vertex 112.943 32.4431 0
    endloop
  endfacet
  facet normal -0 0 -1
    outer loop
      vertex 114.6 31.1718 0
      vertex 0 0 0
      vertex 113.73 31.7532 0
    endloop
  endfacet
  facet normal -0 0 -1
    outer loop
      vertex 115.539 30.709 0
      vertex 0 0 0
      vertex 114.6 31.1718 0
    endloop
  endfacet
  facet normal 0 0 -1
    outer loop
      vertex 126.532 39.1442 0
      vertex 169.6 76.2 0
      vertex 126.6 38.1 0
    endloop
  endfacet
  facet normal 0 0 -1
    outer loop
      vertex 126.327 40.1706 0
      vertex 169.6 76.2 0
      vertex 126.532 39.1442 0
    endloop
  endfacet
  facet normal 0 0 -1
    outer loop
      vertex 125.991 41.1615 0
      vertex 169.6 76.2 0
      vertex 126.327 40.1706 0
    endloop
  endfacet
  facet normal 0 0 -1
    outer loop
      vertex 125.528 42.1 0
      vertex 169.6 76.2 0
      vertex 125.991 41.1615 0
    endloop
  endfacet
  facet normal 0 0 -1
    outer loop
      vertex 124.947 42.9701 0
      vertex 169.6 76.2 0
      vertex 125.528 42.1 0
    endloop
  endfacet
  facet normal 0 0 -1
    outer loop
      vertex 124.257 43.7569 0
      vertex 169.6 76.2 0
      vertex 124.947 42.9701 0
    endloop
  endfacet
  facet normal 0 0 -1
    outer loop
      vertex 123.47 44.4468 0
      vertex 169.6 76.2 0
      vertex 124.257 43.7569 0
    endloop
  endfacet
  facet normal 0 0 -1
    outer loop
      vertex 122.6 45.0282 0
      vertex 169.6 76.2 0
      vertex 123.47 44.4468 0
    endloop
  endfacet
  facet normal 0 0 -1
    outer loop
      vertex 121.661 45.491 0
      vertex 169.6 76.2 0
      vertex 122.6 45.0282 0
    endloop
  endfacet
  facet normal 0 0 -1
    outer loop
      vertex 120.671 45.8274 0
      vertex 169.6 76.2 0
      vertex 121.661 45.491 0
    endloop
  endfacet
  facet normal 0 0 -1
    outer loop
      vertex 119.644 46.0316 0
      vertex 169.6 76.2 0
      vertex 120.671 45.8274 0
    endloop
  endfacet
  facet normal 0 0 -1
    outer loop
      vertex 118.6 46.1 0
      vertex 169.6 76.2 0
      vertex 119.644 46.0316 0
    endloop
  endfacet
  facet normal 0 0 -1
    outer loop
      vertex 117.556 46.0316 0
      vertex 169.6 76.2 0
      vertex 118.6 46.1 0
    endloop
  endfacet
  facet normal 0 0 -1
    outer loop
      vertex 116.529 45.8274 0
      vertex 169.6 76.2 0
      vertex 117.556 46.0316 0
    endloop
  endfacet
  facet normal 0 0 -1
    outer loop
      vertex 0 76.2 0
      vertex 116.529 45.8274 0
      vertex 115.539 45.491 0
    endloop
  endfacet
  facet normal 0 0 -1
    outer loop
      vertex 0 76.2 0
      vertex 115.539 45.491 0
      vertex 114.6 45.0282 0
    endloop
  endfacet
  facet normal 0 0 -1
    outer loop
      vertex 0 76.2 0
      vertex 110.6 38.1 0
      vertex 0 0 0
    endloop
  endfacet
  facet normal 0 0 -1
    outer loop
      vertex 110.6 38.1 0
      vertex 0 76.2 0
      vertex 110.668 39.1442 0
    endloop
  endfacet
  facet normal 0 0 -1
    outer loop
      vertex 110.668 39.1442 0
      vertex 0 76.2 0
      vertex 110.873 40.1706 0
    endloop
  endfacet
  facet normal 0 0 -1
    outer loop
      vertex 110.873 40.1706 0
      vertex 0 76.2 0
      vertex 111.209 41.1615 0
    endloop
  endfacet
  facet normal 0 0 -1
    outer loop
      vertex 111.209 41.1615 0
      vertex 0 76.2 0
      vertex 111.672 42.1 0
    endloop
  endfacet
  facet normal 0 0 -1
    outer loop
      vertex 111.672 42.1 0
      vertex 0 76.2 0
      vertex 112.253 42.9701 0
    endloop
  endfacet
  facet normal 0 0 -1
    outer loop
      vertex 112.253 42.9701 0
      vertex 0 76.2 0
      vertex 112.943 43.7569 0
    endloop
  endfacet
  facet normal 0 0 -1
    outer loop
      vertex 112.943 43.7569 0
      vertex 0 76.2 0
      vertex 113.73 44.4468 0
    endloop
  endfacet
  facet normal 0 0 -1
    outer loop
      vertex 113.73 44.4468 0
      vertex 0 76.2 0
      vertex 114.6 45.0282 0
    endloop
  endfacet
  facet normal 0 0 -1
    outer loop
      vertex 116.529 45.8274 0
      vertex 0 76.2 0
      vertex 169.6 76.2 0
    endloop
  endfacet
  facet normal -1 0 0
    outer loop
      vertex 0 0 0
      vertex 0 76.2 53.8
      vertex 0 76.2 0
    endloop
  endfacet
  facet normal -1 -0 0
    outer loop
      vertex 0 76.2 53.8
      vertex 0 0 0
      vertex 0 0 53.8
    endloop
  endfacet
  facet normal 0 1 0
    outer loop
      vertex 156.5 76.2 29.9
      vertex 169.6 76.2 53.8
      vertex 161.5 76.2 29.9
    endloop
  endfacet
  facet normal 0 1 0
    outer loop
      vertex 169.6 76.2 53.8
      vertex 161.5 76.2 23.9
      vertex 161.5 76.2 29.9
    endloop
  endfacet
  facet normal 0 1 0
    outer loop
      vertex 161.5 76.2 23.9
      vertex 169.6 76.2 0
      vertex 156.5 76.2 23.9
    endloop
  endfacet
  facet normal 0 1 -0
    outer loop
      vertex 169.6 76.2 0
      vertex 161.5 76.2 23.9
      vertex 169.6 76.2 53.8
    endloop
  endfacet
  facet normal 0 1 0
    outer loop
      vertex 169.6 76.2 53.8
      vertex 156.5 76.2 29.9
      vertex 0 76.2 53.8
    endloop
  endfacet
  facet normal 0 1 -0
    outer loop
      vertex 156.5 76.2 23.9
      vertex 0 76.2 53.8
      vertex 156.5 76.2 29.9
    endloop
  endfacet
  facet normal 0 1 0
    outer loop
      vertex 0 76.2 0
      vertex 156.5 76.2 23.9
      vertex 169.6 76.2 0
    endloop
  endfacet
  facet normal 0 1 0
    outer loop
      vertex 156.5 76.2 23.9
      vertex 0 76.2 0
      vertex 0 76.2 53.8
    endloop
  endfacet
  facet normal 0 -1 0
    outer loop
      vertex 0 0 53.8
      vertex 156.5 0 29.9
      vertex 169.6 0 53.8
    endloop
  endfacet
  facet normal 0 -1 0
    outer loop
      vertex 0 0 53.8
      vertex 156.5 0 23.9
      vertex 156.5 0 29.9
    endloop
  endfacet
  facet normal 0 -1 0
    outer loop
      vertex 169.6 0 0
      vertex 156.5 0 23.9
      vertex 0 0 0
    endloop
  endfacet
  facet normal 0 -1 0
    outer loop
      vertex 0 0 0
      vertex 156.5 0 23.9
      vertex 0 0 53.8
    endloop
  endfacet
  facet normal 0 -1 0
    outer loop
      vertex 161.5 0 29.9
      vertex 169.6 0 53.8
      vertex 156.5 0 29.9
    endloop
  endfacet
  facet normal 0 -1 0
    outer loop
      vertex 161.5 0 23.9
      vertex 169.6 0 53.8
      vertex 161.5 0 29.9
    endloop
  endfacet
  facet normal 0 -1 0
    outer loop
      vertex 161.5 0 23.9
      vertex 169.6 0 0
      vertex 169.6 0 53.8
    endloop
  endfacet
  facet normal 0 -1 0
    outer loop
      vertex 156.5 0 23.9
      vertex 169.6 0 0
      vertex 161.5 0 23.9
    endloop
  endfacet
  facet normal -1 0 0
    outer loop
      vertex 68 1.6 1.6
      vertex 68 74.6 53.8
      vertex 68 74.6 1.6
    endloop
  endfacet
  facet normal -1 -0 0
    outer loop
      vertex 68 74.6 53.8
      vertex 68 1.6 1.6
      vertex 68 1.6 53.8
    endloop
  endfacet
  facet normal -0 0 1
    outer loop
      vertex 4 74.6 1.6
      vertex 68 1.6 1.6
      vertex 68 74.6 1.6
    endloop
  endfacet
  facet normal 0 0 1
    outer loop
      vertex 68 1.6 1.6
      vertex 4 74.6 1.6
      vertex 4 1.6 1.6
    endloop
  endfacet
  facet normal 1 -0 0
    outer loop
      vertex 4 1.6 53.8
      vertex 4 74.6 1.6
      vertex 4 74.6 53.8
    endloop
  endfacet
  facet normal 1 0 0
    outer loop
      vertex 4 74.6 1.6
      vertex 4 1.6 53.8
      vertex 4 1.6 1.6
    endloop
  endfacet
  facet normal 0 -1 0
    outer loop
      vertex 4 74.6 1.6
      vertex 68 74.6 53.8
      vertex 4 74.6 53.8
    endloop
  endfacet
  facet normal 0 -1 -0
    outer loop
      vertex 68 74.6 53.8
      vertex 4 74.6 1.6
      vertex 68 74.6 1.6
    endloop
  endfacet
  facet normal 0 1 -0
    outer loop
      vertex 68 1.6 1.6
      vertex 4 1.6 53.8
      vertex 68 1.6 53.8
    endloop
  endfacet
  facet normal 0 1 0
    outer loop
      vertex 4 1.6 53.8
      vertex 68 1.6 1.6
      vertex 4 1.6 1.6
    endloop
  endfacet
  facet normal 0.432731 -0.901523 0
    outer loop
      vertex 159.5 -1 24.9
      vertex 161.5 -0.04 29.9
      vertex 159.5 -1 28.9
    endloop
  endfacet
  facet normal 0.432731 -0.901523 0
    outer loop
      vertex 161.5 -0.04 29.9
      vertex 159.5 -1 24.9
      vertex 161.5 -0.04 23.9
    endloop
  endfacet
  facet normal -1 0 0
    outer loop
      vertex 156.5 -0.04 23.9
      vertex 156.5 0 29.9
      vertex 156.5 0 23.9
    endloop
  endfacet
  facet normal -1 -0 0
    outer loop
      vertex 156.5 0 29.9
      vertex 156.5 -0.04 23.9
      vertex 156.5 -0.04 29.9
    endloop
  endfacet
  facet normal 1 -0 0
    outer loop
      vertex 161.5 -0.04 29.9
      vertex 161.5 0 23.9
      vertex 161.5 0 29.9
    endloop
  endfacet
  facet normal 1 0 0
    outer loop
      vertex 161.5 0 23.9
      vertex 161.5 -0.04 29.9
      vertex 161.5 -0.04 23.9
    endloop
  endfacet
  facet normal -0.432731 -0.901523 0
    outer loop
      vertex 156.5 -0.04 29.9
      vertex 158.5 -1 24.9
      vertex 158.5 -1 28.9
    endloop
  endfacet
  facet normal -0.432731 -0.901523 0
    outer loop
      vertex 158.5 -1 24.9
      vertex 156.5 -0.04 29.9
      vertex 156.5 -0.04 23.9
    endloop
  endfacet
  facet normal 0 0 -1
    outer loop
      vertex 156.5 -0.04 23.9
      vertex 161.5 0 23.9
      vertex 161.5 -0.04 23.9
    endloop
  endfacet
  facet normal -0 0 -1
    outer loop
      vertex 161.5 0 23.9
      vertex 156.5 -0.04 23.9
      vertex 156.5 0 23.9
    endloop
  endfacet
  facet normal 0 -0.721387 0.692532
    outer loop
      vertex 158.5 -1 28.9
      vertex 161.5 -0.04 29.9
      vertex 156.5 -0.04 29.9
    endloop
  endfacet
  facet normal 0 -0.721387 0.692532
    outer loop
      vertex 161.5 -0.04 29.9
      vertex 158.5 -1 28.9
      vertex 159.5 -1 28.9
    endloop
  endfacet
  facet normal 0 -1 0
    outer loop
      vertex 158.5 -1 24.9
      vertex 159.5 -1 28.9
      vertex 158.5 -1 28.9
    endloop
  endfacet
  facet normal 0 -1 -0
    outer loop
      vertex 159.5 -1 28.9
      vertex 158.5 -1 24.9
      vertex 159.5 -1 24.9
    endloop
  endfacet
  facet normal 0 -0.721387 -0.692532
    outer loop
      vertex 156.5 -0.04 23.9
      vertex 159.5 -1 24.9
      vertex 158.5 -1 24.9
    endloop
  endfacet
  facet normal 0 -0.721387 -0.692532
    outer loop
      vertex 159.5 -1 24.9
      vertex 156.5 -0.04 23.9
      vertex 161.5 -0.04 23.9
    endloop
  endfacet
  facet normal -0 0 1
    outer loop
      vertex 156.5 0 29.9
      vertex 161.5 -0.04 29.9
      vertex 161.5 0 29.9
    endloop
  endfacet
  facet normal 0 0 1
    outer loop
      vertex 161.5 -0.04 29.9
      vertex 156.5 0 29.9
      vertex 156.5 -0.04 29.9
    endloop
  endfacet
  facet normal 0 0.721387 0.692532
    outer loop
      vertex 159.5 77.2 28.9
      vertex 156.5 76.24 29.9
      vertex 161.5 76.24 29.9
    endloop
  endfacet
  facet normal 0 0.721387 0.692532
    outer loop
      vertex 156.5 76.24 29.9
      vertex 159.5 77.2 28.9
      vertex 158.5 77.2 28.9
    endloop
  endfacet
  facet normal -1 0 0
    outer loop
      vertex 156.5 76.2 23.9
      vertex 156.5 76.24 29.9
      vertex 156.5 76.24 23.9
    endloop
  endfacet
  facet normal -1 -0 0
    outer loop
      vertex 156.5 76.24 29.9
      vertex 156.5 76.2 23.9
      vertex 156.5 76.2 29.9
    endloop
  endfacet
  facet normal -0 0 1
    outer loop
      vertex 156.5 76.24 29.9
      vertex 161.5 76.2 29.9
      vertex 161.5 76.24 29.9
    endloop
  endfacet
  facet normal 0 0 1
    outer loop
      vertex 161.5 76.2 29.9
      vertex 156.5 76.24 29.9
      vertex 156.5 76.2 29.9
    endloop
  endfacet
  facet normal 0 1 -0
    outer loop
      vertex 159.5 77.2 24.9
      vertex 158.5 77.2 28.9
      vertex 159.5 77.2 28.9
    endloop
  endfacet
  facet normal 0 1 0
    outer loop
      vertex 158.5 77.2 28.9
      vertex 159.5 77.2 24.9
      vertex 158.5 77.2 24.9
    endloop
  endfacet
  facet normal 1 -0 0
    outer loop
      vertex 161.5 76.2 29.9
      vertex 161.5 76.24 23.9
      vertex 161.5 76.24 29.9
    endloop
  endfacet
  facet normal 1 0 0
    outer loop
      vertex 161.5 76.24 23.9
      vertex 161.5 76.2 29.9
      vertex 161.5 76.2 23.9
    endloop
  endfacet
  facet normal 0 0 -1
    outer loop
      vertex 156.5 76.2 23.9
      vertex 161.5 76.24 23.9
      vertex 161.5 76.2 23.9
    endloop
  endfacet
  facet normal -0 0 -1
    outer loop
      vertex 161.5 76.24 23.9
      vertex 156.5 76.2 23.9
      vertex 156.5 76.24 23.9
    endloop
  endfacet
  facet normal 0 0.721387 -0.692532
    outer loop
      vertex 161.5 76.24 23.9
      vertex 158.5 77.2 24.9
      vertex 159.5 77.2 24.9
    endloop
  endfacet
  facet normal 0 0.721387 -0.692532
    outer loop
      vertex 158.5 77.2 24.9
      vertex 161.5 76.24 23.9
      vertex 156.5 76.24 23.9
    endloop
  endfacet
  facet normal 0.432731 0.901523 0
    outer loop
      vertex 161.5 76.24 29.9
      vertex 159.5 77.2 24.9
      vertex 159.5 77.2 28.9
    endloop
  endfacet
  facet normal 0.432731 0.901523 0
    outer loop
      vertex 159.5 77.2 24.9
      vertex 161.5 76.24 29.9
      vertex 161.5 76.24 23.9
    endloop
  endfacet
  facet normal -0.432731 0.901523 0
    outer loop
      vertex 158.5 77.2 24.9
      vertex 156.5 76.24 29.9
      vertex 158.5 77.2 28.9
    endloop
  endfacet
  facet normal -0.432731 0.901523 0
    outer loop
      vertex 156.5 76.24 29.9
      vertex 158.5 77.2 24.9
      vertex 156.5 76.24 23.9
    endloop
  endfacet
endsolid OpenSCAD_Model
