solid OpenSCAD_Model
  facet normal -0.379904 -0.596391 -0.707101
    outer loop
      vertex 1.75 0.468918 0.4
      vertex 1.72223 0.960861 0
      vertex 1.9502 0.815643 0
    endloop
  endfacet
  facet normal 0.923937 0.382545 0
    outer loop
      vertex 66.7889 87.6971 1.2
      vertex 66.6721 87.9792 0.4
      vertex 66.6721 87.9792 1.2
    endloop
  endfacet
  facet normal 0.923937 0.382545 0
    outer loop
      vertex 66.6721 87.9792 0.4
      vertex 66.7889 87.6971 1.2
      vertex 66.7889 87.6971 0.4
    endloop
  endfacet
  facet normal -0.32651 -0.627218 -0.707099
    outer loop
      vertex 2.02084 0.327927 0.4
      vertex 1.75 0.468918 0.4
      vertex 1.9502 0.815643 0
    endloop
  endfacet
  facet normal -0.706438 -0.0308511 -0.707102
    outer loop
      vertex 0.41217 3.22992 0
      vertex 0.0133209 3.19496 0.4
      vertex 0.399994 3.50873 0
    endloop
  endfacet
  facet normal -0.70644 0.0308523 -0.7071
    outer loop
      vertex 0.399994 86.4913 0
      vertex 0.0133209 86.805 0.4
      vertex 0.41217 86.7701 0
    endloop
  endfacet
  facet normal 1 -0 0
    outer loop
      vertex 67 3.5 1.2
      vertex 67 86.5 0.4
      vertex 67 86.5 1.2
    endloop
  endfacet
  facet normal 1 0 0
    outer loop
      vertex 67 86.5 0.4
      vertex 67 3.5 1.2
      vertex 67 3.5 0.4
    endloop
  endfacet
  facet normal -0.88701 -0.46175 0
    outer loop
      vertex 0.468918 1.75 0.4
      vertex 0.327927 2.02084 1.2
      vertex 0.327927 2.02084 0.4
    endloop
  endfacet
  facet normal -0.88701 -0.46175 0
    outer loop
      vertex 0.327927 2.02084 1.2
      vertex 0.468918 1.75 0.4
      vertex 0.468918 1.75 1.2
    endloop
  endfacet
  facet normal 0.67565 0.737222 -0
    outer loop
      vertex 65.9749 88.9749 0.4
      vertex 65.7498 89.1812 1.2
      vertex 65.9749 88.9749 1.2
    endloop
  endfacet
  facet normal 0.67565 0.737222 0
    outer loop
      vertex 65.7498 89.1812 1.2
      vertex 65.9749 88.9749 0.4
      vertex 65.7498 89.1812 0.4
    endloop
  endfacet
  facet normal 0.999051 0.0435652 0
    outer loop
      vertex 67 86.5 1.2
      vertex 66.9867 86.805 0.4
      vertex 66.9867 86.805 1.2
    endloop
  endfacet
  facet normal 0.999051 0.0435652 0
    outer loop
      vertex 66.9867 86.805 0.4
      vertex 67 86.5 1.2
      vertex 67 86.5 0.4
    endloop
  endfacet
  facet normal 0.596328 -0.379999 -0.707102
    outer loop
      vertex 66.367 1.49248 0.4
      vertex 66.0391 1.72223 0
      vertex 66.5311 1.75 0.4
    endloop
  endfacet
  facet normal -0.674378 0.212623 -0.707111
    outer loop
      vertex 0.587296 87.5601 0
      vertex 0.119263 87.4059 0.4
      vertex 0.211075 87.6971 0.4
    endloop
  endfacet
  facet normal -0.0308012 0.706435 -0.707107
    outer loop
      vertex 3.50873 89.6 0
      vertex 3.19496 89.9867 0.4
      vertex 3.5 90 0.4
    endloop
  endfacet
  facet normal -0.21265 0.674412 -0.70707
    outer loop
      vertex 2.69774 89.494 0
      vertex 2.4399 89.4127 0
      vertex 2.59413 89.8807 0.4
    endloop
  endfacet
  facet normal -0.793344 -0.608773 0
    outer loop
      vertex 0.818848 1.25024 0.4
      vertex 0.632965 1.49248 1.2
      vertex 0.632965 1.49248 0.4
    endloop
  endfacet
  facet normal -0.793344 -0.608773 0
    outer loop
      vertex 0.632965 1.49248 1.2
      vertex 0.818848 1.25024 0.4
      vertex 0.818848 1.25024 1.2
    endloop
  endfacet
  facet normal -1 0 0
    outer loop
      vertex 0 3.5 0.4
      vertex 0 86.5 1.2
      vertex 0 86.5 0.4
    endloop
  endfacet
  facet normal -1 -0 0
    outer loop
      vertex 0 86.5 1.2
      vertex 0 3.5 0.4
      vertex 0 3.5 1.2
    endloop
  endfacet
  facet normal -0.674378 0.21263 -0.707109
    outer loop
      vertex 0.506012 87.3023 0
      vertex 0.119263 87.4059 0.4
      vertex 0.587296 87.5601 0
    endloop
  endfacet
  facet normal 0.596334 0.380032 -0.707079
    outer loop
      vertex 66.1844 88.0498 0
      vertex 66.0391 88.2778 0
      vertex 66.5311 88.25 0.4
    endloop
  endfacet
  facet normal -0.153073 0.690334 -0.707112
    outer loop
      vertex 2.96178 89.5525 0
      vertex 2.59413 89.8807 0.4
      vertex 2.89223 89.9468 0.4
    endloop
  endfacet
  facet normal 0.537426 0.843311 -0
    outer loop
      vertex 65.5075 89.367 0.4
      vertex 65.25 89.5311 1.2
      vertex 65.5075 89.367 1.2
    endloop
  endfacet
  facet normal 0.537426 0.843311 0
    outer loop
      vertex 65.25 89.5311 1.2
      vertex 65.5075 89.367 0.4
      vertex 65.25 89.5311 0.4
    endloop
  endfacet
  facet normal 0.430416 -0.56105 -0.707082
    outer loop
      vertex 65.5075 0.632965 0.4
      vertex 65.2778 0.960861 0
      vertex 65.7498 0.818848 0.4
    endloop
  endfacet
  facet normal -0.382702 -0.923872 0
    outer loop
      vertex 2.02084 0.327927 0.4
      vertex 2.30293 0.211075 1.2
      vertex 2.02084 0.327927 1.2
    endloop
  endfacet
  facet normal -0.382702 -0.923872 -0
    outer loop
      vertex 2.30293 0.211075 1.2
      vertex 2.02084 0.327927 0.4
      vertex 2.30293 0.211075 0.4
    endloop
  endfacet
  facet normal 0.0308523 -0.70644 -0.7071
    outer loop
      vertex 63.805 0.0133209 0.4
      vertex 63.4913 0.399994 0
      vertex 63.7701 0.41217 0
    endloop
  endfacet
  facet normal -0.627218 -0.32651 -0.707099
    outer loop
      vertex 0.468918 1.75 0.4
      vertex 0.327927 2.02084 0.4
      vertex 0.815643 1.9502 0
    endloop
  endfacet
  facet normal 0.701038 -0.0923972 -0.707113
    outer loop
      vertex 66.9468 2.89223 0.4
      vertex 66.5525 2.96178 0
      vertex 66.9867 3.19496 0.4
    endloop
  endfacet
  facet normal 0.212623 -0.674378 -0.707111
    outer loop
      vertex 64.6971 0.211075 0.4
      vertex 64.4059 0.119263 0.4
      vertex 64.5601 0.587296 0
    endloop
  endfacet
  facet normal 0 0 -1
    outer loop
      vertex 63.4913 0.399994 0
      vertex 66.6 3.50873 0
      vertex 66.5878 3.22992 0
    endloop
  endfacet
  facet normal 0 0 -1
    outer loop
      vertex 66.6 3.50873 0
      vertex 0.399994 3.50873 0
      vertex 66.6 86.4913 0
    endloop
  endfacet
  facet normal 0 0 -1
    outer loop
      vertex 63.4913 0.399994 0
      vertex 66.5878 3.22992 0
      vertex 66.5525 2.96178 0
    endloop
  endfacet
  facet normal 0 0 -1
    outer loop
      vertex 0.399994 86.4913 0
      vertex 66.6 86.4913 0
      vertex 0.399994 3.50873 0
    endloop
  endfacet
  facet normal 0 0 -1
    outer loop
      vertex 63.4913 0.399994 0
      vertex 66.5525 2.96178 0
      vertex 66.494 2.69774 0
    endloop
  endfacet
  facet normal 0 -0 -1
    outer loop
      vertex 63.4913 89.6 0
      vertex 66.6 86.4913 0
      vertex 0.399994 86.4913 0
    endloop
  endfacet
  facet normal 0 0 -1
    outer loop
      vertex 63.4913 0.399994 0
      vertex 66.494 2.69774 0
      vertex 66.4127 2.4399 0
    endloop
  endfacet
  facet normal -0 0 -1
    outer loop
      vertex 66.6 3.50873 0
      vertex 63.4913 0.399994 0
      vertex 0.399994 3.50873 0
    endloop
  endfacet
  facet normal 0 0 -1
    outer loop
      vertex 63.4913 0.399994 0
      vertex 66.4127 2.4399 0
      vertex 66.3092 2.18994 0
    endloop
  endfacet
  facet normal 0 0 -1
    outer loop
      vertex 66.6 86.4913 0
      vertex 63.4913 89.6 0
      vertex 66.5878 86.7701 0
    endloop
  endfacet
  facet normal 0 0 -1
    outer loop
      vertex 63.4913 0.399994 0
      vertex 66.3092 2.18994 0
      vertex 66.1844 1.9502 0
    endloop
  endfacet
  facet normal 0 0 -1
    outer loop
      vertex 66.494 87.3023 0
      vertex 63.4913 89.6 0
      vertex 66.4127 87.5601 0
    endloop
  endfacet
  facet normal 0 0 -1
    outer loop
      vertex 63.4913 0.399994 0
      vertex 66.1844 1.9502 0
      vertex 66.0391 1.72223 0
    endloop
  endfacet
  facet normal 0 0 -1
    outer loop
      vertex 66.4127 87.5601 0
      vertex 63.4913 89.6 0
      vertex 66.3092 87.8101 0
    endloop
  endfacet
  facet normal 0 0 -1
    outer loop
      vertex 63.4913 0.399994 0
      vertex 66.0391 1.72223 0
      vertex 65.8744 1.50754 0
    endloop
  endfacet
  facet normal 0 0 -1
    outer loop
      vertex 66.3092 87.8101 0
      vertex 63.4913 89.6 0
      vertex 66.1844 88.0498 0
    endloop
  endfacet
  facet normal 0 0 -1
    outer loop
      vertex 63.4913 0.399994 0
      vertex 65.8744 1.50754 0
      vertex 65.6918 1.30824 0
    endloop
  endfacet
  facet normal 0 0 -1
    outer loop
      vertex 66.1844 88.0498 0
      vertex 63.4913 89.6 0
      vertex 66.0391 88.2778 0
    endloop
  endfacet
  facet normal 0 0 -1
    outer loop
      vertex 63.4913 0.399994 0
      vertex 65.6918 1.30824 0
      vertex 65.4925 1.12561 0
    endloop
  endfacet
  facet normal 0 0 -1
    outer loop
      vertex 66.0391 88.2778 0
      vertex 63.4913 89.6 0
      vertex 65.8744 88.4925 0
    endloop
  endfacet
  facet normal 0 0 -1
    outer loop
      vertex 63.4913 0.399994 0
      vertex 65.4925 1.12561 0
      vertex 65.2778 0.960861 0
    endloop
  endfacet
  facet normal 0 0 -1
    outer loop
      vertex 65.8744 88.4925 0
      vertex 63.4913 89.6 0
      vertex 65.6918 88.6918 0
    endloop
  endfacet
  facet normal 0 0 -1
    outer loop
      vertex 63.4913 0.399994 0
      vertex 65.2778 0.960861 0
      vertex 65.0498 0.815643 0
    endloop
  endfacet
  facet normal 0 0 -1
    outer loop
      vertex 65.6918 88.6918 0
      vertex 63.4913 89.6 0
      vertex 65.4925 88.8744 0
    endloop
  endfacet
  facet normal 0 0 -1
    outer loop
      vertex 63.4913 0.399994 0
      vertex 65.0498 0.815643 0
      vertex 64.8101 0.690842 0
    endloop
  endfacet
  facet normal 0 0 -1
    outer loop
      vertex 65.4925 88.8744 0
      vertex 63.4913 89.6 0
      vertex 65.2778 89.0391 0
    endloop
  endfacet
  facet normal 0 0 -1
    outer loop
      vertex 63.4913 0.399994 0
      vertex 64.8101 0.690842 0
      vertex 64.5601 0.587296 0
    endloop
  endfacet
  facet normal 0 0 -1
    outer loop
      vertex 65.2778 89.0391 0
      vertex 63.4913 89.6 0
      vertex 65.0498 89.1844 0
    endloop
  endfacet
  facet normal 0 0 -1
    outer loop
      vertex 63.4913 0.399994 0
      vertex 64.5601 0.587296 0
      vertex 64.3023 0.506012 0
    endloop
  endfacet
  facet normal 0 0 -1
    outer loop
      vertex 65.0498 89.1844 0
      vertex 63.4913 89.6 0
      vertex 64.8101 89.3092 0
    endloop
  endfacet
  facet normal 0 0 -1
    outer loop
      vertex 63.4913 0.399994 0
      vertex 64.3023 0.506012 0
      vertex 64.0382 0.447464 0
    endloop
  endfacet
  facet normal 0 0 -1
    outer loop
      vertex 64.8101 89.3092 0
      vertex 63.4913 89.6 0
      vertex 64.5601 89.4127 0
    endloop
  endfacet
  facet normal 0 0 -1
    outer loop
      vertex 63.4913 0.399994 0
      vertex 64.0382 0.447464 0
      vertex 63.7701 0.41217 0
    endloop
  endfacet
  facet normal 0 0 -1
    outer loop
      vertex 64.5601 89.4127 0
      vertex 63.4913 89.6 0
      vertex 64.3023 89.494 0
    endloop
  endfacet
  facet normal 0 0 -1
    outer loop
      vertex 64.3023 89.494 0
      vertex 63.4913 89.6 0
      vertex 64.0382 89.5525 0
    endloop
  endfacet
  facet normal 0 0 -1
    outer loop
      vertex 64.0382 89.5525 0
      vertex 63.4913 89.6 0
      vertex 63.7701 89.5878 0
    endloop
  endfacet
  facet normal 0 0 -1
    outer loop
      vertex 0.399994 3.50873 0
      vertex 63.4913 0.399994 0
      vertex 3.50873 0.399994 0
    endloop
  endfacet
  facet normal 0 0 -1
    outer loop
      vertex 66.5878 86.7701 0
      vertex 63.4913 89.6 0
      vertex 66.5525 87.0382 0
    endloop
  endfacet
  facet normal 0 0 -1
    outer loop
      vertex 0.399994 3.50873 0
      vertex 3.50873 0.399994 0
      vertex 3.22992 0.41217 0
    endloop
  endfacet
  facet normal 0 0 -1
    outer loop
      vertex 66.5525 87.0382 0
      vertex 63.4913 89.6 0
      vertex 66.494 87.3023 0
    endloop
  endfacet
  facet normal 0 0 -1
    outer loop
      vertex 0.399994 3.50873 0
      vertex 3.22992 0.41217 0
      vertex 2.96178 0.447464 0
    endloop
  endfacet
  facet normal -0 0 -1
    outer loop
      vertex 63.4913 89.6 0
      vertex 0.399994 86.4913 0
      vertex 3.50873 89.6 0
    endloop
  endfacet
  facet normal 0 0 -1
    outer loop
      vertex 0.399994 3.50873 0
      vertex 2.96178 0.447464 0
      vertex 2.69774 0.506012 0
    endloop
  endfacet
  facet normal 0 0 -1
    outer loop
      vertex 3.50873 89.6 0
      vertex 0.399994 86.4913 0
      vertex 3.22992 89.5878 0
    endloop
  endfacet
  facet normal 0 0 -1
    outer loop
      vertex 0.399994 3.50873 0
      vertex 2.69774 0.506012 0
      vertex 2.4399 0.587296 0
    endloop
  endfacet
  facet normal 0 0 -1
    outer loop
      vertex 3.22992 89.5878 0
      vertex 0.399994 86.4913 0
      vertex 2.96178 89.5525 0
    endloop
  endfacet
  facet normal 0 0 -1
    outer loop
      vertex 0.399994 3.50873 0
      vertex 2.4399 0.587296 0
      vertex 2.18994 0.690842 0
    endloop
  endfacet
  facet normal 0 0 -1
    outer loop
      vertex 2.96178 89.5525 0
      vertex 0.399994 86.4913 0
      vertex 2.69774 89.494 0
    endloop
  endfacet
  facet normal 0 0 -1
    outer loop
      vertex 0.399994 3.50873 0
      vertex 2.18994 0.690842 0
      vertex 1.9502 0.815643 0
    endloop
  endfacet
  facet normal 0 0 -1
    outer loop
      vertex 2.69774 89.494 0
      vertex 0.399994 86.4913 0
      vertex 2.4399 89.4127 0
    endloop
  endfacet
  facet normal 0 0 -1
    outer loop
      vertex 0.399994 3.50873 0
      vertex 1.9502 0.815643 0
      vertex 1.72223 0.960861 0
    endloop
  endfacet
  facet normal 0 0 -1
    outer loop
      vertex 2.4399 89.4127 0
      vertex 0.399994 86.4913 0
      vertex 2.18994 89.3092 0
    endloop
  endfacet
  facet normal 0 0 -1
    outer loop
      vertex 0.399994 3.50873 0
      vertex 1.72223 0.960861 0
      vertex 1.50754 1.12561 0
    endloop
  endfacet
  facet normal 0 0 -1
    outer loop
      vertex 2.18994 89.3092 0
      vertex 0.399994 86.4913 0
      vertex 1.9502 89.1844 0
    endloop
  endfacet
  facet normal 0 0 -1
    outer loop
      vertex 0.399994 3.50873 0
      vertex 1.50754 1.12561 0
      vertex 1.30824 1.30824 0
    endloop
  endfacet
  facet normal 0 0 -1
    outer loop
      vertex 1.9502 89.1844 0
      vertex 0.399994 86.4913 0
      vertex 1.72223 89.0391 0
    endloop
  endfacet
  facet normal 0 0 -1
    outer loop
      vertex 0.399994 3.50873 0
      vertex 1.30824 1.30824 0
      vertex 1.12561 1.50754 0
    endloop
  endfacet
  facet normal 0 0 -1
    outer loop
      vertex 1.72223 89.0391 0
      vertex 0.399994 86.4913 0
      vertex 1.50754 88.8744 0
    endloop
  endfacet
  facet normal 0 0 -1
    outer loop
      vertex 0.399994 3.50873 0
      vertex 1.12561 1.50754 0
      vertex 0.960861 1.72223 0
    endloop
  endfacet
  facet normal 0 0 -1
    outer loop
      vertex 1.50754 88.8744 0
      vertex 0.399994 86.4913 0
      vertex 1.30824 88.6918 0
    endloop
  endfacet
  facet normal 0 0 -1
    outer loop
      vertex 0.399994 3.50873 0
      vertex 0.960861 1.72223 0
      vertex 0.815643 1.9502 0
    endloop
  endfacet
  facet normal 0 0 -1
    outer loop
      vertex 1.30824 88.6918 0
      vertex 0.399994 86.4913 0
      vertex 1.12561 88.4925 0
    endloop
  endfacet
  facet normal 0 0 -1
    outer loop
      vertex 0.399994 3.50873 0
      vertex 0.815643 1.9502 0
      vertex 0.690842 2.18994 0
    endloop
  endfacet
  facet normal 0 0 -1
    outer loop
      vertex 1.12561 88.4925 0
      vertex 0.399994 86.4913 0
      vertex 0.960861 88.2778 0
    endloop
  endfacet
  facet normal 0 0 -1
    outer loop
      vertex 0.399994 3.50873 0
      vertex 0.690842 2.18994 0
      vertex 0.587296 2.4399 0
    endloop
  endfacet
  facet normal 0 0 -1
    outer loop
      vertex 0.960861 88.2778 0
      vertex 0.399994 86.4913 0
      vertex 0.815643 88.0498 0
    endloop
  endfacet
  facet normal 0 0 -1
    outer loop
      vertex 0.399994 3.50873 0
      vertex 0.587296 2.4399 0
      vertex 0.506012 2.69774 0
    endloop
  endfacet
  facet normal 0 0 -1
    outer loop
      vertex 0.815643 88.0498 0
      vertex 0.399994 86.4913 0
      vertex 0.690842 87.8101 0
    endloop
  endfacet
  facet normal 0 0 -1
    outer loop
      vertex 0.399994 3.50873 0
      vertex 0.506012 2.69774 0
      vertex 0.447464 2.96178 0
    endloop
  endfacet
  facet normal 0 0 -1
    outer loop
      vertex 0.690842 87.8101 0
      vertex 0.399994 86.4913 0
      vertex 0.587296 87.5601 0
    endloop
  endfacet
  facet normal 0 0 -1
    outer loop
      vertex 0.399994 3.50873 0
      vertex 0.447464 2.96178 0
      vertex 0.41217 3.22992 0
    endloop
  endfacet
  facet normal 0 0 -1
    outer loop
      vertex 0.587296 87.5601 0
      vertex 0.399994 86.4913 0
      vertex 0.506012 87.3023 0
    endloop
  endfacet
  facet normal 0 0 -1
    outer loop
      vertex 0.506012 87.3023 0
      vertex 0.399994 86.4913 0
      vertex 0.447464 87.0382 0
    endloop
  endfacet
  facet normal 0 0 -1
    outer loop
      vertex 0.447464 87.0382 0
      vertex 0.399994 86.4913 0
      vertex 0.41217 86.7701 0
    endloop
  endfacet
  facet normal 0.999051 -0.0435595 0
    outer loop
      vertex 66.9867 3.19496 1.2
      vertex 67 3.5 0.4
      vertex 67 3.5 1.2
    endloop
  endfacet
  facet normal 0.999051 -0.0435595 0
    outer loop
      vertex 67 3.5 0.4
      vertex 66.9867 3.19496 1.2
      vertex 66.9867 3.19496 0.4
    endloop
  endfacet
  facet normal 0.521279 0.477742 -0.707129
    outer loop
      vertex 66.1812 88.7498 0.4
      vertex 65.8744 88.4925 0
      vertex 65.9749 88.9749 0.4
    endloop
  endfacet
  facet normal -0.707112 0 -0.707101
    outer loop
      vertex 0.399994 3.50873 0
      vertex 0 86.5 0.4
      vertex 0.399994 86.4913 0
    endloop
  endfacet
  facet normal -0.707112 -0 -0.707101
    outer loop
      vertex 0 86.5 0.4
      vertex 0.399994 3.50873 0
      vertex 0 3.5 0.4
    endloop
  endfacet
  facet normal 0.674403 0.212604 -0.707093
    outer loop
      vertex 66.8807 87.4059 0.4
      vertex 66.4127 87.5601 0
      vertex 66.7889 87.6971 0.4
    endloop
  endfacet
  facet normal 0.216436 -0.976297 0
    outer loop
      vertex 64.1078 0.0531769 0.4
      vertex 64.4059 0.119263 1.2
      vertex 64.1078 0.0531769 1.2
    endloop
  endfacet
  facet normal 0.216436 -0.976297 0
    outer loop
      vertex 64.4059 0.119263 1.2
      vertex 64.1078 0.0531769 0.4
      vertex 64.4059 0.119263 0.4
    endloop
  endfacet
  facet normal 0.653327 0.270502 -0.707101
    outer loop
      vertex 66.7889 87.6971 0.4
      vertex 66.4127 87.5601 0
      vertex 66.6721 87.9792 0.4
    endloop
  endfacet
  facet normal 0.430463 -0.560977 -0.707111
    outer loop
      vertex 65.7498 0.818848 0.4
      vertex 65.2778 0.960861 0
      vertex 65.4925 1.12561 0
    endloop
  endfacet
  facet normal -0.153045 -0.690351 -0.707102
    outer loop
      vertex 2.89223 0.0531769 0.4
      vertex 2.59413 0.119263 0.4
      vertex 2.96178 0.447464 0
    endloop
  endfacet
  facet normal 0.596334 0.380033 -0.707079
    outer loop
      vertex 66.5311 88.25 0.4
      vertex 66.0391 88.2778 0
      vertex 66.367 88.5075 0.4
    endloop
  endfacet
  facet normal 0.270599 -0.653271 -0.707116
    outer loop
      vertex 64.6971 0.211075 0.4
      vertex 64.5601 0.587296 0
      vertex 64.9792 0.327927 0.4
    endloop
  endfacet
  facet normal -0.923877 0.38269 0
    outer loop
      vertex 0.211075 87.6971 0.4
      vertex 0.327927 87.9792 1.2
      vertex 0.327927 87.9792 0.4
    endloop
  endfacet
  facet normal -0.923877 0.38269 0
    outer loop
      vertex 0.327927 87.9792 1.2
      vertex 0.211075 87.6971 0.4
      vertex 0.211075 87.6971 1.2
    endloop
  endfacet
  facet normal -0.653271 -0.270618 -0.707109
    outer loop
      vertex 0.690842 2.18994 0
      vertex 0.327927 2.02084 0.4
      vertex 0.587296 2.4399 0
    endloop
  endfacet
  facet normal 0 -1 0
    outer loop
      vertex 3.5 0 0.4
      vertex 63.5 0 1.2
      vertex 3.5 0 1.2
    endloop
  endfacet
  facet normal 0 -1 -0
    outer loop
      vertex 63.5 0 1.2
      vertex 3.5 0 0.4
      vertex 63.5 0 0.4
    endloop
  endfacet
  facet normal 0.707107 0 -0.707107
    outer loop
      vertex 67 86.5 0.4
      vertex 66.6 3.50873 0
      vertex 66.6 86.4913 0
    endloop
  endfacet
  facet normal 0.707107 0 -0.707107
    outer loop
      vertex 66.6 3.50873 0
      vertex 67 86.5 0.4
      vertex 67 3.5 0.4
    endloop
  endfacet
  facet normal 0.0308052 0.706436 -0.707106
    outer loop
      vertex 63.805 89.9867 0.4
      vertex 63.4913 89.6 0
      vertex 63.5 90 0.4
    endloop
  endfacet
  facet normal 0.153071 0.690325 -0.707122
    outer loop
      vertex 64.4059 89.8807 0.4
      vertex 64.0382 89.5525 0
      vertex 64.1078 89.9468 0.4
    endloop
  endfacet
  facet normal -0.0435595 0.999051 0
    outer loop
      vertex 3.5 90 0.4
      vertex 3.19496 89.9867 1.2
      vertex 3.5 90 1.2
    endloop
  endfacet
  facet normal -0.0435595 0.999051 0
    outer loop
      vertex 3.19496 89.9867 1.2
      vertex 3.5 90 0.4
      vertex 3.19496 89.9867 0.4
    endloop
  endfacet
  facet normal 0.561138 0.430291 -0.707088
    outer loop
      vertex 66.367 88.5075 0.4
      vertex 66.0391 88.2778 0
      vertex 66.1812 88.7498 0.4
    endloop
  endfacet
  facet normal -0.270514 0.653333 -0.707091
    outer loop
      vertex 2.4399 89.4127 0
      vertex 2.02084 89.6721 0.4
      vertex 2.30293 89.7889 0.4
    endloop
  endfacet
  facet normal 0.0923755 0.701035 -0.707119
    outer loop
      vertex 64.0382 89.5525 0
      vertex 63.805 89.9867 0.4
      vertex 64.1078 89.9468 0.4
    endloop
  endfacet
  facet normal 0.596312 -0.380068 -0.707078
    outer loop
      vertex 66.5311 1.75 0.4
      vertex 66.0391 1.72223 0
      vertex 66.1844 1.9502 0
    endloop
  endfacet
  facet normal 0 -0.707112 -0.707101
    outer loop
      vertex 3.50873 0.399994 0
      vertex 63.5 0 0.4
      vertex 3.5 0 0.4
    endloop
  endfacet
  facet normal 0 -0.707112 -0.707101
    outer loop
      vertex 63.5 0 0.4
      vertex 3.50873 0.399994 0
      vertex 63.4913 0.399994 0
    endloop
  endfacet
  facet normal 0.88697 0.461827 0
    outer loop
      vertex 66.6721 87.9792 1.2
      vertex 66.5311 88.25 0.4
      vertex 66.5311 88.25 1.2
    endloop
  endfacet
  facet normal 0.88697 0.461827 0
    outer loop
      vertex 66.5311 88.25 0.4
      vertex 66.6721 87.9792 1.2
      vertex 66.6721 87.9792 0.4
    endloop
  endfacet
  facet normal 0.0308538 -0.70644 -0.7071
    outer loop
      vertex 63.5 0 0.4
      vertex 63.4913 0.399994 0
      vertex 63.805 0.0133209 0.4
    endloop
  endfacet
  facet normal -0.430343 0.561067 -0.707113
    outer loop
      vertex 1.72223 89.0391 0
      vertex 1.25024 89.1812 0.4
      vertex 1.49248 89.367 0.4
    endloop
  endfacet
  facet normal -0.95372 -0.300697 0
    outer loop
      vertex 0.211075 2.30293 0.4
      vertex 0.119263 2.59413 1.2
      vertex 0.119263 2.59413 0.4
    endloop
  endfacet
  facet normal -0.95372 -0.300697 0
    outer loop
      vertex 0.119263 2.59413 1.2
      vertex 0.211075 2.30293 0.4
      vertex 0.211075 2.30293 1.2
    endloop
  endfacet
  facet normal -0.0922988 -0.701064 -0.7071
    outer loop
      vertex 3.19496 0.0133209 0.4
      vertex 2.89223 0.0531769 0.4
      vertex 2.96178 0.447464 0
    endloop
  endfacet
  facet normal 0.701035 0.0923755 -0.707119
    outer loop
      vertex 66.9867 86.805 0.4
      vertex 66.5525 87.0382 0
      vertex 66.9468 87.1078 0.4
    endloop
  endfacet
  facet normal -0.270611 -0.653277 -0.707106
    outer loop
      vertex 2.30293 0.211075 0.4
      vertex 2.02084 0.327927 0.4
      vertex 2.4399 0.587296 0
    endloop
  endfacet
  facet normal 0.380032 0.596334 -0.707079
    outer loop
      vertex 65.2778 89.0391 0
      vertex 65.0498 89.1844 0
      vertex 65.25 89.5311 0.4
    endloop
  endfacet
  facet normal 0.690403 -0.152964 -0.707068
    outer loop
      vertex 66.8807 2.59413 0.4
      vertex 66.494 2.69774 0
      vertex 66.5525 2.96178 0
    endloop
  endfacet
  facet normal -0.999048 0.0436335 0
    outer loop
      vertex 0 86.5 0.4
      vertex 0.0133209 86.805 1.2
      vertex 0.0133209 86.805 0.4
    endloop
  endfacet
  facet normal -0.999048 0.0436335 0
    outer loop
      vertex 0.0133209 86.805 1.2
      vertex 0 86.5 0.4
      vertex 0 86.5 1.2
    endloop
  endfacet
  facet normal -0.737251 0.675618 0
    outer loop
      vertex 0.818848 88.7498 0.4
      vertex 1.02513 88.9749 1.2
      vertex 1.02513 88.9749 0.4
    endloop
  endfacet
  facet normal -0.737251 0.675618 0
    outer loop
      vertex 1.02513 88.9749 1.2
      vertex 0.818848 88.7498 0.4
      vertex 0.818848 88.7498 1.2
    endloop
  endfacet
  facet normal 0.270502 0.653327 -0.707101
    outer loop
      vertex 64.9792 89.6721 0.4
      vertex 64.5601 89.4127 0
      vertex 64.6971 89.7889 0.4
    endloop
  endfacet
  facet normal -0.0922771 -0.701059 -0.707107
    outer loop
      vertex 3.19496 0.0133209 0.4
      vertex 2.96178 0.447464 0
      vertex 3.22992 0.41217 0
    endloop
  endfacet
  facet normal 0.99143 0.130641 0
    outer loop
      vertex 66.9867 86.805 1.2
      vertex 66.9468 87.1078 0.4
      vertex 66.9468 87.1078 1.2
    endloop
  endfacet
  facet normal 0.99143 0.130641 0
    outer loop
      vertex 66.9468 87.1078 0.4
      vertex 66.9867 86.805 1.2
      vertex 66.9867 86.805 0.4
    endloop
  endfacet
  facet normal -0.843389 0.537303 0
    outer loop
      vertex 0.468918 88.25 0.4
      vertex 0.632965 88.5075 1.2
      vertex 0.632965 88.5075 0.4
    endloop
  endfacet
  facet normal -0.843389 0.537303 0
    outer loop
      vertex 0.632965 88.5075 1.2
      vertex 0.468918 88.25 0.4
      vertex 0.468918 88.25 1.2
    endloop
  endfacet
  facet normal 0.0922916 -0.701065 -0.7071
    outer loop
      vertex 63.805 0.0133209 0.4
      vertex 63.7701 0.41217 0
      vertex 64.0382 0.447464 0
    endloop
  endfacet
  facet normal 0.627208 0.326556 -0.707086
    outer loop
      vertex 66.3092 87.8101 0
      vertex 66.1844 88.0498 0
      vertex 66.6721 87.9792 0.4
    endloop
  endfacet
  facet normal 0.47769 0.521378 -0.707091
    outer loop
      vertex 65.6918 88.6918 0
      vertex 65.4925 88.8744 0
      vertex 65.9749 88.9749 0.4
    endloop
  endfacet
  facet normal -0.596388 -0.379915 -0.707097
    outer loop
      vertex 0.632965 1.49248 0.4
      vertex 0.468918 1.75 0.4
      vertex 0.960861 1.72223 0
    endloop
  endfacet
  facet normal -0.701065 0.0922916 -0.7071
    outer loop
      vertex 0.41217 86.7701 0
      vertex 0.0133209 86.805 0.4
      vertex 0.447464 87.0382 0
    endloop
  endfacet
  facet normal 0 1 -0
    outer loop
      vertex 63.5 90 0.4
      vertex 3.5 90 1.2
      vertex 63.5 90 1.2
    endloop
  endfacet
  facet normal 0 1 0
    outer loop
      vertex 3.5 90 1.2
      vertex 63.5 90 0.4
      vertex 3.5 90 0.4
    endloop
  endfacet
  facet normal 0.627226 -0.326536 -0.70708
    outer loop
      vertex 66.5311 1.75 0.4
      vertex 66.1844 1.9502 0
      vertex 66.6721 2.02084 0.4
    endloop
  endfacet
  facet normal -0.627197 0.326548 -0.7071
    outer loop
      vertex 0.815643 88.0498 0
      vertex 0.327927 87.9792 0.4
      vertex 0.468918 88.25 0.4
    endloop
  endfacet
  facet normal -0.608773 -0.793344 0
    outer loop
      vertex 1.25024 0.818848 0.4
      vertex 1.49248 0.632965 1.2
      vertex 1.25024 0.818848 1.2
    endloop
  endfacet
  facet normal -0.608773 -0.793344 -0
    outer loop
      vertex 1.49248 0.632965 1.2
      vertex 1.25024 0.818848 0.4
      vertex 1.49248 0.632965 0.4
    endloop
  endfacet
  facet normal 0.976287 0.21648 0
    outer loop
      vertex 66.9468 87.1078 1.2
      vertex 66.8807 87.4059 0.4
      vertex 66.8807 87.4059 1.2
    endloop
  endfacet
  facet normal 0.976287 0.21648 0
    outer loop
      vertex 66.8807 87.4059 0.4
      vertex 66.9468 87.1078 1.2
      vertex 66.9468 87.1078 0.4
    endloop
  endfacet
  facet normal -0.21648 0.976287 0
    outer loop
      vertex 2.89223 89.9468 0.4
      vertex 2.59413 89.8807 1.2
      vertex 2.89223 89.9468 1.2
    endloop
  endfacet
  facet normal -0.21648 0.976287 0
    outer loop
      vertex 2.59413 89.8807 1.2
      vertex 2.89223 89.9468 0.4
      vertex 2.59413 89.8807 0.4
    endloop
  endfacet
  facet normal 0.38269 -0.923877 0
    outer loop
      vertex 64.6971 0.211075 0.4
      vertex 64.9792 0.327927 1.2
      vertex 64.6971 0.211075 1.2
    endloop
  endfacet
  facet normal 0.38269 -0.923877 0
    outer loop
      vertex 64.9792 0.327927 1.2
      vertex 64.6971 0.211075 0.4
      vertex 64.9792 0.327927 0.4
    endloop
  endfacet
  facet normal 0.212604 0.674403 -0.707093
    outer loop
      vertex 64.5601 89.4127 0
      vertex 64.4059 89.8807 0.4
      vertex 64.6971 89.7889 0.4
    endloop
  endfacet
  facet normal 0.674406 0.212681 -0.707067
    outer loop
      vertex 66.494 87.3023 0
      vertex 66.4127 87.5601 0
      vertex 66.8807 87.4059 0.4
    endloop
  endfacet
  facet normal -0.477723 -0.521329 -0.707104
    outer loop
      vertex 1.50754 1.12561 0
      vertex 1.02513 1.02513 0.4
      vertex 1.30824 1.30824 0
    endloop
  endfacet
  facet normal -0.477731 0.521289 -0.707129
    outer loop
      vertex 1.50754 88.8744 0
      vertex 1.02513 88.9749 0.4
      vertex 1.25024 89.1812 0.4
    endloop
  endfacet
  facet normal -0.56105 0.430416 -0.707082
    outer loop
      vertex 0.960861 88.2778 0
      vertex 0.632965 88.5075 0.4
      vertex 0.818848 88.7498 0.4
    endloop
  endfacet
  facet normal 0.030911 0.706392 -0.707146
    outer loop
      vertex 63.7701 89.5878 0
      vertex 63.4913 89.6 0
      vertex 63.805 89.9867 0.4
    endloop
  endfacet
  facet normal -0.130529 -0.991445 0
    outer loop
      vertex 2.89223 0.0531769 0.4
      vertex 3.19496 0.0133209 1.2
      vertex 2.89223 0.0531769 1.2
    endloop
  endfacet
  facet normal -0.130529 -0.991445 -0
    outer loop
      vertex 3.19496 0.0133209 1.2
      vertex 2.89223 0.0531769 0.4
      vertex 3.19496 0.0133209 0.4
    endloop
  endfacet
  facet normal -0.690342 0.153043 -0.707111
    outer loop
      vertex 0.447464 87.0382 0
      vertex 0.0531769 87.1078 0.4
      vertex 0.119263 87.4059 0.4
    endloop
  endfacet
  facet normal 0.737222 0.67565 0
    outer loop
      vertex 66.1812 88.7498 1.2
      vertex 65.9749 88.9749 0.4
      vertex 65.9749 88.9749 1.2
    endloop
  endfacet
  facet normal 0.737222 0.67565 0
    outer loop
      vertex 65.9749 88.9749 0.4
      vertex 66.1812 88.7498 1.2
      vertex 66.1812 88.7498 0.4
    endloop
  endfacet
  facet normal -0.430475 -0.560967 -0.707112
    outer loop
      vertex 1.72223 0.960861 0
      vertex 1.25024 0.818848 0.4
      vertex 1.50754 1.12561 0
    endloop
  endfacet
  facet normal -0.537273 -0.843408 0
    outer loop
      vertex 1.49248 0.632965 0.4
      vertex 1.75 0.468918 1.2
      vertex 1.49248 0.632965 1.2
    endloop
  endfacet
  facet normal -0.537273 -0.843408 -0
    outer loop
      vertex 1.75 0.468918 1.2
      vertex 1.49248 0.632965 0.4
      vertex 1.75 0.468918 0.4
    endloop
  endfacet
  facet normal 0.326556 0.627208 -0.707086
    outer loop
      vertex 65.0498 89.1844 0
      vertex 64.8101 89.3092 0
      vertex 64.9792 89.6721 0.4
    endloop
  endfacet
  facet normal -0.212626 -0.674385 -0.707103
    outer loop
      vertex 2.59413 0.119263 0.4
      vertex 2.30293 0.211075 0.4
      vertex 2.4399 0.587296 0
    endloop
  endfacet
  facet normal -0.477724 -0.521328 -0.707105
    outer loop
      vertex 1.25024 0.818848 0.4
      vertex 1.02513 1.02513 0.4
      vertex 1.50754 1.12561 0
    endloop
  endfacet
  facet normal -0.0922868 0.701013 -0.707152
    outer loop
      vertex 3.22992 89.5878 0
      vertex 2.96178 89.5525 0
      vertex 3.19496 89.9867 0.4
    endloop
  endfacet
  facet normal 0.690334 -0.153073 -0.707112
    outer loop
      vertex 66.8807 2.59413 0.4
      vertex 66.5525 2.96178 0
      vertex 66.9468 2.89223 0.4
    endloop
  endfacet
  facet normal -0.0923972 0.701038 -0.707113
    outer loop
      vertex 2.96178 89.5525 0
      vertex 2.89223 89.9468 0.4
      vertex 3.19496 89.9867 0.4
    endloop
  endfacet
  facet normal -0.212606 0.674411 -0.707085
    outer loop
      vertex 2.4399 89.4127 0
      vertex 2.30293 89.7889 0.4
      vertex 2.59413 89.8807 0.4
    endloop
  endfacet
  facet normal 0.430291 0.561138 -0.707088
    outer loop
      vertex 65.7498 89.1812 0.4
      vertex 65.2778 89.0391 0
      vertex 65.5075 89.367 0.4
    endloop
  endfacet
  facet normal 0.84333 -0.537397 0
    outer loop
      vertex 66.367 1.49248 1.2
      vertex 66.5311 1.75 0.4
      vertex 66.5311 1.75 1.2
    endloop
  endfacet
  facet normal 0.84333 -0.537397 0
    outer loop
      vertex 66.5311 1.75 0.4
      vertex 66.367 1.49248 1.2
      vertex 66.367 1.49248 0.4
    endloop
  endfacet
  facet normal 0.382545 0.923937 -0
    outer loop
      vertex 64.9792 89.6721 0.4
      vertex 64.6971 89.7889 1.2
      vertex 64.9792 89.6721 1.2
    endloop
  endfacet
  facet normal 0.382545 0.923937 0
    outer loop
      vertex 64.6971 89.7889 1.2
      vertex 64.9792 89.6721 0.4
      vertex 64.6971 89.7889 0.4
    endloop
  endfacet
  facet normal -0.212599 -0.674384 -0.707112
    outer loop
      vertex 2.59413 0.119263 0.4
      vertex 2.4399 0.587296 0
      vertex 2.69774 0.506012 0
    endloop
  endfacet
  facet normal -0.380068 0.596312 -0.707078
    outer loop
      vertex 1.9502 89.1844 0
      vertex 1.72223 89.0391 0
      vertex 1.75 89.5311 0.4
    endloop
  endfacet
  facet normal -0.521333 0.477728 -0.707098
    outer loop
      vertex 1.12561 88.4925 0
      vertex 1.02513 88.9749 0.4
      vertex 1.30824 88.6918 0
    endloop
  endfacet
  facet normal 0.379868 -0.596413 -0.707102
    outer loop
      vertex 65.25 0.468918 0.4
      vertex 65.0498 0.815643 0
      vertex 65.2778 0.960861 0
    endloop
  endfacet
  facet normal -0.95372 0.300697 0
    outer loop
      vertex 0.119263 87.4059 0.4
      vertex 0.211075 87.6971 1.2
      vertex 0.211075 87.6971 0.4
    endloop
  endfacet
  facet normal -0.95372 0.300697 0
    outer loop
      vertex 0.211075 87.6971 1.2
      vertex 0.119263 87.4059 0.4
      vertex 0.119263 87.4059 1.2
    endloop
  endfacet
  facet normal -0.461773 0.886998 0
    outer loop
      vertex 2.02084 89.6721 0.4
      vertex 1.75 89.5311 1.2
      vertex 2.02084 89.6721 1.2
    endloop
  endfacet
  facet normal -0.461773 0.886998 0
    outer loop
      vertex 1.75 89.5311 1.2
      vertex 2.02084 89.6721 0.4
      vertex 1.75 89.5311 0.4
    endloop
  endfacet
  facet normal -0.379999 0.596328 -0.707102
    outer loop
      vertex 1.72223 89.0391 0
      vertex 1.49248 89.367 0.4
      vertex 1.75 89.5311 0.4
    endloop
  endfacet
  facet normal -0.152964 0.690403 -0.707068
    outer loop
      vertex 2.69774 89.494 0
      vertex 2.59413 89.8807 0.4
      vertex 2.96178 89.5525 0
    endloop
  endfacet
  facet normal 0.477736 -0.521317 -0.707104
    outer loop
      vertex 65.7498 0.818848 0.4
      vertex 65.4925 1.12561 0
      vertex 65.9749 1.02513 0.4
    endloop
  endfacet
  facet normal -0.560979 -0.430468 -0.707107
    outer loop
      vertex 0.818848 1.25024 0.4
      vertex 0.632965 1.49248 0.4
      vertex 0.960861 1.72223 0
    endloop
  endfacet
  facet normal -0.653271 0.270599 -0.707116
    outer loop
      vertex 0.587296 87.5601 0
      vertex 0.211075 87.6971 0.4
      vertex 0.327927 87.9792 0.4
    endloop
  endfacet
  facet normal -0.674384 -0.212599 -0.707112
    outer loop
      vertex 0.587296 2.4399 0
      vertex 0.119263 2.59413 0.4
      vertex 0.506012 2.69774 0
    endloop
  endfacet
  facet normal 0.923932 -0.382556 0
    outer loop
      vertex 66.6721 2.02084 1.2
      vertex 66.7889 2.30293 0.4
      vertex 66.7889 2.30293 1.2
    endloop
  endfacet
  facet normal 0.923932 -0.382556 0
    outer loop
      vertex 66.7889 2.30293 0.4
      vertex 66.6721 2.02084 1.2
      vertex 66.6721 2.02084 0.4
    endloop
  endfacet
  facet normal -0.886982 0.461804 0
    outer loop
      vertex 0.327927 87.9792 0.4
      vertex 0.468918 88.25 1.2
      vertex 0.468918 88.25 0.4
    endloop
  endfacet
  facet normal -0.886982 0.461804 0
    outer loop
      vertex 0.468918 88.25 1.2
      vertex 0.327927 87.9792 0.4
      vertex 0.327927 87.9792 1.2
    endloop
  endfacet
  facet normal 0.561019 0.430367 -0.707136
    outer loop
      vertex 66.0391 88.2778 0
      vertex 65.8744 88.4925 0
      vertex 66.1812 88.7498 0.4
    endloop
  endfacet
  facet normal -0.560977 0.430463 -0.707111
    outer loop
      vertex 0.960861 88.2778 0
      vertex 0.818848 88.7498 0.4
      vertex 1.12561 88.4925 0
    endloop
  endfacet
  facet normal 0.706435 -0.0308012 -0.707107
    outer loop
      vertex 66.9867 3.19496 0.4
      vertex 66.6 3.50873 0
      vertex 67 3.5 0.4
    endloop
  endfacet
  facet normal 0.706436 0.0308052 -0.707106
    outer loop
      vertex 67 86.5 0.4
      vertex 66.6 86.4913 0
      vertex 66.9867 86.805 0.4
    endloop
  endfacet
  facet normal -0.608602 0.793476 0
    outer loop
      vertex 1.49248 89.367 0.4
      vertex 1.25024 89.1812 1.2
      vertex 1.49248 89.367 1.2
    endloop
  endfacet
  facet normal -0.608602 0.793476 0
    outer loop
      vertex 1.25024 89.1812 1.2
      vertex 1.49248 89.367 0.4
      vertex 1.25024 89.1812 0.4
    endloop
  endfacet
  facet normal -0.675634 0.737237 0
    outer loop
      vertex 1.25024 89.1812 0.4
      vertex 1.02513 88.9749 1.2
      vertex 1.25024 89.1812 1.2
    endloop
  endfacet
  facet normal -0.675634 0.737237 0
    outer loop
      vertex 1.02513 88.9749 1.2
      vertex 1.25024 89.1812 0.4
      vertex 1.02513 88.9749 0.4
    endloop
  endfacet
  facet normal 0.300697 -0.95372 0
    outer loop
      vertex 64.4059 0.119263 0.4
      vertex 64.6971 0.211075 1.2
      vertex 64.4059 0.119263 1.2
    endloop
  endfacet
  facet normal 0.300697 -0.95372 0
    outer loop
      vertex 64.6971 0.211075 1.2
      vertex 64.4059 0.119263 0.4
      vertex 64.6971 0.211075 0.4
    endloop
  endfacet
  facet normal -0.627197 0.326553 -0.707098
    outer loop
      vertex 0.690842 87.8101 0
      vertex 0.327927 87.9792 0.4
      vertex 0.815643 88.0498 0
    endloop
  endfacet
  facet normal -0.596413 0.379868 -0.707102
    outer loop
      vertex 0.815643 88.0498 0
      vertex 0.468918 88.25 0.4
      vertex 0.960861 88.2778 0
    endloop
  endfacet
  facet normal -0.701059 -0.0922771 -0.707107
    outer loop
      vertex 0.447464 2.96178 0
      vertex 0.0133209 3.19496 0.4
      vertex 0.41217 3.22992 0
    endloop
  endfacet
  facet normal -0.0309098 0.706389 -0.707148
    outer loop
      vertex 3.22992 89.5878 0
      vertex 3.19496 89.9867 0.4
      vertex 3.50873 89.6 0
    endloop
  endfacet
  facet normal -0.300661 0.953731 0
    outer loop
      vertex 2.59413 89.8807 0.4
      vertex 2.30293 89.7889 1.2
      vertex 2.59413 89.8807 1.2
    endloop
  endfacet
  facet normal -0.300661 0.953731 0
    outer loop
      vertex 2.30293 89.7889 1.2
      vertex 2.59413 89.8807 0.4
      vertex 2.30293 89.7889 0.4
    endloop
  endfacet
  facet normal 0.706392 0.030911 -0.707146
    outer loop
      vertex 66.6 86.4913 0
      vertex 66.5878 86.7701 0
      vertex 66.9867 86.805 0.4
    endloop
  endfacet
  facet normal -0.521329 -0.477723 -0.707104
    outer loop
      vertex 1.30824 1.30824 0
      vertex 1.02513 1.02513 0.4
      vertex 1.12561 1.50754 0
    endloop
  endfacet
  facet normal 0.380033 0.596334 -0.707079
    outer loop
      vertex 65.2778 89.0391 0
      vertex 65.25 89.5311 0.4
      vertex 65.5075 89.367 0.4
    endloop
  endfacet
  facet normal 0.737237 -0.675634 0
    outer loop
      vertex 65.9749 1.02513 1.2
      vertex 66.1812 1.25024 0.4
      vertex 66.1812 1.25024 1.2
    endloop
  endfacet
  facet normal 0.737237 -0.675634 0
    outer loop
      vertex 66.1812 1.25024 0.4
      vertex 65.9749 1.02513 1.2
      vertex 65.9749 1.02513 0.4
    endloop
  endfacet
  facet normal -0.991448 0.130499 0
    outer loop
      vertex 0.0133209 86.805 0.4
      vertex 0.0531769 87.1078 1.2
      vertex 0.0531769 87.1078 0.4
    endloop
  endfacet
  facet normal -0.991448 0.130499 0
    outer loop
      vertex 0.0531769 87.1078 1.2
      vertex 0.0133209 86.805 0.4
      vertex 0.0133209 86.805 1.2
    endloop
  endfacet
  facet normal -0.521317 0.477736 -0.707104
    outer loop
      vertex 1.12561 88.4925 0
      vertex 0.818848 88.7498 0.4
      vertex 1.02513 88.9749 0.4
    endloop
  endfacet
  facet normal -0.596394 0.379948 -0.707074
    outer loop
      vertex 0.960861 88.2778 0
      vertex 0.468918 88.25 0.4
      vertex 0.632965 88.5075 0.4
    endloop
  endfacet
  facet normal -0.43038 0.561009 -0.707136
    outer loop
      vertex 1.50754 88.8744 0
      vertex 1.25024 89.1812 0.4
      vertex 1.72223 89.0391 0
    endloop
  endfacet
  facet normal 0.0923012 0.701019 -0.707144
    outer loop
      vertex 64.0382 89.5525 0
      vertex 63.7701 89.5878 0
      vertex 63.805 89.9867 0.4
    endloop
  endfacet
  facet normal -0.382556 0.923932 0
    outer loop
      vertex 2.30293 89.7889 0.4
      vertex 2.02084 89.6721 1.2
      vertex 2.30293 89.7889 1.2
    endloop
  endfacet
  facet normal -0.382556 0.923932 0
    outer loop
      vertex 2.02084 89.6721 1.2
      vertex 2.30293 89.7889 0.4
      vertex 2.02084 89.6721 0.4
    endloop
  endfacet
  facet normal -0.701062 0.0922771 -0.707105
    outer loop
      vertex 0.447464 87.0382 0
      vertex 0.0133209 86.805 0.4
      vertex 0.0531769 87.1078 0.4
    endloop
  endfacet
  facet normal 0.701019 0.0923012 -0.707144
    outer loop
      vertex 66.5878 86.7701 0
      vertex 66.5525 87.0382 0
      vertex 66.9867 86.805 0.4
    endloop
  endfacet
  facet normal -0.300697 -0.95372 0
    outer loop
      vertex 2.30293 0.211075 0.4
      vertex 2.59413 0.119263 1.2
      vertex 2.30293 0.211075 1.2
    endloop
  endfacet
  facet normal -0.300697 -0.95372 -0
    outer loop
      vertex 2.59413 0.119263 1.2
      vertex 2.30293 0.211075 0.4
      vertex 2.59413 0.119263 0.4
    endloop
  endfacet
  facet normal -0.0436278 -0.999048 0
    outer loop
      vertex 3.19496 0.0133209 0.4
      vertex 3.5 0 1.2
      vertex 3.19496 0.0133209 1.2
    endloop
  endfacet
  facet normal -0.0436278 -0.999048 -0
    outer loop
      vertex 3.5 0 1.2
      vertex 3.19496 0.0133209 0.4
      vertex 3.5 0 0.4
    endloop
  endfacet
  facet normal -0.430468 -0.560979 -0.707107
    outer loop
      vertex 1.49248 0.632965 0.4
      vertex 1.25024 0.818848 0.4
      vertex 1.72223 0.960861 0
    endloop
  endfacet
  facet normal -0.379915 -0.596388 -0.707097
    outer loop
      vertex 1.75 0.468918 0.4
      vertex 1.49248 0.632965 0.4
      vertex 1.72223 0.960861 0
    endloop
  endfacet
  facet normal 0.953731 -0.300661 0
    outer loop
      vertex 66.7889 2.30293 1.2
      vertex 66.8807 2.59413 0.4
      vertex 66.8807 2.59413 1.2
    endloop
  endfacet
  facet normal 0.953731 -0.300661 0
    outer loop
      vertex 66.8807 2.59413 0.4
      vertex 66.7889 2.30293 1.2
      vertex 66.7889 2.30293 0.4
    endloop
  endfacet
  facet normal -0.675602 -0.737266 0
    outer loop
      vertex 1.02513 1.02513 0.4
      vertex 1.25024 0.818848 1.2
      vertex 1.02513 1.02513 1.2
    endloop
  endfacet
  facet normal -0.675602 -0.737266 -0
    outer loop
      vertex 1.25024 0.818848 1.2
      vertex 1.02513 1.02513 0.4
      vertex 1.25024 0.818848 0.4
    endloop
  endfacet
  facet normal 0.627229 -0.326513 -0.707087
    outer loop
      vertex 66.6721 2.02084 0.4
      vertex 66.1844 1.9502 0
      vertex 66.3092 2.18994 0
    endloop
  endfacet
  facet normal 0.326553 -0.627197 -0.707098
    outer loop
      vertex 64.9792 0.327927 0.4
      vertex 64.8101 0.690842 0
      vertex 65.0498 0.815643 0
    endloop
  endfacet
  facet normal -0.0308511 -0.706438 -0.707102
    outer loop
      vertex 3.50873 0.399994 0
      vertex 3.19496 0.0133209 0.4
      vertex 3.22992 0.41217 0
    endloop
  endfacet
  facet normal -0.560967 -0.430475 -0.707112
    outer loop
      vertex 1.12561 1.50754 0
      vertex 0.818848 1.25024 0.4
      vertex 0.960861 1.72223 0
    endloop
  endfacet
  facet normal -0.701064 -0.0922988 -0.7071
    outer loop
      vertex 0.0531769 2.89223 0.4
      vertex 0.0133209 3.19496 0.4
      vertex 0.447464 2.96178 0
    endloop
  endfacet
  facet normal -0.270618 -0.653271 -0.707109
    outer loop
      vertex 2.4399 0.587296 0
      vertex 2.02084 0.327927 0.4
      vertex 2.18994 0.690842 0
    endloop
  endfacet
  facet normal -0.674385 -0.212626 -0.707103
    outer loop
      vertex 0.211075 2.30293 0.4
      vertex 0.119263 2.59413 0.4
      vertex 0.587296 2.4399 0
    endloop
  endfacet
  facet normal 0.379948 -0.596394 -0.707074
    outer loop
      vertex 65.5075 0.632965 0.4
      vertex 65.25 0.468918 0.4
      vertex 65.2778 0.960861 0
    endloop
  endfacet
  facet normal -0.270521 0.653327 -0.707094
    outer loop
      vertex 2.18994 89.3092 0
      vertex 2.02084 89.6721 0.4
      vertex 2.4399 89.4127 0
    endloop
  endfacet
  facet normal -0.706439 -0.0308497 -0.707101
    outer loop
      vertex 0.0133209 3.19496 0.4
      vertex 0 3.5 0.4
      vertex 0.399994 3.50873 0
    endloop
  endfacet
  facet normal -0.923872 -0.382702 0
    outer loop
      vertex 0.327927 2.02084 0.4
      vertex 0.211075 2.30293 1.2
      vertex 0.211075 2.30293 0.4
    endloop
  endfacet
  facet normal -0.923872 -0.382702 0
    outer loop
      vertex 0.211075 2.30293 1.2
      vertex 0.327927 2.02084 0.4
      vertex 0.327927 2.02084 1.2
    endloop
  endfacet
  facet normal -0.153074 -0.690333 -0.707113
    outer loop
      vertex 2.96178 0.447464 0
      vertex 2.59413 0.119263 0.4
      vertex 2.69774 0.506012 0
    endloop
  endfacet
  facet normal -0.690351 -0.153045 -0.707102
    outer loop
      vertex 0.119263 2.59413 0.4
      vertex 0.0531769 2.89223 0.4
      vertex 0.447464 2.96178 0
    endloop
  endfacet
  facet normal -0.653277 -0.270611 -0.707106
    outer loop
      vertex 0.327927 2.02084 0.4
      vertex 0.211075 2.30293 0.4
      vertex 0.587296 2.4399 0
    endloop
  endfacet
  facet normal 0.521289 -0.477731 -0.707129
    outer loop
      vertex 65.9749 1.02513 0.4
      vertex 65.8744 1.50754 0
      vertex 66.1812 1.25024 0.4
    endloop
  endfacet
  facet normal 0.0922771 -0.701062 -0.707105
    outer loop
      vertex 64.1078 0.0531769 0.4
      vertex 63.805 0.0133209 0.4
      vertex 64.0382 0.447464 0
    endloop
  endfacet
  facet normal -0.70644 0.0308538 -0.7071
    outer loop
      vertex 0.399994 86.4913 0
      vertex 0 86.5 0.4
      vertex 0.0133209 86.805 0.4
    endloop
  endfacet
  facet normal -0.32651 -0.627218 -0.707099
    outer loop
      vertex 2.02084 0.327927 0.4
      vertex 1.9502 0.815643 0
      vertex 2.18994 0.690842 0
    endloop
  endfacet
  facet normal 0.674412 -0.21265 -0.70707
    outer loop
      vertex 66.8807 2.59413 0.4
      vertex 66.4127 2.4399 0
      vertex 66.494 2.69774 0
    endloop
  endfacet
  facet normal -0.46175 -0.88701 0
    outer loop
      vertex 1.75 0.468918 0.4
      vertex 2.02084 0.327927 1.2
      vertex 1.75 0.468918 1.2
    endloop
  endfacet
  facet normal -0.46175 -0.88701 -0
    outer loop
      vertex 2.02084 0.327927 1.2
      vertex 1.75 0.468918 0.4
      vertex 2.02084 0.327927 0.4
    endloop
  endfacet
  facet normal 0.608678 -0.793417 0
    outer loop
      vertex 65.5075 0.632965 0.4
      vertex 65.7498 0.818848 1.2
      vertex 65.5075 0.632965 1.2
    endloop
  endfacet
  facet normal 0.608678 -0.793417 0
    outer loop
      vertex 65.7498 0.818848 1.2
      vertex 65.5075 0.632965 0.4
      vertex 65.7498 0.818848 0.4
    endloop
  endfacet
  facet normal -0.0308497 -0.706439 -0.707101
    outer loop
      vertex 3.5 0 0.4
      vertex 3.19496 0.0133209 0.4
      vertex 3.50873 0.399994 0
    endloop
  endfacet
  facet normal 0.690325 0.153071 -0.707122
    outer loop
      vertex 66.9468 87.1078 0.4
      vertex 66.5525 87.0382 0
      vertex 66.8807 87.4059 0.4
    endloop
  endfacet
  facet normal 0.690413 0.152931 -0.707066
    outer loop
      vertex 66.5525 87.0382 0
      vertex 66.494 87.3023 0
      vertex 66.8807 87.4059 0.4
    endloop
  endfacet
  facet normal 0.130499 -0.991448 0
    outer loop
      vertex 63.805 0.0133209 0.4
      vertex 64.1078 0.0531769 1.2
      vertex 63.805 0.0133209 1.2
    endloop
  endfacet
  facet normal 0.130499 -0.991448 0
    outer loop
      vertex 64.1078 0.0531769 1.2
      vertex 63.805 0.0133209 0.4
      vertex 64.1078 0.0531769 0.4
    endloop
  endfacet
  facet normal 0.793476 -0.608602 0
    outer loop
      vertex 66.1812 1.25024 1.2
      vertex 66.367 1.49248 0.4
      vertex 66.367 1.49248 1.2
    endloop
  endfacet
  facet normal 0.793476 -0.608602 0
    outer loop
      vertex 66.367 1.49248 0.4
      vertex 66.1812 1.25024 1.2
      vertex 66.1812 1.25024 0.4
    endloop
  endfacet
  facet normal 0.674411 -0.212606 -0.707085
    outer loop
      vertex 66.7889 2.30293 0.4
      vertex 66.4127 2.4399 0
      vertex 66.8807 2.59413 0.4
    endloop
  endfacet
  facet normal 0.653333 -0.270514 -0.707091
    outer loop
      vertex 66.6721 2.02084 0.4
      vertex 66.4127 2.4399 0
      vertex 66.7889 2.30293 0.4
    endloop
  endfacet
  facet normal 0.270484 0.653343 -0.707093
    outer loop
      vertex 64.8101 89.3092 0
      vertex 64.5601 89.4127 0
      vertex 64.9792 89.6721 0.4
    endloop
  endfacet
  facet normal 0.561009 -0.43038 -0.707136
    outer loop
      vertex 66.1812 1.25024 0.4
      vertex 65.8744 1.50754 0
      vertex 66.0391 1.72223 0
    endloop
  endfacet
  facet normal 0.561067 -0.430343 -0.707113
    outer loop
      vertex 66.1812 1.25024 0.4
      vertex 66.0391 1.72223 0
      vertex 66.367 1.49248 0.4
    endloop
  endfacet
  facet normal -0.690333 -0.153074 -0.707113
    outer loop
      vertex 0.506012 2.69774 0
      vertex 0.119263 2.59413 0.4
      vertex 0.447464 2.96178 0
    endloop
  endfacet
  facet normal 0.21263 -0.674378 -0.707109
    outer loop
      vertex 64.4059 0.119263 0.4
      vertex 64.3023 0.506012 0
      vertex 64.5601 0.587296 0
    endloop
  endfacet
  facet normal 0.976287 -0.21648 0
    outer loop
      vertex 66.8807 2.59413 1.2
      vertex 66.9468 2.89223 0.4
      vertex 66.9468 2.89223 1.2
    endloop
  endfacet
  facet normal 0.976287 -0.21648 0
    outer loop
      vertex 66.9468 2.89223 0.4
      vertex 66.8807 2.59413 1.2
      vertex 66.8807 2.59413 0.4
    endloop
  endfacet
  facet normal -0.793417 0.608678 0
    outer loop
      vertex 0.632965 88.5075 0.4
      vertex 0.818848 88.7498 1.2
      vertex 0.818848 88.7498 0.4
    endloop
  endfacet
  facet normal -0.793417 0.608678 0
    outer loop
      vertex 0.818848 88.7498 1.2
      vertex 0.632965 88.5075 0.4
      vertex 0.632965 88.5075 1.2
    endloop
  endfacet
  facet normal -0.991445 -0.130529 0
    outer loop
      vertex 0.0531769 2.89223 0.4
      vertex 0.0133209 3.19496 1.2
      vertex 0.0133209 3.19496 0.4
    endloop
  endfacet
  facet normal -0.991445 -0.130529 0
    outer loop
      vertex 0.0133209 3.19496 1.2
      vertex 0.0531769 2.89223 0.4
      vertex 0.0531769 2.89223 1.2
    endloop
  endfacet
  facet normal -0.999048 -0.0436278 0
    outer loop
      vertex 0.0133209 3.19496 0.4
      vertex 0 3.5 1.2
      vertex 0 3.5 0.4
    endloop
  endfacet
  facet normal -0.999048 -0.0436278 0
    outer loop
      vertex 0 3.5 1.2
      vertex 0.0133209 3.19496 0.4
      vertex 0.0133209 3.19496 1.2
    endloop
  endfacet
  facet normal 0.270581 -0.653287 -0.707108
    outer loop
      vertex 64.9792 0.327927 0.4
      vertex 64.5601 0.587296 0
      vertex 64.8101 0.690842 0
    endloop
  endfacet
  facet normal 0.130641 0.99143 -0
    outer loop
      vertex 64.1078 89.9468 0.4
      vertex 63.805 89.9867 1.2
      vertex 64.1078 89.9468 1.2
    endloop
  endfacet
  facet normal 0.130641 0.99143 0
    outer loop
      vertex 63.805 89.9867 1.2
      vertex 64.1078 89.9468 0.4
      vertex 63.805 89.9867 0.4
    endloop
  endfacet
  facet normal 0.627206 0.326573 -0.707081
    outer loop
      vertex 66.6721 87.9792 0.4
      vertex 66.1844 88.0498 0
      vertex 66.5311 88.25 0.4
    endloop
  endfacet
  facet normal 0.212681 0.674406 -0.707067
    outer loop
      vertex 64.5601 89.4127 0
      vertex 64.3023 89.494 0
      vertex 64.4059 89.8807 0.4
    endloop
  endfacet
  facet normal 0.843311 0.537426 0
    outer loop
      vertex 66.5311 88.25 1.2
      vertex 66.367 88.5075 0.4
      vertex 66.367 88.5075 1.2
    endloop
  endfacet
  facet normal 0.843311 0.537426 0
    outer loop
      vertex 66.367 88.5075 0.4
      vertex 66.5311 88.25 1.2
      vertex 66.5311 88.25 0.4
    endloop
  endfacet
  facet normal 0.608507 0.793548 -0
    outer loop
      vertex 65.7498 89.1812 0.4
      vertex 65.5075 89.367 1.2
      vertex 65.7498 89.1812 1.2
    endloop
  endfacet
  facet normal 0.608507 0.793548 0
    outer loop
      vertex 65.5075 89.367 1.2
      vertex 65.7498 89.1812 0.4
      vertex 65.5075 89.367 0.4
    endloop
  endfacet
  facet normal 0.991426 -0.130671 0
    outer loop
      vertex 66.9468 2.89223 1.2
      vertex 66.9867 3.19496 0.4
      vertex 66.9867 3.19496 1.2
    endloop
  endfacet
  facet normal 0.991426 -0.130671 0
    outer loop
      vertex 66.9867 3.19496 0.4
      vertex 66.9468 2.89223 1.2
      vertex 66.9468 2.89223 0.4
    endloop
  endfacet
  facet normal 0.152931 0.690413 -0.707066
    outer loop
      vertex 64.3023 89.494 0
      vertex 64.0382 89.5525 0
      vertex 64.4059 89.8807 0.4
    endloop
  endfacet
  facet normal 0.521378 0.47769 -0.707091
    outer loop
      vertex 65.8744 88.4925 0
      vertex 65.6918 88.6918 0
      vertex 65.9749 88.9749 0.4
    endloop
  endfacet
  facet normal -0.326513 0.627229 -0.707087
    outer loop
      vertex 2.18994 89.3092 0
      vertex 1.9502 89.1844 0
      vertex 2.02084 89.6721 0.4
    endloop
  endfacet
  facet normal -0.326536 0.627226 -0.70708
    outer loop
      vertex 1.9502 89.1844 0
      vertex 1.75 89.5311 0.4
      vertex 2.02084 89.6721 0.4
    endloop
  endfacet
  facet normal -0.130671 0.991426 0
    outer loop
      vertex 3.19496 89.9867 0.4
      vertex 2.89223 89.9468 1.2
      vertex 3.19496 89.9867 1.2
    endloop
  endfacet
  facet normal -0.130671 0.991426 0
    outer loop
      vertex 2.89223 89.9468 1.2
      vertex 3.19496 89.9867 0.4
      vertex 2.89223 89.9468 0.4
    endloop
  endfacet
  facet normal 0.326573 0.627206 -0.707081
    outer loop
      vertex 65.0498 89.1844 0
      vertex 64.9792 89.6721 0.4
      vertex 65.25 89.5311 0.4
    endloop
  endfacet
  facet normal 0.300661 0.953731 -0
    outer loop
      vertex 64.6971 89.7889 0.4
      vertex 64.4059 89.8807 1.2
      vertex 64.6971 89.7889 1.2
    endloop
  endfacet
  facet normal 0.300661 0.953731 0
    outer loop
      vertex 64.4059 89.8807 1.2
      vertex 64.6971 89.7889 0.4
      vertex 64.4059 89.8807 0.4
    endloop
  endfacet
  facet normal 0.461827 0.88697 -0
    outer loop
      vertex 65.25 89.5311 0.4
      vertex 64.9792 89.6721 1.2
      vertex 65.25 89.5311 1.2
    endloop
  endfacet
  facet normal 0.461827 0.88697 0
    outer loop
      vertex 64.9792 89.6721 1.2
      vertex 65.25 89.5311 0.4
      vertex 64.9792 89.6721 0.4
    endloop
  endfacet
  facet normal 0 0.707107 -0.707107
    outer loop
      vertex 63.4913 89.6 0
      vertex 3.5 90 0.4
      vertex 63.5 90 0.4
    endloop
  endfacet
  facet normal 0 0.707107 -0.707107
    outer loop
      vertex 3.5 90 0.4
      vertex 63.4913 89.6 0
      vertex 3.50873 89.6 0
    endloop
  endfacet
  facet normal 0.153041 -0.690342 -0.707111
    outer loop
      vertex 64.4059 0.119263 0.4
      vertex 64.0382 0.447464 0
      vertex 64.3023 0.506012 0
    endloop
  endfacet
  facet normal -0.976297 -0.216436 0
    outer loop
      vertex 0.119263 2.59413 0.4
      vertex 0.0531769 2.89223 1.2
      vertex 0.0531769 2.89223 0.4
    endloop
  endfacet
  facet normal -0.976297 -0.216436 0
    outer loop
      vertex 0.0531769 2.89223 1.2
      vertex 0.119263 2.59413 0.4
      vertex 0.119263 2.59413 1.2
    endloop
  endfacet
  facet normal 0.653327 -0.270521 -0.707094
    outer loop
      vertex 66.6721 2.02084 0.4
      vertex 66.3092 2.18994 0
      vertex 66.4127 2.4399 0
    endloop
  endfacet
  facet normal 0.653343 0.270484 -0.707093
    outer loop
      vertex 66.4127 87.5601 0
      vertex 66.3092 87.8101 0
      vertex 66.6721 87.9792 0.4
    endloop
  endfacet
  facet normal -0.627218 -0.32651 -0.707099
    outer loop
      vertex 0.815643 1.9502 0
      vertex 0.327927 2.02084 0.4
      vertex 0.690842 2.18994 0
    endloop
  endfacet
  facet normal -0.653287 0.270581 -0.707108
    outer loop
      vertex 0.587296 87.5601 0
      vertex 0.327927 87.9792 0.4
      vertex 0.690842 87.8101 0
    endloop
  endfacet
  facet normal 0.521374 -0.477686 -0.707097
    outer loop
      vertex 65.9749 1.02513 0.4
      vertex 65.6918 1.30824 0
      vertex 65.8744 1.50754 0
    endloop
  endfacet
  facet normal -0.843408 -0.537273 0
    outer loop
      vertex 0.632965 1.49248 0.4
      vertex 0.468918 1.75 1.2
      vertex 0.468918 1.75 0.4
    endloop
  endfacet
  facet normal -0.843408 -0.537273 0
    outer loop
      vertex 0.468918 1.75 1.2
      vertex 0.632965 1.49248 0.4
      vertex 0.632965 1.49248 1.2
    endloop
  endfacet
  facet normal -0.976297 0.216436 0
    outer loop
      vertex 0.0531769 87.1078 0.4
      vertex 0.119263 87.4059 1.2
      vertex 0.119263 87.4059 0.4
    endloop
  endfacet
  facet normal -0.976297 0.216436 0
    outer loop
      vertex 0.119263 87.4059 1.2
      vertex 0.0531769 87.1078 0.4
      vertex 0.0531769 87.1078 1.2
    endloop
  endfacet
  facet normal 0.706389 -0.0309098 -0.707148
    outer loop
      vertex 66.9867 3.19496 0.4
      vertex 66.5878 3.22992 0
      vertex 66.6 3.50873 0
    endloop
  endfacet
  facet normal 0.701013 -0.0922868 -0.707152
    outer loop
      vertex 66.9867 3.19496 0.4
      vertex 66.5525 2.96178 0
      vertex 66.5878 3.22992 0
    endloop
  endfacet
  facet normal 0.886998 -0.461773 0
    outer loop
      vertex 66.5311 1.75 1.2
      vertex 66.6721 2.02084 0.4
      vertex 66.6721 2.02084 1.2
    endloop
  endfacet
  facet normal 0.886998 -0.461773 0
    outer loop
      vertex 66.6721 2.02084 0.4
      vertex 66.5311 1.75 1.2
      vertex 66.5311 1.75 0.4
    endloop
  endfacet
  facet normal -0.216436 -0.976297 0
    outer loop
      vertex 2.59413 0.119263 0.4
      vertex 2.89223 0.0531769 1.2
      vertex 2.59413 0.119263 1.2
    endloop
  endfacet
  facet normal -0.216436 -0.976297 -0
    outer loop
      vertex 2.89223 0.0531769 1.2
      vertex 2.59413 0.119263 0.4
      vertex 2.89223 0.0531769 0.4
    endloop
  endfacet
  facet normal 0.0436335 -0.999048 0
    outer loop
      vertex 63.5 0 0.4
      vertex 63.805 0.0133209 1.2
      vertex 63.5 0 1.2
    endloop
  endfacet
  facet normal 0.0436335 -0.999048 0
    outer loop
      vertex 63.805 0.0133209 1.2
      vertex 63.5 0 0.4
      vertex 63.805 0.0133209 0.4
    endloop
  endfacet
  facet normal 0.537303 -0.843389 0
    outer loop
      vertex 65.25 0.468918 0.4
      vertex 65.5075 0.632965 1.2
      vertex 65.25 0.468918 1.2
    endloop
  endfacet
  facet normal 0.537303 -0.843389 0
    outer loop
      vertex 65.5075 0.632965 1.2
      vertex 65.25 0.468918 0.4
      vertex 65.5075 0.632965 0.4
    endloop
  endfacet
  facet normal 0.675618 -0.737251 0
    outer loop
      vertex 65.7498 0.818848 0.4
      vertex 65.9749 1.02513 1.2
      vertex 65.7498 0.818848 1.2
    endloop
  endfacet
  facet normal 0.675618 -0.737251 0
    outer loop
      vertex 65.9749 1.02513 1.2
      vertex 65.7498 0.818848 0.4
      vertex 65.9749 1.02513 0.4
    endloop
  endfacet
  facet normal 0.153043 -0.690342 -0.707111
    outer loop
      vertex 64.1078 0.0531769 0.4
      vertex 64.0382 0.447464 0
      vertex 64.4059 0.119263 0.4
    endloop
  endfacet
  facet normal -0.596391 -0.379904 -0.707101
    outer loop
      vertex 0.960861 1.72223 0
      vertex 0.468918 1.75 0.4
      vertex 0.815643 1.9502 0
    endloop
  endfacet
  facet normal 0.953731 0.300661 0
    outer loop
      vertex 66.8807 87.4059 1.2
      vertex 66.7889 87.6971 0.4
      vertex 66.7889 87.6971 1.2
    endloop
  endfacet
  facet normal 0.953731 0.300661 0
    outer loop
      vertex 66.7889 87.6971 0.4
      vertex 66.8807 87.4059 1.2
      vertex 66.8807 87.4059 0.4
    endloop
  endfacet
  facet normal -0.477686 0.521374 -0.707097
    outer loop
      vertex 1.30824 88.6918 0
      vertex 1.02513 88.9749 0.4
      vertex 1.50754 88.8744 0
    endloop
  endfacet
  facet normal -0.690342 0.153041 -0.707111
    outer loop
      vertex 0.447464 87.0382 0
      vertex 0.119263 87.4059 0.4
      vertex 0.506012 87.3023 0
    endloop
  endfacet
  facet normal 0.477742 0.521279 -0.707129
    outer loop
      vertex 65.9749 88.9749 0.4
      vertex 65.4925 88.8744 0
      vertex 65.7498 89.1812 0.4
    endloop
  endfacet
  facet normal 0.430367 0.561019 -0.707136
    outer loop
      vertex 65.4925 88.8744 0
      vertex 65.2778 89.0391 0
      vertex 65.7498 89.1812 0.4
    endloop
  endfacet
  facet normal 0.793548 0.608507 0
    outer loop
      vertex 66.367 88.5075 1.2
      vertex 66.1812 88.7498 0.4
      vertex 66.1812 88.7498 1.2
    endloop
  endfacet
  facet normal 0.793548 0.608507 0
    outer loop
      vertex 66.1812 88.7498 0.4
      vertex 66.367 88.5075 1.2
      vertex 66.367 88.5075 0.4
    endloop
  endfacet
  facet normal -0.537397 0.84333 0
    outer loop
      vertex 1.75 89.5311 0.4
      vertex 1.49248 89.367 1.2
      vertex 1.75 89.5311 1.2
    endloop
  endfacet
  facet normal -0.537397 0.84333 0
    outer loop
      vertex 1.49248 89.367 1.2
      vertex 1.75 89.5311 0.4
      vertex 1.49248 89.367 0.4
    endloop
  endfacet
  facet normal 0.0435652 0.999051 -0
    outer loop
      vertex 63.805 89.9867 0.4
      vertex 63.5 90 1.2
      vertex 63.805 89.9867 1.2
    endloop
  endfacet
  facet normal 0.0435652 0.999051 0
    outer loop
      vertex 63.5 90 1.2
      vertex 63.805 89.9867 0.4
      vertex 63.5 90 0.4
    endloop
  endfacet
  facet normal 0.21648 0.976287 -0
    outer loop
      vertex 64.4059 89.8807 0.4
      vertex 64.1078 89.9468 1.2
      vertex 64.4059 89.8807 1.2
    endloop
  endfacet
  facet normal 0.21648 0.976287 0
    outer loop
      vertex 64.1078 89.9468 1.2
      vertex 64.4059 89.8807 0.4
      vertex 64.1078 89.9468 0.4
    endloop
  endfacet
  facet normal 0.326548 -0.627197 -0.7071
    outer loop
      vertex 65.25 0.468918 0.4
      vertex 64.9792 0.327927 0.4
      vertex 65.0498 0.815643 0
    endloop
  endfacet
  facet normal -0.521328 -0.477724 -0.707105
    outer loop
      vertex 1.02513 1.02513 0.4
      vertex 0.818848 1.25024 0.4
      vertex 1.12561 1.50754 0
    endloop
  endfacet
  facet normal -0.737266 -0.675602 0
    outer loop
      vertex 1.02513 1.02513 0.4
      vertex 0.818848 1.25024 1.2
      vertex 0.818848 1.25024 0.4
    endloop
  endfacet
  facet normal -0.737266 -0.675602 0
    outer loop
      vertex 0.818848 1.25024 1.2
      vertex 1.02513 1.02513 0.4
      vertex 1.02513 1.02513 1.2
    endloop
  endfacet
  facet normal 0.477728 -0.521333 -0.707098
    outer loop
      vertex 65.9749 1.02513 0.4
      vertex 65.4925 1.12561 0
      vertex 65.6918 1.30824 0
    endloop
  endfacet
  facet normal 0.461804 -0.886982 0
    outer loop
      vertex 64.9792 0.327927 0.4
      vertex 65.25 0.468918 1.2
      vertex 64.9792 0.327927 1.2
    endloop
  endfacet
  facet normal 0.461804 -0.886982 0
    outer loop
      vertex 65.25 0.468918 1.2
      vertex 64.9792 0.327927 0.4
      vertex 65.25 0.468918 0.4
    endloop
  endfacet
  facet normal 0 0 1
    outer loop
      vertex 63.5 90 1.2
      vertex 67 86.5 1.2
      vertex 66.9867 86.805 1.2
    endloop
  endfacet
  facet normal 0 0 1
    outer loop
      vertex 67 86.5 1.2
      vertex 0 86.5 1.2
      vertex 67 3.5 1.2
    endloop
  endfacet
  facet normal 0 0 1
    outer loop
      vertex 63.5 90 1.2
      vertex 66.9867 86.805 1.2
      vertex 66.9468 87.1078 1.2
    endloop
  endfacet
  facet normal 0 0 1
    outer loop
      vertex 0 3.5 1.2
      vertex 67 3.5 1.2
      vertex 0 86.5 1.2
    endloop
  endfacet
  facet normal 0 0 1
    outer loop
      vertex 63.5 90 1.2
      vertex 66.9468 87.1078 1.2
      vertex 66.8807 87.4059 1.2
    endloop
  endfacet
  facet normal 0 -0 1
    outer loop
      vertex 63.5 0 1.2
      vertex 67 3.5 1.2
      vertex 0 3.5 1.2
    endloop
  endfacet
  facet normal 0 0 1
    outer loop
      vertex 63.5 90 1.2
      vertex 66.8807 87.4059 1.2
      vertex 66.7889 87.6971 1.2
    endloop
  endfacet
  facet normal 0 0 1
    outer loop
      vertex 67 86.5 1.2
      vertex 63.5 90 1.2
      vertex 0 86.5 1.2
    endloop
  endfacet
  facet normal 0 0 1
    outer loop
      vertex 63.5 90 1.2
      vertex 66.7889 87.6971 1.2
      vertex 66.6721 87.9792 1.2
    endloop
  endfacet
  facet normal 0 0 1
    outer loop
      vertex 67 3.5 1.2
      vertex 63.5 0 1.2
      vertex 66.9867 3.19496 1.2
    endloop
  endfacet
  facet normal 0 0 1
    outer loop
      vertex 63.5 90 1.2
      vertex 66.6721 87.9792 1.2
      vertex 66.5311 88.25 1.2
    endloop
  endfacet
  facet normal 0 0 1
    outer loop
      vertex 66.8807 2.59413 1.2
      vertex 63.5 0 1.2
      vertex 66.7889 2.30293 1.2
    endloop
  endfacet
  facet normal 0 0 1
    outer loop
      vertex 63.5 90 1.2
      vertex 66.5311 88.25 1.2
      vertex 66.367 88.5075 1.2
    endloop
  endfacet
  facet normal 0 0 1
    outer loop
      vertex 66.7889 2.30293 1.2
      vertex 63.5 0 1.2
      vertex 66.6721 2.02084 1.2
    endloop
  endfacet
  facet normal 0 0 1
    outer loop
      vertex 63.5 90 1.2
      vertex 66.367 88.5075 1.2
      vertex 66.1812 88.7498 1.2
    endloop
  endfacet
  facet normal 0 0 1
    outer loop
      vertex 66.6721 2.02084 1.2
      vertex 63.5 0 1.2
      vertex 66.5311 1.75 1.2
    endloop
  endfacet
  facet normal 0 0 1
    outer loop
      vertex 63.5 90 1.2
      vertex 66.1812 88.7498 1.2
      vertex 65.9749 88.9749 1.2
    endloop
  endfacet
  facet normal 0 0 1
    outer loop
      vertex 66.5311 1.75 1.2
      vertex 63.5 0 1.2
      vertex 66.367 1.49248 1.2
    endloop
  endfacet
  facet normal 0 0 1
    outer loop
      vertex 63.5 90 1.2
      vertex 65.9749 88.9749 1.2
      vertex 65.7498 89.1812 1.2
    endloop
  endfacet
  facet normal 0 0 1
    outer loop
      vertex 66.367 1.49248 1.2
      vertex 63.5 0 1.2
      vertex 66.1812 1.25024 1.2
    endloop
  endfacet
  facet normal 0 0 1
    outer loop
      vertex 63.5 90 1.2
      vertex 65.7498 89.1812 1.2
      vertex 65.5075 89.367 1.2
    endloop
  endfacet
  facet normal 0 0 1
    outer loop
      vertex 66.1812 1.25024 1.2
      vertex 63.5 0 1.2
      vertex 65.9749 1.02513 1.2
    endloop
  endfacet
  facet normal 0 0 1
    outer loop
      vertex 63.5 90 1.2
      vertex 65.5075 89.367 1.2
      vertex 65.25 89.5311 1.2
    endloop
  endfacet
  facet normal 0 0 1
    outer loop
      vertex 65.9749 1.02513 1.2
      vertex 63.5 0 1.2
      vertex 65.7498 0.818848 1.2
    endloop
  endfacet
  facet normal 0 0 1
    outer loop
      vertex 63.5 90 1.2
      vertex 65.25 89.5311 1.2
      vertex 64.9792 89.6721 1.2
    endloop
  endfacet
  facet normal 0 0 1
    outer loop
      vertex 65.7498 0.818848 1.2
      vertex 63.5 0 1.2
      vertex 65.5075 0.632965 1.2
    endloop
  endfacet
  facet normal 0 0 1
    outer loop
      vertex 63.5 90 1.2
      vertex 64.9792 89.6721 1.2
      vertex 64.6971 89.7889 1.2
    endloop
  endfacet
  facet normal 0 0 1
    outer loop
      vertex 65.5075 0.632965 1.2
      vertex 63.5 0 1.2
      vertex 65.25 0.468918 1.2
    endloop
  endfacet
  facet normal 0 0 1
    outer loop
      vertex 63.5 90 1.2
      vertex 64.6971 89.7889 1.2
      vertex 64.4059 89.8807 1.2
    endloop
  endfacet
  facet normal 0 0 1
    outer loop
      vertex 65.25 0.468918 1.2
      vertex 63.5 0 1.2
      vertex 64.9792 0.327927 1.2
    endloop
  endfacet
  facet normal 0 0 1
    outer loop
      vertex 63.5 90 1.2
      vertex 64.4059 89.8807 1.2
      vertex 64.1078 89.9468 1.2
    endloop
  endfacet
  facet normal 0 0 1
    outer loop
      vertex 64.9792 0.327927 1.2
      vertex 63.5 0 1.2
      vertex 64.6971 0.211075 1.2
    endloop
  endfacet
  facet normal 0 0 1
    outer loop
      vertex 63.5 90 1.2
      vertex 64.1078 89.9468 1.2
      vertex 63.805 89.9867 1.2
    endloop
  endfacet
  facet normal 0 0 1
    outer loop
      vertex 64.6971 0.211075 1.2
      vertex 63.5 0 1.2
      vertex 64.4059 0.119263 1.2
    endloop
  endfacet
  facet normal 0 0 1
    outer loop
      vertex 64.4059 0.119263 1.2
      vertex 63.5 0 1.2
      vertex 64.1078 0.0531769 1.2
    endloop
  endfacet
  facet normal 0 0 1
    outer loop
      vertex 64.1078 0.0531769 1.2
      vertex 63.5 0 1.2
      vertex 63.805 0.0133209 1.2
    endloop
  endfacet
  facet normal 0 0 1
    outer loop
      vertex 0 86.5 1.2
      vertex 63.5 90 1.2
      vertex 3.5 90 1.2
    endloop
  endfacet
  facet normal 0 0 1
    outer loop
      vertex 66.9867 3.19496 1.2
      vertex 63.5 0 1.2
      vertex 66.9468 2.89223 1.2
    endloop
  endfacet
  facet normal 0 0 1
    outer loop
      vertex 0 86.5 1.2
      vertex 3.5 90 1.2
      vertex 3.19496 89.9867 1.2
    endloop
  endfacet
  facet normal 0 0 1
    outer loop
      vertex 66.9468 2.89223 1.2
      vertex 63.5 0 1.2
      vertex 66.8807 2.59413 1.2
    endloop
  endfacet
  facet normal 0 0 1
    outer loop
      vertex 0 86.5 1.2
      vertex 3.19496 89.9867 1.2
      vertex 2.89223 89.9468 1.2
    endloop
  endfacet
  facet normal 0 0 1
    outer loop
      vertex 63.5 0 1.2
      vertex 0 3.5 1.2
      vertex 3.5 0 1.2
    endloop
  endfacet
  facet normal 0 0 1
    outer loop
      vertex 0 86.5 1.2
      vertex 2.89223 89.9468 1.2
      vertex 2.59413 89.8807 1.2
    endloop
  endfacet
  facet normal 0 0 1
    outer loop
      vertex 3.5 0 1.2
      vertex 0 3.5 1.2
      vertex 3.19496 0.0133209 1.2
    endloop
  endfacet
  facet normal 0 0 1
    outer loop
      vertex 0 86.5 1.2
      vertex 2.59413 89.8807 1.2
      vertex 2.30293 89.7889 1.2
    endloop
  endfacet
  facet normal 0 0 1
    outer loop
      vertex 3.19496 0.0133209 1.2
      vertex 0 3.5 1.2
      vertex 2.89223 0.0531769 1.2
    endloop
  endfacet
  facet normal 0 0 1
    outer loop
      vertex 0 86.5 1.2
      vertex 2.30293 89.7889 1.2
      vertex 2.02084 89.6721 1.2
    endloop
  endfacet
  facet normal 0 0 1
    outer loop
      vertex 2.89223 0.0531769 1.2
      vertex 0 3.5 1.2
      vertex 2.59413 0.119263 1.2
    endloop
  endfacet
  facet normal 0 0 1
    outer loop
      vertex 0 86.5 1.2
      vertex 2.02084 89.6721 1.2
      vertex 1.75 89.5311 1.2
    endloop
  endfacet
  facet normal 0 0 1
    outer loop
      vertex 2.59413 0.119263 1.2
      vertex 0 3.5 1.2
      vertex 2.30293 0.211075 1.2
    endloop
  endfacet
  facet normal 0 0 1
    outer loop
      vertex 0 86.5 1.2
      vertex 1.75 89.5311 1.2
      vertex 1.49248 89.367 1.2
    endloop
  endfacet
  facet normal 0 0 1
    outer loop
      vertex 2.30293 0.211075 1.2
      vertex 0 3.5 1.2
      vertex 2.02084 0.327927 1.2
    endloop
  endfacet
  facet normal 0 0 1
    outer loop
      vertex 0 86.5 1.2
      vertex 1.49248 89.367 1.2
      vertex 1.25024 89.1812 1.2
    endloop
  endfacet
  facet normal 0 0 1
    outer loop
      vertex 2.02084 0.327927 1.2
      vertex 0 3.5 1.2
      vertex 1.75 0.468918 1.2
    endloop
  endfacet
  facet normal 0 0 1
    outer loop
      vertex 0 86.5 1.2
      vertex 1.25024 89.1812 1.2
      vertex 1.02513 88.9749 1.2
    endloop
  endfacet
  facet normal 0 0 1
    outer loop
      vertex 1.75 0.468918 1.2
      vertex 0 3.5 1.2
      vertex 1.49248 0.632965 1.2
    endloop
  endfacet
  facet normal 0 0 1
    outer loop
      vertex 0 86.5 1.2
      vertex 1.02513 88.9749 1.2
      vertex 0.818848 88.7498 1.2
    endloop
  endfacet
  facet normal 0 0 1
    outer loop
      vertex 1.49248 0.632965 1.2
      vertex 0 3.5 1.2
      vertex 1.25024 0.818848 1.2
    endloop
  endfacet
  facet normal 0 0 1
    outer loop
      vertex 0 86.5 1.2
      vertex 0.818848 88.7498 1.2
      vertex 0.632965 88.5075 1.2
    endloop
  endfacet
  facet normal 0 0 1
    outer loop
      vertex 1.25024 0.818848 1.2
      vertex 0 3.5 1.2
      vertex 1.02513 1.02513 1.2
    endloop
  endfacet
  facet normal 0 0 1
    outer loop
      vertex 0 86.5 1.2
      vertex 0.632965 88.5075 1.2
      vertex 0.468918 88.25 1.2
    endloop
  endfacet
  facet normal 0 0 1
    outer loop
      vertex 1.02513 1.02513 1.2
      vertex 0 3.5 1.2
      vertex 0.818848 1.25024 1.2
    endloop
  endfacet
  facet normal 0 0 1
    outer loop
      vertex 0 86.5 1.2
      vertex 0.468918 88.25 1.2
      vertex 0.327927 87.9792 1.2
    endloop
  endfacet
  facet normal 0 0 1
    outer loop
      vertex 0.818848 1.25024 1.2
      vertex 0 3.5 1.2
      vertex 0.632965 1.49248 1.2
    endloop
  endfacet
  facet normal 0 0 1
    outer loop
      vertex 0 86.5 1.2
      vertex 0.327927 87.9792 1.2
      vertex 0.211075 87.6971 1.2
    endloop
  endfacet
  facet normal 0 0 1
    outer loop
      vertex 0.632965 1.49248 1.2
      vertex 0 3.5 1.2
      vertex 0.468918 1.75 1.2
    endloop
  endfacet
  facet normal 0 0 1
    outer loop
      vertex 0 86.5 1.2
      vertex 0.211075 87.6971 1.2
      vertex 0.119263 87.4059 1.2
    endloop
  endfacet
  facet normal 0 0 1
    outer loop
      vertex 0.468918 1.75 1.2
      vertex 0 3.5 1.2
      vertex 0.327927 2.02084 1.2
    endloop
  endfacet
  facet normal 0 0 1
    outer loop
      vertex 0 86.5 1.2
      vertex 0.119263 87.4059 1.2
      vertex 0.0531769 87.1078 1.2
    endloop
  endfacet
  facet normal 0 0 1
    outer loop
      vertex 0.327927 2.02084 1.2
      vertex 0 3.5 1.2
      vertex 0.211075 2.30293 1.2
    endloop
  endfacet
  facet normal 0 0 1
    outer loop
      vertex 0 86.5 1.2
      vertex 0.0531769 87.1078 1.2
      vertex 0.0133209 86.805 1.2
    endloop
  endfacet
  facet normal 0 0 1
    outer loop
      vertex 0.211075 2.30293 1.2
      vertex 0 3.5 1.2
      vertex 0.119263 2.59413 1.2
    endloop
  endfacet
  facet normal 0 0 1
    outer loop
      vertex 0.119263 2.59413 1.2
      vertex 0 3.5 1.2
      vertex 0.0531769 2.89223 1.2
    endloop
  endfacet
  facet normal 0 0 1
    outer loop
      vertex 0.0531769 2.89223 1.2
      vertex 0 3.5 1.2
      vertex 0.0133209 3.19496 1.2
    endloop
  endfacet
endsolid OpenSCAD_Model
