solid OpenSCAD_Model
  facet normal 1 -0 0
    outer loop
      vertex 89.7 0.299999 1.6
      vertex 89.7 64.7 0
      vertex 89.7 64.7 1.6
    endloop
  endfacet
  facet normal 1 0 0
    outer loop
      vertex 89.7 64.7 0
      vertex 89.7 0.299999 1.6
      vertex 89.7 0.299999 0
    endloop
  endfacet
  facet normal 0 0 1
    outer loop
      vertex 89.7 64.7 1.6
      vertex 51 0.299999 1.6
      vertex 89.7 0.299999 1.6
    endloop
  endfacet
  facet normal 0 0 1
    outer loop
      vertex 51 0.299999 1.6
      vertex 39 0.299999 1.6
      vertex 51 -8 1.6
    endloop
  endfacet
  facet normal 0 0 1
    outer loop
      vertex 89.7 64.7 1.6
      vertex 39 0.299999 1.6
      vertex 51 0.299999 1.6
    endloop
  endfacet
  facet normal -0 0 1
    outer loop
      vertex 0.299999 64.7 1.6
      vertex 39 0.299999 1.6
      vertex 89.7 64.7 1.6
    endloop
  endfacet
  facet normal 0 0 1
    outer loop
      vertex 39 0.299999 1.6
      vertex 0.299999 64.7 1.6
      vertex 0.299999 0.299999 1.6
    endloop
  endfacet
  facet normal 0 0 1
    outer loop
      vertex 51 -8 1.6
      vertex 39 0.299999 1.6
      vertex 39 -8 1.6
    endloop
  endfacet
  facet normal 0 0 -1
    outer loop
      vertex 51 -8 0
      vertex 39 -8 0
      vertex 51 0.299999 0
    endloop
  endfacet
  facet normal 0 0 -1
    outer loop
      vertex 51 0.299999 0
      vertex 89.7 64.7 0
      vertex 89.7 0.299999 0
    endloop
  endfacet
  facet normal 0 0 -1
    outer loop
      vertex 39 0.299999 0
      vertex 51 0.299999 0
      vertex 39 -8 0
    endloop
  endfacet
  facet normal 0 0 -1
    outer loop
      vertex 51 0.299999 0
      vertex 39 0.299999 0
      vertex 89.7 64.7 0
    endloop
  endfacet
  facet normal 0 0 -1
    outer loop
      vertex 0.299999 64.7 0
      vertex 39 0.299999 0
      vertex 0.299999 0.299999 0
    endloop
  endfacet
  facet normal 0 0 -1
    outer loop
      vertex 39 0.299999 0
      vertex 0.299999 64.7 0
      vertex 89.7 64.7 0
    endloop
  endfacet
  facet normal -1 0 0
    outer loop
      vertex 0.299999 0.299999 0
      vertex 0.299999 64.7 1.6
      vertex 0.299999 64.7 0
    endloop
  endfacet
  facet normal -1 -0 0
    outer loop
      vertex 0.299999 64.7 1.6
      vertex 0.299999 0.299999 0
      vertex 0.299999 0.299999 1.6
    endloop
  endfacet
  facet normal 0 1 -0
    outer loop
      vertex 89.7 64.7 0
      vertex 0.299999 64.7 1.6
      vertex 89.7 64.7 1.6
    endloop
  endfacet
  facet normal 0 1 0
    outer loop
      vertex 0.299999 64.7 1.6
      vertex 89.7 64.7 0
      vertex 0.299999 64.7 0
    endloop
  endfacet
  facet normal 0 -1 0
    outer loop
      vertex 0.299999 0.299999 0
      vertex 39 0.299999 1.6
      vertex 0.299999 0.299999 1.6
    endloop
  endfacet
  facet normal 0 -1 -0
    outer loop
      vertex 39 0.299999 1.6
      vertex 0.299999 0.299999 0
      vertex 39 0.299999 0
    endloop
  endfacet
  facet normal 0 -1 0
    outer loop
      vertex 51 0.299999 0
      vertex 89.7 0.299999 1.6
      vertex 51 0.299999 1.6
    endloop
  endfacet
  facet normal 0 -1 -0
    outer loop
      vertex 89.7 0.299999 1.6
      vertex 51 0.299999 0
      vertex 89.7 0.299999 0
    endloop
  endfacet
  facet normal 1 -0 0
    outer loop
      vertex 51 -8 1.6
      vertex 51 0.299999 0
      vertex 51 0.299999 1.6
    endloop
  endfacet
  facet normal 1 0 0
    outer loop
      vertex 51 0.299999 0
      vertex 51 -8 1.6
      vertex 51 -8 0
    endloop
  endfacet
  facet normal -1 0 0
    outer loop
      vertex 39 -8 0
      vertex 39 0.299999 1.6
      vertex 39 0.299999 0
    endloop
  endfacet
  facet normal -1 -0 0
    outer loop
      vertex 39 0.299999 1.6
      vertex 39 -8 0
      vertex 39 -8 1.6
    endloop
  endfacet
  facet normal 0 -1 0
    outer loop
      vertex 39 -8 0
      vertex 51 -8 1.6
      vertex 39 -8 1.6
    endloop
  endfacet
  facet normal 0 -1 -0
    outer loop
      vertex 51 -8 1.6
      vertex 39 -8 0
      vertex 51 -8 0
    endloop
  endfacet
endsolid OpenSCAD_Model
