solid OpenSCAD_Model
  facet normal 1 -0 0
    outer loop
      vertex 16.85 0 15
      vertex 16.85 87.3 0
      vertex 16.85 87.3 15
    endloop
  endfacet
  facet normal 1 0 0
    outer loop
      vertex 16.85 87.3 0
      vertex 16.85 0 15
      vertex 16.85 0 0
    endloop
  endfacet
  facet normal 0 0 -1
    outer loop
      vertex 0 0 0
      vertex 16.85 87.3 0
      vertex 16.85 0 0
    endloop
  endfacet
  facet normal -0 0 -1
    outer loop
      vertex 16.85 87.3 0
      vertex 0 0 0
      vertex 0 87.3 0
    endloop
  endfacet
  facet normal -0 0 1
    outer loop
      vertex 15.05 87.3 15
      vertex 16.85 0 15
      vertex 16.85 87.3 15
    endloop
  endfacet
  facet normal 0 0 1
    outer loop
      vertex 16.85 0 15
      vertex 15.05 87.3 15
      vertex 15.05 0 15
    endloop
  endfacet
  facet normal -0 0 1
    outer loop
      vertex 0 87.3 15
      vertex 11.55 0 15
      vertex 11.55 87.3 15
    endloop
  endfacet
  facet normal 0 0 1
    outer loop
      vertex 11.55 0 15
      vertex 0 87.3 15
      vertex 0 0 15
    endloop
  endfacet
  facet normal -1 0 0
    outer loop
      vertex 0 0 0
      vertex 0 87.3 15
      vertex 0 87.3 0
    endloop
  endfacet
  facet normal -1 -0 0
    outer loop
      vertex 0 87.3 15
      vertex 0 0 0
      vertex 0 0 15
    endloop
  endfacet
  facet normal 0 1 0
    outer loop
      vertex 16.85 87.3 15
      vertex 15.05 87.3 3
      vertex 15.05 87.3 15
    endloop
  endfacet
  facet normal 0 1 0
    outer loop
      vertex 15.05 87.3 3
      vertex 16.85 87.3 0
      vertex 11.55 87.3 3
    endloop
  endfacet
  facet normal 0 1 -0
    outer loop
      vertex 16.85 87.3 0
      vertex 15.05 87.3 3
      vertex 16.85 87.3 15
    endloop
  endfacet
  facet normal 0 1 -0
    outer loop
      vertex 11.55 87.3 3
      vertex 0 87.3 15
      vertex 11.55 87.3 15
    endloop
  endfacet
  facet normal 0 1 0
    outer loop
      vertex 11.55 87.3 3
      vertex 0 87.3 0
      vertex 0 87.3 15
    endloop
  endfacet
  facet normal 0 1 0
    outer loop
      vertex 0 87.3 0
      vertex 11.55 87.3 3
      vertex 16.85 87.3 0
    endloop
  endfacet
  facet normal 0 -1 0
    outer loop
      vertex 0 0 15
      vertex 11.55 0 3
      vertex 11.55 0 15
    endloop
  endfacet
  facet normal 0 -1 0
    outer loop
      vertex 16.85 0 0
      vertex 11.55 0 3
      vertex 0 0 0
    endloop
  endfacet
  facet normal 0 -1 0
    outer loop
      vertex 0 0 0
      vertex 11.55 0 3
      vertex 0 0 15
    endloop
  endfacet
  facet normal 0 -1 0
    outer loop
      vertex 15.05 0 3
      vertex 16.85 0 15
      vertex 15.05 0 15
    endloop
  endfacet
  facet normal 0 -1 0
    outer loop
      vertex 15.05 0 3
      vertex 16.85 0 0
      vertex 16.85 0 15
    endloop
  endfacet
  facet normal 0 -1 0
    outer loop
      vertex 11.55 0 3
      vertex 16.85 0 0
      vertex 15.05 0 3
    endloop
  endfacet
  facet normal -1 0 0
    outer loop
      vertex 15.05 0 3
      vertex 15.05 87.3 15
      vertex 15.05 87.3 3
    endloop
  endfacet
  facet normal -1 -0 0
    outer loop
      vertex 15.05 87.3 15
      vertex 15.05 0 3
      vertex 15.05 0 15
    endloop
  endfacet
  facet normal -0 0 1
    outer loop
      vertex 11.55 87.3 3
      vertex 15.05 0 3
      vertex 15.05 87.3 3
    endloop
  endfacet
  facet normal 0 0 1
    outer loop
      vertex 15.05 0 3
      vertex 11.55 87.3 3
      vertex 11.55 0 3
    endloop
  endfacet
  facet normal 1 -0 0
    outer loop
      vertex 11.55 0 15
      vertex 11.55 87.3 3
      vertex 11.55 87.3 15
    endloop
  endfacet
  facet normal 1 0 0
    outer loop
      vertex 11.55 87.3 3
      vertex 11.55 0 15
      vertex 11.55 0 3
    endloop
  endfacet
endsolid OpenSCAD_Model
