solid OpenSCAD_Model
  facet normal 0 0 -1
    outer loop
      vertex -79.8 -79.8 3
      vertex -60.2 -60.2 3
      vertex -60.2 -79.8 3
    endloop
  endfacet
  facet normal -0 0 -1
    outer loop
      vertex -60.2 -60.2 3
      vertex -79.8 -79.8 3
      vertex -79.8 -60.2 3
    endloop
  endfacet
  facet normal -1 0 0
    outer loop
      vertex -79.8 -79.8 3
      vertex -79.8 -60.2 3.6
      vertex -79.8 -60.2 3
    endloop
  endfacet
  facet normal -1 -0 0
    outer loop
      vertex -79.8 -60.2 3.6
      vertex -79.8 -79.8 3
      vertex -79.8 -79.8 3.6
    endloop
  endfacet
  facet normal -0 0 1
    outer loop
      vertex -79.8 -60.2 3.6
      vertex -60.2 -79.8 3.6
      vertex -60.2 -60.2 3.6
    endloop
  endfacet
  facet normal 0 0 1
    outer loop
      vertex -60.2 -79.8 3.6
      vertex -79.8 -60.2 3.6
      vertex -79.8 -79.8 3.6
    endloop
  endfacet
  facet normal 0 1 -0
    outer loop
      vertex -60.2 -60.2 3
      vertex -79.8 -60.2 3.6
      vertex -60.2 -60.2 3.6
    endloop
  endfacet
  facet normal 0 1 0
    outer loop
      vertex -79.8 -60.2 3.6
      vertex -60.2 -60.2 3
      vertex -79.8 -60.2 3
    endloop
  endfacet
  facet normal 1 -0 0
    outer loop
      vertex -60.2 -79.8 3.6
      vertex -60.2 -60.2 3
      vertex -60.2 -60.2 3.6
    endloop
  endfacet
  facet normal 1 0 0
    outer loop
      vertex -60.2 -60.2 3
      vertex -60.2 -79.8 3.6
      vertex -60.2 -79.8 3
    endloop
  endfacet
  facet normal 0 -1 0
    outer loop
      vertex -79.8 -79.8 3
      vertex -60.2 -79.8 3.6
      vertex -79.8 -79.8 3.6
    endloop
  endfacet
  facet normal 0 -1 -0
    outer loop
      vertex -60.2 -79.8 3.6
      vertex -79.8 -79.8 3
      vertex -60.2 -79.8 3
    endloop
  endfacet
  facet normal 0 0 -1
    outer loop
      vertex -39.8 -79.8 3
      vertex -20.2 -60.2 3
      vertex -20.2 -79.8 3
    endloop
  endfacet
  facet normal -0 0 -1
    outer loop
      vertex -20.2 -60.2 3
      vertex -39.8 -79.8 3
      vertex -39.8 -60.2 3
    endloop
  endfacet
  facet normal -1 0 0
    outer loop
      vertex -39.8 -79.8 3
      vertex -39.8 -60.2 3.6
      vertex -39.8 -60.2 3
    endloop
  endfacet
  facet normal -1 -0 0
    outer loop
      vertex -39.8 -60.2 3.6
      vertex -39.8 -79.8 3
      vertex -39.8 -79.8 3.6
    endloop
  endfacet
  facet normal -0 0 1
    outer loop
      vertex -39.8 -60.2 3.6
      vertex -20.2 -79.8 3.6
      vertex -20.2 -60.2 3.6
    endloop
  endfacet
  facet normal 0 0 1
    outer loop
      vertex -20.2 -79.8 3.6
      vertex -39.8 -60.2 3.6
      vertex -39.8 -79.8 3.6
    endloop
  endfacet
  facet normal 0 1 -0
    outer loop
      vertex -20.2 -60.2 3
      vertex -39.8 -60.2 3.6
      vertex -20.2 -60.2 3.6
    endloop
  endfacet
  facet normal 0 1 0
    outer loop
      vertex -39.8 -60.2 3.6
      vertex -20.2 -60.2 3
      vertex -39.8 -60.2 3
    endloop
  endfacet
  facet normal 1 -0 0
    outer loop
      vertex -20.2 -79.8 3.6
      vertex -20.2 -60.2 3
      vertex -20.2 -60.2 3.6
    endloop
  endfacet
  facet normal 1 0 0
    outer loop
      vertex -20.2 -60.2 3
      vertex -20.2 -79.8 3.6
      vertex -20.2 -79.8 3
    endloop
  endfacet
  facet normal 0 -1 0
    outer loop
      vertex -39.8 -79.8 3
      vertex -20.2 -79.8 3.6
      vertex -39.8 -79.8 3.6
    endloop
  endfacet
  facet normal 0 -1 -0
    outer loop
      vertex -20.2 -79.8 3.6
      vertex -39.8 -79.8 3
      vertex -20.2 -79.8 3
    endloop
  endfacet
  facet normal 0 0 -1
    outer loop
      vertex 0.2 -79.8 3
      vertex 19.8 -60.2 3
      vertex 19.8 -79.8 3
    endloop
  endfacet
  facet normal -0 0 -1
    outer loop
      vertex 19.8 -60.2 3
      vertex 0.2 -79.8 3
      vertex 0.2 -60.2 3
    endloop
  endfacet
  facet normal -1 0 0
    outer loop
      vertex 0.2 -79.8 3
      vertex 0.2 -60.2 3.6
      vertex 0.2 -60.2 3
    endloop
  endfacet
  facet normal -1 -0 0
    outer loop
      vertex 0.2 -60.2 3.6
      vertex 0.2 -79.8 3
      vertex 0.2 -79.8 3.6
    endloop
  endfacet
  facet normal -0 0 1
    outer loop
      vertex 0.2 -60.2 3.6
      vertex 19.8 -79.8 3.6
      vertex 19.8 -60.2 3.6
    endloop
  endfacet
  facet normal 0 0 1
    outer loop
      vertex 19.8 -79.8 3.6
      vertex 0.2 -60.2 3.6
      vertex 0.2 -79.8 3.6
    endloop
  endfacet
  facet normal 0 1 -0
    outer loop
      vertex 19.8 -60.2 3
      vertex 0.2 -60.2 3.6
      vertex 19.8 -60.2 3.6
    endloop
  endfacet
  facet normal 0 1 0
    outer loop
      vertex 0.2 -60.2 3.6
      vertex 19.8 -60.2 3
      vertex 0.2 -60.2 3
    endloop
  endfacet
  facet normal 1 -0 0
    outer loop
      vertex 19.8 -79.8 3.6
      vertex 19.8 -60.2 3
      vertex 19.8 -60.2 3.6
    endloop
  endfacet
  facet normal 1 0 0
    outer loop
      vertex 19.8 -60.2 3
      vertex 19.8 -79.8 3.6
      vertex 19.8 -79.8 3
    endloop
  endfacet
  facet normal 0 -1 0
    outer loop
      vertex 0.2 -79.8 3
      vertex 19.8 -79.8 3.6
      vertex 0.2 -79.8 3.6
    endloop
  endfacet
  facet normal 0 -1 -0
    outer loop
      vertex 19.8 -79.8 3.6
      vertex 0.2 -79.8 3
      vertex 19.8 -79.8 3
    endloop
  endfacet
  facet normal 0 0 -1
    outer loop
      vertex 40.2 -79.8 3
      vertex 59.8 -60.2 3
      vertex 59.8 -79.8 3
    endloop
  endfacet
  facet normal -0 0 -1
    outer loop
      vertex 59.8 -60.2 3
      vertex 40.2 -79.8 3
      vertex 40.2 -60.2 3
    endloop
  endfacet
  facet normal -1 0 0
    outer loop
      vertex 40.2 -79.8 3
      vertex 40.2 -60.2 3.6
      vertex 40.2 -60.2 3
    endloop
  endfacet
  facet normal -1 -0 0
    outer loop
      vertex 40.2 -60.2 3.6
      vertex 40.2 -79.8 3
      vertex 40.2 -79.8 3.6
    endloop
  endfacet
  facet normal -0 0 1
    outer loop
      vertex 40.2 -60.2 3.6
      vertex 59.8 -79.8 3.6
      vertex 59.8 -60.2 3.6
    endloop
  endfacet
  facet normal 0 0 1
    outer loop
      vertex 59.8 -79.8 3.6
      vertex 40.2 -60.2 3.6
      vertex 40.2 -79.8 3.6
    endloop
  endfacet
  facet normal 0 1 -0
    outer loop
      vertex 59.8 -60.2 3
      vertex 40.2 -60.2 3.6
      vertex 59.8 -60.2 3.6
    endloop
  endfacet
  facet normal 0 1 0
    outer loop
      vertex 40.2 -60.2 3.6
      vertex 59.8 -60.2 3
      vertex 40.2 -60.2 3
    endloop
  endfacet
  facet normal 1 -0 0
    outer loop
      vertex 59.8 -79.8 3.6
      vertex 59.8 -60.2 3
      vertex 59.8 -60.2 3.6
    endloop
  endfacet
  facet normal 1 0 0
    outer loop
      vertex 59.8 -60.2 3
      vertex 59.8 -79.8 3.6
      vertex 59.8 -79.8 3
    endloop
  endfacet
  facet normal 0 -1 0
    outer loop
      vertex 40.2 -79.8 3
      vertex 59.8 -79.8 3.6
      vertex 40.2 -79.8 3.6
    endloop
  endfacet
  facet normal 0 -1 -0
    outer loop
      vertex 59.8 -79.8 3.6
      vertex 40.2 -79.8 3
      vertex 59.8 -79.8 3
    endloop
  endfacet
  facet normal 0 0 -1
    outer loop
      vertex -59.8 -59.8 3
      vertex -40.2 -40.2 3
      vertex -40.2 -59.8 3
    endloop
  endfacet
  facet normal -0 0 -1
    outer loop
      vertex -40.2 -40.2 3
      vertex -59.8 -59.8 3
      vertex -59.8 -40.2 3
    endloop
  endfacet
  facet normal -1 0 0
    outer loop
      vertex -59.8 -59.8 3
      vertex -59.8 -40.2 3.6
      vertex -59.8 -40.2 3
    endloop
  endfacet
  facet normal -1 -0 0
    outer loop
      vertex -59.8 -40.2 3.6
      vertex -59.8 -59.8 3
      vertex -59.8 -59.8 3.6
    endloop
  endfacet
  facet normal -0 0 1
    outer loop
      vertex -59.8 -40.2 3.6
      vertex -40.2 -59.8 3.6
      vertex -40.2 -40.2 3.6
    endloop
  endfacet
  facet normal 0 0 1
    outer loop
      vertex -40.2 -59.8 3.6
      vertex -59.8 -40.2 3.6
      vertex -59.8 -59.8 3.6
    endloop
  endfacet
  facet normal 0 1 -0
    outer loop
      vertex -40.2 -40.2 3
      vertex -59.8 -40.2 3.6
      vertex -40.2 -40.2 3.6
    endloop
  endfacet
  facet normal 0 1 0
    outer loop
      vertex -59.8 -40.2 3.6
      vertex -40.2 -40.2 3
      vertex -59.8 -40.2 3
    endloop
  endfacet
  facet normal 1 -0 0
    outer loop
      vertex -40.2 -59.8 3.6
      vertex -40.2 -40.2 3
      vertex -40.2 -40.2 3.6
    endloop
  endfacet
  facet normal 1 0 0
    outer loop
      vertex -40.2 -40.2 3
      vertex -40.2 -59.8 3.6
      vertex -40.2 -59.8 3
    endloop
  endfacet
  facet normal 0 -1 0
    outer loop
      vertex -59.8 -59.8 3
      vertex -40.2 -59.8 3.6
      vertex -59.8 -59.8 3.6
    endloop
  endfacet
  facet normal 0 -1 -0
    outer loop
      vertex -40.2 -59.8 3.6
      vertex -59.8 -59.8 3
      vertex -40.2 -59.8 3
    endloop
  endfacet
  facet normal 0 0 -1
    outer loop
      vertex -19.8 -59.8 3
      vertex -0.2 -40.2 3
      vertex -0.2 -59.8 3
    endloop
  endfacet
  facet normal -0 0 -1
    outer loop
      vertex -0.2 -40.2 3
      vertex -19.8 -59.8 3
      vertex -19.8 -40.2 3
    endloop
  endfacet
  facet normal -1 0 0
    outer loop
      vertex -19.8 -59.8 3
      vertex -19.8 -40.2 3.6
      vertex -19.8 -40.2 3
    endloop
  endfacet
  facet normal -1 -0 0
    outer loop
      vertex -19.8 -40.2 3.6
      vertex -19.8 -59.8 3
      vertex -19.8 -59.8 3.6
    endloop
  endfacet
  facet normal -0 0 1
    outer loop
      vertex -19.8 -40.2 3.6
      vertex -0.2 -59.8 3.6
      vertex -0.2 -40.2 3.6
    endloop
  endfacet
  facet normal 0 0 1
    outer loop
      vertex -0.2 -59.8 3.6
      vertex -19.8 -40.2 3.6
      vertex -19.8 -59.8 3.6
    endloop
  endfacet
  facet normal 0 1 -0
    outer loop
      vertex -0.2 -40.2 3
      vertex -19.8 -40.2 3.6
      vertex -0.2 -40.2 3.6
    endloop
  endfacet
  facet normal 0 1 0
    outer loop
      vertex -19.8 -40.2 3.6
      vertex -0.2 -40.2 3
      vertex -19.8 -40.2 3
    endloop
  endfacet
  facet normal 1 -0 0
    outer loop
      vertex -0.2 -59.8 3.6
      vertex -0.2 -40.2 3
      vertex -0.2 -40.2 3.6
    endloop
  endfacet
  facet normal 1 0 0
    outer loop
      vertex -0.2 -40.2 3
      vertex -0.2 -59.8 3.6
      vertex -0.2 -59.8 3
    endloop
  endfacet
  facet normal 0 -1 0
    outer loop
      vertex -19.8 -59.8 3
      vertex -0.2 -59.8 3.6
      vertex -19.8 -59.8 3.6
    endloop
  endfacet
  facet normal 0 -1 -0
    outer loop
      vertex -0.2 -59.8 3.6
      vertex -19.8 -59.8 3
      vertex -0.2 -59.8 3
    endloop
  endfacet
  facet normal 0 0 -1
    outer loop
      vertex 20.2 -59.8 3
      vertex 39.8 -40.2 3
      vertex 39.8 -59.8 3
    endloop
  endfacet
  facet normal -0 0 -1
    outer loop
      vertex 39.8 -40.2 3
      vertex 20.2 -59.8 3
      vertex 20.2 -40.2 3
    endloop
  endfacet
  facet normal -1 0 0
    outer loop
      vertex 20.2 -59.8 3
      vertex 20.2 -40.2 3.6
      vertex 20.2 -40.2 3
    endloop
  endfacet
  facet normal -1 -0 0
    outer loop
      vertex 20.2 -40.2 3.6
      vertex 20.2 -59.8 3
      vertex 20.2 -59.8 3.6
    endloop
  endfacet
  facet normal -0 0 1
    outer loop
      vertex 20.2 -40.2 3.6
      vertex 39.8 -59.8 3.6
      vertex 39.8 -40.2 3.6
    endloop
  endfacet
  facet normal 0 0 1
    outer loop
      vertex 39.8 -59.8 3.6
      vertex 20.2 -40.2 3.6
      vertex 20.2 -59.8 3.6
    endloop
  endfacet
  facet normal 0 1 -0
    outer loop
      vertex 39.8 -40.2 3
      vertex 20.2 -40.2 3.6
      vertex 39.8 -40.2 3.6
    endloop
  endfacet
  facet normal 0 1 0
    outer loop
      vertex 20.2 -40.2 3.6
      vertex 39.8 -40.2 3
      vertex 20.2 -40.2 3
    endloop
  endfacet
  facet normal 1 -0 0
    outer loop
      vertex 39.8 -59.8 3.6
      vertex 39.8 -40.2 3
      vertex 39.8 -40.2 3.6
    endloop
  endfacet
  facet normal 1 0 0
    outer loop
      vertex 39.8 -40.2 3
      vertex 39.8 -59.8 3.6
      vertex 39.8 -59.8 3
    endloop
  endfacet
  facet normal 0 -1 0
    outer loop
      vertex 20.2 -59.8 3
      vertex 39.8 -59.8 3.6
      vertex 20.2 -59.8 3.6
    endloop
  endfacet
  facet normal 0 -1 -0
    outer loop
      vertex 39.8 -59.8 3.6
      vertex 20.2 -59.8 3
      vertex 39.8 -59.8 3
    endloop
  endfacet
  facet normal 0 0 -1
    outer loop
      vertex 60.2 -59.8 3
      vertex 79.8 -40.2 3
      vertex 79.8 -59.8 3
    endloop
  endfacet
  facet normal -0 0 -1
    outer loop
      vertex 79.8 -40.2 3
      vertex 60.2 -59.8 3
      vertex 60.2 -40.2 3
    endloop
  endfacet
  facet normal -1 0 0
    outer loop
      vertex 60.2 -59.8 3
      vertex 60.2 -40.2 3.6
      vertex 60.2 -40.2 3
    endloop
  endfacet
  facet normal -1 -0 0
    outer loop
      vertex 60.2 -40.2 3.6
      vertex 60.2 -59.8 3
      vertex 60.2 -59.8 3.6
    endloop
  endfacet
  facet normal -0 0 1
    outer loop
      vertex 60.2 -40.2 3.6
      vertex 79.8 -59.8 3.6
      vertex 79.8 -40.2 3.6
    endloop
  endfacet
  facet normal 0 0 1
    outer loop
      vertex 79.8 -59.8 3.6
      vertex 60.2 -40.2 3.6
      vertex 60.2 -59.8 3.6
    endloop
  endfacet
  facet normal 0 1 -0
    outer loop
      vertex 79.8 -40.2 3
      vertex 60.2 -40.2 3.6
      vertex 79.8 -40.2 3.6
    endloop
  endfacet
  facet normal 0 1 0
    outer loop
      vertex 60.2 -40.2 3.6
      vertex 79.8 -40.2 3
      vertex 60.2 -40.2 3
    endloop
  endfacet
  facet normal 1 -0 0
    outer loop
      vertex 79.8 -59.8 3.6
      vertex 79.8 -40.2 3
      vertex 79.8 -40.2 3.6
    endloop
  endfacet
  facet normal 1 0 0
    outer loop
      vertex 79.8 -40.2 3
      vertex 79.8 -59.8 3.6
      vertex 79.8 -59.8 3
    endloop
  endfacet
  facet normal 0 -1 0
    outer loop
      vertex 60.2 -59.8 3
      vertex 79.8 -59.8 3.6
      vertex 60.2 -59.8 3.6
    endloop
  endfacet
  facet normal 0 -1 -0
    outer loop
      vertex 79.8 -59.8 3.6
      vertex 60.2 -59.8 3
      vertex 79.8 -59.8 3
    endloop
  endfacet
  facet normal 0 0 -1
    outer loop
      vertex -79.8 -39.8 3
      vertex -60.2 -20.2 3
      vertex -60.2 -39.8 3
    endloop
  endfacet
  facet normal -0 0 -1
    outer loop
      vertex -60.2 -20.2 3
      vertex -79.8 -39.8 3
      vertex -79.8 -20.2 3
    endloop
  endfacet
  facet normal -1 0 0
    outer loop
      vertex -79.8 -39.8 3
      vertex -79.8 -20.2 3.6
      vertex -79.8 -20.2 3
    endloop
  endfacet
  facet normal -1 -0 0
    outer loop
      vertex -79.8 -20.2 3.6
      vertex -79.8 -39.8 3
      vertex -79.8 -39.8 3.6
    endloop
  endfacet
  facet normal -0 0 1
    outer loop
      vertex -79.8 -20.2 3.6
      vertex -60.2 -39.8 3.6
      vertex -60.2 -20.2 3.6
    endloop
  endfacet
  facet normal 0 0 1
    outer loop
      vertex -60.2 -39.8 3.6
      vertex -79.8 -20.2 3.6
      vertex -79.8 -39.8 3.6
    endloop
  endfacet
  facet normal 0 1 -0
    outer loop
      vertex -60.2 -20.2 3
      vertex -79.8 -20.2 3.6
      vertex -60.2 -20.2 3.6
    endloop
  endfacet
  facet normal 0 1 0
    outer loop
      vertex -79.8 -20.2 3.6
      vertex -60.2 -20.2 3
      vertex -79.8 -20.2 3
    endloop
  endfacet
  facet normal 1 -0 0
    outer loop
      vertex -60.2 -39.8 3.6
      vertex -60.2 -20.2 3
      vertex -60.2 -20.2 3.6
    endloop
  endfacet
  facet normal 1 0 0
    outer loop
      vertex -60.2 -20.2 3
      vertex -60.2 -39.8 3.6
      vertex -60.2 -39.8 3
    endloop
  endfacet
  facet normal 0 -1 0
    outer loop
      vertex -79.8 -39.8 3
      vertex -60.2 -39.8 3.6
      vertex -79.8 -39.8 3.6
    endloop
  endfacet
  facet normal 0 -1 -0
    outer loop
      vertex -60.2 -39.8 3.6
      vertex -79.8 -39.8 3
      vertex -60.2 -39.8 3
    endloop
  endfacet
  facet normal 0 0 -1
    outer loop
      vertex -39.8 -39.8 3
      vertex -20.2 -20.2 3
      vertex -20.2 -39.8 3
    endloop
  endfacet
  facet normal -0 0 -1
    outer loop
      vertex -20.2 -20.2 3
      vertex -39.8 -39.8 3
      vertex -39.8 -20.2 3
    endloop
  endfacet
  facet normal -1 0 0
    outer loop
      vertex -39.8 -39.8 3
      vertex -39.8 -20.2 3.6
      vertex -39.8 -20.2 3
    endloop
  endfacet
  facet normal -1 -0 0
    outer loop
      vertex -39.8 -20.2 3.6
      vertex -39.8 -39.8 3
      vertex -39.8 -39.8 3.6
    endloop
  endfacet
  facet normal -0 0 1
    outer loop
      vertex -39.8 -20.2 3.6
      vertex -20.2 -39.8 3.6
      vertex -20.2 -20.2 3.6
    endloop
  endfacet
  facet normal 0 0 1
    outer loop
      vertex -20.2 -39.8 3.6
      vertex -39.8 -20.2 3.6
      vertex -39.8 -39.8 3.6
    endloop
  endfacet
  facet normal 0 1 -0
    outer loop
      vertex -20.2 -20.2 3
      vertex -39.8 -20.2 3.6
      vertex -20.2 -20.2 3.6
    endloop
  endfacet
  facet normal 0 1 0
    outer loop
      vertex -39.8 -20.2 3.6
      vertex -20.2 -20.2 3
      vertex -39.8 -20.2 3
    endloop
  endfacet
  facet normal 1 -0 0
    outer loop
      vertex -20.2 -39.8 3.6
      vertex -20.2 -20.2 3
      vertex -20.2 -20.2 3.6
    endloop
  endfacet
  facet normal 1 0 0
    outer loop
      vertex -20.2 -20.2 3
      vertex -20.2 -39.8 3.6
      vertex -20.2 -39.8 3
    endloop
  endfacet
  facet normal 0 -1 0
    outer loop
      vertex -39.8 -39.8 3
      vertex -20.2 -39.8 3.6
      vertex -39.8 -39.8 3.6
    endloop
  endfacet
  facet normal 0 -1 -0
    outer loop
      vertex -20.2 -39.8 3.6
      vertex -39.8 -39.8 3
      vertex -20.2 -39.8 3
    endloop
  endfacet
  facet normal 0 0 -1
    outer loop
      vertex 0.2 -39.8 3
      vertex 19.8 -20.2 3
      vertex 19.8 -39.8 3
    endloop
  endfacet
  facet normal -0 0 -1
    outer loop
      vertex 19.8 -20.2 3
      vertex 0.2 -39.8 3
      vertex 0.2 -20.2 3
    endloop
  endfacet
  facet normal -1 0 0
    outer loop
      vertex 0.2 -39.8 3
      vertex 0.2 -20.2 3.6
      vertex 0.2 -20.2 3
    endloop
  endfacet
  facet normal -1 -0 0
    outer loop
      vertex 0.2 -20.2 3.6
      vertex 0.2 -39.8 3
      vertex 0.2 -39.8 3.6
    endloop
  endfacet
  facet normal -0 0 1
    outer loop
      vertex 0.2 -20.2 3.6
      vertex 19.8 -39.8 3.6
      vertex 19.8 -20.2 3.6
    endloop
  endfacet
  facet normal 0 0 1
    outer loop
      vertex 19.8 -39.8 3.6
      vertex 0.2 -20.2 3.6
      vertex 0.2 -39.8 3.6
    endloop
  endfacet
  facet normal 0 1 -0
    outer loop
      vertex 19.8 -20.2 3
      vertex 0.2 -20.2 3.6
      vertex 19.8 -20.2 3.6
    endloop
  endfacet
  facet normal 0 1 0
    outer loop
      vertex 0.2 -20.2 3.6
      vertex 19.8 -20.2 3
      vertex 0.2 -20.2 3
    endloop
  endfacet
  facet normal 1 -0 0
    outer loop
      vertex 19.8 -39.8 3.6
      vertex 19.8 -20.2 3
      vertex 19.8 -20.2 3.6
    endloop
  endfacet
  facet normal 1 0 0
    outer loop
      vertex 19.8 -20.2 3
      vertex 19.8 -39.8 3.6
      vertex 19.8 -39.8 3
    endloop
  endfacet
  facet normal 0 -1 0
    outer loop
      vertex 0.2 -39.8 3
      vertex 19.8 -39.8 3.6
      vertex 0.2 -39.8 3.6
    endloop
  endfacet
  facet normal 0 -1 -0
    outer loop
      vertex 19.8 -39.8 3.6
      vertex 0.2 -39.8 3
      vertex 19.8 -39.8 3
    endloop
  endfacet
  facet normal 0 0 -1
    outer loop
      vertex 40.2 -39.8 3
      vertex 59.8 -20.2 3
      vertex 59.8 -39.8 3
    endloop
  endfacet
  facet normal -0 0 -1
    outer loop
      vertex 59.8 -20.2 3
      vertex 40.2 -39.8 3
      vertex 40.2 -20.2 3
    endloop
  endfacet
  facet normal -1 0 0
    outer loop
      vertex 40.2 -39.8 3
      vertex 40.2 -20.2 3.6
      vertex 40.2 -20.2 3
    endloop
  endfacet
  facet normal -1 -0 0
    outer loop
      vertex 40.2 -20.2 3.6
      vertex 40.2 -39.8 3
      vertex 40.2 -39.8 3.6
    endloop
  endfacet
  facet normal -0 0 1
    outer loop
      vertex 40.2 -20.2 3.6
      vertex 59.8 -39.8 3.6
      vertex 59.8 -20.2 3.6
    endloop
  endfacet
  facet normal 0 0 1
    outer loop
      vertex 59.8 -39.8 3.6
      vertex 40.2 -20.2 3.6
      vertex 40.2 -39.8 3.6
    endloop
  endfacet
  facet normal 0 1 -0
    outer loop
      vertex 59.8 -20.2 3
      vertex 40.2 -20.2 3.6
      vertex 59.8 -20.2 3.6
    endloop
  endfacet
  facet normal 0 1 0
    outer loop
      vertex 40.2 -20.2 3.6
      vertex 59.8 -20.2 3
      vertex 40.2 -20.2 3
    endloop
  endfacet
  facet normal 1 -0 0
    outer loop
      vertex 59.8 -39.8 3.6
      vertex 59.8 -20.2 3
      vertex 59.8 -20.2 3.6
    endloop
  endfacet
  facet normal 1 0 0
    outer loop
      vertex 59.8 -20.2 3
      vertex 59.8 -39.8 3.6
      vertex 59.8 -39.8 3
    endloop
  endfacet
  facet normal 0 -1 0
    outer loop
      vertex 40.2 -39.8 3
      vertex 59.8 -39.8 3.6
      vertex 40.2 -39.8 3.6
    endloop
  endfacet
  facet normal 0 -1 -0
    outer loop
      vertex 59.8 -39.8 3.6
      vertex 40.2 -39.8 3
      vertex 59.8 -39.8 3
    endloop
  endfacet
  facet normal 0 0 -1
    outer loop
      vertex -59.8 -19.8 3
      vertex -40.2 -0.2 3
      vertex -40.2 -19.8 3
    endloop
  endfacet
  facet normal -0 0 -1
    outer loop
      vertex -40.2 -0.2 3
      vertex -59.8 -19.8 3
      vertex -59.8 -0.2 3
    endloop
  endfacet
  facet normal -1 0 0
    outer loop
      vertex -59.8 -19.8 3
      vertex -59.8 -0.2 3.6
      vertex -59.8 -0.2 3
    endloop
  endfacet
  facet normal -1 -0 0
    outer loop
      vertex -59.8 -0.2 3.6
      vertex -59.8 -19.8 3
      vertex -59.8 -19.8 3.6
    endloop
  endfacet
  facet normal -0 0 1
    outer loop
      vertex -59.8 -0.2 3.6
      vertex -40.2 -19.8 3.6
      vertex -40.2 -0.2 3.6
    endloop
  endfacet
  facet normal 0 0 1
    outer loop
      vertex -40.2 -19.8 3.6
      vertex -59.8 -0.2 3.6
      vertex -59.8 -19.8 3.6
    endloop
  endfacet
  facet normal 0 1 -0
    outer loop
      vertex -40.2 -0.2 3
      vertex -59.8 -0.2 3.6
      vertex -40.2 -0.2 3.6
    endloop
  endfacet
  facet normal 0 1 0
    outer loop
      vertex -59.8 -0.2 3.6
      vertex -40.2 -0.2 3
      vertex -59.8 -0.2 3
    endloop
  endfacet
  facet normal 1 -0 0
    outer loop
      vertex -40.2 -19.8 3.6
      vertex -40.2 -0.2 3
      vertex -40.2 -0.2 3.6
    endloop
  endfacet
  facet normal 1 0 0
    outer loop
      vertex -40.2 -0.2 3
      vertex -40.2 -19.8 3.6
      vertex -40.2 -19.8 3
    endloop
  endfacet
  facet normal 0 -1 0
    outer loop
      vertex -59.8 -19.8 3
      vertex -40.2 -19.8 3.6
      vertex -59.8 -19.8 3.6
    endloop
  endfacet
  facet normal 0 -1 -0
    outer loop
      vertex -40.2 -19.8 3.6
      vertex -59.8 -19.8 3
      vertex -40.2 -19.8 3
    endloop
  endfacet
  facet normal 0 0 -1
    outer loop
      vertex -19.8 -19.8 3
      vertex -0.2 -0.2 3
      vertex -0.2 -19.8 3
    endloop
  endfacet
  facet normal -0 0 -1
    outer loop
      vertex -0.2 -0.2 3
      vertex -19.8 -19.8 3
      vertex -19.8 -0.2 3
    endloop
  endfacet
  facet normal -1 0 0
    outer loop
      vertex -19.8 -19.8 3
      vertex -19.8 -0.2 3.6
      vertex -19.8 -0.2 3
    endloop
  endfacet
  facet normal -1 -0 0
    outer loop
      vertex -19.8 -0.2 3.6
      vertex -19.8 -19.8 3
      vertex -19.8 -19.8 3.6
    endloop
  endfacet
  facet normal -0 0 1
    outer loop
      vertex -19.8 -0.2 3.6
      vertex -0.2 -19.8 3.6
      vertex -0.2 -0.2 3.6
    endloop
  endfacet
  facet normal 0 0 1
    outer loop
      vertex -0.2 -19.8 3.6
      vertex -19.8 -0.2 3.6
      vertex -19.8 -19.8 3.6
    endloop
  endfacet
  facet normal 0 1 -0
    outer loop
      vertex -0.2 -0.2 3
      vertex -19.8 -0.2 3.6
      vertex -0.2 -0.2 3.6
    endloop
  endfacet
  facet normal 0 1 0
    outer loop
      vertex -19.8 -0.2 3.6
      vertex -0.2 -0.2 3
      vertex -19.8 -0.2 3
    endloop
  endfacet
  facet normal 1 -0 0
    outer loop
      vertex -0.2 -19.8 3.6
      vertex -0.2 -0.2 3
      vertex -0.2 -0.2 3.6
    endloop
  endfacet
  facet normal 1 0 0
    outer loop
      vertex -0.2 -0.2 3
      vertex -0.2 -19.8 3.6
      vertex -0.2 -19.8 3
    endloop
  endfacet
  facet normal 0 -1 0
    outer loop
      vertex -19.8 -19.8 3
      vertex -0.2 -19.8 3.6
      vertex -19.8 -19.8 3.6
    endloop
  endfacet
  facet normal 0 -1 -0
    outer loop
      vertex -0.2 -19.8 3.6
      vertex -19.8 -19.8 3
      vertex -0.2 -19.8 3
    endloop
  endfacet
  facet normal 0 0 -1
    outer loop
      vertex 20.2 -19.8 3
      vertex 39.8 -0.2 3
      vertex 39.8 -19.8 3
    endloop
  endfacet
  facet normal -0 0 -1
    outer loop
      vertex 39.8 -0.2 3
      vertex 20.2 -19.8 3
      vertex 20.2 -0.2 3
    endloop
  endfacet
  facet normal -1 0 0
    outer loop
      vertex 20.2 -19.8 3
      vertex 20.2 -0.2 3.6
      vertex 20.2 -0.2 3
    endloop
  endfacet
  facet normal -1 -0 0
    outer loop
      vertex 20.2 -0.2 3.6
      vertex 20.2 -19.8 3
      vertex 20.2 -19.8 3.6
    endloop
  endfacet
  facet normal -0 0 1
    outer loop
      vertex 20.2 -0.2 3.6
      vertex 39.8 -19.8 3.6
      vertex 39.8 -0.2 3.6
    endloop
  endfacet
  facet normal 0 0 1
    outer loop
      vertex 39.8 -19.8 3.6
      vertex 20.2 -0.2 3.6
      vertex 20.2 -19.8 3.6
    endloop
  endfacet
  facet normal 0 1 -0
    outer loop
      vertex 39.8 -0.2 3
      vertex 20.2 -0.2 3.6
      vertex 39.8 -0.2 3.6
    endloop
  endfacet
  facet normal 0 1 0
    outer loop
      vertex 20.2 -0.2 3.6
      vertex 39.8 -0.2 3
      vertex 20.2 -0.2 3
    endloop
  endfacet
  facet normal 1 -0 0
    outer loop
      vertex 39.8 -19.8 3.6
      vertex 39.8 -0.2 3
      vertex 39.8 -0.2 3.6
    endloop
  endfacet
  facet normal 1 0 0
    outer loop
      vertex 39.8 -0.2 3
      vertex 39.8 -19.8 3.6
      vertex 39.8 -19.8 3
    endloop
  endfacet
  facet normal 0 -1 0
    outer loop
      vertex 20.2 -19.8 3
      vertex 39.8 -19.8 3.6
      vertex 20.2 -19.8 3.6
    endloop
  endfacet
  facet normal 0 -1 -0
    outer loop
      vertex 39.8 -19.8 3.6
      vertex 20.2 -19.8 3
      vertex 39.8 -19.8 3
    endloop
  endfacet
  facet normal 0 0 -1
    outer loop
      vertex 60.2 -19.8 3
      vertex 79.8 -0.2 3
      vertex 79.8 -19.8 3
    endloop
  endfacet
  facet normal -0 0 -1
    outer loop
      vertex 79.8 -0.2 3
      vertex 60.2 -19.8 3
      vertex 60.2 -0.2 3
    endloop
  endfacet
  facet normal -1 0 0
    outer loop
      vertex 60.2 -19.8 3
      vertex 60.2 -0.2 3.6
      vertex 60.2 -0.2 3
    endloop
  endfacet
  facet normal -1 -0 0
    outer loop
      vertex 60.2 -0.2 3.6
      vertex 60.2 -19.8 3
      vertex 60.2 -19.8 3.6
    endloop
  endfacet
  facet normal -0 0 1
    outer loop
      vertex 60.2 -0.2 3.6
      vertex 79.8 -19.8 3.6
      vertex 79.8 -0.2 3.6
    endloop
  endfacet
  facet normal 0 0 1
    outer loop
      vertex 79.8 -19.8 3.6
      vertex 60.2 -0.2 3.6
      vertex 60.2 -19.8 3.6
    endloop
  endfacet
  facet normal 0 1 -0
    outer loop
      vertex 79.8 -0.2 3
      vertex 60.2 -0.2 3.6
      vertex 79.8 -0.2 3.6
    endloop
  endfacet
  facet normal 0 1 0
    outer loop
      vertex 60.2 -0.2 3.6
      vertex 79.8 -0.2 3
      vertex 60.2 -0.2 3
    endloop
  endfacet
  facet normal 1 -0 0
    outer loop
      vertex 79.8 -19.8 3.6
      vertex 79.8 -0.2 3
      vertex 79.8 -0.2 3.6
    endloop
  endfacet
  facet normal 1 0 0
    outer loop
      vertex 79.8 -0.2 3
      vertex 79.8 -19.8 3.6
      vertex 79.8 -19.8 3
    endloop
  endfacet
  facet normal 0 -1 0
    outer loop
      vertex 60.2 -19.8 3
      vertex 79.8 -19.8 3.6
      vertex 60.2 -19.8 3.6
    endloop
  endfacet
  facet normal 0 -1 -0
    outer loop
      vertex 79.8 -19.8 3.6
      vertex 60.2 -19.8 3
      vertex 79.8 -19.8 3
    endloop
  endfacet
  facet normal 0 0 -1
    outer loop
      vertex -79.8 0.2 3
      vertex -60.2 19.8 3
      vertex -60.2 0.2 3
    endloop
  endfacet
  facet normal -0 0 -1
    outer loop
      vertex -60.2 19.8 3
      vertex -79.8 0.2 3
      vertex -79.8 19.8 3
    endloop
  endfacet
  facet normal -1 0 0
    outer loop
      vertex -79.8 0.2 3
      vertex -79.8 19.8 3.6
      vertex -79.8 19.8 3
    endloop
  endfacet
  facet normal -1 -0 0
    outer loop
      vertex -79.8 19.8 3.6
      vertex -79.8 0.2 3
      vertex -79.8 0.2 3.6
    endloop
  endfacet
  facet normal -0 0 1
    outer loop
      vertex -79.8 19.8 3.6
      vertex -60.2 0.2 3.6
      vertex -60.2 19.8 3.6
    endloop
  endfacet
  facet normal 0 0 1
    outer loop
      vertex -60.2 0.2 3.6
      vertex -79.8 19.8 3.6
      vertex -79.8 0.2 3.6
    endloop
  endfacet
  facet normal 0 1 -0
    outer loop
      vertex -60.2 19.8 3
      vertex -79.8 19.8 3.6
      vertex -60.2 19.8 3.6
    endloop
  endfacet
  facet normal 0 1 0
    outer loop
      vertex -79.8 19.8 3.6
      vertex -60.2 19.8 3
      vertex -79.8 19.8 3
    endloop
  endfacet
  facet normal 1 -0 0
    outer loop
      vertex -60.2 0.2 3.6
      vertex -60.2 19.8 3
      vertex -60.2 19.8 3.6
    endloop
  endfacet
  facet normal 1 0 0
    outer loop
      vertex -60.2 19.8 3
      vertex -60.2 0.2 3.6
      vertex -60.2 0.2 3
    endloop
  endfacet
  facet normal 0 -1 0
    outer loop
      vertex -79.8 0.2 3
      vertex -60.2 0.2 3.6
      vertex -79.8 0.2 3.6
    endloop
  endfacet
  facet normal 0 -1 -0
    outer loop
      vertex -60.2 0.2 3.6
      vertex -79.8 0.2 3
      vertex -60.2 0.2 3
    endloop
  endfacet
  facet normal 0 0 -1
    outer loop
      vertex -39.8 0.2 3
      vertex -20.2 19.8 3
      vertex -20.2 0.2 3
    endloop
  endfacet
  facet normal -0 0 -1
    outer loop
      vertex -20.2 19.8 3
      vertex -39.8 0.2 3
      vertex -39.8 19.8 3
    endloop
  endfacet
  facet normal -1 0 0
    outer loop
      vertex -39.8 0.2 3
      vertex -39.8 19.8 3.6
      vertex -39.8 19.8 3
    endloop
  endfacet
  facet normal -1 -0 0
    outer loop
      vertex -39.8 19.8 3.6
      vertex -39.8 0.2 3
      vertex -39.8 0.2 3.6
    endloop
  endfacet
  facet normal -0 0 1
    outer loop
      vertex -39.8 19.8 3.6
      vertex -20.2 0.2 3.6
      vertex -20.2 19.8 3.6
    endloop
  endfacet
  facet normal 0 0 1
    outer loop
      vertex -20.2 0.2 3.6
      vertex -39.8 19.8 3.6
      vertex -39.8 0.2 3.6
    endloop
  endfacet
  facet normal 0 1 -0
    outer loop
      vertex -20.2 19.8 3
      vertex -39.8 19.8 3.6
      vertex -20.2 19.8 3.6
    endloop
  endfacet
  facet normal 0 1 0
    outer loop
      vertex -39.8 19.8 3.6
      vertex -20.2 19.8 3
      vertex -39.8 19.8 3
    endloop
  endfacet
  facet normal 1 -0 0
    outer loop
      vertex -20.2 0.2 3.6
      vertex -20.2 19.8 3
      vertex -20.2 19.8 3.6
    endloop
  endfacet
  facet normal 1 0 0
    outer loop
      vertex -20.2 19.8 3
      vertex -20.2 0.2 3.6
      vertex -20.2 0.2 3
    endloop
  endfacet
  facet normal 0 -1 0
    outer loop
      vertex -39.8 0.2 3
      vertex -20.2 0.2 3.6
      vertex -39.8 0.2 3.6
    endloop
  endfacet
  facet normal 0 -1 -0
    outer loop
      vertex -20.2 0.2 3.6
      vertex -39.8 0.2 3
      vertex -20.2 0.2 3
    endloop
  endfacet
  facet normal 0 0 -1
    outer loop
      vertex 0.2 0.2 3
      vertex 19.8 19.8 3
      vertex 19.8 0.2 3
    endloop
  endfacet
  facet normal -0 0 -1
    outer loop
      vertex 19.8 19.8 3
      vertex 0.2 0.2 3
      vertex 0.2 19.8 3
    endloop
  endfacet
  facet normal -1 0 0
    outer loop
      vertex 0.2 0.2 3
      vertex 0.2 19.8 3.6
      vertex 0.2 19.8 3
    endloop
  endfacet
  facet normal -1 -0 0
    outer loop
      vertex 0.2 19.8 3.6
      vertex 0.2 0.2 3
      vertex 0.2 0.2 3.6
    endloop
  endfacet
  facet normal -0 0 1
    outer loop
      vertex 0.2 19.8 3.6
      vertex 19.8 0.2 3.6
      vertex 19.8 19.8 3.6
    endloop
  endfacet
  facet normal 0 0 1
    outer loop
      vertex 19.8 0.2 3.6
      vertex 0.2 19.8 3.6
      vertex 0.2 0.2 3.6
    endloop
  endfacet
  facet normal 0 1 -0
    outer loop
      vertex 19.8 19.8 3
      vertex 0.2 19.8 3.6
      vertex 19.8 19.8 3.6
    endloop
  endfacet
  facet normal 0 1 0
    outer loop
      vertex 0.2 19.8 3.6
      vertex 19.8 19.8 3
      vertex 0.2 19.8 3
    endloop
  endfacet
  facet normal 1 -0 0
    outer loop
      vertex 19.8 0.2 3.6
      vertex 19.8 19.8 3
      vertex 19.8 19.8 3.6
    endloop
  endfacet
  facet normal 1 0 0
    outer loop
      vertex 19.8 19.8 3
      vertex 19.8 0.2 3.6
      vertex 19.8 0.2 3
    endloop
  endfacet
  facet normal 0 -1 0
    outer loop
      vertex 0.2 0.2 3
      vertex 19.8 0.2 3.6
      vertex 0.2 0.2 3.6
    endloop
  endfacet
  facet normal 0 -1 -0
    outer loop
      vertex 19.8 0.2 3.6
      vertex 0.2 0.2 3
      vertex 19.8 0.2 3
    endloop
  endfacet
  facet normal 0 0 -1
    outer loop
      vertex 40.2 0.2 3
      vertex 59.8 19.8 3
      vertex 59.8 0.2 3
    endloop
  endfacet
  facet normal -0 0 -1
    outer loop
      vertex 59.8 19.8 3
      vertex 40.2 0.2 3
      vertex 40.2 19.8 3
    endloop
  endfacet
  facet normal -1 0 0
    outer loop
      vertex 40.2 0.2 3
      vertex 40.2 19.8 3.6
      vertex 40.2 19.8 3
    endloop
  endfacet
  facet normal -1 -0 0
    outer loop
      vertex 40.2 19.8 3.6
      vertex 40.2 0.2 3
      vertex 40.2 0.2 3.6
    endloop
  endfacet
  facet normal -0 0 1
    outer loop
      vertex 40.2 19.8 3.6
      vertex 59.8 0.2 3.6
      vertex 59.8 19.8 3.6
    endloop
  endfacet
  facet normal 0 0 1
    outer loop
      vertex 59.8 0.2 3.6
      vertex 40.2 19.8 3.6
      vertex 40.2 0.2 3.6
    endloop
  endfacet
  facet normal 0 1 -0
    outer loop
      vertex 59.8 19.8 3
      vertex 40.2 19.8 3.6
      vertex 59.8 19.8 3.6
    endloop
  endfacet
  facet normal 0 1 0
    outer loop
      vertex 40.2 19.8 3.6
      vertex 59.8 19.8 3
      vertex 40.2 19.8 3
    endloop
  endfacet
  facet normal 1 -0 0
    outer loop
      vertex 59.8 0.2 3.6
      vertex 59.8 19.8 3
      vertex 59.8 19.8 3.6
    endloop
  endfacet
  facet normal 1 0 0
    outer loop
      vertex 59.8 19.8 3
      vertex 59.8 0.2 3.6
      vertex 59.8 0.2 3
    endloop
  endfacet
  facet normal 0 -1 0
    outer loop
      vertex 40.2 0.2 3
      vertex 59.8 0.2 3.6
      vertex 40.2 0.2 3.6
    endloop
  endfacet
  facet normal 0 -1 -0
    outer loop
      vertex 59.8 0.2 3.6
      vertex 40.2 0.2 3
      vertex 59.8 0.2 3
    endloop
  endfacet
  facet normal 0 0 -1
    outer loop
      vertex -59.8 20.2 3
      vertex -40.2 39.8 3
      vertex -40.2 20.2 3
    endloop
  endfacet
  facet normal -0 0 -1
    outer loop
      vertex -40.2 39.8 3
      vertex -59.8 20.2 3
      vertex -59.8 39.8 3
    endloop
  endfacet
  facet normal -1 0 0
    outer loop
      vertex -59.8 20.2 3
      vertex -59.8 39.8 3.6
      vertex -59.8 39.8 3
    endloop
  endfacet
  facet normal -1 -0 0
    outer loop
      vertex -59.8 39.8 3.6
      vertex -59.8 20.2 3
      vertex -59.8 20.2 3.6
    endloop
  endfacet
  facet normal -0 0 1
    outer loop
      vertex -59.8 39.8 3.6
      vertex -40.2 20.2 3.6
      vertex -40.2 39.8 3.6
    endloop
  endfacet
  facet normal 0 0 1
    outer loop
      vertex -40.2 20.2 3.6
      vertex -59.8 39.8 3.6
      vertex -59.8 20.2 3.6
    endloop
  endfacet
  facet normal 0 1 -0
    outer loop
      vertex -40.2 39.8 3
      vertex -59.8 39.8 3.6
      vertex -40.2 39.8 3.6
    endloop
  endfacet
  facet normal 0 1 0
    outer loop
      vertex -59.8 39.8 3.6
      vertex -40.2 39.8 3
      vertex -59.8 39.8 3
    endloop
  endfacet
  facet normal 1 -0 0
    outer loop
      vertex -40.2 20.2 3.6
      vertex -40.2 39.8 3
      vertex -40.2 39.8 3.6
    endloop
  endfacet
  facet normal 1 0 0
    outer loop
      vertex -40.2 39.8 3
      vertex -40.2 20.2 3.6
      vertex -40.2 20.2 3
    endloop
  endfacet
  facet normal 0 -1 0
    outer loop
      vertex -59.8 20.2 3
      vertex -40.2 20.2 3.6
      vertex -59.8 20.2 3.6
    endloop
  endfacet
  facet normal 0 -1 -0
    outer loop
      vertex -40.2 20.2 3.6
      vertex -59.8 20.2 3
      vertex -40.2 20.2 3
    endloop
  endfacet
  facet normal 0 0 -1
    outer loop
      vertex -19.8 20.2 3
      vertex -0.2 39.8 3
      vertex -0.2 20.2 3
    endloop
  endfacet
  facet normal -0 0 -1
    outer loop
      vertex -0.2 39.8 3
      vertex -19.8 20.2 3
      vertex -19.8 39.8 3
    endloop
  endfacet
  facet normal -1 0 0
    outer loop
      vertex -19.8 20.2 3
      vertex -19.8 39.8 3.6
      vertex -19.8 39.8 3
    endloop
  endfacet
  facet normal -1 -0 0
    outer loop
      vertex -19.8 39.8 3.6
      vertex -19.8 20.2 3
      vertex -19.8 20.2 3.6
    endloop
  endfacet
  facet normal -0 0 1
    outer loop
      vertex -19.8 39.8 3.6
      vertex -0.2 20.2 3.6
      vertex -0.2 39.8 3.6
    endloop
  endfacet
  facet normal 0 0 1
    outer loop
      vertex -0.2 20.2 3.6
      vertex -19.8 39.8 3.6
      vertex -19.8 20.2 3.6
    endloop
  endfacet
  facet normal 0 1 -0
    outer loop
      vertex -0.2 39.8 3
      vertex -19.8 39.8 3.6
      vertex -0.2 39.8 3.6
    endloop
  endfacet
  facet normal 0 1 0
    outer loop
      vertex -19.8 39.8 3.6
      vertex -0.2 39.8 3
      vertex -19.8 39.8 3
    endloop
  endfacet
  facet normal 1 -0 0
    outer loop
      vertex -0.2 20.2 3.6
      vertex -0.2 39.8 3
      vertex -0.2 39.8 3.6
    endloop
  endfacet
  facet normal 1 0 0
    outer loop
      vertex -0.2 39.8 3
      vertex -0.2 20.2 3.6
      vertex -0.2 20.2 3
    endloop
  endfacet
  facet normal 0 -1 0
    outer loop
      vertex -19.8 20.2 3
      vertex -0.2 20.2 3.6
      vertex -19.8 20.2 3.6
    endloop
  endfacet
  facet normal 0 -1 -0
    outer loop
      vertex -0.2 20.2 3.6
      vertex -19.8 20.2 3
      vertex -0.2 20.2 3
    endloop
  endfacet
  facet normal 0 0 -1
    outer loop
      vertex 20.2 20.2 3
      vertex 39.8 39.8 3
      vertex 39.8 20.2 3
    endloop
  endfacet
  facet normal -0 0 -1
    outer loop
      vertex 39.8 39.8 3
      vertex 20.2 20.2 3
      vertex 20.2 39.8 3
    endloop
  endfacet
  facet normal -1 0 0
    outer loop
      vertex 20.2 20.2 3
      vertex 20.2 39.8 3.6
      vertex 20.2 39.8 3
    endloop
  endfacet
  facet normal -1 -0 0
    outer loop
      vertex 20.2 39.8 3.6
      vertex 20.2 20.2 3
      vertex 20.2 20.2 3.6
    endloop
  endfacet
  facet normal -0 0 1
    outer loop
      vertex 20.2 39.8 3.6
      vertex 39.8 20.2 3.6
      vertex 39.8 39.8 3.6
    endloop
  endfacet
  facet normal 0 0 1
    outer loop
      vertex 39.8 20.2 3.6
      vertex 20.2 39.8 3.6
      vertex 20.2 20.2 3.6
    endloop
  endfacet
  facet normal 0 1 -0
    outer loop
      vertex 39.8 39.8 3
      vertex 20.2 39.8 3.6
      vertex 39.8 39.8 3.6
    endloop
  endfacet
  facet normal 0 1 0
    outer loop
      vertex 20.2 39.8 3.6
      vertex 39.8 39.8 3
      vertex 20.2 39.8 3
    endloop
  endfacet
  facet normal 1 -0 0
    outer loop
      vertex 39.8 20.2 3.6
      vertex 39.8 39.8 3
      vertex 39.8 39.8 3.6
    endloop
  endfacet
  facet normal 1 0 0
    outer loop
      vertex 39.8 39.8 3
      vertex 39.8 20.2 3.6
      vertex 39.8 20.2 3
    endloop
  endfacet
  facet normal 0 -1 0
    outer loop
      vertex 20.2 20.2 3
      vertex 39.8 20.2 3.6
      vertex 20.2 20.2 3.6
    endloop
  endfacet
  facet normal 0 -1 -0
    outer loop
      vertex 39.8 20.2 3.6
      vertex 20.2 20.2 3
      vertex 39.8 20.2 3
    endloop
  endfacet
  facet normal 0 0 -1
    outer loop
      vertex 60.2 20.2 3
      vertex 79.8 39.8 3
      vertex 79.8 20.2 3
    endloop
  endfacet
  facet normal -0 0 -1
    outer loop
      vertex 79.8 39.8 3
      vertex 60.2 20.2 3
      vertex 60.2 39.8 3
    endloop
  endfacet
  facet normal -1 0 0
    outer loop
      vertex 60.2 20.2 3
      vertex 60.2 39.8 3.6
      vertex 60.2 39.8 3
    endloop
  endfacet
  facet normal -1 -0 0
    outer loop
      vertex 60.2 39.8 3.6
      vertex 60.2 20.2 3
      vertex 60.2 20.2 3.6
    endloop
  endfacet
  facet normal -0 0 1
    outer loop
      vertex 60.2 39.8 3.6
      vertex 79.8 20.2 3.6
      vertex 79.8 39.8 3.6
    endloop
  endfacet
  facet normal 0 0 1
    outer loop
      vertex 79.8 20.2 3.6
      vertex 60.2 39.8 3.6
      vertex 60.2 20.2 3.6
    endloop
  endfacet
  facet normal 0 1 -0
    outer loop
      vertex 79.8 39.8 3
      vertex 60.2 39.8 3.6
      vertex 79.8 39.8 3.6
    endloop
  endfacet
  facet normal 0 1 0
    outer loop
      vertex 60.2 39.8 3.6
      vertex 79.8 39.8 3
      vertex 60.2 39.8 3
    endloop
  endfacet
  facet normal 1 -0 0
    outer loop
      vertex 79.8 20.2 3.6
      vertex 79.8 39.8 3
      vertex 79.8 39.8 3.6
    endloop
  endfacet
  facet normal 1 0 0
    outer loop
      vertex 79.8 39.8 3
      vertex 79.8 20.2 3.6
      vertex 79.8 20.2 3
    endloop
  endfacet
  facet normal 0 -1 0
    outer loop
      vertex 60.2 20.2 3
      vertex 79.8 20.2 3.6
      vertex 60.2 20.2 3.6
    endloop
  endfacet
  facet normal 0 -1 -0
    outer loop
      vertex 79.8 20.2 3.6
      vertex 60.2 20.2 3
      vertex 79.8 20.2 3
    endloop
  endfacet
  facet normal 0 0 -1
    outer loop
      vertex -79.8 40.2 3
      vertex -60.2 59.8 3
      vertex -60.2 40.2 3
    endloop
  endfacet
  facet normal -0 0 -1
    outer loop
      vertex -60.2 59.8 3
      vertex -79.8 40.2 3
      vertex -79.8 59.8 3
    endloop
  endfacet
  facet normal -1 0 0
    outer loop
      vertex -79.8 40.2 3
      vertex -79.8 59.8 3.6
      vertex -79.8 59.8 3
    endloop
  endfacet
  facet normal -1 -0 0
    outer loop
      vertex -79.8 59.8 3.6
      vertex -79.8 40.2 3
      vertex -79.8 40.2 3.6
    endloop
  endfacet
  facet normal -0 0 1
    outer loop
      vertex -79.8 59.8 3.6
      vertex -60.2 40.2 3.6
      vertex -60.2 59.8 3.6
    endloop
  endfacet
  facet normal 0 0 1
    outer loop
      vertex -60.2 40.2 3.6
      vertex -79.8 59.8 3.6
      vertex -79.8 40.2 3.6
    endloop
  endfacet
  facet normal 0 1 -0
    outer loop
      vertex -60.2 59.8 3
      vertex -79.8 59.8 3.6
      vertex -60.2 59.8 3.6
    endloop
  endfacet
  facet normal 0 1 0
    outer loop
      vertex -79.8 59.8 3.6
      vertex -60.2 59.8 3
      vertex -79.8 59.8 3
    endloop
  endfacet
  facet normal 1 -0 0
    outer loop
      vertex -60.2 40.2 3.6
      vertex -60.2 59.8 3
      vertex -60.2 59.8 3.6
    endloop
  endfacet
  facet normal 1 0 0
    outer loop
      vertex -60.2 59.8 3
      vertex -60.2 40.2 3.6
      vertex -60.2 40.2 3
    endloop
  endfacet
  facet normal 0 -1 0
    outer loop
      vertex -79.8 40.2 3
      vertex -60.2 40.2 3.6
      vertex -79.8 40.2 3.6
    endloop
  endfacet
  facet normal 0 -1 -0
    outer loop
      vertex -60.2 40.2 3.6
      vertex -79.8 40.2 3
      vertex -60.2 40.2 3
    endloop
  endfacet
  facet normal 0 0 -1
    outer loop
      vertex -39.8 40.2 3
      vertex -20.2 59.8 3
      vertex -20.2 40.2 3
    endloop
  endfacet
  facet normal -0 0 -1
    outer loop
      vertex -20.2 59.8 3
      vertex -39.8 40.2 3
      vertex -39.8 59.8 3
    endloop
  endfacet
  facet normal -1 0 0
    outer loop
      vertex -39.8 40.2 3
      vertex -39.8 59.8 3.6
      vertex -39.8 59.8 3
    endloop
  endfacet
  facet normal -1 -0 0
    outer loop
      vertex -39.8 59.8 3.6
      vertex -39.8 40.2 3
      vertex -39.8 40.2 3.6
    endloop
  endfacet
  facet normal -0 0 1
    outer loop
      vertex -39.8 59.8 3.6
      vertex -20.2 40.2 3.6
      vertex -20.2 59.8 3.6
    endloop
  endfacet
  facet normal 0 0 1
    outer loop
      vertex -20.2 40.2 3.6
      vertex -39.8 59.8 3.6
      vertex -39.8 40.2 3.6
    endloop
  endfacet
  facet normal 0 1 -0
    outer loop
      vertex -20.2 59.8 3
      vertex -39.8 59.8 3.6
      vertex -20.2 59.8 3.6
    endloop
  endfacet
  facet normal 0 1 0
    outer loop
      vertex -39.8 59.8 3.6
      vertex -20.2 59.8 3
      vertex -39.8 59.8 3
    endloop
  endfacet
  facet normal 1 -0 0
    outer loop
      vertex -20.2 40.2 3.6
      vertex -20.2 59.8 3
      vertex -20.2 59.8 3.6
    endloop
  endfacet
  facet normal 1 0 0
    outer loop
      vertex -20.2 59.8 3
      vertex -20.2 40.2 3.6
      vertex -20.2 40.2 3
    endloop
  endfacet
  facet normal 0 -1 0
    outer loop
      vertex -39.8 40.2 3
      vertex -20.2 40.2 3.6
      vertex -39.8 40.2 3.6
    endloop
  endfacet
  facet normal 0 -1 -0
    outer loop
      vertex -20.2 40.2 3.6
      vertex -39.8 40.2 3
      vertex -20.2 40.2 3
    endloop
  endfacet
  facet normal 0 0 -1
    outer loop
      vertex 0.2 40.2 3
      vertex 19.8 59.8 3
      vertex 19.8 40.2 3
    endloop
  endfacet
  facet normal -0 0 -1
    outer loop
      vertex 19.8 59.8 3
      vertex 0.2 40.2 3
      vertex 0.2 59.8 3
    endloop
  endfacet
  facet normal -1 0 0
    outer loop
      vertex 0.2 40.2 3
      vertex 0.2 59.8 3.6
      vertex 0.2 59.8 3
    endloop
  endfacet
  facet normal -1 -0 0
    outer loop
      vertex 0.2 59.8 3.6
      vertex 0.2 40.2 3
      vertex 0.2 40.2 3.6
    endloop
  endfacet
  facet normal -0 0 1
    outer loop
      vertex 0.2 59.8 3.6
      vertex 19.8 40.2 3.6
      vertex 19.8 59.8 3.6
    endloop
  endfacet
  facet normal 0 0 1
    outer loop
      vertex 19.8 40.2 3.6
      vertex 0.2 59.8 3.6
      vertex 0.2 40.2 3.6
    endloop
  endfacet
  facet normal 0 1 -0
    outer loop
      vertex 19.8 59.8 3
      vertex 0.2 59.8 3.6
      vertex 19.8 59.8 3.6
    endloop
  endfacet
  facet normal 0 1 0
    outer loop
      vertex 0.2 59.8 3.6
      vertex 19.8 59.8 3
      vertex 0.2 59.8 3
    endloop
  endfacet
  facet normal 1 -0 0
    outer loop
      vertex 19.8 40.2 3.6
      vertex 19.8 59.8 3
      vertex 19.8 59.8 3.6
    endloop
  endfacet
  facet normal 1 0 0
    outer loop
      vertex 19.8 59.8 3
      vertex 19.8 40.2 3.6
      vertex 19.8 40.2 3
    endloop
  endfacet
  facet normal 0 -1 0
    outer loop
      vertex 0.2 40.2 3
      vertex 19.8 40.2 3.6
      vertex 0.2 40.2 3.6
    endloop
  endfacet
  facet normal 0 -1 -0
    outer loop
      vertex 19.8 40.2 3.6
      vertex 0.2 40.2 3
      vertex 19.8 40.2 3
    endloop
  endfacet
  facet normal 0 0 -1
    outer loop
      vertex 40.2 40.2 3
      vertex 59.8 59.8 3
      vertex 59.8 40.2 3
    endloop
  endfacet
  facet normal -0 0 -1
    outer loop
      vertex 59.8 59.8 3
      vertex 40.2 40.2 3
      vertex 40.2 59.8 3
    endloop
  endfacet
  facet normal -1 0 0
    outer loop
      vertex 40.2 40.2 3
      vertex 40.2 59.8 3.6
      vertex 40.2 59.8 3
    endloop
  endfacet
  facet normal -1 -0 0
    outer loop
      vertex 40.2 59.8 3.6
      vertex 40.2 40.2 3
      vertex 40.2 40.2 3.6
    endloop
  endfacet
  facet normal -0 0 1
    outer loop
      vertex 40.2 59.8 3.6
      vertex 59.8 40.2 3.6
      vertex 59.8 59.8 3.6
    endloop
  endfacet
  facet normal 0 0 1
    outer loop
      vertex 59.8 40.2 3.6
      vertex 40.2 59.8 3.6
      vertex 40.2 40.2 3.6
    endloop
  endfacet
  facet normal 0 1 -0
    outer loop
      vertex 59.8 59.8 3
      vertex 40.2 59.8 3.6
      vertex 59.8 59.8 3.6
    endloop
  endfacet
  facet normal 0 1 0
    outer loop
      vertex 40.2 59.8 3.6
      vertex 59.8 59.8 3
      vertex 40.2 59.8 3
    endloop
  endfacet
  facet normal 1 -0 0
    outer loop
      vertex 59.8 40.2 3.6
      vertex 59.8 59.8 3
      vertex 59.8 59.8 3.6
    endloop
  endfacet
  facet normal 1 0 0
    outer loop
      vertex 59.8 59.8 3
      vertex 59.8 40.2 3.6
      vertex 59.8 40.2 3
    endloop
  endfacet
  facet normal 0 -1 0
    outer loop
      vertex 40.2 40.2 3
      vertex 59.8 40.2 3.6
      vertex 40.2 40.2 3.6
    endloop
  endfacet
  facet normal 0 -1 -0
    outer loop
      vertex 59.8 40.2 3.6
      vertex 40.2 40.2 3
      vertex 59.8 40.2 3
    endloop
  endfacet
  facet normal 0 0 -1
    outer loop
      vertex -59.8 60.2 3
      vertex -40.2 79.8 3
      vertex -40.2 60.2 3
    endloop
  endfacet
  facet normal -0 0 -1
    outer loop
      vertex -40.2 79.8 3
      vertex -59.8 60.2 3
      vertex -59.8 79.8 3
    endloop
  endfacet
  facet normal -1 0 0
    outer loop
      vertex -59.8 60.2 3
      vertex -59.8 79.8 3.6
      vertex -59.8 79.8 3
    endloop
  endfacet
  facet normal -1 -0 0
    outer loop
      vertex -59.8 79.8 3.6
      vertex -59.8 60.2 3
      vertex -59.8 60.2 3.6
    endloop
  endfacet
  facet normal -0 0 1
    outer loop
      vertex -59.8 79.8 3.6
      vertex -40.2 60.2 3.6
      vertex -40.2 79.8 3.6
    endloop
  endfacet
  facet normal 0 0 1
    outer loop
      vertex -40.2 60.2 3.6
      vertex -59.8 79.8 3.6
      vertex -59.8 60.2 3.6
    endloop
  endfacet
  facet normal 0 1 -0
    outer loop
      vertex -40.2 79.8 3
      vertex -59.8 79.8 3.6
      vertex -40.2 79.8 3.6
    endloop
  endfacet
  facet normal 0 1 0
    outer loop
      vertex -59.8 79.8 3.6
      vertex -40.2 79.8 3
      vertex -59.8 79.8 3
    endloop
  endfacet
  facet normal 1 -0 0
    outer loop
      vertex -40.2 60.2 3.6
      vertex -40.2 79.8 3
      vertex -40.2 79.8 3.6
    endloop
  endfacet
  facet normal 1 0 0
    outer loop
      vertex -40.2 79.8 3
      vertex -40.2 60.2 3.6
      vertex -40.2 60.2 3
    endloop
  endfacet
  facet normal 0 -1 0
    outer loop
      vertex -59.8 60.2 3
      vertex -40.2 60.2 3.6
      vertex -59.8 60.2 3.6
    endloop
  endfacet
  facet normal 0 -1 -0
    outer loop
      vertex -40.2 60.2 3.6
      vertex -59.8 60.2 3
      vertex -40.2 60.2 3
    endloop
  endfacet
  facet normal 0 0 -1
    outer loop
      vertex -19.8 60.2 3
      vertex -0.2 79.8 3
      vertex -0.2 60.2 3
    endloop
  endfacet
  facet normal -0 0 -1
    outer loop
      vertex -0.2 79.8 3
      vertex -19.8 60.2 3
      vertex -19.8 79.8 3
    endloop
  endfacet
  facet normal -1 0 0
    outer loop
      vertex -19.8 60.2 3
      vertex -19.8 79.8 3.6
      vertex -19.8 79.8 3
    endloop
  endfacet
  facet normal -1 -0 0
    outer loop
      vertex -19.8 79.8 3.6
      vertex -19.8 60.2 3
      vertex -19.8 60.2 3.6
    endloop
  endfacet
  facet normal -0 0 1
    outer loop
      vertex -19.8 79.8 3.6
      vertex -0.2 60.2 3.6
      vertex -0.2 79.8 3.6
    endloop
  endfacet
  facet normal 0 0 1
    outer loop
      vertex -0.2 60.2 3.6
      vertex -19.8 79.8 3.6
      vertex -19.8 60.2 3.6
    endloop
  endfacet
  facet normal 0 1 -0
    outer loop
      vertex -0.2 79.8 3
      vertex -19.8 79.8 3.6
      vertex -0.2 79.8 3.6
    endloop
  endfacet
  facet normal 0 1 0
    outer loop
      vertex -19.8 79.8 3.6
      vertex -0.2 79.8 3
      vertex -19.8 79.8 3
    endloop
  endfacet
  facet normal 1 -0 0
    outer loop
      vertex -0.2 60.2 3.6
      vertex -0.2 79.8 3
      vertex -0.2 79.8 3.6
    endloop
  endfacet
  facet normal 1 0 0
    outer loop
      vertex -0.2 79.8 3
      vertex -0.2 60.2 3.6
      vertex -0.2 60.2 3
    endloop
  endfacet
  facet normal 0 -1 0
    outer loop
      vertex -19.8 60.2 3
      vertex -0.2 60.2 3.6
      vertex -19.8 60.2 3.6
    endloop
  endfacet
  facet normal 0 -1 -0
    outer loop
      vertex -0.2 60.2 3.6
      vertex -19.8 60.2 3
      vertex -0.2 60.2 3
    endloop
  endfacet
  facet normal 0 0 -1
    outer loop
      vertex 20.2 60.2 3
      vertex 39.8 79.8 3
      vertex 39.8 60.2 3
    endloop
  endfacet
  facet normal -0 0 -1
    outer loop
      vertex 39.8 79.8 3
      vertex 20.2 60.2 3
      vertex 20.2 79.8 3
    endloop
  endfacet
  facet normal -1 0 0
    outer loop
      vertex 20.2 60.2 3
      vertex 20.2 79.8 3.6
      vertex 20.2 79.8 3
    endloop
  endfacet
  facet normal -1 -0 0
    outer loop
      vertex 20.2 79.8 3.6
      vertex 20.2 60.2 3
      vertex 20.2 60.2 3.6
    endloop
  endfacet
  facet normal -0 0 1
    outer loop
      vertex 20.2 79.8 3.6
      vertex 39.8 60.2 3.6
      vertex 39.8 79.8 3.6
    endloop
  endfacet
  facet normal 0 0 1
    outer loop
      vertex 39.8 60.2 3.6
      vertex 20.2 79.8 3.6
      vertex 20.2 60.2 3.6
    endloop
  endfacet
  facet normal 0 1 -0
    outer loop
      vertex 39.8 79.8 3
      vertex 20.2 79.8 3.6
      vertex 39.8 79.8 3.6
    endloop
  endfacet
  facet normal 0 1 0
    outer loop
      vertex 20.2 79.8 3.6
      vertex 39.8 79.8 3
      vertex 20.2 79.8 3
    endloop
  endfacet
  facet normal 1 -0 0
    outer loop
      vertex 39.8 60.2 3.6
      vertex 39.8 79.8 3
      vertex 39.8 79.8 3.6
    endloop
  endfacet
  facet normal 1 0 0
    outer loop
      vertex 39.8 79.8 3
      vertex 39.8 60.2 3.6
      vertex 39.8 60.2 3
    endloop
  endfacet
  facet normal 0 -1 0
    outer loop
      vertex 20.2 60.2 3
      vertex 39.8 60.2 3.6
      vertex 20.2 60.2 3.6
    endloop
  endfacet
  facet normal 0 -1 -0
    outer loop
      vertex 39.8 60.2 3.6
      vertex 20.2 60.2 3
      vertex 39.8 60.2 3
    endloop
  endfacet
  facet normal 0 0 -1
    outer loop
      vertex 60.2 60.2 3
      vertex 79.8 79.8 3
      vertex 79.8 60.2 3
    endloop
  endfacet
  facet normal -0 0 -1
    outer loop
      vertex 79.8 79.8 3
      vertex 60.2 60.2 3
      vertex 60.2 79.8 3
    endloop
  endfacet
  facet normal -1 0 0
    outer loop
      vertex 60.2 60.2 3
      vertex 60.2 79.8 3.6
      vertex 60.2 79.8 3
    endloop
  endfacet
  facet normal -1 -0 0
    outer loop
      vertex 60.2 79.8 3.6
      vertex 60.2 60.2 3
      vertex 60.2 60.2 3.6
    endloop
  endfacet
  facet normal -0 0 1
    outer loop
      vertex 60.2 79.8 3.6
      vertex 79.8 60.2 3.6
      vertex 79.8 79.8 3.6
    endloop
  endfacet
  facet normal 0 0 1
    outer loop
      vertex 79.8 60.2 3.6
      vertex 60.2 79.8 3.6
      vertex 60.2 60.2 3.6
    endloop
  endfacet
  facet normal 0 1 -0
    outer loop
      vertex 79.8 79.8 3
      vertex 60.2 79.8 3.6
      vertex 79.8 79.8 3.6
    endloop
  endfacet
  facet normal 0 1 0
    outer loop
      vertex 60.2 79.8 3.6
      vertex 79.8 79.8 3
      vertex 60.2 79.8 3
    endloop
  endfacet
  facet normal 1 -0 0
    outer loop
      vertex 79.8 60.2 3.6
      vertex 79.8 79.8 3
      vertex 79.8 79.8 3.6
    endloop
  endfacet
  facet normal 1 0 0
    outer loop
      vertex 79.8 79.8 3
      vertex 79.8 60.2 3.6
      vertex 79.8 60.2 3
    endloop
  endfacet
  facet normal 0 -1 0
    outer loop
      vertex 60.2 60.2 3
      vertex 79.8 60.2 3.6
      vertex 60.2 60.2 3.6
    endloop
  endfacet
  facet normal 0 -1 -0
    outer loop
      vertex 79.8 60.2 3.6
      vertex 60.2 60.2 3
      vertex 79.8 60.2 3
    endloop
  endfacet
endsolid OpenSCAD_Model
