solid OpenSCAD_Model
  facet normal 0.0654045 -0.997859 0
    outer loop
      vertex 88.4 5.72205e-06 0
      vertex 89.1701 0.0504818 13.3
      vertex 88.4 5.72205e-06 13.3
    endloop
  endfacet
  facet normal 0.0654045 -0.997859 0
    outer loop
      vertex 89.1701 0.0504818 13.3
      vertex 88.4 5.72205e-06 0
      vertex 89.1701 0.0504818 0
    endloop
  endfacet
  facet normal 0.321445 -0.946928 0
    outer loop
      vertex 89.927 0.20104 0
      vertex 90.6578 0.449118 13.3
      vertex 89.927 0.20104 13.3
    endloop
  endfacet
  facet normal 0.321445 -0.946928 0
    outer loop
      vertex 90.6578 0.449118 13.3
      vertex 89.927 0.20104 0
      vertex 90.6578 0.449118 0
    endloop
  endfacet
  facet normal 0 -1 0
    outer loop
      vertex 5.9 5.72205e-06 0
      vertex 88.4 5.72205e-06 13.3
      vertex 5.9 5.72205e-06 13.3
    endloop
  endfacet
  facet normal 0 -1 -0
    outer loop
      vertex 88.4 5.72205e-06 13.3
      vertex 5.9 5.72205e-06 0
      vertex 88.4 5.72205e-06 0
    endloop
  endfacet
  facet normal 0.195092 -0.980785 0
    outer loop
      vertex 89.1701 0.0504818 0
      vertex 89.927 0.20104 13.3
      vertex 89.1701 0.0504818 13.3
    endloop
  endfacet
  facet normal 0.195092 -0.980785 0
    outer loop
      vertex 89.927 0.20104 13.3
      vertex 89.1701 0.0504818 0
      vertex 89.927 0.20104 0
    endloop
  endfacet
  facet normal -0.555561 -0.831476 0
    outer loop
      vertex 2.30831 1.21921 0
      vertex 2.95 0.790457 13.3
      vertex 2.30831 1.21921 13.3
    endloop
  endfacet
  facet normal -0.555561 -0.831476 -0
    outer loop
      vertex 2.95 0.790457 13.3
      vertex 2.30831 1.21921 0
      vertex 2.95 0.790457 0
    endloop
  endfacet
  facet normal -0.659334 -0.75185 0
    outer loop
      vertex 1.72806 1.72806 0
      vertex 2.30831 1.21921 13.3
      vertex 1.72806 1.72806 13.3
    endloop
  endfacet
  facet normal -0.659334 -0.75185 -0
    outer loop
      vertex 2.30831 1.21921 13.3
      vertex 1.72806 1.72806 0
      vertex 2.30831 1.21921 0
    endloop
  endfacet
  facet normal -1 0 0
    outer loop
      vertex 5.72205e-06 5.9 0
      vertex 5.72205e-06 136.1 13.3
      vertex 5.72205e-06 136.1 0
    endloop
  endfacet
  facet normal -1 -0 0
    outer loop
      vertex 5.72205e-06 136.1 13.3
      vertex 5.72205e-06 5.9 0
      vertex 5.72205e-06 5.9 13.3
    endloop
  endfacet
  facet normal 0.555776 0.831332 -0
    outer loop
      vertex 91.9917 140.781 0
      vertex 91.35 141.21 13.3
      vertex 91.9917 140.781 13.3
    endloop
  endfacet
  facet normal 0.555776 0.831332 0
    outer loop
      vertex 91.35 141.21 13.3
      vertex 91.9917 140.781 0
      vertex 91.35 141.21 0
    endloop
  endfacet
  facet normal 1 -0 0
    outer loop
      vertex 94.3 5.9 13.3
      vertex 94.3 136.1 0
      vertex 94.3 136.1 13.3
    endloop
  endfacet
  facet normal 1 0 0
    outer loop
      vertex 94.3 136.1 0
      vertex 94.3 5.9 13.3
      vertex 94.3 5.9 0
    endloop
  endfacet
  facet normal 0.896842 -0.442351 0
    outer loop
      vertex 93.5095 2.95 13.3
      vertex 93.8509 3.64217 0
      vertex 93.8509 3.64217 13.3
    endloop
  endfacet
  facet normal 0.896842 -0.442351 0
    outer loop
      vertex 93.8509 3.64217 0
      vertex 93.5095 2.95 13.3
      vertex 93.5095 2.95 0
    endloop
  endfacet
  facet normal 0.0647902 0.997899 -0
    outer loop
      vertex 89.1701 141.95 0
      vertex 88.4 142 13.3
      vertex 89.1701 141.95 13.3
    endloop
  endfacet
  facet normal 0.0647902 0.997899 0
    outer loop
      vertex 88.4 142 13.3
      vertex 89.1701 141.95 0
      vertex 88.4 142 0
    endloop
  endfacet
  facet normal -0.831476 -0.555561 0
    outer loop
      vertex 1.21921 2.30831 0
      vertex 0.790457 2.95 13.3
      vertex 0.790457 2.95 0
    endloop
  endfacet
  facet normal -0.831476 -0.555561 0
    outer loop
      vertex 0.790457 2.95 13.3
      vertex 1.21921 2.30831 0
      vertex 1.21921 2.30831 13.3
    endloop
  endfacet
  facet normal 0.980801 -0.195012 0
    outer loop
      vertex 94.099 4.37296 13.3
      vertex 94.2495 5.12989 0
      vertex 94.2495 5.12989 13.3
    endloop
  endfacet
  facet normal 0.980801 -0.195012 0
    outer loop
      vertex 94.2495 5.12989 0
      vertex 94.099 4.37296 13.3
      vertex 94.099 4.37296 0
    endloop
  endfacet
  facet normal 0 1 -0
    outer loop
      vertex 88.4 142 0
      vertex 5.9 142 13.3
      vertex 88.4 142 13.3
    endloop
  endfacet
  facet normal 0 1 0
    outer loop
      vertex 5.9 142 13.3
      vertex 88.4 142 0
      vertex 5.9 142 0
    endloop
  endfacet
  facet normal -0.896873 -0.442287 0
    outer loop
      vertex 0.790457 2.95 0
      vertex 0.449118 3.64217 13.3
      vertex 0.449118 3.64217 0
    endloop
  endfacet
  facet normal -0.896873 -0.442287 0
    outer loop
      vertex 0.449118 3.64217 13.3
      vertex 0.790457 2.95 0
      vertex 0.790457 2.95 13.3
    endloop
  endfacet
  facet normal -0.997859 -0.0654036 0
    outer loop
      vertex 0.0504818 5.12989 0
      vertex 5.72205e-06 5.9 13.3
      vertex 5.72205e-06 5.9 0
    endloop
  endfacet
  facet normal -0.997859 -0.0654036 0
    outer loop
      vertex 5.72205e-06 5.9 13.3
      vertex 0.0504818 5.12989 0
      vertex 0.0504818 5.12989 13.3
    endloop
  endfacet
  facet normal -0.195635 0.980677 0
    outer loop
      vertex 5.12989 141.95 0
      vertex 4.37296 141.799 13.3
      vertex 5.12989 141.95 13.3
    endloop
  endfacet
  facet normal -0.195635 0.980677 0
    outer loop
      vertex 4.37296 141.799 13.3
      vertex 5.12989 141.95 0
      vertex 4.37296 141.799 0
    endloop
  endfacet
  facet normal -0.659444 0.751753 0
    outer loop
      vertex 2.30831 140.781 0
      vertex 1.72806 140.272 13.3
      vertex 2.30831 140.781 13.3
    endloop
  endfacet
  facet normal -0.659444 0.751753 0
    outer loop
      vertex 1.72806 140.272 13.3
      vertex 2.30831 140.781 0
      vertex 1.72806 140.272 0
    endloop
  endfacet
  facet normal -0.98079 0.195067 0
    outer loop
      vertex 0.0504818 136.87 0
      vertex 0.20104 137.627 13.3
      vertex 0.20104 137.627 0
    endloop
  endfacet
  facet normal -0.98079 0.195067 0
    outer loop
      vertex 0.20104 137.627 13.3
      vertex 0.0504818 136.87 0
      vertex 0.0504818 136.87 13.3
    endloop
  endfacet
  facet normal -0.980786 -0.195085 0
    outer loop
      vertex 0.20104 4.37296 0
      vertex 0.0504818 5.12989 13.3
      vertex 0.0504818 5.12989 0
    endloop
  endfacet
  facet normal -0.980786 -0.195085 0
    outer loop
      vertex 0.0504818 5.12989 13.3
      vertex 0.20104 4.37296 0
      vertex 0.20104 4.37296 13.3
    endloop
  endfacet
  facet normal -0.75185 -0.659334 0
    outer loop
      vertex 1.72806 1.72806 0
      vertex 1.21921 2.30831 13.3
      vertex 1.21921 2.30831 0
    endloop
  endfacet
  facet normal -0.75185 -0.659334 0
    outer loop
      vertex 1.21921 2.30831 13.3
      vertex 1.72806 1.72806 0
      vertex 1.72806 1.72806 13.3
    endloop
  endfacet
  facet normal 0.751677 0.659532 0
    outer loop
      vertex 93.0808 139.692 13.3
      vertex 92.5719 140.272 0
      vertex 92.5719 140.272 13.3
    endloop
  endfacet
  facet normal 0.751677 0.659532 0
    outer loop
      vertex 92.5719 140.272 0
      vertex 93.0808 139.692 13.3
      vertex 93.0808 139.692 0
    endloop
  endfacet
  facet normal -0.0654036 -0.997859 0
    outer loop
      vertex 5.12989 0.0504818 0
      vertex 5.9 5.72205e-06 13.3
      vertex 5.12989 0.0504818 13.3
    endloop
  endfacet
  facet normal -0.0654036 -0.997859 -0
    outer loop
      vertex 5.9 5.72205e-06 13.3
      vertex 5.12989 0.0504818 0
      vertex 5.9 5.72205e-06 0
    endloop
  endfacet
  facet normal -0.0647894 0.997899 0
    outer loop
      vertex 5.9 142 0
      vertex 5.12989 141.95 13.3
      vertex 5.9 142 13.3
    endloop
  endfacet
  facet normal -0.0647894 0.997899 0
    outer loop
      vertex 5.12989 141.95 13.3
      vertex 5.9 142 0
      vertex 5.12989 141.95 0
    endloop
  endfacet
  facet normal -0.195085 -0.980786 0
    outer loop
      vertex 4.37296 0.20104 0
      vertex 5.12989 0.0504818 13.3
      vertex 4.37296 0.20104 13.3
    endloop
  endfacet
  facet normal -0.195085 -0.980786 -0
    outer loop
      vertex 5.12989 0.0504818 13.3
      vertex 4.37296 0.20104 0
      vertex 5.12989 0.0504818 0
    endloop
  endfacet
  facet normal 0.442272 -0.896881 0
    outer loop
      vertex 90.6578 0.449118 0
      vertex 91.35 0.790457 13.3
      vertex 90.6578 0.449118 13.3
    endloop
  endfacet
  facet normal 0.442272 -0.896881 0
    outer loop
      vertex 91.35 0.790457 13.3
      vertex 90.6578 0.449118 0
      vertex 91.35 0.790457 0
    endloop
  endfacet
  facet normal -0.946927 -0.321449 0
    outer loop
      vertex 0.449118 3.64217 0
      vertex 0.20104 4.37296 13.3
      vertex 0.20104 4.37296 0
    endloop
  endfacet
  facet normal -0.946927 -0.321449 0
    outer loop
      vertex 0.20104 4.37296 13.3
      vertex 0.449118 3.64217 0
      vertex 0.449118 3.64217 13.3
    endloop
  endfacet
  facet normal -0.555782 0.831328 0
    outer loop
      vertex 2.95 141.21 0
      vertex 2.30831 140.781 13.3
      vertex 2.95 141.21 13.3
    endloop
  endfacet
  facet normal -0.555782 0.831328 0
    outer loop
      vertex 2.30831 140.781 13.3
      vertex 2.95 141.21 0
      vertex 2.30831 140.781 0
    endloop
  endfacet
  facet normal 0.946918 -0.321475 0
    outer loop
      vertex 93.8509 3.64217 13.3
      vertex 94.099 4.37296 0
      vertex 94.099 4.37296 13.3
    endloop
  endfacet
  facet normal 0.946918 -0.321475 0
    outer loop
      vertex 94.099 4.37296 0
      vertex 93.8509 3.64217 13.3
      vertex 93.8509 3.64217 0
    endloop
  endfacet
  facet normal 0.441918 0.897055 -0
    outer loop
      vertex 91.35 141.21 0
      vertex 90.6578 141.551 13.3
      vertex 91.35 141.21 13.3
    endloop
  endfacet
  facet normal 0.441918 0.897055 0
    outer loop
      vertex 90.6578 141.551 13.3
      vertex 91.35 141.21 0
      vertex 90.6578 141.551 0
    endloop
  endfacet
  facet normal 0.555555 -0.83148 0
    outer loop
      vertex 91.35 0.790457 0
      vertex 91.9917 1.21921 13.3
      vertex 91.35 0.790457 13.3
    endloop
  endfacet
  facet normal 0.555555 -0.83148 0
    outer loop
      vertex 91.9917 1.21921 13.3
      vertex 91.35 0.790457 0
      vertex 91.9917 1.21921 0
    endloop
  endfacet
  facet normal -0.441934 0.897048 0
    outer loop
      vertex 3.64217 141.551 0
      vertex 2.95 141.21 13.3
      vertex 3.64217 141.551 13.3
    endloop
  endfacet
  facet normal -0.441934 0.897048 0
    outer loop
      vertex 2.95 141.21 13.3
      vertex 3.64217 141.551 0
      vertex 2.95 141.21 0
    endloop
  endfacet
  facet normal -0.321358 0.946958 0
    outer loop
      vertex 4.37296 141.799 0
      vertex 3.64217 141.551 13.3
      vertex 4.37296 141.799 13.3
    endloop
  endfacet
  facet normal -0.321358 0.946958 0
    outer loop
      vertex 3.64217 141.551 13.3
      vertex 4.37296 141.799 0
      vertex 3.64217 141.551 0
    endloop
  endfacet
  facet normal -0.442287 -0.896873 0
    outer loop
      vertex 2.95 0.790457 0
      vertex 3.64217 0.449118 13.3
      vertex 2.95 0.790457 13.3
    endloop
  endfacet
  facet normal -0.442287 -0.896873 -0
    outer loop
      vertex 3.64217 0.449118 13.3
      vertex 2.95 0.790457 0
      vertex 3.64217 0.449118 0
    endloop
  endfacet
  facet normal 0.980804 0.194995 0
    outer loop
      vertex 94.2495 136.87 13.3
      vertex 94.099 137.627 0
      vertex 94.099 137.627 13.3
    endloop
  endfacet
  facet normal 0.980804 0.194995 0
    outer loop
      vertex 94.099 137.627 0
      vertex 94.2495 136.87 13.3
      vertex 94.2495 136.87 0
    endloop
  endfacet
  facet normal -0.946955 0.321366 0
    outer loop
      vertex 0.20104 137.627 0
      vertex 0.449118 138.358 13.3
      vertex 0.449118 138.358 0
    endloop
  endfacet
  facet normal -0.946955 0.321366 0
    outer loop
      vertex 0.449118 138.358 13.3
      vertex 0.20104 137.627 0
      vertex 0.20104 137.627 13.3
    endloop
  endfacet
  facet normal -0.321449 -0.946927 0
    outer loop
      vertex 3.64217 0.449118 0
      vertex 4.37296 0.20104 13.3
      vertex 3.64217 0.449118 13.3
    endloop
  endfacet
  facet normal -0.321449 -0.946927 -0
    outer loop
      vertex 4.37296 0.20104 13.3
      vertex 3.64217 0.449118 0
      vertex 4.37296 0.20104 0
    endloop
  endfacet
  facet normal 0.997856 0.0654438 0
    outer loop
      vertex 94.3 136.1 13.3
      vertex 94.2495 136.87 0
      vertex 94.2495 136.87 13.3
    endloop
  endfacet
  facet normal 0.997856 0.0654438 0
    outer loop
      vertex 94.2495 136.87 0
      vertex 94.3 136.1 13.3
      vertex 94.3 136.1 0
    endloop
  endfacet
  facet normal -0.89683 0.442375 0
    outer loop
      vertex 0.449118 138.358 0
      vertex 0.790457 139.05 13.3
      vertex 0.790457 139.05 0
    endloop
  endfacet
  facet normal -0.89683 0.442375 0
    outer loop
      vertex 0.790457 139.05 13.3
      vertex 0.449118 138.358 0
      vertex 0.449118 138.358 13.3
    endloop
  endfacet
  facet normal -0.997858 0.065413 0
    outer loop
      vertex 5.72205e-06 136.1 0
      vertex 0.0504818 136.87 13.3
      vertex 0.0504818 136.87 0
    endloop
  endfacet
  facet normal -0.997858 0.065413 0
    outer loop
      vertex 0.0504818 136.87 13.3
      vertex 5.72205e-06 136.1 0
      vertex 5.72205e-06 136.1 13.3
    endloop
  endfacet
  facet normal 0.321354 0.946959 -0
    outer loop
      vertex 90.6578 141.551 0
      vertex 89.927 141.799 13.3
      vertex 90.6578 141.551 13.3
    endloop
  endfacet
  facet normal 0.321354 0.946959 0
    outer loop
      vertex 89.927 141.799 13.3
      vertex 90.6578 141.551 0
      vertex 89.927 141.799 0
    endloop
  endfacet
  facet normal -0.8316 0.555375 0
    outer loop
      vertex 0.790457 139.05 0
      vertex 1.21921 139.692 13.3
      vertex 1.21921 139.692 0
    endloop
  endfacet
  facet normal -0.8316 0.555375 0
    outer loop
      vertex 1.21921 139.692 13.3
      vertex 0.790457 139.05 0
      vertex 0.790457 139.05 13.3
    endloop
  endfacet
  facet normal 0.831508 -0.555513 0
    outer loop
      vertex 93.0808 2.30831 13.3
      vertex 93.5095 2.95 0
      vertex 93.5095 2.95 13.3
    endloop
  endfacet
  facet normal 0.831508 -0.555513 0
    outer loop
      vertex 93.5095 2.95 0
      vertex 93.0808 2.30831 13.3
      vertex 93.0808 2.30831 0
    endloop
  endfacet
  facet normal 0.659476 0.751725 -0
    outer loop
      vertex 92.5719 140.272 0
      vertex 91.9917 140.781 13.3
      vertex 92.5719 140.272 13.3
    endloop
  endfacet
  facet normal 0.659476 0.751725 0
    outer loop
      vertex 91.9917 140.781 13.3
      vertex 92.5719 140.272 0
      vertex 91.9917 140.781 0
    endloop
  endfacet
  facet normal 0.659367 -0.751822 0
    outer loop
      vertex 91.9917 1.21921 0
      vertex 92.5719 1.72806 13.3
      vertex 91.9917 1.21921 13.3
    endloop
  endfacet
  facet normal 0.659367 -0.751822 0
    outer loop
      vertex 92.5719 1.72806 13.3
      vertex 91.9917 1.21921 0
      vertex 92.5719 1.72806 0
    endloop
  endfacet
  facet normal 0.946946 0.321392 0
    outer loop
      vertex 94.099 137.627 13.3
      vertex 93.8509 138.358 0
      vertex 93.8509 138.358 13.3
    endloop
  endfacet
  facet normal 0.946946 0.321392 0
    outer loop
      vertex 93.8509 138.358 0
      vertex 94.099 137.627 13.3
      vertex 94.099 137.627 0
    endloop
  endfacet
  facet normal 0.896799 0.442438 0
    outer loop
      vertex 93.8509 138.358 13.3
      vertex 93.5095 139.05 0
      vertex 93.5095 139.05 13.3
    endloop
  endfacet
  facet normal 0.896799 0.442438 0
    outer loop
      vertex 93.5095 139.05 0
      vertex 93.8509 138.358 13.3
      vertex 93.8509 138.358 0
    endloop
  endfacet
  facet normal 0.195643 0.980675 -0
    outer loop
      vertex 89.927 141.799 0
      vertex 89.1701 141.95 13.3
      vertex 89.927 141.799 13.3
    endloop
  endfacet
  facet normal 0.195643 0.980675 0
    outer loop
      vertex 89.1701 141.95 13.3
      vertex 89.927 141.799 0
      vertex 89.1701 141.95 0
    endloop
  endfacet
  facet normal -0.751709 0.659495 0
    outer loop
      vertex 1.21921 139.692 0
      vertex 1.72806 140.272 13.3
      vertex 1.72806 140.272 0
    endloop
  endfacet
  facet normal -0.751709 0.659495 0
    outer loop
      vertex 1.72806 140.272 13.3
      vertex 1.21921 139.692 0
      vertex 1.21921 139.692 13.3
    endloop
  endfacet
  facet normal 0.751818 -0.659371 0
    outer loop
      vertex 92.5719 1.72806 13.3
      vertex 93.0808 2.30831 0
      vertex 93.0808 2.30831 13.3
    endloop
  endfacet
  facet normal 0.751818 -0.659371 0
    outer loop
      vertex 93.0808 2.30831 0
      vertex 92.5719 1.72806 13.3
      vertex 92.5719 1.72806 0
    endloop
  endfacet
  facet normal 0 0 -1
    outer loop
      vertex 88.4 5.72205e-06 0
      vertex 94.3 5.9 0
      vertex 94.2495 5.12989 0
    endloop
  endfacet
  facet normal 0 0 -1
    outer loop
      vertex 94.3 5.9 0
      vertex 5.72205e-06 5.9 0
      vertex 94.3 136.1 0
    endloop
  endfacet
  facet normal 0 0 -1
    outer loop
      vertex 88.4 5.72205e-06 0
      vertex 94.2495 5.12989 0
      vertex 94.099 4.37296 0
    endloop
  endfacet
  facet normal 0 0 -1
    outer loop
      vertex 5.72205e-06 136.1 0
      vertex 94.3 136.1 0
      vertex 5.72205e-06 5.9 0
    endloop
  endfacet
  facet normal 0 0 -1
    outer loop
      vertex 88.4 5.72205e-06 0
      vertex 94.099 4.37296 0
      vertex 93.8509 3.64217 0
    endloop
  endfacet
  facet normal 0 -0 -1
    outer loop
      vertex 88.4 142 0
      vertex 94.3 136.1 0
      vertex 5.72205e-06 136.1 0
    endloop
  endfacet
  facet normal 0 0 -1
    outer loop
      vertex 88.4 5.72205e-06 0
      vertex 93.8509 3.64217 0
      vertex 93.5095 2.95 0
    endloop
  endfacet
  facet normal -0 0 -1
    outer loop
      vertex 94.3 5.9 0
      vertex 88.4 5.72205e-06 0
      vertex 5.72205e-06 5.9 0
    endloop
  endfacet
  facet normal 0 0 -1
    outer loop
      vertex 88.4 5.72205e-06 0
      vertex 93.5095 2.95 0
      vertex 93.0808 2.30831 0
    endloop
  endfacet
  facet normal 0 0 -1
    outer loop
      vertex 94.3 136.1 0
      vertex 88.4 142 0
      vertex 94.2495 136.87 0
    endloop
  endfacet
  facet normal 0 0 -1
    outer loop
      vertex 88.4 5.72205e-06 0
      vertex 93.0808 2.30831 0
      vertex 92.5719 1.72806 0
    endloop
  endfacet
  facet normal 0 0 -1
    outer loop
      vertex 93.8509 138.358 0
      vertex 88.4 142 0
      vertex 93.5095 139.05 0
    endloop
  endfacet
  facet normal 0 0 -1
    outer loop
      vertex 88.4 5.72205e-06 0
      vertex 92.5719 1.72806 0
      vertex 91.9917 1.21921 0
    endloop
  endfacet
  facet normal 0 0 -1
    outer loop
      vertex 93.5095 139.05 0
      vertex 88.4 142 0
      vertex 93.0808 139.692 0
    endloop
  endfacet
  facet normal 0 0 -1
    outer loop
      vertex 88.4 5.72205e-06 0
      vertex 91.9917 1.21921 0
      vertex 91.35 0.790457 0
    endloop
  endfacet
  facet normal 0 0 -1
    outer loop
      vertex 93.0808 139.692 0
      vertex 88.4 142 0
      vertex 92.5719 140.272 0
    endloop
  endfacet
  facet normal 0 0 -1
    outer loop
      vertex 88.4 5.72205e-06 0
      vertex 91.35 0.790457 0
      vertex 90.6578 0.449118 0
    endloop
  endfacet
  facet normal 0 0 -1
    outer loop
      vertex 92.5719 140.272 0
      vertex 88.4 142 0
      vertex 91.9917 140.781 0
    endloop
  endfacet
  facet normal 0 0 -1
    outer loop
      vertex 88.4 5.72205e-06 0
      vertex 90.6578 0.449118 0
      vertex 89.927 0.20104 0
    endloop
  endfacet
  facet normal 0 0 -1
    outer loop
      vertex 91.9917 140.781 0
      vertex 88.4 142 0
      vertex 91.35 141.21 0
    endloop
  endfacet
  facet normal 0 0 -1
    outer loop
      vertex 88.4 5.72205e-06 0
      vertex 89.927 0.20104 0
      vertex 89.1701 0.0504818 0
    endloop
  endfacet
  facet normal 0 0 -1
    outer loop
      vertex 91.35 141.21 0
      vertex 88.4 142 0
      vertex 90.6578 141.551 0
    endloop
  endfacet
  facet normal 0 0 -1
    outer loop
      vertex 90.6578 141.551 0
      vertex 88.4 142 0
      vertex 89.927 141.799 0
    endloop
  endfacet
  facet normal 0 0 -1
    outer loop
      vertex 89.927 141.799 0
      vertex 88.4 142 0
      vertex 89.1701 141.95 0
    endloop
  endfacet
  facet normal 0 0 -1
    outer loop
      vertex 5.72205e-06 5.9 0
      vertex 88.4 5.72205e-06 0
      vertex 5.9 5.72205e-06 0
    endloop
  endfacet
  facet normal 0 0 -1
    outer loop
      vertex 94.2495 136.87 0
      vertex 88.4 142 0
      vertex 94.099 137.627 0
    endloop
  endfacet
  facet normal 0 0 -1
    outer loop
      vertex 5.72205e-06 5.9 0
      vertex 5.9 5.72205e-06 0
      vertex 5.12989 0.0504818 0
    endloop
  endfacet
  facet normal 0 0 -1
    outer loop
      vertex 94.099 137.627 0
      vertex 88.4 142 0
      vertex 93.8509 138.358 0
    endloop
  endfacet
  facet normal 0 0 -1
    outer loop
      vertex 5.72205e-06 5.9 0
      vertex 5.12989 0.0504818 0
      vertex 4.37296 0.20104 0
    endloop
  endfacet
  facet normal -0 0 -1
    outer loop
      vertex 88.4 142 0
      vertex 5.72205e-06 136.1 0
      vertex 5.9 142 0
    endloop
  endfacet
  facet normal 0 0 -1
    outer loop
      vertex 5.72205e-06 5.9 0
      vertex 4.37296 0.20104 0
      vertex 3.64217 0.449118 0
    endloop
  endfacet
  facet normal 0 0 -1
    outer loop
      vertex 5.9 142 0
      vertex 5.72205e-06 136.1 0
      vertex 5.12989 141.95 0
    endloop
  endfacet
  facet normal 0 0 -1
    outer loop
      vertex 5.72205e-06 5.9 0
      vertex 3.64217 0.449118 0
      vertex 2.95 0.790457 0
    endloop
  endfacet
  facet normal 0 0 -1
    outer loop
      vertex 5.12989 141.95 0
      vertex 5.72205e-06 136.1 0
      vertex 4.37296 141.799 0
    endloop
  endfacet
  facet normal 0 0 -1
    outer loop
      vertex 5.72205e-06 5.9 0
      vertex 2.95 0.790457 0
      vertex 2.30831 1.21921 0
    endloop
  endfacet
  facet normal 0 0 -1
    outer loop
      vertex 4.37296 141.799 0
      vertex 5.72205e-06 136.1 0
      vertex 3.64217 141.551 0
    endloop
  endfacet
  facet normal 0 0 -1
    outer loop
      vertex 5.72205e-06 5.9 0
      vertex 2.30831 1.21921 0
      vertex 1.72806 1.72806 0
    endloop
  endfacet
  facet normal 0 0 -1
    outer loop
      vertex 3.64217 141.551 0
      vertex 5.72205e-06 136.1 0
      vertex 2.95 141.21 0
    endloop
  endfacet
  facet normal 0 0 -1
    outer loop
      vertex 5.72205e-06 5.9 0
      vertex 1.72806 1.72806 0
      vertex 1.21921 2.30831 0
    endloop
  endfacet
  facet normal 0 0 -1
    outer loop
      vertex 2.95 141.21 0
      vertex 5.72205e-06 136.1 0
      vertex 2.30831 140.781 0
    endloop
  endfacet
  facet normal 0 0 -1
    outer loop
      vertex 5.72205e-06 5.9 0
      vertex 1.21921 2.30831 0
      vertex 0.790457 2.95 0
    endloop
  endfacet
  facet normal 0 0 -1
    outer loop
      vertex 2.30831 140.781 0
      vertex 5.72205e-06 136.1 0
      vertex 1.72806 140.272 0
    endloop
  endfacet
  facet normal 0 0 -1
    outer loop
      vertex 5.72205e-06 5.9 0
      vertex 0.790457 2.95 0
      vertex 0.449118 3.64217 0
    endloop
  endfacet
  facet normal 0 0 -1
    outer loop
      vertex 1.72806 140.272 0
      vertex 5.72205e-06 136.1 0
      vertex 1.21921 139.692 0
    endloop
  endfacet
  facet normal 0 0 -1
    outer loop
      vertex 5.72205e-06 5.9 0
      vertex 0.449118 3.64217 0
      vertex 0.20104 4.37296 0
    endloop
  endfacet
  facet normal 0 0 -1
    outer loop
      vertex 1.21921 139.692 0
      vertex 5.72205e-06 136.1 0
      vertex 0.790457 139.05 0
    endloop
  endfacet
  facet normal 0 0 -1
    outer loop
      vertex 5.72205e-06 5.9 0
      vertex 0.20104 4.37296 0
      vertex 0.0504818 5.12989 0
    endloop
  endfacet
  facet normal 0 0 -1
    outer loop
      vertex 0.790457 139.05 0
      vertex 5.72205e-06 136.1 0
      vertex 0.449118 138.358 0
    endloop
  endfacet
  facet normal 0 0 -1
    outer loop
      vertex 0.449118 138.358 0
      vertex 5.72205e-06 136.1 0
      vertex 0.20104 137.627 0
    endloop
  endfacet
  facet normal 0 0 -1
    outer loop
      vertex 0.20104 137.627 0
      vertex 5.72205e-06 136.1 0
      vertex 0.0504818 136.87 0
    endloop
  endfacet
  facet normal 0.997857 -0.0654345 0
    outer loop
      vertex 94.2495 5.12989 13.3
      vertex 94.3 5.9 0
      vertex 94.3 5.9 13.3
    endloop
  endfacet
  facet normal 0.997857 -0.0654345 0
    outer loop
      vertex 94.3 5.9 0
      vertex 94.2495 5.12989 13.3
      vertex 94.2495 5.12989 0
    endloop
  endfacet
  facet normal 0.831632 0.555328 0
    outer loop
      vertex 93.5095 139.05 13.3
      vertex 93.0808 139.692 0
      vertex 93.0808 139.692 13.3
    endloop
  endfacet
  facet normal 0.831632 0.555328 0
    outer loop
      vertex 93.0808 139.692 0
      vertex 93.5095 139.05 13.3
      vertex 93.5095 139.05 0
    endloop
  endfacet
  facet normal 0 0 1
    outer loop
      vertex 92.9 136.1 13.3
      vertex 94.3 136.1 13.3
      vertex 94.2495 136.87 13.3
    endloop
  endfacet
  facet normal 0 0 1
    outer loop
      vertex 94.3 136.1 13.3
      vertex 92.9 136.1 13.3
      vertex 94.3 5.9 13.3
    endloop
  endfacet
  facet normal 0 0 1
    outer loop
      vertex 92.8615 136.687 13.3
      vertex 94.2495 136.87 13.3
      vertex 94.099 137.627 13.3
    endloop
  endfacet
  facet normal 0 0 1
    outer loop
      vertex 92.9 5.9 13.3
      vertex 94.3 5.9 13.3
      vertex 92.9 136.1 13.3
    endloop
  endfacet
  facet normal 0 0 1
    outer loop
      vertex 92.7467 137.265 13.3
      vertex 94.099 137.627 13.3
      vertex 93.8509 138.358 13.3
    endloop
  endfacet
  facet normal 0 0 1
    outer loop
      vertex 94.3 5.9 13.3
      vertex 92.9 5.9 13.3
      vertex 94.2495 5.12989 13.3
    endloop
  endfacet
  facet normal 0 0 1
    outer loop
      vertex 92.5575 137.822 13.3
      vertex 93.8509 138.358 13.3
      vertex 93.5095 139.05 13.3
    endloop
  endfacet
  facet normal -0 0 1
    outer loop
      vertex 92.8615 5.31263 13.3
      vertex 94.2495 5.12989 13.3
      vertex 92.9 5.9 13.3
    endloop
  endfacet
  facet normal 0 0 1
    outer loop
      vertex 92.2971 138.35 13.3
      vertex 93.5095 139.05 13.3
      vertex 93.0808 139.692 13.3
    endloop
  endfacet
  facet normal 0 0 1
    outer loop
      vertex 94.2495 5.12989 13.3
      vertex 92.8615 5.31263 13.3
      vertex 94.099 4.37296 13.3
    endloop
  endfacet
  facet normal -0 0 1
    outer loop
      vertex 92.7467 4.73531 13.3
      vertex 94.099 4.37296 13.3
      vertex 92.8615 5.31263 13.3
    endloop
  endfacet
  facet normal 0 0 1
    outer loop
      vertex 94.2495 136.87 13.3
      vertex 92.8615 136.687 13.3
      vertex 92.9 136.1 13.3
    endloop
  endfacet
  facet normal 0 0 1
    outer loop
      vertex 94.099 137.627 13.3
      vertex 92.7467 137.265 13.3
      vertex 92.8615 136.687 13.3
    endloop
  endfacet
  facet normal 0 0 1
    outer loop
      vertex 91.9701 138.839 13.3
      vertex 93.0808 139.692 13.3
      vertex 92.5719 140.272 13.3
    endloop
  endfacet
  facet normal 0 0 1
    outer loop
      vertex 93.8509 138.358 13.3
      vertex 92.5575 137.822 13.3
      vertex 92.7467 137.265 13.3
    endloop
  endfacet
  facet normal 0 0 1
    outer loop
      vertex 93.5095 139.05 13.3
      vertex 92.2971 138.35 13.3
      vertex 92.5575 137.822 13.3
    endloop
  endfacet
  facet normal 0 0 1
    outer loop
      vertex 91.582 139.282 13.3
      vertex 92.5719 140.272 13.3
      vertex 91.9917 140.781 13.3
    endloop
  endfacet
  facet normal 0 0 1
    outer loop
      vertex 93.0808 139.692 13.3
      vertex 91.9701 138.839 13.3
      vertex 92.2971 138.35 13.3
    endloop
  endfacet
  facet normal 0 0 1
    outer loop
      vertex 92.5719 140.272 13.3
      vertex 91.582 139.282 13.3
      vertex 91.9701 138.839 13.3
    endloop
  endfacet
  facet normal 0 0 1
    outer loop
      vertex 91.1394 139.67 13.3
      vertex 91.9917 140.781 13.3
      vertex 91.35 141.21 13.3
    endloop
  endfacet
  facet normal 0 0 1
    outer loop
      vertex 91.9917 140.781 13.3
      vertex 91.1394 139.67 13.3
      vertex 91.582 139.282 13.3
    endloop
  endfacet
  facet normal 0 0 1
    outer loop
      vertex 90.65 139.997 13.3
      vertex 91.35 141.21 13.3
      vertex 90.6578 141.551 13.3
    endloop
  endfacet
  facet normal 0 0 1
    outer loop
      vertex 91.35 141.21 13.3
      vertex 90.65 139.997 13.3
      vertex 91.1394 139.67 13.3
    endloop
  endfacet
  facet normal 0 0 1
    outer loop
      vertex 90.6578 141.551 13.3
      vertex 90.1221 140.257 13.3
      vertex 90.65 139.997 13.3
    endloop
  endfacet
  facet normal 0 0 1
    outer loop
      vertex 89.927 141.799 13.3
      vertex 90.1221 140.257 13.3
      vertex 90.6578 141.551 13.3
    endloop
  endfacet
  facet normal 0 0 1
    outer loop
      vertex 89.927 141.799 13.3
      vertex 89.5647 140.447 13.3
      vertex 90.1221 140.257 13.3
    endloop
  endfacet
  facet normal 0 0 1
    outer loop
      vertex 89.1701 141.95 13.3
      vertex 89.5647 140.447 13.3
      vertex 89.927 141.799 13.3
    endloop
  endfacet
  facet normal 0 0 1
    outer loop
      vertex 89.1701 141.95 13.3
      vertex 88.9874 140.561 13.3
      vertex 89.5647 140.447 13.3
    endloop
  endfacet
  facet normal 0 0 1
    outer loop
      vertex 88.4 142 13.3
      vertex 88.9874 140.561 13.3
      vertex 89.1701 141.95 13.3
    endloop
  endfacet
  facet normal 0 0 1
    outer loop
      vertex 88.4 142 13.3
      vertex 88.4 140.6 13.3
      vertex 88.9874 140.561 13.3
    endloop
  endfacet
  facet normal -0 0 1
    outer loop
      vertex 5.9 142 13.3
      vertex 88.4 140.6 13.3
      vertex 88.4 142 13.3
    endloop
  endfacet
  facet normal 0 0 1
    outer loop
      vertex 5.9 142 13.3
      vertex 5.9 140.6 13.3
      vertex 88.4 140.6 13.3
    endloop
  endfacet
  facet normal 0 0 1
    outer loop
      vertex 5.9 142 13.3
      vertex 5.31263 140.561 13.3
      vertex 5.9 140.6 13.3
    endloop
  endfacet
  facet normal -0 0 1
    outer loop
      vertex 5.12989 141.95 13.3
      vertex 5.31263 140.561 13.3
      vertex 5.9 142 13.3
    endloop
  endfacet
  facet normal 0 0 1
    outer loop
      vertex 5.12989 141.95 13.3
      vertex 4.73531 140.447 13.3
      vertex 5.31263 140.561 13.3
    endloop
  endfacet
  facet normal -0 0 1
    outer loop
      vertex 4.37296 141.799 13.3
      vertex 4.73531 140.447 13.3
      vertex 5.12989 141.95 13.3
    endloop
  endfacet
  facet normal 0 0 1
    outer loop
      vertex 4.37296 141.799 13.3
      vertex 4.17792 140.257 13.3
      vertex 4.73531 140.447 13.3
    endloop
  endfacet
  facet normal -0 0 1
    outer loop
      vertex 3.64217 141.551 13.3
      vertex 4.17792 140.257 13.3
      vertex 4.37296 141.799 13.3
    endloop
  endfacet
  facet normal 0 0 1
    outer loop
      vertex 4.17792 140.257 13.3
      vertex 3.64217 141.551 13.3
      vertex 3.65 139.997 13.3
    endloop
  endfacet
  facet normal -0 0 1
    outer loop
      vertex 2.95 141.21 13.3
      vertex 3.65 139.997 13.3
      vertex 3.64217 141.551 13.3
    endloop
  endfacet
  facet normal 0 0 1
    outer loop
      vertex 3.65 139.997 13.3
      vertex 2.95 141.21 13.3
      vertex 3.16057 139.67 13.3
    endloop
  endfacet
  facet normal -0 0 1
    outer loop
      vertex 2.30831 140.781 13.3
      vertex 3.16057 139.67 13.3
      vertex 2.95 141.21 13.3
    endloop
  endfacet
  facet normal 0 0 1
    outer loop
      vertex 3.16057 139.67 13.3
      vertex 2.30831 140.781 13.3
      vertex 2.71802 139.282 13.3
    endloop
  endfacet
  facet normal -0 0 1
    outer loop
      vertex 1.72806 140.272 13.3
      vertex 2.71802 139.282 13.3
      vertex 2.30831 140.781 13.3
    endloop
  endfacet
  facet normal 0 0 1
    outer loop
      vertex 2.71802 139.282 13.3
      vertex 1.72806 140.272 13.3
      vertex 2.32992 138.839 13.3
    endloop
  endfacet
  facet normal -0 0 1
    outer loop
      vertex 1.21921 139.692 13.3
      vertex 2.32992 138.839 13.3
      vertex 1.72806 140.272 13.3
    endloop
  endfacet
  facet normal 0 0 1
    outer loop
      vertex 2.32992 138.839 13.3
      vertex 1.21921 139.692 13.3
      vertex 2.00289 138.35 13.3
    endloop
  endfacet
  facet normal -0 0 1
    outer loop
      vertex 0.790457 139.05 13.3
      vertex 2.00289 138.35 13.3
      vertex 1.21921 139.692 13.3
    endloop
  endfacet
  facet normal 0 0 1
    outer loop
      vertex 2.00289 138.35 13.3
      vertex 0.790457 139.05 13.3
      vertex 1.74254 137.822 13.3
    endloop
  endfacet
  facet normal -0 0 1
    outer loop
      vertex 0.20104 137.627 13.3
      vertex 1.55334 137.265 13.3
      vertex 0.449118 138.358 13.3
    endloop
  endfacet
  facet normal 0 0 1
    outer loop
      vertex 1.74254 137.822 13.3
      vertex 0.449118 138.358 13.3
      vertex 1.55334 137.265 13.3
    endloop
  endfacet
  facet normal -0 0 1
    outer loop
      vertex 0.449118 138.358 13.3
      vertex 1.74254 137.822 13.3
      vertex 0.790457 139.05 13.3
    endloop
  endfacet
  facet normal 0 0 1
    outer loop
      vertex 94.099 4.37296 13.3
      vertex 92.7467 4.73531 13.3
      vertex 93.8509 3.64217 13.3
    endloop
  endfacet
  facet normal -0 0 1
    outer loop
      vertex 92.5575 4.17792 13.3
      vertex 93.8509 3.64217 13.3
      vertex 92.7467 4.73531 13.3
    endloop
  endfacet
  facet normal 0 0 1
    outer loop
      vertex 93.8509 3.64217 13.3
      vertex 92.5575 4.17792 13.3
      vertex 93.5095 2.95 13.3
    endloop
  endfacet
  facet normal -0 0 1
    outer loop
      vertex 92.2971 3.65 13.3
      vertex 93.5095 2.95 13.3
      vertex 92.5575 4.17792 13.3
    endloop
  endfacet
  facet normal 0 0 1
    outer loop
      vertex 93.5095 2.95 13.3
      vertex 92.2971 3.65 13.3
      vertex 93.0808 2.30831 13.3
    endloop
  endfacet
  facet normal -0 0 1
    outer loop
      vertex 91.9701 3.16057 13.3
      vertex 93.0808 2.30831 13.3
      vertex 92.2971 3.65 13.3
    endloop
  endfacet
  facet normal 0 0 1
    outer loop
      vertex 93.0808 2.30831 13.3
      vertex 91.9701 3.16057 13.3
      vertex 92.5719 1.72806 13.3
    endloop
  endfacet
  facet normal -0 0 1
    outer loop
      vertex 91.582 2.71802 13.3
      vertex 92.5719 1.72806 13.3
      vertex 91.9701 3.16057 13.3
    endloop
  endfacet
  facet normal 0 0 1
    outer loop
      vertex 92.5719 1.72806 13.3
      vertex 91.582 2.71802 13.3
      vertex 91.9917 1.21921 13.3
    endloop
  endfacet
  facet normal -0 0 1
    outer loop
      vertex 91.1394 2.32992 13.3
      vertex 91.9917 1.21921 13.3
      vertex 91.582 2.71802 13.3
    endloop
  endfacet
  facet normal 0 0 1
    outer loop
      vertex 91.9917 1.21921 13.3
      vertex 91.1394 2.32992 13.3
      vertex 91.35 0.790457 13.3
    endloop
  endfacet
  facet normal -0 0 1
    outer loop
      vertex 90.65 2.00289 13.3
      vertex 91.35 0.790457 13.3
      vertex 91.1394 2.32992 13.3
    endloop
  endfacet
  facet normal 0 0 1
    outer loop
      vertex 91.35 0.790457 13.3
      vertex 90.65 2.00289 13.3
      vertex 90.6578 0.449118 13.3
    endloop
  endfacet
  facet normal -0 0 1
    outer loop
      vertex 90.1221 1.74254 13.3
      vertex 90.6578 0.449118 13.3
      vertex 90.65 2.00289 13.3
    endloop
  endfacet
  facet normal 0 0 1
    outer loop
      vertex 90.1221 1.74254 13.3
      vertex 89.927 0.20104 13.3
      vertex 90.6578 0.449118 13.3
    endloop
  endfacet
  facet normal -0 0 1
    outer loop
      vertex 89.5647 1.55334 13.3
      vertex 89.927 0.20104 13.3
      vertex 90.1221 1.74254 13.3
    endloop
  endfacet
  facet normal 0 0 1
    outer loop
      vertex 89.5647 1.55334 13.3
      vertex 89.1701 0.0504818 13.3
      vertex 89.927 0.20104 13.3
    endloop
  endfacet
  facet normal -0 0 1
    outer loop
      vertex 88.9874 1.4385 13.3
      vertex 89.1701 0.0504818 13.3
      vertex 89.5647 1.55334 13.3
    endloop
  endfacet
  facet normal -0 0 1
    outer loop
      vertex 88.4 1.4 13.3
      vertex 89.1701 0.0504818 13.3
      vertex 88.9874 1.4385 13.3
    endloop
  endfacet
  facet normal 0 0 1
    outer loop
      vertex 88.4 1.4 13.3
      vertex 88.4 5.72205e-06 13.3
      vertex 89.1701 0.0504818 13.3
    endloop
  endfacet
  facet normal -0 0 1
    outer loop
      vertex 5.9 1.4 13.3
      vertex 88.4 5.72205e-06 13.3
      vertex 88.4 1.4 13.3
    endloop
  endfacet
  facet normal 0 0 1
    outer loop
      vertex 5.9 1.4 13.3
      vertex 5.9 5.72205e-06 13.3
      vertex 88.4 5.72205e-06 13.3
    endloop
  endfacet
  facet normal 0 0 1
    outer loop
      vertex 5.31263 1.4385 13.3
      vertex 5.9 5.72205e-06 13.3
      vertex 5.9 1.4 13.3
    endloop
  endfacet
  facet normal 0 0 1
    outer loop
      vertex 5.31263 1.4385 13.3
      vertex 5.12989 0.0504818 13.3
      vertex 5.9 5.72205e-06 13.3
    endloop
  endfacet
  facet normal 0 0 1
    outer loop
      vertex 4.73531 1.55334 13.3
      vertex 5.12989 0.0504818 13.3
      vertex 5.31263 1.4385 13.3
    endloop
  endfacet
  facet normal 0 0 1
    outer loop
      vertex 4.73531 1.55334 13.3
      vertex 4.37296 0.20104 13.3
      vertex 5.12989 0.0504818 13.3
    endloop
  endfacet
  facet normal 0 0 1
    outer loop
      vertex 4.17792 1.74254 13.3
      vertex 4.37296 0.20104 13.3
      vertex 4.73531 1.55334 13.3
    endloop
  endfacet
  facet normal 0 0 1
    outer loop
      vertex 3.64217 0.449118 13.3
      vertex 4.17792 1.74254 13.3
      vertex 3.65 2.00289 13.3
    endloop
  endfacet
  facet normal 0 0 1
    outer loop
      vertex 4.17792 1.74254 13.3
      vertex 3.64217 0.449118 13.3
      vertex 4.37296 0.20104 13.3
    endloop
  endfacet
  facet normal 0 0 1
    outer loop
      vertex 2.95 0.790457 13.3
      vertex 3.65 2.00289 13.3
      vertex 3.16057 2.32992 13.3
    endloop
  endfacet
  facet normal 0 0 1
    outer loop
      vertex 3.65 2.00289 13.3
      vertex 2.95 0.790457 13.3
      vertex 3.64217 0.449118 13.3
    endloop
  endfacet
  facet normal 0 0 1
    outer loop
      vertex 2.30831 1.21921 13.3
      vertex 3.16057 2.32992 13.3
      vertex 2.71802 2.71802 13.3
    endloop
  endfacet
  facet normal 0 0 1
    outer loop
      vertex 1.72806 1.72806 13.3
      vertex 2.71802 2.71802 13.3
      vertex 2.32992 3.16057 13.3
    endloop
  endfacet
  facet normal 0 0 1
    outer loop
      vertex 3.16057 2.32992 13.3
      vertex 2.30831 1.21921 13.3
      vertex 2.95 0.790457 13.3
    endloop
  endfacet
  facet normal 0 0 1
    outer loop
      vertex 1.21921 2.30831 13.3
      vertex 2.32992 3.16057 13.3
      vertex 2.00289 3.65 13.3
    endloop
  endfacet
  facet normal 0 0 1
    outer loop
      vertex 0.790457 2.95 13.3
      vertex 2.00289 3.65 13.3
      vertex 1.74254 4.17792 13.3
    endloop
  endfacet
  facet normal 0 0 1
    outer loop
      vertex 2.71802 2.71802 13.3
      vertex 1.72806 1.72806 13.3
      vertex 2.30831 1.21921 13.3
    endloop
  endfacet
  facet normal 0 0 1
    outer loop
      vertex 0.449118 3.64217 13.3
      vertex 1.74254 4.17792 13.3
      vertex 1.55334 4.73531 13.3
    endloop
  endfacet
  facet normal 0 0 1
    outer loop
      vertex 0.20104 4.37296 13.3
      vertex 1.55334 4.73531 13.3
      vertex 1.4385 5.31263 13.3
    endloop
  endfacet
  facet normal 0 0 1
    outer loop
      vertex 2.32992 3.16057 13.3
      vertex 1.21921 2.30831 13.3
      vertex 1.72806 1.72806 13.3
    endloop
  endfacet
  facet normal 0 0 1
    outer loop
      vertex 0.0504818 5.12989 13.3
      vertex 1.4385 5.31263 13.3
      vertex 1.4 5.9 13.3
    endloop
  endfacet
  facet normal 0 0 1
    outer loop
      vertex 1.4 136.1 13.3
      vertex 5.72205e-06 136.1 13.3
      vertex 1.4 5.9 13.3
    endloop
  endfacet
  facet normal 0 0 1
    outer loop
      vertex 1.55334 137.265 13.3
      vertex 0.20104 137.627 13.3
      vertex 1.4385 136.687 13.3
    endloop
  endfacet
  facet normal 0 0 1
    outer loop
      vertex 5.72205e-06 5.9 13.3
      vertex 1.4 5.9 13.3
      vertex 5.72205e-06 136.1 13.3
    endloop
  endfacet
  facet normal -0 0 1
    outer loop
      vertex 0.0504818 136.87 13.3
      vertex 1.4385 136.687 13.3
      vertex 0.20104 137.627 13.3
    endloop
  endfacet
  facet normal 0 -0 1
    outer loop
      vertex 0.0504818 5.12989 13.3
      vertex 1.4 5.9 13.3
      vertex 5.72205e-06 5.9 13.3
    endloop
  endfacet
  facet normal 0 0 1
    outer loop
      vertex 1.4385 136.687 13.3
      vertex 0.0504818 136.87 13.3
      vertex 1.4 136.1 13.3
    endloop
  endfacet
  facet normal 0 0 1
    outer loop
      vertex 2.00289 3.65 13.3
      vertex 0.790457 2.95 13.3
      vertex 1.21921 2.30831 13.3
    endloop
  endfacet
  facet normal 0 0 1
    outer loop
      vertex 1.4 136.1 13.3
      vertex 0.0504818 136.87 13.3
      vertex 5.72205e-06 136.1 13.3
    endloop
  endfacet
  facet normal 0 0 1
    outer loop
      vertex 1.74254 4.17792 13.3
      vertex 0.449118 3.64217 13.3
      vertex 0.790457 2.95 13.3
    endloop
  endfacet
  facet normal 0 0 1
    outer loop
      vertex 1.55334 4.73531 13.3
      vertex 0.20104 4.37296 13.3
      vertex 0.449118 3.64217 13.3
    endloop
  endfacet
  facet normal 0 0 1
    outer loop
      vertex 1.4385 5.31263 13.3
      vertex 0.0504818 5.12989 13.3
      vertex 0.20104 4.37296 13.3
    endloop
  endfacet
  facet normal -0.0653804 0.99786 0
    outer loop
      vertex 88.909 2.03336 2.4
      vertex 88.4 2.00001 12.7
      vertex 88.909 2.03336 12.7
    endloop
  endfacet
  facet normal -0.0653804 0.99786 0
    outer loop
      vertex 88.4 2.00001 12.7
      vertex 88.909 2.03336 2.4
      vertex 88.4 2.00001 2.4
    endloop
  endfacet
  facet normal -0.555555 0.83148 0
    outer loop
      vertex 90.7742 2.80593 2.4
      vertex 90.35 2.5225 12.7
      vertex 90.7742 2.80593 12.7
    endloop
  endfacet
  facet normal -0.555555 0.83148 0
    outer loop
      vertex 90.35 2.5225 12.7
      vertex 90.7742 2.80593 2.4
      vertex 90.35 2.5225 2.4
    endloop
  endfacet
  facet normal 0.65934 0.751845 -0
    outer loop
      vertex 3.52582 2.80593 2.4
      vertex 3.14228 3.14228 12.7
      vertex 3.52582 2.80593 12.7
    endloop
  endfacet
  facet normal 0.65934 0.751845 0
    outer loop
      vertex 3.14228 3.14228 12.7
      vertex 3.52582 2.80593 2.4
      vertex 3.14228 3.14228 2.4
    endloop
  endfacet
  facet normal 1 -0 0
    outer loop
      vertex 2.00001 5.9 12.7
      vertex 2.00001 136.1 2.4
      vertex 2.00001 136.1 12.7
    endloop
  endfacet
  facet normal 1 0 0
    outer loop
      vertex 2.00001 136.1 2.4
      vertex 2.00001 5.9 12.7
      vertex 2.00001 5.9 2.4
    endloop
  endfacet
  facet normal -1 0 0
    outer loop
      vertex 92.3 5.9 2.4
      vertex 92.3 136.1 12.7
      vertex 92.3 136.1 2.4
    endloop
  endfacet
  facet normal -1 -0 0
    outer loop
      vertex 92.3 136.1 12.7
      vertex 92.3 5.9 2.4
      vertex 92.3 5.9 12.7
    endloop
  endfacet
  facet normal 0 -1 0
    outer loop
      vertex 5.9 140 2.4
      vertex 88.4 140 12.7
      vertex 5.9 140 12.7
    endloop
  endfacet
  facet normal 0 -1 -0
    outer loop
      vertex 88.4 140 12.7
      vertex 5.9 140 2.4
      vertex 88.4 140 2.4
    endloop
  endfacet
  facet normal 0.997861 0.065374 0
    outer loop
      vertex 2.03336 5.39095 12.7
      vertex 2.00001 5.9 2.4
      vertex 2.00001 5.9 12.7
    endloop
  endfacet
  facet normal 0.997861 0.065374 0
    outer loop
      vertex 2.00001 5.9 2.4
      vertex 2.03336 5.39095 12.7
      vertex 2.03336 5.39095 2.4
    endloop
  endfacet
  facet normal 0.195984 -0.980607 0
    outer loop
      vertex 4.8906 139.867 2.4
      vertex 5.39095 139.967 12.7
      vertex 4.8906 139.867 12.7
    endloop
  endfacet
  facet normal 0.195984 -0.980607 0
    outer loop
      vertex 5.39095 139.967 12.7
      vertex 4.8906 139.867 2.4
      vertex 5.39095 139.967 2.4
    endloop
  endfacet
  facet normal 0 1 -0
    outer loop
      vertex 88.4 2.00001 2.4
      vertex 5.9 2.00001 12.7
      vertex 88.4 2.00001 12.7
    endloop
  endfacet
  facet normal 0 1 0
    outer loop
      vertex 5.9 2.00001 12.7
      vertex 88.4 2.00001 2.4
      vertex 5.9 2.00001 2.4
    endloop
  endfacet
  facet normal -0.659379 0.751811 0
    outer loop
      vertex 91.1577 3.14228 2.4
      vertex 90.7742 2.80593 12.7
      vertex 91.1577 3.14228 12.7
    endloop
  endfacet
  facet normal -0.659379 0.751811 0
    outer loop
      vertex 90.7742 2.80593 12.7
      vertex 91.1577 3.14228 2.4
      vertex 90.7742 2.80593 2.4
    endloop
  endfacet
  facet normal -0.554972 -0.831869 0
    outer loop
      vertex 90.35 139.477 2.4
      vertex 90.7742 139.194 12.7
      vertex 90.35 139.477 12.7
    endloop
  endfacet
  facet normal -0.554972 -0.831869 -0
    outer loop
      vertex 90.7742 139.194 12.7
      vertex 90.35 139.477 2.4
      vertex 90.7742 139.194 2.4
    endloop
  endfacet
  facet normal 0.065374 0.997861 -0
    outer loop
      vertex 5.9 2.00001 2.4
      vertex 5.39095 2.03336 12.7
      vertex 5.9 2.00001 12.7
    endloop
  endfacet
  facet normal 0.065374 0.997861 0
    outer loop
      vertex 5.39095 2.03336 12.7
      vertex 5.9 2.00001 2.4
      vertex 5.39095 2.03336 2.4
    endloop
  endfacet
  facet normal 0.321445 0.946928 -0
    outer loop
      vertex 4.8906 2.13289 2.4
      vertex 4.40754 2.29687 12.7
      vertex 4.8906 2.13289 12.7
    endloop
  endfacet
  facet normal 0.321445 0.946928 0
    outer loop
      vertex 4.40754 2.29687 12.7
      vertex 4.8906 2.13289 2.4
      vertex 4.40754 2.29687 2.4
    endloop
  endfacet
  facet normal 0.980758 -0.19523 0
    outer loop
      vertex 2.03336 136.609 12.7
      vertex 2.13289 137.109 2.4
      vertex 2.13289 137.109 12.7
    endloop
  endfacet
  facet normal 0.980758 -0.19523 0
    outer loop
      vertex 2.13289 137.109 2.4
      vertex 2.03336 136.609 12.7
      vertex 2.03336 136.609 2.4
    endloop
  endfacet
  facet normal 0.751845 0.65934 0
    outer loop
      vertex 3.14228 3.14228 12.7
      vertex 2.80593 3.52582 2.4
      vertex 2.80593 3.52582 12.7
    endloop
  endfacet
  facet normal 0.751845 0.65934 0
    outer loop
      vertex 2.80593 3.52582 2.4
      vertex 3.14228 3.14228 12.7
      vertex 3.14228 3.14228 2.4
    endloop
  endfacet
  facet normal 0.99786 -0.0653804 0
    outer loop
      vertex 2.00001 136.1 12.7
      vertex 2.03336 136.609 2.4
      vertex 2.03336 136.609 12.7
    endloop
  endfacet
  facet normal 0.99786 -0.0653804 0
    outer loop
      vertex 2.03336 136.609 2.4
      vertex 2.00001 136.1 12.7
      vertex 2.00001 136.1 2.4
    endloop
  endfacet
  facet normal -0.442897 -0.896572 0
    outer loop
      vertex 89.8925 139.703 2.4
      vertex 90.35 139.477 12.7
      vertex 89.8925 139.703 12.7
    endloop
  endfacet
  facet normal -0.442897 -0.896572 -0
    outer loop
      vertex 90.35 139.477 12.7
      vertex 89.8925 139.703 2.4
      vertex 90.35 139.477 2.4
    endloop
  endfacet
  facet normal 0.980784 0.195098 0
    outer loop
      vertex 2.13289 4.8906 12.7
      vertex 2.03336 5.39095 2.4
      vertex 2.03336 5.39095 12.7
    endloop
  endfacet
  facet normal 0.980784 0.195098 0
    outer loop
      vertex 2.03336 5.39095 2.4
      vertex 2.13289 4.8906 12.7
      vertex 2.13289 4.8906 2.4
    endloop
  endfacet
  facet normal 0.0646908 -0.997905 0
    outer loop
      vertex 5.39095 139.967 2.4
      vertex 5.9 140 12.7
      vertex 5.39095 139.967 12.7
    endloop
  endfacet
  facet normal 0.0646908 -0.997905 0
    outer loop
      vertex 5.9 140 12.7
      vertex 5.39095 139.967 2.4
      vertex 5.9 140 2.4
    endloop
  endfacet
  facet normal 0.752237 -0.658893 0
    outer loop
      vertex 2.80593 138.474 12.7
      vertex 3.14228 138.858 2.4
      vertex 3.14228 138.858 12.7
    endloop
  endfacet
  facet normal 0.752237 -0.658893 0
    outer loop
      vertex 3.14228 138.858 2.4
      vertex 2.80593 138.474 12.7
      vertex 2.80593 138.474 2.4
    endloop
  endfacet
  facet normal -0.997854 -0.065478 0
    outer loop
      vertex 92.3 136.1 2.4
      vertex 92.2666 136.609 12.7
      vertex 92.2666 136.609 2.4
    endloop
  endfacet
  facet normal -0.997854 -0.065478 0
    outer loop
      vertex 92.2666 136.609 12.7
      vertex 92.3 136.1 2.4
      vertex 92.3 136.1 12.7
    endloop
  endfacet
  facet normal -0.997854 0.0654716 0
    outer loop
      vertex 92.2666 5.39095 2.4
      vertex 92.3 5.9 12.7
      vertex 92.3 5.9 2.4
    endloop
  endfacet
  facet normal -0.997854 0.0654716 0
    outer loop
      vertex 92.3 5.9 12.7
      vertex 92.2666 5.39095 2.4
      vertex 92.2666 5.39095 12.7
    endloop
  endfacet
  facet normal -0.195965 -0.980611 0
    outer loop
      vertex 88.909 139.967 2.4
      vertex 89.4094 139.867 12.7
      vertex 88.909 139.967 12.7
    endloop
  endfacet
  facet normal -0.195965 -0.980611 -0
    outer loop
      vertex 89.4094 139.867 12.7
      vertex 88.909 139.967 2.4
      vertex 89.4094 139.867 2.4
    endloop
  endfacet
  facet normal 0.946916 -0.321481 0
    outer loop
      vertex 2.13289 137.109 12.7
      vertex 2.29687 137.592 2.4
      vertex 2.29687 137.592 12.7
    endloop
  endfacet
  facet normal 0.946916 -0.321481 0
    outer loop
      vertex 2.29687 137.592 2.4
      vertex 2.13289 137.109 12.7
      vertex 2.13289 137.109 2.4
    endloop
  endfacet
  facet normal -0.442314 0.89686 0
    outer loop
      vertex 90.35 2.5225 2.4
      vertex 89.8925 2.29687 12.7
      vertex 90.35 2.5225 12.7
    endloop
  endfacet
  facet normal -0.442314 0.89686 0
    outer loop
      vertex 89.8925 2.29687 12.7
      vertex 90.35 2.5225 2.4
      vertex 89.8925 2.29687 2.4
    endloop
  endfacet
  facet normal -0.831495 0.555532 0
    outer loop
      vertex 91.4941 3.52582 2.4
      vertex 91.7775 3.95 12.7
      vertex 91.7775 3.95 2.4
    endloop
  endfacet
  facet normal -0.831495 0.555532 0
    outer loop
      vertex 91.7775 3.95 12.7
      vertex 91.4941 3.52582 2.4
      vertex 91.4941 3.52582 12.7
    endloop
  endfacet
  facet normal 0.555573 0.831468 -0
    outer loop
      vertex 3.95 2.5225 2.4
      vertex 3.52582 2.80593 12.7
      vertex 3.95 2.5225 12.7
    endloop
  endfacet
  facet normal 0.555573 0.831468 0
    outer loop
      vertex 3.52582 2.80593 12.7
      vertex 3.95 2.5225 2.4
      vertex 3.52582 2.80593 2.4
    endloop
  endfacet
  facet normal 0 0 1
    outer loop
      vertex 88.4 140 2.4
      vertex 92.3 136.1 2.4
      vertex 92.2666 136.609 2.4
    endloop
  endfacet
  facet normal 0 0 1
    outer loop
      vertex 92.3 136.1 2.4
      vertex 2.00001 136.1 2.4
      vertex 92.3 5.9 2.4
    endloop
  endfacet
  facet normal 0 0 1
    outer loop
      vertex 88.4 140 2.4
      vertex 92.2666 136.609 2.4
      vertex 92.1671 137.109 2.4
    endloop
  endfacet
  facet normal 0 0 1
    outer loop
      vertex 2.00001 5.9 2.4
      vertex 92.3 5.9 2.4
      vertex 2.00001 136.1 2.4
    endloop
  endfacet
  facet normal 0 0 1
    outer loop
      vertex 88.4 140 2.4
      vertex 92.1671 137.109 2.4
      vertex 92.0031 137.592 2.4
    endloop
  endfacet
  facet normal 0 -0 1
    outer loop
      vertex 88.4 2.00001 2.4
      vertex 92.3 5.9 2.4
      vertex 2.00001 5.9 2.4
    endloop
  endfacet
  facet normal 0 0 1
    outer loop
      vertex 88.4 140 2.4
      vertex 92.0031 137.592 2.4
      vertex 91.7775 138.05 2.4
    endloop
  endfacet
  facet normal 0 0 1
    outer loop
      vertex 92.3 136.1 2.4
      vertex 88.4 140 2.4
      vertex 2.00001 136.1 2.4
    endloop
  endfacet
  facet normal 0 0 1
    outer loop
      vertex 88.4 140 2.4
      vertex 91.7775 138.05 2.4
      vertex 91.4941 138.474 2.4
    endloop
  endfacet
  facet normal 0 0 1
    outer loop
      vertex 92.3 5.9 2.4
      vertex 88.4 2.00001 2.4
      vertex 92.2666 5.39095 2.4
    endloop
  endfacet
  facet normal 0 0 1
    outer loop
      vertex 88.4 140 2.4
      vertex 91.4941 138.474 2.4
      vertex 91.1577 138.858 2.4
    endloop
  endfacet
  facet normal 0 0 1
    outer loop
      vertex 92.0031 4.40754 2.4
      vertex 88.4 2.00001 2.4
      vertex 91.7775 3.95 2.4
    endloop
  endfacet
  facet normal 0 0 1
    outer loop
      vertex 88.4 140 2.4
      vertex 91.1577 138.858 2.4
      vertex 90.7742 139.194 2.4
    endloop
  endfacet
  facet normal 0 0 1
    outer loop
      vertex 91.7775 3.95 2.4
      vertex 88.4 2.00001 2.4
      vertex 91.4941 3.52582 2.4
    endloop
  endfacet
  facet normal 0 0 1
    outer loop
      vertex 88.4 140 2.4
      vertex 90.7742 139.194 2.4
      vertex 90.35 139.477 2.4
    endloop
  endfacet
  facet normal 0 0 1
    outer loop
      vertex 91.4941 3.52582 2.4
      vertex 88.4 2.00001 2.4
      vertex 91.1577 3.14228 2.4
    endloop
  endfacet
  facet normal 0 0 1
    outer loop
      vertex 88.4 140 2.4
      vertex 90.35 139.477 2.4
      vertex 89.8925 139.703 2.4
    endloop
  endfacet
  facet normal 0 0 1
    outer loop
      vertex 91.1577 3.14228 2.4
      vertex 88.4 2.00001 2.4
      vertex 90.7742 2.80593 2.4
    endloop
  endfacet
  facet normal 0 0 1
    outer loop
      vertex 88.4 140 2.4
      vertex 89.8925 139.703 2.4
      vertex 89.4094 139.867 2.4
    endloop
  endfacet
  facet normal 0 0 1
    outer loop
      vertex 90.7742 2.80593 2.4
      vertex 88.4 2.00001 2.4
      vertex 90.35 2.5225 2.4
    endloop
  endfacet
  facet normal 0 0 1
    outer loop
      vertex 88.4 140 2.4
      vertex 89.4094 139.867 2.4
      vertex 88.909 139.967 2.4
    endloop
  endfacet
  facet normal 0 0 1
    outer loop
      vertex 90.35 2.5225 2.4
      vertex 88.4 2.00001 2.4
      vertex 89.8925 2.29687 2.4
    endloop
  endfacet
  facet normal 0 0 1
    outer loop
      vertex 89.8925 2.29687 2.4
      vertex 88.4 2.00001 2.4
      vertex 89.4094 2.13289 2.4
    endloop
  endfacet
  facet normal 0 0 1
    outer loop
      vertex 89.4094 2.13289 2.4
      vertex 88.4 2.00001 2.4
      vertex 88.909 2.03336 2.4
    endloop
  endfacet
  facet normal 0 0 1
    outer loop
      vertex 2.00001 136.1 2.4
      vertex 88.4 140 2.4
      vertex 5.9 140 2.4
    endloop
  endfacet
  facet normal 0 0 1
    outer loop
      vertex 92.2666 5.39095 2.4
      vertex 88.4 2.00001 2.4
      vertex 92.1671 4.8906 2.4
    endloop
  endfacet
  facet normal 0 0 1
    outer loop
      vertex 2.00001 136.1 2.4
      vertex 5.9 140 2.4
      vertex 5.39095 139.967 2.4
    endloop
  endfacet
  facet normal 0 0 1
    outer loop
      vertex 92.1671 4.8906 2.4
      vertex 88.4 2.00001 2.4
      vertex 92.0031 4.40754 2.4
    endloop
  endfacet
  facet normal 0 0 1
    outer loop
      vertex 2.00001 136.1 2.4
      vertex 5.39095 139.967 2.4
      vertex 4.8906 139.867 2.4
    endloop
  endfacet
  facet normal 0 0 1
    outer loop
      vertex 88.4 2.00001 2.4
      vertex 2.00001 5.9 2.4
      vertex 5.9 2.00001 2.4
    endloop
  endfacet
  facet normal 0 0 1
    outer loop
      vertex 2.00001 136.1 2.4
      vertex 4.8906 139.867 2.4
      vertex 4.40754 139.703 2.4
    endloop
  endfacet
  facet normal 0 0 1
    outer loop
      vertex 5.9 2.00001 2.4
      vertex 2.00001 5.9 2.4
      vertex 5.39095 2.03336 2.4
    endloop
  endfacet
  facet normal 0 0 1
    outer loop
      vertex 2.00001 136.1 2.4
      vertex 4.40754 139.703 2.4
      vertex 3.95 139.477 2.4
    endloop
  endfacet
  facet normal 0 0 1
    outer loop
      vertex 5.39095 2.03336 2.4
      vertex 2.00001 5.9 2.4
      vertex 4.8906 2.13289 2.4
    endloop
  endfacet
  facet normal 0 0 1
    outer loop
      vertex 2.00001 136.1 2.4
      vertex 3.95 139.477 2.4
      vertex 3.52582 139.194 2.4
    endloop
  endfacet
  facet normal 0 0 1
    outer loop
      vertex 4.8906 2.13289 2.4
      vertex 2.00001 5.9 2.4
      vertex 4.40754 2.29687 2.4
    endloop
  endfacet
  facet normal 0 0 1
    outer loop
      vertex 2.00001 136.1 2.4
      vertex 3.52582 139.194 2.4
      vertex 3.14228 138.858 2.4
    endloop
  endfacet
  facet normal 0 0 1
    outer loop
      vertex 4.40754 2.29687 2.4
      vertex 2.00001 5.9 2.4
      vertex 3.95 2.5225 2.4
    endloop
  endfacet
  facet normal 0 0 1
    outer loop
      vertex 2.00001 136.1 2.4
      vertex 3.14228 138.858 2.4
      vertex 2.80593 138.474 2.4
    endloop
  endfacet
  facet normal 0 0 1
    outer loop
      vertex 3.95 2.5225 2.4
      vertex 2.00001 5.9 2.4
      vertex 3.52582 2.80593 2.4
    endloop
  endfacet
  facet normal 0 0 1
    outer loop
      vertex 2.00001 136.1 2.4
      vertex 2.80593 138.474 2.4
      vertex 2.5225 138.05 2.4
    endloop
  endfacet
  facet normal 0 0 1
    outer loop
      vertex 3.52582 2.80593 2.4
      vertex 2.00001 5.9 2.4
      vertex 3.14228 3.14228 2.4
    endloop
  endfacet
  facet normal 0 0 1
    outer loop
      vertex 2.00001 136.1 2.4
      vertex 2.5225 138.05 2.4
      vertex 2.29687 137.592 2.4
    endloop
  endfacet
  facet normal 0 0 1
    outer loop
      vertex 3.14228 3.14228 2.4
      vertex 2.00001 5.9 2.4
      vertex 2.80593 3.52582 2.4
    endloop
  endfacet
  facet normal 0 0 1
    outer loop
      vertex 2.00001 136.1 2.4
      vertex 2.29687 137.592 2.4
      vertex 2.13289 137.109 2.4
    endloop
  endfacet
  facet normal 0 0 1
    outer loop
      vertex 2.80593 3.52582 2.4
      vertex 2.00001 5.9 2.4
      vertex 2.5225 3.95 2.4
    endloop
  endfacet
  facet normal 0 0 1
    outer loop
      vertex 2.00001 136.1 2.4
      vertex 2.13289 137.109 2.4
      vertex 2.03336 136.609 2.4
    endloop
  endfacet
  facet normal 0 0 1
    outer loop
      vertex 2.5225 3.95 2.4
      vertex 2.00001 5.9 2.4
      vertex 2.29687 4.40754 2.4
    endloop
  endfacet
  facet normal 0 0 1
    outer loop
      vertex 2.29687 4.40754 2.4
      vertex 2.00001 5.9 2.4
      vertex 2.13289 4.8906 2.4
    endloop
  endfacet
  facet normal 0 0 1
    outer loop
      vertex 2.13289 4.8906 2.4
      vertex 2.00001 5.9 2.4
      vertex 2.03336 5.39095 2.4
    endloop
  endfacet
  facet normal -0.980769 -0.195173 0
    outer loop
      vertex 92.2666 136.609 2.4
      vertex 92.1671 137.109 12.7
      vertex 92.1671 137.109 2.4
    endloop
  endfacet
  facet normal -0.980769 -0.195173 0
    outer loop
      vertex 92.1671 137.109 12.7
      vertex 92.2666 136.609 2.4
      vertex 92.2666 136.609 12.7
    endloop
  endfacet
  facet normal 0.195098 0.980784 -0
    outer loop
      vertex 5.39095 2.03336 2.4
      vertex 4.8906 2.13289 12.7
      vertex 5.39095 2.03336 12.7
    endloop
  endfacet
  facet normal 0.195098 0.980784 0
    outer loop
      vertex 4.8906 2.13289 12.7
      vertex 5.39095 2.03336 2.4
      vertex 4.8906 2.13289 2.4
    endloop
  endfacet
  facet normal 0.442866 -0.896588 0
    outer loop
      vertex 3.95 139.477 2.4
      vertex 4.40754 139.703 12.7
      vertex 3.95 139.477 12.7
    endloop
  endfacet
  facet normal 0.442866 -0.896588 0
    outer loop
      vertex 4.40754 139.703 12.7
      vertex 3.95 139.477 2.4
      vertex 4.40754 139.703 2.4
    endloop
  endfacet
  facet normal -0.980795 0.195042 0
    outer loop
      vertex 92.1671 4.8906 2.4
      vertex 92.2666 5.39095 12.7
      vertex 92.2666 5.39095 2.4
    endloop
  endfacet
  facet normal -0.980795 0.195042 0
    outer loop
      vertex 92.2666 5.39095 12.7
      vertex 92.1671 4.8906 2.4
      vertex 92.1671 4.8906 12.7
    endloop
  endfacet
  facet normal 0.442283 0.896876 -0
    outer loop
      vertex 4.40754 2.29687 2.4
      vertex 3.95 2.5225 12.7
      vertex 4.40754 2.29687 12.7
    endloop
  endfacet
  facet normal 0.442283 0.896876 0
    outer loop
      vertex 3.95 2.5225 12.7
      vertex 4.40754 2.29687 2.4
      vertex 3.95 2.5225 2.4
    endloop
  endfacet
  facet normal 0.946928 0.321445 0
    outer loop
      vertex 2.29687 4.40754 12.7
      vertex 2.13289 4.8906 2.4
      vertex 2.13289 4.8906 12.7
    endloop
  endfacet
  facet normal 0.946928 0.321445 0
    outer loop
      vertex 2.13289 4.8906 2.4
      vertex 2.29687 4.40754 12.7
      vertex 2.29687 4.40754 2.4
    endloop
  endfacet
  facet normal -0.752188 -0.658948 0
    outer loop
      vertex 91.4941 138.474 2.4
      vertex 91.1577 138.858 12.7
      vertex 91.1577 138.858 2.4
    endloop
  endfacet
  facet normal -0.752188 -0.658948 0
    outer loop
      vertex 91.1577 138.858 12.7
      vertex 91.4941 138.474 2.4
      vertex 91.4941 138.474 12.7
    endloop
  endfacet
  facet normal -0.831386 -0.555695 0
    outer loop
      vertex 91.7775 138.05 2.4
      vertex 91.4941 138.474 12.7
      vertex 91.4941 138.474 2.4
    endloop
  endfacet
  facet normal -0.831386 -0.555695 0
    outer loop
      vertex 91.4941 138.474 12.7
      vertex 91.7775 138.05 2.4
      vertex 91.7775 138.05 12.7
    endloop
  endfacet
  facet normal -0.0646972 -0.997905 0
    outer loop
      vertex 88.4 140 2.4
      vertex 88.909 139.967 12.7
      vertex 88.4 140 12.7
    endloop
  endfacet
  facet normal -0.0646972 -0.997905 -0
    outer loop
      vertex 88.909 139.967 12.7
      vertex 88.4 140 2.4
      vertex 88.909 139.967 2.4
    endloop
  endfacet
  facet normal -0.65899 -0.752151 0
    outer loop
      vertex 90.7742 139.194 2.4
      vertex 91.1577 138.858 12.7
      vertex 90.7742 139.194 12.7
    endloop
  endfacet
  facet normal -0.65899 -0.752151 -0
    outer loop
      vertex 91.1577 138.858 12.7
      vertex 90.7742 139.194 2.4
      vertex 91.1577 138.858 2.4
    endloop
  endfacet
  facet normal -0.195079 0.980787 0
    outer loop
      vertex 89.4094 2.13289 2.4
      vertex 88.909 2.03336 12.7
      vertex 89.4094 2.13289 12.7
    endloop
  endfacet
  facet normal -0.195079 0.980787 0
    outer loop
      vertex 88.909 2.03336 12.7
      vertex 89.4094 2.13289 2.4
      vertex 88.909 2.03336 2.4
    endloop
  endfacet
  facet normal 0.658952 -0.752185 0
    outer loop
      vertex 3.14228 138.858 2.4
      vertex 3.52582 139.194 12.7
      vertex 3.14228 138.858 12.7
    endloop
  endfacet
  facet normal 0.658952 -0.752185 0
    outer loop
      vertex 3.52582 139.194 12.7
      vertex 3.14228 138.858 2.4
      vertex 3.52582 139.194 2.4
    endloop
  endfacet
  facet normal 0.55499 -0.831857 0
    outer loop
      vertex 3.52582 139.194 2.4
      vertex 3.95 139.477 12.7
      vertex 3.52582 139.194 12.7
    endloop
  endfacet
  facet normal 0.55499 -0.831857 0
    outer loop
      vertex 3.95 139.477 12.7
      vertex 3.52582 139.194 2.4
      vertex 3.95 139.477 2.4
    endloop
  endfacet
  facet normal 0.831359 -0.555736 0
    outer loop
      vertex 2.5225 138.05 12.7
      vertex 2.80593 138.474 2.4
      vertex 2.80593 138.474 12.7
    endloop
  endfacet
  facet normal 0.831359 -0.555736 0
    outer loop
      vertex 2.80593 138.474 2.4
      vertex 2.5225 138.05 12.7
      vertex 2.5225 138.05 2.4
    endloop
  endfacet
  facet normal 0.831468 0.555573 0
    outer loop
      vertex 2.80593 3.52582 12.7
      vertex 2.5225 3.95 2.4
      vertex 2.5225 3.95 12.7
    endloop
  endfacet
  facet normal 0.831468 0.555573 0
    outer loop
      vertex 2.5225 3.95 2.4
      vertex 2.80593 3.52582 12.7
      vertex 2.80593 3.52582 2.4
    endloop
  endfacet
  facet normal 0.32148 -0.946916 0
    outer loop
      vertex 4.40754 139.703 2.4
      vertex 4.8906 139.867 12.7
      vertex 4.40754 139.703 12.7
    endloop
  endfacet
  facet normal 0.32148 -0.946916 0
    outer loop
      vertex 4.8906 139.867 12.7
      vertex 4.40754 139.703 2.4
      vertex 4.8906 139.867 2.4
    endloop
  endfacet
  facet normal 0.896876 0.442283 0
    outer loop
      vertex 2.5225 3.95 12.7
      vertex 2.29687 4.40754 2.4
      vertex 2.29687 4.40754 12.7
    endloop
  endfacet
  facet normal 0.896876 0.442283 0
    outer loop
      vertex 2.29687 4.40754 2.4
      vertex 2.5225 3.95 12.7
      vertex 2.5225 3.95 2.4
    endloop
  endfacet
  facet normal -0.946916 0.32148 0
    outer loop
      vertex 92.0031 4.40754 2.4
      vertex 92.1671 4.8906 12.7
      vertex 92.1671 4.8906 2.4
    endloop
  endfacet
  facet normal -0.946916 0.32148 0
    outer loop
      vertex 92.1671 4.8906 12.7
      vertex 92.0031 4.40754 2.4
      vertex 92.0031 4.40754 12.7
    endloop
  endfacet
  facet normal -0.321456 -0.946924 0
    outer loop
      vertex 89.4094 139.867 2.4
      vertex 89.8925 139.703 12.7
      vertex 89.4094 139.867 12.7
    endloop
  endfacet
  facet normal -0.321456 -0.946924 -0
    outer loop
      vertex 89.8925 139.703 12.7
      vertex 89.4094 139.867 2.4
      vertex 89.8925 139.703 2.4
    endloop
  endfacet
  facet normal -0.896899 0.442235 0
    outer loop
      vertex 91.7775 3.95 2.4
      vertex 92.0031 4.40754 12.7
      vertex 92.0031 4.40754 2.4
    endloop
  endfacet
  facet normal -0.896899 0.442235 0
    outer loop
      vertex 92.0031 4.40754 12.7
      vertex 91.7775 3.95 2.4
      vertex 91.7775 3.95 12.7
    endloop
  endfacet
  facet normal 0.897052 -0.441925 0
    outer loop
      vertex 2.29687 137.592 12.7
      vertex 2.5225 138.05 2.4
      vertex 2.5225 138.05 12.7
    endloop
  endfacet
  facet normal 0.897052 -0.441925 0
    outer loop
      vertex 2.5225 138.05 2.4
      vertex 2.29687 137.592 12.7
      vertex 2.29687 137.592 2.4
    endloop
  endfacet
  facet normal -0.946904 -0.321516 0
    outer loop
      vertex 92.1671 137.109 2.4
      vertex 92.0031 137.592 12.7
      vertex 92.0031 137.592 2.4
    endloop
  endfacet
  facet normal -0.946904 -0.321516 0
    outer loop
      vertex 92.0031 137.592 12.7
      vertex 92.1671 137.109 2.4
      vertex 92.1671 137.109 12.7
    endloop
  endfacet
  facet normal -0.321421 0.946936 0
    outer loop
      vertex 89.8925 2.29687 2.4
      vertex 89.4094 2.13289 12.7
      vertex 89.8925 2.29687 12.7
    endloop
  endfacet
  facet normal -0.321421 0.946936 0
    outer loop
      vertex 89.4094 2.13289 12.7
      vertex 89.8925 2.29687 2.4
      vertex 89.4094 2.13289 2.4
    endloop
  endfacet
  facet normal -0.897075 -0.441878 0
    outer loop
      vertex 92.0031 137.592 2.4
      vertex 91.7775 138.05 12.7
      vertex 91.7775 138.05 2.4
    endloop
  endfacet
  facet normal -0.897075 -0.441878 0
    outer loop
      vertex 91.7775 138.05 12.7
      vertex 92.0031 137.592 2.4
      vertex 92.0031 137.592 12.7
    endloop
  endfacet
  facet normal -0.751797 0.659395 0
    outer loop
      vertex 91.1577 3.14228 2.4
      vertex 91.4941 3.52582 12.7
      vertex 91.4941 3.52582 2.4
    endloop
  endfacet
  facet normal -0.751797 0.659395 0
    outer loop
      vertex 91.4941 3.52582 12.7
      vertex 91.1577 3.14228 2.4
      vertex 91.1577 3.14228 12.7
    endloop
  endfacet
  facet normal 0.532527 -0.466532 0.706232
    outer loop
      vertex 3.14228 138.858 12.7
      vertex 2.71802 139.282 13.3
      vertex 2.32992 138.839 13.3
    endloop
  endfacet
  facet normal 0.670177 -0.227644 0.706429
    outer loop
      vertex 2.29687 137.592 12.7
      vertex 1.74254 137.822 13.3
      vertex 1.55334 137.265 13.3
    endloop
  endfacet
  facet normal 0.634862 0.31309 0.706346
    outer loop
      vertex 2.00289 3.65 13.3
      vertex 2.5225 3.95 12.7
      vertex 1.74254 4.17792 13.3
    endloop
  endfacet
  facet normal 0.138103 0.694265 0.706345
    outer loop
      vertex 5.31263 1.4385 13.3
      vertex 5.39095 2.03336 12.7
      vertex 4.73531 1.55334 13.3
    endloop
  endfacet
  facet normal 0.466726 0.532207 0.706345
    outer loop
      vertex 3.16057 2.32992 13.3
      vertex 3.14228 3.14228 12.7
      vertex 2.71802 2.71802 13.3
    endloop
  endfacet
  facet normal 0.137221 -0.694915 0.705878
    outer loop
      vertex 5.39095 139.967 12.7
      vertex 5.31263 140.561 13.3
      vertex 4.73531 140.447 13.3
    endloop
  endfacet
  facet normal -0.227523 0.670303 0.706348
    outer loop
      vertex 90.1221 1.74254 13.3
      vertex 89.8925 2.29687 12.7
      vertex 89.5647 1.55334 13.3
    endloop
  endfacet
  facet normal -0.588436 -0.393494 0.706333
    outer loop
      vertex 92.2971 138.35 13.3
      vertex 91.9701 138.839 13.3
      vertex 91.7775 138.05 12.7
    endloop
  endfacet
  facet normal 0.694163 -0.13818 0.70643
    outer loop
      vertex 2.03336 136.609 12.7
      vertex 2.13289 137.109 12.7
      vertex 1.55334 137.265 13.3
    endloop
  endfacet
  facet normal 0.313571 -0.634829 0.706162
    outer loop
      vertex 4.40754 139.703 12.7
      vertex 4.17792 140.257 13.3
      vertex 3.95 139.477 12.7
    endloop
  endfacet
  facet normal 0.588568 0.393273 0.706346
    outer loop
      vertex 2.32992 3.16057 13.3
      vertex 2.5225 3.95 12.7
      vertex 2.00289 3.65 13.3
    endloop
  endfacet
  facet normal -0.69425 0.138052 0.70637
    outer loop
      vertex 92.7467 4.73531 13.3
      vertex 92.8615 5.31263 13.3
      vertex 92.2666 5.39095 12.7
    endloop
  endfacet
  facet normal -0.532177 0.466768 0.706339
    outer loop
      vertex 91.9701 3.16057 13.3
      vertex 91.4941 3.52582 12.7
      vertex 91.1577 3.14228 12.7
    endloop
  endfacet
  facet normal -0.694144 -0.138135 0.706458
    outer loop
      vertex 92.2666 136.609 12.7
      vertex 92.7467 137.265 13.3
      vertex 92.1671 137.109 12.7
    endloop
  endfacet
  facet normal 0.466725 0.532207 0.706345
    outer loop
      vertex 3.16057 2.32992 13.3
      vertex 3.52582 2.80593 12.7
      vertex 3.14228 3.14228 12.7
    endloop
  endfacet
  facet normal -0.706347 0.0463451 0.706347
    outer loop
      vertex 92.9 5.9 13.3
      vertex 92.3 5.9 12.7
      vertex 92.2666 5.39095 12.7
    endloop
  endfacet
  facet normal -0.588593 0.393246 0.706339
    outer loop
      vertex 91.9701 3.16057 13.3
      vertex 91.7775 3.95 12.7
      vertex 91.4941 3.52582 12.7
    endloop
  endfacet
  facet normal -0.707107 0 0.707107
    outer loop
      vertex 92.3 136.1 12.7
      vertex 92.9 5.9 13.3
      vertex 92.9 136.1 13.3
    endloop
  endfacet
  facet normal -0.707107 0 0.707107
    outer loop
      vertex 92.9 5.9 13.3
      vertex 92.3 136.1 12.7
      vertex 92.3 5.9 12.7
    endloop
  endfacet
  facet normal 0.138104 0.694265 0.706345
    outer loop
      vertex 5.39095 2.03336 12.7
      vertex 4.8906 2.13289 12.7
      vertex 4.73531 1.55334 13.3
    endloop
  endfacet
  facet normal 0.313074 0.634863 0.706353
    outer loop
      vertex 4.17792 1.74254 13.3
      vertex 4.40754 2.29687 12.7
      vertex 3.95 2.5225 12.7
    endloop
  endfacet
  facet normal -0.393158 -0.588414 0.706538
    outer loop
      vertex 91.1394 139.67 13.3
      vertex 90.65 139.997 13.3
      vertex 90.35 139.477 12.7
    endloop
  endfacet
  facet normal -0 0.707101 0.707113
    outer loop
      vertex 5.9 2.00001 12.7
      vertex 88.4 1.4 13.3
      vertex 88.4 2.00001 12.7
    endloop
  endfacet
  facet normal 0 0.707101 0.707113
    outer loop
      vertex 88.4 1.4 13.3
      vertex 5.9 2.00001 12.7
      vertex 5.9 1.4 13.3
    endloop
  endfacet
  facet normal 0.227525 0.670298 0.706351
    outer loop
      vertex 4.73531 1.55334 13.3
      vertex 4.40754 2.29687 12.7
      vertex 4.17792 1.74254 13.3
    endloop
  endfacet
  facet normal 0.0469298 -0.706799 0.705856
    outer loop
      vertex 5.39095 139.967 12.7
      vertex 5.9 140.6 13.3
      vertex 5.31263 140.561 13.3
    endloop
  endfacet
  facet normal -0.706338 -0.0463271 0.706357
    outer loop
      vertex 92.9 136.1 13.3
      vertex 92.8615 136.687 13.3
      vertex 92.2666 136.609 12.7
    endloop
  endfacet
  facet normal -0.138662 -0.693866 0.706628
    outer loop
      vertex 89.4094 139.867 12.7
      vertex 89.5647 140.447 13.3
      vertex 88.909 139.967 12.7
    endloop
  endfacet
  facet normal 0.0462989 0.706352 0.706345
    outer loop
      vertex 5.9 1.4 13.3
      vertex 5.39095 2.03336 12.7
      vertex 5.31263 1.4385 13.3
    endloop
  endfacet
  facet normal -0.694312 -0.137902 0.706338
    outer loop
      vertex 92.8615 136.687 13.3
      vertex 92.7467 137.265 13.3
      vertex 92.2666 136.609 12.7
    endloop
  endfacet
  facet normal 0.706362 -0.0463287 0.706333
    outer loop
      vertex 2.03336 136.609 12.7
      vertex 1.4385 136.687 13.3
      vertex 1.4 136.1 13.3
    endloop
  endfacet
  facet normal -0.588588 0.39325 0.706342
    outer loop
      vertex 91.9701 3.16057 13.3
      vertex 92.2971 3.65 13.3
      vertex 91.7775 3.95 12.7
    endloop
  endfacet
  facet normal -0.694246 0.138058 0.706373
    outer loop
      vertex 92.7467 4.73531 13.3
      vertex 92.2666 5.39095 12.7
      vertex 92.1671 4.8906 12.7
    endloop
  endfacet
  facet normal 0.138676 -0.693864 0.706627
    outer loop
      vertex 4.8906 139.867 12.7
      vertex 5.39095 139.967 12.7
      vertex 4.73531 140.447 13.3
    endloop
  endfacet
  facet normal -0.532517 -0.466507 0.706255
    outer loop
      vertex 91.4941 138.474 12.7
      vertex 91.9701 138.839 13.3
      vertex 91.1577 138.858 12.7
    endloop
  endfacet
  facet normal -0.393268 0.588592 0.706328
    outer loop
      vertex 91.1394 2.32992 13.3
      vertex 90.7742 2.80593 12.7
      vertex 90.35 2.5225 12.7
    endloop
  endfacet
  facet normal 0.227485 -0.670054 0.706596
    outer loop
      vertex 4.8906 139.867 12.7
      vertex 4.73531 140.447 13.3
      vertex 4.40754 139.703 12.7
    endloop
  endfacet
  facet normal -0.227467 -0.670058 0.706598
    outer loop
      vertex 89.8925 139.703 12.7
      vertex 89.5647 140.447 13.3
      vertex 89.4094 139.867 12.7
    endloop
  endfacet
  facet normal -0.634845 0.313024 0.706391
    outer loop
      vertex 92.5575 4.17792 13.3
      vertex 92.0031 4.40754 12.7
      vertex 91.7775 3.95 12.7
    endloop
  endfacet
  facet normal -0.670261 0.227513 0.706391
    outer loop
      vertex 92.5575 4.17792 13.3
      vertex 92.7467 4.73531 13.3
      vertex 92.0031 4.40754 12.7
    endloop
  endfacet
  facet normal 0.31309 0.634862 0.706346
    outer loop
      vertex 4.17792 1.74254 13.3
      vertex 3.95 2.5225 12.7
      vertex 3.65 2.00289 13.3
    endloop
  endfacet
  facet normal 0.392871 -0.588862 0.706324
    outer loop
      vertex 3.52582 139.194 12.7
      vertex 3.95 139.477 12.7
      vertex 3.16057 139.67 13.3
    endloop
  endfacet
  facet normal 0.0462755 0.706343 0.706355
    outer loop
      vertex 5.9 1.4 13.3
      vertex 5.9 2.00001 12.7
      vertex 5.39095 2.03336 12.7
    endloop
  endfacet
  facet normal 0.393273 0.588568 0.706346
    outer loop
      vertex 3.65 2.00289 13.3
      vertex 3.95 2.5225 12.7
      vertex 3.16057 2.32992 13.3
    endloop
  endfacet
  facet normal 0.694265 0.138103 0.706345
    outer loop
      vertex 1.55334 4.73531 13.3
      vertex 2.03336 5.39095 12.7
      vertex 1.4385 5.31263 13.3
    endloop
  endfacet
  facet normal 0.466736 -0.532355 0.706226
    outer loop
      vertex 3.14228 138.858 12.7
      vertex 3.16057 139.67 13.3
      vertex 2.71802 139.282 13.3
    endloop
  endfacet
  facet normal 0.227541 0.6703 0.706345
    outer loop
      vertex 4.73531 1.55334 13.3
      vertex 4.8906 2.13289 12.7
      vertex 4.40754 2.29687 12.7
    endloop
  endfacet
  facet normal 0.588556 -0.39343 0.706268
    outer loop
      vertex 2.5225 138.05 12.7
      vertex 2.80593 138.474 12.7
      vertex 2.32992 138.839 13.3
    endloop
  endfacet
  facet normal 0.228438 -0.670152 0.706196
    outer loop
      vertex 4.40754 139.703 12.7
      vertex 4.73531 140.447 13.3
      vertex 4.17792 140.257 13.3
    endloop
  endfacet
  facet normal 0.588416 -0.393517 0.706336
    outer loop
      vertex 2.5225 138.05 12.7
      vertex 2.32992 138.839 13.3
      vertex 2.00289 138.35 13.3
    endloop
  endfacet
  facet normal 0.63489 -0.312774 0.706461
    outer loop
      vertex 2.29687 137.592 12.7
      vertex 2.5225 138.05 12.7
      vertex 1.74254 137.822 13.3
    endloop
  endfacet
  facet normal -0.706329 0.0462973 0.706368
    outer loop
      vertex 92.8615 5.31263 13.3
      vertex 92.9 5.9 13.3
      vertex 92.2666 5.39095 12.7
    endloop
  endfacet
  facet normal 0 -0.707107 0.707107
    outer loop
      vertex 5.9 140.6 13.3
      vertex 88.4 140 12.7
      vertex 88.4 140.6 13.3
    endloop
  endfacet
  facet normal 0 -0.707107 0.707107
    outer loop
      vertex 88.4 140 12.7
      vertex 5.9 140.6 13.3
      vertex 5.9 140 12.7
    endloop
  endfacet
  facet normal 0.670165 -0.227523 0.706479
    outer loop
      vertex 2.13289 137.109 12.7
      vertex 2.29687 137.592 12.7
      vertex 1.55334 137.265 13.3
    endloop
  endfacet
  facet normal -0.138106 0.694256 0.706354
    outer loop
      vertex 88.9874 1.4385 13.3
      vertex 89.5647 1.55334 13.3
      vertex 88.909 2.03336 12.7
    endloop
  endfacet
  facet normal -0.634872 -0.312723 0.706499
    outer loop
      vertex 92.0031 137.592 12.7
      vertex 92.5575 137.822 13.3
      vertex 91.7775 138.05 12.7
    endloop
  endfacet
  facet normal 0.312665 -0.634855 0.70654
    outer loop
      vertex 3.95 139.477 12.7
      vertex 4.17792 140.257 13.3
      vertex 3.65 139.997 13.3
    endloop
  endfacet
  facet normal -0.137224 -0.694905 0.705887
    outer loop
      vertex 89.5647 140.447 13.3
      vertex 88.9874 140.561 13.3
      vertex 88.909 139.967 12.7
    endloop
  endfacet
  facet normal -0.706347 -0.0463497 0.706347
    outer loop
      vertex 92.3 136.1 12.7
      vertex 92.9 136.1 13.3
      vertex 92.2666 136.609 12.7
    endloop
  endfacet
  facet normal -0.228435 -0.670157 0.706192
    outer loop
      vertex 89.8925 139.703 12.7
      vertex 90.1221 140.257 13.3
      vertex 89.5647 140.447 13.3
    endloop
  endfacet
  facet normal -0.466686 0.532222 0.706359
    outer loop
      vertex 91.582 2.71802 13.3
      vertex 91.1577 3.14228 12.7
      vertex 91.1394 2.32992 13.3
    endloop
  endfacet
  facet normal -0.466487 -0.532433 0.706332
    outer loop
      vertex 91.1577 138.858 12.7
      vertex 91.1394 139.67 13.3
      vertex 90.7742 139.194 12.7
    endloop
  endfacet
  facet normal 0.706352 0.0462989 0.706345
    outer loop
      vertex 1.4385 5.31263 13.3
      vertex 2.03336 5.39095 12.7
      vertex 1.4 5.9 13.3
    endloop
  endfacet
  facet normal -0.58858 -0.393405 0.706262
    outer loop
      vertex 91.7775 138.05 12.7
      vertex 91.9701 138.839 13.3
      vertex 91.4941 138.474 12.7
    endloop
  endfacet
  facet normal 0.706343 0.0462755 0.706355
    outer loop
      vertex 2.03336 5.39095 12.7
      vertex 2.00001 5.9 12.7
      vertex 1.4 5.9 13.3
    endloop
  endfacet
  facet normal 0.694265 0.138104 0.706345
    outer loop
      vertex 2.13289 4.8906 12.7
      vertex 2.03336 5.39095 12.7
      vertex 1.55334 4.73531 13.3
    endloop
  endfacet
  facet normal -0.39329 0.588557 0.706345
    outer loop
      vertex 90.65 2.00289 13.3
      vertex 91.1394 2.32992 13.3
      vertex 90.35 2.5225 12.7
    endloop
  endfacet
  facet normal -0.634841 0.31314 0.706343
    outer loop
      vertex 92.2971 3.65 13.3
      vertex 92.5575 4.17792 13.3
      vertex 91.7775 3.95 12.7
    endloop
  endfacet
  facet normal -0.0469272 -0.706796 0.70586
    outer loop
      vertex 88.909 139.967 12.7
      vertex 88.9874 140.561 13.3
      vertex 88.4 140.6 13.3
    endloop
  endfacet
  facet normal -0.0457958 -0.706365 0.706365
    outer loop
      vertex 88.909 139.967 12.7
      vertex 88.4 140.6 13.3
      vertex 88.4 140 12.7
    endloop
  endfacet
  facet normal 0.0457913 -0.706365 0.706365
    outer loop
      vertex 5.9 140 12.7
      vertex 5.9 140.6 13.3
      vertex 5.39095 139.967 12.7
    endloop
  endfacet
  facet normal 0.588569 0.393272 0.706345
    outer loop
      vertex 2.80593 3.52582 12.7
      vertex 2.5225 3.95 12.7
      vertex 2.32992 3.16057 13.3
    endloop
  endfacet
  facet normal 0.707101 0 0.707113
    outer loop
      vertex 1.4 136.1 13.3
      vertex 2.00001 5.9 12.7
      vertex 2.00001 136.1 12.7
    endloop
  endfacet
  facet normal 0.707101 0 0.707113
    outer loop
      vertex 2.00001 5.9 12.7
      vertex 1.4 136.1 13.3
      vertex 1.4 5.9 13.3
    endloop
  endfacet
  facet normal 0.393141 -0.588425 0.706538
    outer loop
      vertex 3.95 139.477 12.7
      vertex 3.65 139.997 13.3
      vertex 3.16057 139.67 13.3
    endloop
  endfacet
  facet normal 0.634882 -0.313052 0.706345
    outer loop
      vertex 2.5225 138.05 12.7
      vertex 2.00289 138.35 13.3
      vertex 1.74254 137.822 13.3
    endloop
  endfacet
  facet normal 0.532547 -0.466464 0.706262
    outer loop
      vertex 2.80593 138.474 12.7
      vertex 3.14228 138.858 12.7
      vertex 2.32992 138.839 13.3
    endloop
  endfacet
  facet normal -0.634862 -0.313102 0.706341
    outer loop
      vertex 92.5575 137.822 13.3
      vertex 92.2971 138.35 13.3
      vertex 91.7775 138.05 12.7
    endloop
  endfacet
  facet normal -0.466766 0.532198 0.706325
    outer loop
      vertex 91.1394 2.32992 13.3
      vertex 91.1577 3.14228 12.7
      vertex 90.7742 2.80593 12.7
    endloop
  endfacet
  facet normal -0.532193 0.466714 0.706363
    outer loop
      vertex 91.582 2.71802 13.3
      vertex 91.9701 3.16057 13.3
      vertex 91.1577 3.14228 12.7
    endloop
  endfacet
  facet normal 0.393272 0.588569 0.706345
    outer loop
      vertex 3.95 2.5225 12.7
      vertex 3.52582 2.80593 12.7
      vertex 3.16057 2.32992 13.3
    endloop
  endfacet
  facet normal -0.67013 -0.227539 0.706506
    outer loop
      vertex 92.1671 137.109 12.7
      vertex 92.7467 137.265 13.3
      vertex 92.0031 137.592 12.7
    endloop
  endfacet
  facet normal 0.694327 -0.137953 0.706313
    outer loop
      vertex 2.03336 136.609 12.7
      vertex 1.55334 137.265 13.3
      vertex 1.4385 136.687 13.3
    endloop
  endfacet
  facet normal -0.532513 -0.46652 0.70625
    outer loop
      vertex 91.9701 138.839 13.3
      vertex 91.582 139.282 13.3
      vertex 91.1577 138.858 12.7
    endloop
  endfacet
  facet normal -0.466696 -0.532371 0.706241
    outer loop
      vertex 91.1577 138.858 12.7
      vertex 91.582 139.282 13.3
      vertex 91.1394 139.67 13.3
    endloop
  endfacet
  facet normal 0.6703 0.227541 0.706345
    outer loop
      vertex 2.29687 4.40754 12.7
      vertex 2.13289 4.8906 12.7
      vertex 1.55334 4.73531 13.3
    endloop
  endfacet
  facet normal -0.392867 -0.588885 0.706307
    outer loop
      vertex 90.7742 139.194 12.7
      vertex 91.1394 139.67 13.3
      vertex 90.35 139.477 12.7
    endloop
  endfacet
  facet normal -0.313596 -0.634823 0.706156
    outer loop
      vertex 90.35 139.477 12.7
      vertex 90.1221 140.257 13.3
      vertex 89.8925 139.703 12.7
    endloop
  endfacet
  facet normal -0.67014 -0.227631 0.706468
    outer loop
      vertex 92.7467 137.265 13.3
      vertex 92.5575 137.822 13.3
      vertex 92.0031 137.592 12.7
    endloop
  endfacet
  facet normal -0.670266 0.227557 0.706372
    outer loop
      vertex 92.7467 4.73531 13.3
      vertex 92.1671 4.8906 12.7
      vertex 92.0031 4.40754 12.7
    endloop
  endfacet
  facet normal 0.706343 -0.0462801 0.706355
    outer loop
      vertex 2.00001 136.1 12.7
      vertex 2.03336 136.609 12.7
      vertex 1.4 136.1 13.3
    endloop
  endfacet
  facet normal 0.532207 0.466725 0.706345
    outer loop
      vertex 3.14228 3.14228 12.7
      vertex 2.80593 3.52582 12.7
      vertex 2.32992 3.16057 13.3
    endloop
  endfacet
  facet normal 0.532207 0.466726 0.706345
    outer loop
      vertex 2.71802 2.71802 13.3
      vertex 3.14228 3.14228 12.7
      vertex 2.32992 3.16057 13.3
    endloop
  endfacet
  facet normal 0.670298 0.227525 0.706351
    outer loop
      vertex 1.74254 4.17792 13.3
      vertex 2.29687 4.40754 12.7
      vertex 1.55334 4.73531 13.3
    endloop
  endfacet
  facet normal 0.634863 0.313074 0.706353
    outer loop
      vertex 2.5225 3.95 12.7
      vertex 2.29687 4.40754 12.7
      vertex 1.74254 4.17792 13.3
    endloop
  endfacet
  facet normal -0.227523 0.670303 0.706348
    outer loop
      vertex 89.5647 1.55334 13.3
      vertex 89.8925 2.29687 12.7
      vertex 89.4094 2.13289 12.7
    endloop
  endfacet
  facet normal -0.0462801 0.706343 0.706355
    outer loop
      vertex 88.909 2.03336 12.7
      vertex 88.4 2.00001 12.7
      vertex 88.4 1.4 13.3
    endloop
  endfacet
  facet normal -0.0462963 0.706349 0.706348
    outer loop
      vertex 88.9874 1.4385 13.3
      vertex 88.909 2.03336 12.7
      vertex 88.4 1.4 13.3
    endloop
  endfacet
  facet normal -0.313099 0.634857 0.706347
    outer loop
      vertex 90.1221 1.74254 13.3
      vertex 90.35 2.5225 12.7
      vertex 89.8925 2.29687 12.7
    endloop
  endfacet
  facet normal -0.313099 0.634857 0.706346
    outer loop
      vertex 90.65 2.00289 13.3
      vertex 90.35 2.5225 12.7
      vertex 90.1221 1.74254 13.3
    endloop
  endfacet
  facet normal -0.312675 -0.63485 0.706541
    outer loop
      vertex 90.35 139.477 12.7
      vertex 90.65 139.997 13.3
      vertex 90.1221 140.257 13.3
    endloop
  endfacet
  facet normal 0.466446 -0.532442 0.706353
    outer loop
      vertex 3.52582 139.194 12.7
      vertex 3.16057 139.67 13.3
      vertex 3.14228 138.858 12.7
    endloop
  endfacet
  facet normal -0.13809 0.694267 0.706346
    outer loop
      vertex 89.5647 1.55334 13.3
      vertex 89.4094 2.13289 12.7
      vertex 88.909 2.03336 12.7
    endloop
  endfacet
endsolid OpenSCAD_Model
