solid OpenSCAD_Model
  facet normal -1 0 0
    outer loop
      vertex -36.5 -49.5 1.60001
      vertex -36.5 48.7 2.60001
      vertex -36.5 48.7 1.60001
    endloop
  endfacet
  facet normal -1 -0 0
    outer loop
      vertex -36.5 48.7 2.60001
      vertex -36.5 -49.5 1.60001
      vertex -36.5 -49.5 2.60001
    endloop
  endfacet
  facet normal 0 -1 0
    outer loop
      vertex -34.9 -49.5 0
      vertex -36.5 -49.5 2.60001
      vertex -36.5 -49.5 1.60001
    endloop
  endfacet
  facet normal 0 -1 0
    outer loop
      vertex -36.5 -49.5 2.60001
      vertex -34.9 -49.5 0
      vertex 36.5 -49.5 2.60001
    endloop
  endfacet
  facet normal 0 -1 0
    outer loop
      vertex 34.9 -49.5 0
      vertex 36.5 -49.5 2.60001
      vertex -34.9 -49.5 0
    endloop
  endfacet
  facet normal 0 -1 -0
    outer loop
      vertex 36.5 -49.5 2.60001
      vertex 34.9 -49.5 0
      vertex 36.5 -49.5 1.60001
    endloop
  endfacet
  facet normal 1 -0 0
    outer loop
      vertex 36.5 -49.5 2.60001
      vertex 36.5 48.7 1.60001
      vertex 36.5 48.7 2.60001
    endloop
  endfacet
  facet normal 1 0 0
    outer loop
      vertex 36.5 48.7 1.60001
      vertex 36.5 -49.5 2.60001
      vertex 36.5 -49.5 1.60001
    endloop
  endfacet
  facet normal 0 0 -1
    outer loop
      vertex -34.9 -49.5 0
      vertex 34.9 49.5 0
      vertex 34.9 -49.5 0
    endloop
  endfacet
  facet normal -0 0 -1
    outer loop
      vertex 34.9 49.5 0
      vertex -34.9 -49.5 0
      vertex -34.9 49.5 0
    endloop
  endfacet
  facet normal 0 0 1
    outer loop
      vertex -36.5 48.7 2.60001
      vertex 36.5 48.7 2.60001
      vertex 36.2 49 2.60001
    endloop
  endfacet
  facet normal 0 0 1
    outer loop
      vertex -36.5 48.7 2.60001
      vertex 36.2 49 2.60001
      vertex -36.2 49 2.60001
    endloop
  endfacet
  facet normal 0 0 1
    outer loop
      vertex 36.5 48.7 2.60001
      vertex -36.5 48.7 2.60001
      vertex 36.5 -49.5 2.60001
    endloop
  endfacet
  facet normal 0 0 1
    outer loop
      vertex 36.5 -49.5 2.60001
      vertex -36.5 48.7 2.60001
      vertex -36.5 -49.5 2.60001
    endloop
  endfacet
  facet normal 0.707108 -3.53553e-06 -0.707105
    outer loop
      vertex 36.5 48.7 1.60001
      vertex 34.9 49.5 0
      vertex 35.7 49.5 0.800003
    endloop
  endfacet
  facet normal 0.707109 0 -0.707105
    outer loop
      vertex 34.9 -49.5 0
      vertex 36.5 48.7 1.60001
      vertex 36.5 -49.5 1.60001
    endloop
  endfacet
  facet normal 0.707109 0 -0.707105
    outer loop
      vertex 36.5 48.7 1.60001
      vertex 34.9 -49.5 0
      vertex 34.9 49.5 0
    endloop
  endfacet
  facet normal -0.707108 -3.53553e-06 -0.707105
    outer loop
      vertex -34.9 49.5 0
      vertex -36.5 48.7 1.60001
      vertex -35.7 49.5 0.800003
    endloop
  endfacet
  facet normal -0.707109 0 -0.707105
    outer loop
      vertex -34.9 -49.5 0
      vertex -36.5 48.7 1.60001
      vertex -34.9 49.5 0
    endloop
  endfacet
  facet normal -0.707109 -0 -0.707105
    outer loop
      vertex -36.5 48.7 1.60001
      vertex -34.9 -49.5 0
      vertex -36.5 -49.5 1.60001
    endloop
  endfacet
  facet normal 0 1 0
    outer loop
      vertex 34.9 49.5 0
      vertex 35.7 49.5 2.10001
      vertex 35.7 49.5 0.800003
    endloop
  endfacet
  facet normal 0 1 0
    outer loop
      vertex 35.7 49.5 2.10001
      vertex 34.9 49.5 0
      vertex -35.7 49.5 2.10001
    endloop
  endfacet
  facet normal 0 1 -0
    outer loop
      vertex -34.9 49.5 0
      vertex -35.7 49.5 2.10001
      vertex 34.9 49.5 0
    endloop
  endfacet
  facet normal 0 1 0
    outer loop
      vertex -35.7 49.5 2.10001
      vertex -34.9 49.5 0
      vertex -35.7 49.5 0.800003
    endloop
  endfacet
  facet normal -0.707107 0.707107 0
    outer loop
      vertex -36.2 49 2.6
      vertex -36.5 48.7 2.60001
      vertex -36.2 49 2.60001
    endloop
  endfacet
  facet normal -0.707107 0.707107 0
    outer loop
      vertex -36.5 48.7 1.60001
      vertex -36.2 49 2.6
      vertex -35.7 49.5 2.10001
    endloop
  endfacet
  facet normal -0.707107 0.707107 0
    outer loop
      vertex -36.2 49 2.6
      vertex -36.5 48.7 1.60001
      vertex -36.5 48.7 2.60001
    endloop
  endfacet
  facet normal -0.707107 0.707107 0
    outer loop
      vertex -36.5 48.7 1.60001
      vertex -35.7 49.5 2.10001
      vertex -35.7 49.5 0.800003
    endloop
  endfacet
  facet normal 0.707107 0.707107 0
    outer loop
      vertex 36.5 48.7 2.60001
      vertex 36.2 49 2.6
      vertex 36.2 49 2.60001
    endloop
  endfacet
  facet normal 0.707107 0.707107 -0
    outer loop
      vertex 36.5 48.7 1.60001
      vertex 36.2 49 2.6
      vertex 36.5 48.7 2.60001
    endloop
  endfacet
  facet normal 0.707107 0.707107 0
    outer loop
      vertex 36.2 49 2.6
      vertex 36.5 48.7 1.60001
      vertex 35.7 49.5 2.10001
    endloop
  endfacet
  facet normal 0.707107 0.707107 0
    outer loop
      vertex 35.7 49.5 2.10001
      vertex 36.5 48.7 1.60001
      vertex 35.7 49.5 0.800003
    endloop
  endfacet
  facet normal 0 0.7071 0.707114
    outer loop
      vertex 35.7 49.5 2.10001
      vertex -36.2 49 2.6
      vertex 36.2 49 2.6
    endloop
  endfacet
  facet normal 0 0.7071 0.707114
    outer loop
      vertex -36.2 49 2.6
      vertex 35.7 49.5 2.10001
      vertex -35.7 49.5 2.10001
    endloop
  endfacet
  facet normal 0 1 -0
    outer loop
      vertex 36.2 49 2.6
      vertex -36.2 49 2.60001
      vertex 36.2 49 2.60001
    endloop
  endfacet
  facet normal 0 1 0
    outer loop
      vertex -36.2 49 2.60001
      vertex 36.2 49 2.6
      vertex -36.2 49 2.6
    endloop
  endfacet
endsolid OpenSCAD_Model
