solid OpenSCAD_Model
  facet normal -1 0 0
    outer loop
      vertex 72 4 3
      vertex 72 99 4
      vertex 72 99 3
    endloop
  endfacet
  facet normal -1 -0 0
    outer loop
      vertex 72 99 4
      vertex 72 4 3
      vertex 72 4 4
    endloop
  endfacet
  facet normal -0 0 1
    outer loop
      vertex 2 99 3
      vertex 72 4 3
      vertex 72 99 3
    endloop
  endfacet
  facet normal 0 0 1
    outer loop
      vertex 72 4 3
      vertex 2 99 3
      vertex 2 4 3
    endloop
  endfacet
  facet normal 1 -0 0
    outer loop
      vertex 2 4 4
      vertex 2 99 3
      vertex 2 99 4
    endloop
  endfacet
  facet normal 1 0 0
    outer loop
      vertex 2 99 3
      vertex 2 4 4
      vertex 2 4 3
    endloop
  endfacet
  facet normal 0 -1 0
    outer loop
      vertex 2 99 3
      vertex 72 99 4
      vertex 2 99 4
    endloop
  endfacet
  facet normal 0 -1 -0
    outer loop
      vertex 72 99 4
      vertex 2 99 3
      vertex 72 99 3
    endloop
  endfacet
  facet normal 0 1 -0
    outer loop
      vertex 72 4 3
      vertex 2 4 4
      vertex 72 4 4
    endloop
  endfacet
  facet normal 0 1 0
    outer loop
      vertex 2 4 4
      vertex 72 4 3
      vertex 2 4 3
    endloop
  endfacet
  facet normal -1 0 0
    outer loop
      vertex 144 4 3
      vertex 144 99 4
      vertex 144 99 3
    endloop
  endfacet
  facet normal -1 -0 0
    outer loop
      vertex 144 99 4
      vertex 144 4 3
      vertex 144 4 4
    endloop
  endfacet
  facet normal -0 0 1
    outer loop
      vertex 74 99 3
      vertex 144 4 3
      vertex 144 99 3
    endloop
  endfacet
  facet normal 0 0 1
    outer loop
      vertex 144 4 3
      vertex 74 99 3
      vertex 74 4 3
    endloop
  endfacet
  facet normal 1 -0 0
    outer loop
      vertex 74 4 4
      vertex 74 99 3
      vertex 74 99 4
    endloop
  endfacet
  facet normal 1 0 0
    outer loop
      vertex 74 99 3
      vertex 74 4 4
      vertex 74 4 3
    endloop
  endfacet
  facet normal 0 -1 0
    outer loop
      vertex 74 99 3
      vertex 144 99 4
      vertex 74 99 4
    endloop
  endfacet
  facet normal 0 -1 -0
    outer loop
      vertex 144 99 4
      vertex 74 99 3
      vertex 144 99 3
    endloop
  endfacet
  facet normal 0 1 -0
    outer loop
      vertex 144 4 3
      vertex 74 4 4
      vertex 144 4 4
    endloop
  endfacet
  facet normal 0 1 0
    outer loop
      vertex 74 4 4
      vertex 144 4 3
      vertex 74 4 3
    endloop
  endfacet
  facet normal 1 -0 0
    outer loop
      vertex 7 101.557 4
      vertex 7 103 3.5
      vertex 7 103 4
    endloop
  endfacet
  facet normal 1 0 0
    outer loop
      vertex 7 103 3.5
      vertex 7 101.557 4
      vertex 7 101.557 3.5
    endloop
  endfacet
  facet normal -0.500162 0.865932 0
    outer loop
      vertex 12 101.557 3.5
      vertex 9.5 100.113 4
      vertex 12 101.557 4
    endloop
  endfacet
  facet normal -0.500162 0.865932 0
    outer loop
      vertex 9.5 100.113 4
      vertex 12 101.557 3.5
      vertex 9.5 100.113 3.5
    endloop
  endfacet
  facet normal -1 0 0
    outer loop
      vertex 12 101.557 3.5
      vertex 12 103 4
      vertex 12 103 3.5
    endloop
  endfacet
  facet normal -1 -0 0
    outer loop
      vertex 12 103 4
      vertex 12 101.557 3.5
      vertex 12 101.557 4
    endloop
  endfacet
  facet normal 0.500162 0.865932 -0
    outer loop
      vertex 9.5 100.113 3.5
      vertex 7 101.557 4
      vertex 9.5 100.113 4
    endloop
  endfacet
  facet normal 0.500162 0.865932 0
    outer loop
      vertex 7 101.557 4
      vertex 9.5 100.113 3.5
      vertex 7 101.557 3.5
    endloop
  endfacet
  facet normal 0 0 1
    outer loop
      vertex 12 103 3.5
      vertex 9.5 100.113 3.5
      vertex 12 101.557 3.5
    endloop
  endfacet
  facet normal -0 0 1
    outer loop
      vertex 7 103 3.5
      vertex 9.5 100.113 3.5
      vertex 12 103 3.5
    endloop
  endfacet
  facet normal 0 0 1
    outer loop
      vertex 9.5 100.113 3.5
      vertex 7 103 3.5
      vertex 7 101.557 3.5
    endloop
  endfacet
  facet normal 1 -0 0
    outer loop
      vertex 13.6 101.557 4
      vertex 13.6 103 3.5
      vertex 13.6 103 4
    endloop
  endfacet
  facet normal 1 0 0
    outer loop
      vertex 13.6 103 3.5
      vertex 13.6 101.557 4
      vertex 13.6 101.557 3.5
    endloop
  endfacet
  facet normal -0.500162 0.865932 0
    outer loop
      vertex 18.6 101.557 3.5
      vertex 16.1 100.113 4
      vertex 18.6 101.557 4
    endloop
  endfacet
  facet normal -0.500162 0.865932 0
    outer loop
      vertex 16.1 100.113 4
      vertex 18.6 101.557 3.5
      vertex 16.1 100.113 3.5
    endloop
  endfacet
  facet normal -1 0 0
    outer loop
      vertex 18.6 101.557 3.5
      vertex 18.6 103 4
      vertex 18.6 103 3.5
    endloop
  endfacet
  facet normal -1 -0 0
    outer loop
      vertex 18.6 103 4
      vertex 18.6 101.557 3.5
      vertex 18.6 101.557 4
    endloop
  endfacet
  facet normal 0.500162 0.865932 -0
    outer loop
      vertex 16.1 100.113 3.5
      vertex 13.6 101.557 4
      vertex 16.1 100.113 4
    endloop
  endfacet
  facet normal 0.500162 0.865932 0
    outer loop
      vertex 13.6 101.557 4
      vertex 16.1 100.113 3.5
      vertex 13.6 101.557 3.5
    endloop
  endfacet
  facet normal 0 0 1
    outer loop
      vertex 18.6 103 3.5
      vertex 16.1 100.113 3.5
      vertex 18.6 101.557 3.5
    endloop
  endfacet
  facet normal -0 0 1
    outer loop
      vertex 13.6 103 3.5
      vertex 16.1 100.113 3.5
      vertex 18.6 103 3.5
    endloop
  endfacet
  facet normal 0 0 1
    outer loop
      vertex 16.1 100.113 3.5
      vertex 13.6 103 3.5
      vertex 13.6 101.557 3.5
    endloop
  endfacet
  facet normal 1 -0 0
    outer loop
      vertex 20.2 101.557 4
      vertex 20.2 103 3.5
      vertex 20.2 103 4
    endloop
  endfacet
  facet normal 1 0 0
    outer loop
      vertex 20.2 103 3.5
      vertex 20.2 101.557 4
      vertex 20.2 101.557 3.5
    endloop
  endfacet
  facet normal -0.500162 0.865932 0
    outer loop
      vertex 25.2 101.557 3.5
      vertex 22.7 100.113 4
      vertex 25.2 101.557 4
    endloop
  endfacet
  facet normal -0.500162 0.865932 0
    outer loop
      vertex 22.7 100.113 4
      vertex 25.2 101.557 3.5
      vertex 22.7 100.113 3.5
    endloop
  endfacet
  facet normal -1 0 0
    outer loop
      vertex 25.2 101.557 3.5
      vertex 25.2 103 4
      vertex 25.2 103 3.5
    endloop
  endfacet
  facet normal -1 -0 0
    outer loop
      vertex 25.2 103 4
      vertex 25.2 101.557 3.5
      vertex 25.2 101.557 4
    endloop
  endfacet
  facet normal 0.500162 0.865932 -0
    outer loop
      vertex 22.7 100.113 3.5
      vertex 20.2 101.557 4
      vertex 22.7 100.113 4
    endloop
  endfacet
  facet normal 0.500162 0.865932 0
    outer loop
      vertex 20.2 101.557 4
      vertex 22.7 100.113 3.5
      vertex 20.2 101.557 3.5
    endloop
  endfacet
  facet normal 0 0 1
    outer loop
      vertex 25.2 103 3.5
      vertex 22.7 100.113 3.5
      vertex 25.2 101.557 3.5
    endloop
  endfacet
  facet normal -0 0 1
    outer loop
      vertex 20.2 103 3.5
      vertex 22.7 100.113 3.5
      vertex 25.2 103 3.5
    endloop
  endfacet
  facet normal 0 0 1
    outer loop
      vertex 22.7 100.113 3.5
      vertex 20.2 103 3.5
      vertex 20.2 101.557 3.5
    endloop
  endfacet
  facet normal 1 -0 0
    outer loop
      vertex 26.8 101.557 4
      vertex 26.8 103 3.5
      vertex 26.8 103 4
    endloop
  endfacet
  facet normal 1 0 0
    outer loop
      vertex 26.8 103 3.5
      vertex 26.8 101.557 4
      vertex 26.8 101.557 3.5
    endloop
  endfacet
  facet normal -0.500162 0.865932 0
    outer loop
      vertex 31.8 101.557 3.5
      vertex 29.3 100.113 4
      vertex 31.8 101.557 4
    endloop
  endfacet
  facet normal -0.500162 0.865932 0
    outer loop
      vertex 29.3 100.113 4
      vertex 31.8 101.557 3.5
      vertex 29.3 100.113 3.5
    endloop
  endfacet
  facet normal -1 0 0
    outer loop
      vertex 31.8 101.557 3.5
      vertex 31.8 103 4
      vertex 31.8 103 3.5
    endloop
  endfacet
  facet normal -1 -0 0
    outer loop
      vertex 31.8 103 4
      vertex 31.8 101.557 3.5
      vertex 31.8 101.557 4
    endloop
  endfacet
  facet normal 0.500162 0.865932 -0
    outer loop
      vertex 29.3 100.113 3.5
      vertex 26.8 101.557 4
      vertex 29.3 100.113 4
    endloop
  endfacet
  facet normal 0.500162 0.865932 0
    outer loop
      vertex 26.8 101.557 4
      vertex 29.3 100.113 3.5
      vertex 26.8 101.557 3.5
    endloop
  endfacet
  facet normal 0 0 1
    outer loop
      vertex 31.8 103 3.5
      vertex 29.3 100.113 3.5
      vertex 31.8 101.557 3.5
    endloop
  endfacet
  facet normal -0 0 1
    outer loop
      vertex 26.8 103 3.5
      vertex 29.3 100.113 3.5
      vertex 31.8 103 3.5
    endloop
  endfacet
  facet normal 0 0 1
    outer loop
      vertex 29.3 100.113 3.5
      vertex 26.8 103 3.5
      vertex 26.8 101.557 3.5
    endloop
  endfacet
  facet normal 1 -0 0
    outer loop
      vertex 33.4 101.557 4
      vertex 33.4 103 3.5
      vertex 33.4 103 4
    endloop
  endfacet
  facet normal 1 0 0
    outer loop
      vertex 33.4 103 3.5
      vertex 33.4 101.557 4
      vertex 33.4 101.557 3.5
    endloop
  endfacet
  facet normal -0.500162 0.865932 0
    outer loop
      vertex 38.4 101.557 3.5
      vertex 35.9 100.113 4
      vertex 38.4 101.557 4
    endloop
  endfacet
  facet normal -0.500162 0.865932 0
    outer loop
      vertex 35.9 100.113 4
      vertex 38.4 101.557 3.5
      vertex 35.9 100.113 3.5
    endloop
  endfacet
  facet normal -1 0 0
    outer loop
      vertex 38.4 101.557 3.5
      vertex 38.4 103 4
      vertex 38.4 103 3.5
    endloop
  endfacet
  facet normal -1 -0 0
    outer loop
      vertex 38.4 103 4
      vertex 38.4 101.557 3.5
      vertex 38.4 101.557 4
    endloop
  endfacet
  facet normal 0.500162 0.865932 -0
    outer loop
      vertex 35.9 100.113 3.5
      vertex 33.4 101.557 4
      vertex 35.9 100.113 4
    endloop
  endfacet
  facet normal 0.500162 0.865932 0
    outer loop
      vertex 33.4 101.557 4
      vertex 35.9 100.113 3.5
      vertex 33.4 101.557 3.5
    endloop
  endfacet
  facet normal 0 0 1
    outer loop
      vertex 38.4 103 3.5
      vertex 35.9 100.113 3.5
      vertex 38.4 101.557 3.5
    endloop
  endfacet
  facet normal -0 0 1
    outer loop
      vertex 33.4 103 3.5
      vertex 35.9 100.113 3.5
      vertex 38.4 103 3.5
    endloop
  endfacet
  facet normal 0 0 1
    outer loop
      vertex 35.9 100.113 3.5
      vertex 33.4 103 3.5
      vertex 33.4 101.557 3.5
    endloop
  endfacet
  facet normal 1 -0 0
    outer loop
      vertex 40 101.557 4
      vertex 40 103 3.5
      vertex 40 103 4
    endloop
  endfacet
  facet normal 1 0 0
    outer loop
      vertex 40 103 3.5
      vertex 40 101.557 4
      vertex 40 101.557 3.5
    endloop
  endfacet
  facet normal -0.500162 0.865932 0
    outer loop
      vertex 45 101.557 3.5
      vertex 42.5 100.113 4
      vertex 45 101.557 4
    endloop
  endfacet
  facet normal -0.500162 0.865932 0
    outer loop
      vertex 42.5 100.113 4
      vertex 45 101.557 3.5
      vertex 42.5 100.113 3.5
    endloop
  endfacet
  facet normal -1 0 0
    outer loop
      vertex 45 101.557 3.5
      vertex 45 103 4
      vertex 45 103 3.5
    endloop
  endfacet
  facet normal -1 -0 0
    outer loop
      vertex 45 103 4
      vertex 45 101.557 3.5
      vertex 45 101.557 4
    endloop
  endfacet
  facet normal 0.500162 0.865932 -0
    outer loop
      vertex 42.5 100.113 3.5
      vertex 40 101.557 4
      vertex 42.5 100.113 4
    endloop
  endfacet
  facet normal 0.500162 0.865932 0
    outer loop
      vertex 40 101.557 4
      vertex 42.5 100.113 3.5
      vertex 40 101.557 3.5
    endloop
  endfacet
  facet normal 0 0 1
    outer loop
      vertex 45 103 3.5
      vertex 42.5 100.113 3.5
      vertex 45 101.557 3.5
    endloop
  endfacet
  facet normal -0 0 1
    outer loop
      vertex 40 103 3.5
      vertex 42.5 100.113 3.5
      vertex 45 103 3.5
    endloop
  endfacet
  facet normal 0 0 1
    outer loop
      vertex 42.5 100.113 3.5
      vertex 40 103 3.5
      vertex 40 101.557 3.5
    endloop
  endfacet
  facet normal 1 -0 0
    outer loop
      vertex 46.6 101.557 4
      vertex 46.6 103 3.5
      vertex 46.6 103 4
    endloop
  endfacet
  facet normal 1 0 0
    outer loop
      vertex 46.6 103 3.5
      vertex 46.6 101.557 4
      vertex 46.6 101.557 3.5
    endloop
  endfacet
  facet normal -0.500162 0.865932 0
    outer loop
      vertex 51.6 101.557 3.5
      vertex 49.1 100.113 4
      vertex 51.6 101.557 4
    endloop
  endfacet
  facet normal -0.500162 0.865932 0
    outer loop
      vertex 49.1 100.113 4
      vertex 51.6 101.557 3.5
      vertex 49.1 100.113 3.5
    endloop
  endfacet
  facet normal -1 0 0
    outer loop
      vertex 51.6 101.557 3.5
      vertex 51.6 103 4
      vertex 51.6 103 3.5
    endloop
  endfacet
  facet normal -1 -0 0
    outer loop
      vertex 51.6 103 4
      vertex 51.6 101.557 3.5
      vertex 51.6 101.557 4
    endloop
  endfacet
  facet normal 0.500162 0.865932 -0
    outer loop
      vertex 49.1 100.113 3.5
      vertex 46.6 101.557 4
      vertex 49.1 100.113 4
    endloop
  endfacet
  facet normal 0.500162 0.865932 0
    outer loop
      vertex 46.6 101.557 4
      vertex 49.1 100.113 3.5
      vertex 46.6 101.557 3.5
    endloop
  endfacet
  facet normal 0 0 1
    outer loop
      vertex 51.6 103 3.5
      vertex 49.1 100.113 3.5
      vertex 51.6 101.557 3.5
    endloop
  endfacet
  facet normal -0 0 1
    outer loop
      vertex 46.6 103 3.5
      vertex 49.1 100.113 3.5
      vertex 51.6 103 3.5
    endloop
  endfacet
  facet normal 0 0 1
    outer loop
      vertex 49.1 100.113 3.5
      vertex 46.6 103 3.5
      vertex 46.6 101.557 3.5
    endloop
  endfacet
  facet normal 1 -0 0
    outer loop
      vertex 53.2 101.557 4
      vertex 53.2 103 3.5
      vertex 53.2 103 4
    endloop
  endfacet
  facet normal 1 0 0
    outer loop
      vertex 53.2 103 3.5
      vertex 53.2 101.557 4
      vertex 53.2 101.557 3.5
    endloop
  endfacet
  facet normal -0.500162 0.865932 0
    outer loop
      vertex 58.2 101.557 3.5
      vertex 55.7 100.113 4
      vertex 58.2 101.557 4
    endloop
  endfacet
  facet normal -0.500162 0.865932 0
    outer loop
      vertex 55.7 100.113 4
      vertex 58.2 101.557 3.5
      vertex 55.7 100.113 3.5
    endloop
  endfacet
  facet normal -1 0 0
    outer loop
      vertex 58.2 101.557 3.5
      vertex 58.2 103 4
      vertex 58.2 103 3.5
    endloop
  endfacet
  facet normal -1 -0 0
    outer loop
      vertex 58.2 103 4
      vertex 58.2 101.557 3.5
      vertex 58.2 101.557 4
    endloop
  endfacet
  facet normal 0.500162 0.865932 -0
    outer loop
      vertex 55.7 100.113 3.5
      vertex 53.2 101.557 4
      vertex 55.7 100.113 4
    endloop
  endfacet
  facet normal 0.500162 0.865932 0
    outer loop
      vertex 53.2 101.557 4
      vertex 55.7 100.113 3.5
      vertex 53.2 101.557 3.5
    endloop
  endfacet
  facet normal 0 0 1
    outer loop
      vertex 58.2 103 3.5
      vertex 55.7 100.113 3.5
      vertex 58.2 101.557 3.5
    endloop
  endfacet
  facet normal -0 0 1
    outer loop
      vertex 53.2 103 3.5
      vertex 55.7 100.113 3.5
      vertex 58.2 103 3.5
    endloop
  endfacet
  facet normal 0 0 1
    outer loop
      vertex 55.7 100.113 3.5
      vertex 53.2 103 3.5
      vertex 53.2 101.557 3.5
    endloop
  endfacet
  facet normal 1 -0 0
    outer loop
      vertex 59.8 101.557 4
      vertex 59.8 103 3.5
      vertex 59.8 103 4
    endloop
  endfacet
  facet normal 1 0 0
    outer loop
      vertex 59.8 103 3.5
      vertex 59.8 101.557 4
      vertex 59.8 101.557 3.5
    endloop
  endfacet
  facet normal -0.500162 0.865932 0
    outer loop
      vertex 64.8 101.557 3.5
      vertex 62.3 100.113 4
      vertex 64.8 101.557 4
    endloop
  endfacet
  facet normal -0.500162 0.865932 0
    outer loop
      vertex 62.3 100.113 4
      vertex 64.8 101.557 3.5
      vertex 62.3 100.113 3.5
    endloop
  endfacet
  facet normal -1 0 0
    outer loop
      vertex 64.8 101.557 3.5
      vertex 64.8 103 4
      vertex 64.8 103 3.5
    endloop
  endfacet
  facet normal -1 -0 0
    outer loop
      vertex 64.8 103 4
      vertex 64.8 101.557 3.5
      vertex 64.8 101.557 4
    endloop
  endfacet
  facet normal 0.500162 0.865932 -0
    outer loop
      vertex 62.3 100.113 3.5
      vertex 59.8 101.557 4
      vertex 62.3 100.113 4
    endloop
  endfacet
  facet normal 0.500162 0.865932 0
    outer loop
      vertex 59.8 101.557 4
      vertex 62.3 100.113 3.5
      vertex 59.8 101.557 3.5
    endloop
  endfacet
  facet normal 0 0 1
    outer loop
      vertex 64.8 103 3.5
      vertex 62.3 100.113 3.5
      vertex 64.8 101.557 3.5
    endloop
  endfacet
  facet normal -0 0 1
    outer loop
      vertex 59.8 103 3.5
      vertex 62.3 100.113 3.5
      vertex 64.8 103 3.5
    endloop
  endfacet
  facet normal 0 0 1
    outer loop
      vertex 62.3 100.113 3.5
      vertex 59.8 103 3.5
      vertex 59.8 101.557 3.5
    endloop
  endfacet
  facet normal 1 -0 0
    outer loop
      vertex 66.4 101.557 4
      vertex 66.4 103 3.5
      vertex 66.4 103 4
    endloop
  endfacet
  facet normal 1 0 0
    outer loop
      vertex 66.4 103 3.5
      vertex 66.4 101.557 4
      vertex 66.4 101.557 3.5
    endloop
  endfacet
  facet normal -0.500162 0.865932 0
    outer loop
      vertex 71.4 101.557 3.5
      vertex 68.9 100.113 4
      vertex 71.4 101.557 4
    endloop
  endfacet
  facet normal -0.500162 0.865932 0
    outer loop
      vertex 68.9 100.113 4
      vertex 71.4 101.557 3.5
      vertex 68.9 100.113 3.5
    endloop
  endfacet
  facet normal -1 0 0
    outer loop
      vertex 71.4 101.557 3.5
      vertex 71.4 103 4
      vertex 71.4 103 3.5
    endloop
  endfacet
  facet normal -1 -0 0
    outer loop
      vertex 71.4 103 4
      vertex 71.4 101.557 3.5
      vertex 71.4 101.557 4
    endloop
  endfacet
  facet normal 0.500162 0.865932 -0
    outer loop
      vertex 68.9 100.113 3.5
      vertex 66.4 101.557 4
      vertex 68.9 100.113 4
    endloop
  endfacet
  facet normal 0.500162 0.865932 0
    outer loop
      vertex 66.4 101.557 4
      vertex 68.9 100.113 3.5
      vertex 66.4 101.557 3.5
    endloop
  endfacet
  facet normal 0 0 1
    outer loop
      vertex 71.4 103 3.5
      vertex 68.9 100.113 3.5
      vertex 71.4 101.557 3.5
    endloop
  endfacet
  facet normal -0 0 1
    outer loop
      vertex 66.4 103 3.5
      vertex 68.9 100.113 3.5
      vertex 71.4 103 3.5
    endloop
  endfacet
  facet normal 0 0 1
    outer loop
      vertex 68.9 100.113 3.5
      vertex 66.4 103 3.5
      vertex 66.4 101.557 3.5
    endloop
  endfacet
  facet normal 1 -0 0
    outer loop
      vertex 73 101.557 4
      vertex 73 103 3.5
      vertex 73 103 4
    endloop
  endfacet
  facet normal 1 0 0
    outer loop
      vertex 73 103 3.5
      vertex 73 101.557 4
      vertex 73 101.557 3.5
    endloop
  endfacet
  facet normal -0.500162 0.865932 0
    outer loop
      vertex 78 101.557 3.5
      vertex 75.5 100.113 4
      vertex 78 101.557 4
    endloop
  endfacet
  facet normal -0.500162 0.865932 0
    outer loop
      vertex 75.5 100.113 4
      vertex 78 101.557 3.5
      vertex 75.5 100.113 3.5
    endloop
  endfacet
  facet normal -1 0 0
    outer loop
      vertex 78 101.557 3.5
      vertex 78 103 4
      vertex 78 103 3.5
    endloop
  endfacet
  facet normal -1 -0 0
    outer loop
      vertex 78 103 4
      vertex 78 101.557 3.5
      vertex 78 101.557 4
    endloop
  endfacet
  facet normal 0.500162 0.865932 -0
    outer loop
      vertex 75.5 100.113 3.5
      vertex 73 101.557 4
      vertex 75.5 100.113 4
    endloop
  endfacet
  facet normal 0.500162 0.865932 0
    outer loop
      vertex 73 101.557 4
      vertex 75.5 100.113 3.5
      vertex 73 101.557 3.5
    endloop
  endfacet
  facet normal 0 0 1
    outer loop
      vertex 78 103 3.5
      vertex 75.5 100.113 3.5
      vertex 78 101.557 3.5
    endloop
  endfacet
  facet normal -0 0 1
    outer loop
      vertex 73 103 3.5
      vertex 75.5 100.113 3.5
      vertex 78 103 3.5
    endloop
  endfacet
  facet normal 0 0 1
    outer loop
      vertex 75.5 100.113 3.5
      vertex 73 103 3.5
      vertex 73 101.557 3.5
    endloop
  endfacet
  facet normal 1 -0 0
    outer loop
      vertex 79.6 101.557 4
      vertex 79.6 103 3.5
      vertex 79.6 103 4
    endloop
  endfacet
  facet normal 1 0 0
    outer loop
      vertex 79.6 103 3.5
      vertex 79.6 101.557 4
      vertex 79.6 101.557 3.5
    endloop
  endfacet
  facet normal -0.500162 0.865932 0
    outer loop
      vertex 84.6 101.557 3.5
      vertex 82.1 100.113 4
      vertex 84.6 101.557 4
    endloop
  endfacet
  facet normal -0.500162 0.865932 0
    outer loop
      vertex 82.1 100.113 4
      vertex 84.6 101.557 3.5
      vertex 82.1 100.113 3.5
    endloop
  endfacet
  facet normal -1 0 0
    outer loop
      vertex 84.6 101.557 3.5
      vertex 84.6 103 4
      vertex 84.6 103 3.5
    endloop
  endfacet
  facet normal -1 -0 0
    outer loop
      vertex 84.6 103 4
      vertex 84.6 101.557 3.5
      vertex 84.6 101.557 4
    endloop
  endfacet
  facet normal 0.500162 0.865932 -0
    outer loop
      vertex 82.1 100.113 3.5
      vertex 79.6 101.557 4
      vertex 82.1 100.113 4
    endloop
  endfacet
  facet normal 0.500162 0.865932 0
    outer loop
      vertex 79.6 101.557 4
      vertex 82.1 100.113 3.5
      vertex 79.6 101.557 3.5
    endloop
  endfacet
  facet normal 0 0 1
    outer loop
      vertex 84.6 103 3.5
      vertex 82.1 100.113 3.5
      vertex 84.6 101.557 3.5
    endloop
  endfacet
  facet normal -0 0 1
    outer loop
      vertex 79.6 103 3.5
      vertex 82.1 100.113 3.5
      vertex 84.6 103 3.5
    endloop
  endfacet
  facet normal 0 0 1
    outer loop
      vertex 82.1 100.113 3.5
      vertex 79.6 103 3.5
      vertex 79.6 101.557 3.5
    endloop
  endfacet
  facet normal 1 -0 0
    outer loop
      vertex 86.2 101.557 4
      vertex 86.2 103 3.5
      vertex 86.2 103 4
    endloop
  endfacet
  facet normal 1 0 0
    outer loop
      vertex 86.2 103 3.5
      vertex 86.2 101.557 4
      vertex 86.2 101.557 3.5
    endloop
  endfacet
  facet normal -0.500162 0.865932 0
    outer loop
      vertex 91.2 101.557 3.5
      vertex 88.7 100.113 4
      vertex 91.2 101.557 4
    endloop
  endfacet
  facet normal -0.500162 0.865932 0
    outer loop
      vertex 88.7 100.113 4
      vertex 91.2 101.557 3.5
      vertex 88.7 100.113 3.5
    endloop
  endfacet
  facet normal -1 0 0
    outer loop
      vertex 91.2 101.557 3.5
      vertex 91.2 103 4
      vertex 91.2 103 3.5
    endloop
  endfacet
  facet normal -1 -0 0
    outer loop
      vertex 91.2 103 4
      vertex 91.2 101.557 3.5
      vertex 91.2 101.557 4
    endloop
  endfacet
  facet normal 0.500162 0.865932 -0
    outer loop
      vertex 88.7 100.113 3.5
      vertex 86.2 101.557 4
      vertex 88.7 100.113 4
    endloop
  endfacet
  facet normal 0.500162 0.865932 0
    outer loop
      vertex 86.2 101.557 4
      vertex 88.7 100.113 3.5
      vertex 86.2 101.557 3.5
    endloop
  endfacet
  facet normal 0 0 1
    outer loop
      vertex 91.2 103 3.5
      vertex 88.7 100.113 3.5
      vertex 91.2 101.557 3.5
    endloop
  endfacet
  facet normal -0 0 1
    outer loop
      vertex 86.2 103 3.5
      vertex 88.7 100.113 3.5
      vertex 91.2 103 3.5
    endloop
  endfacet
  facet normal 0 0 1
    outer loop
      vertex 88.7 100.113 3.5
      vertex 86.2 103 3.5
      vertex 86.2 101.557 3.5
    endloop
  endfacet
  facet normal 1 -0 0
    outer loop
      vertex 92.8 101.557 4
      vertex 92.8 103 3.5
      vertex 92.8 103 4
    endloop
  endfacet
  facet normal 1 0 0
    outer loop
      vertex 92.8 103 3.5
      vertex 92.8 101.557 4
      vertex 92.8 101.557 3.5
    endloop
  endfacet
  facet normal -0.500162 0.865932 0
    outer loop
      vertex 97.8 101.557 3.5
      vertex 95.3 100.113 4
      vertex 97.8 101.557 4
    endloop
  endfacet
  facet normal -0.500162 0.865932 0
    outer loop
      vertex 95.3 100.113 4
      vertex 97.8 101.557 3.5
      vertex 95.3 100.113 3.5
    endloop
  endfacet
  facet normal -1 0 0
    outer loop
      vertex 97.8 101.557 3.5
      vertex 97.8 103 4
      vertex 97.8 103 3.5
    endloop
  endfacet
  facet normal -1 -0 0
    outer loop
      vertex 97.8 103 4
      vertex 97.8 101.557 3.5
      vertex 97.8 101.557 4
    endloop
  endfacet
  facet normal 0.500162 0.865932 -0
    outer loop
      vertex 95.3 100.113 3.5
      vertex 92.8 101.557 4
      vertex 95.3 100.113 4
    endloop
  endfacet
  facet normal 0.500162 0.865932 0
    outer loop
      vertex 92.8 101.557 4
      vertex 95.3 100.113 3.5
      vertex 92.8 101.557 3.5
    endloop
  endfacet
  facet normal 0 0 1
    outer loop
      vertex 97.8 103 3.5
      vertex 95.3 100.113 3.5
      vertex 97.8 101.557 3.5
    endloop
  endfacet
  facet normal -0 0 1
    outer loop
      vertex 92.8 103 3.5
      vertex 95.3 100.113 3.5
      vertex 97.8 103 3.5
    endloop
  endfacet
  facet normal 0 0 1
    outer loop
      vertex 95.3 100.113 3.5
      vertex 92.8 103 3.5
      vertex 92.8 101.557 3.5
    endloop
  endfacet
  facet normal 1 -0 0
    outer loop
      vertex 99.4 101.557 4
      vertex 99.4 103 3.5
      vertex 99.4 103 4
    endloop
  endfacet
  facet normal 1 0 0
    outer loop
      vertex 99.4 103 3.5
      vertex 99.4 101.557 4
      vertex 99.4 101.557 3.5
    endloop
  endfacet
  facet normal -0.500162 0.865932 0
    outer loop
      vertex 104.4 101.557 3.5
      vertex 101.9 100.113 4
      vertex 104.4 101.557 4
    endloop
  endfacet
  facet normal -0.500162 0.865932 0
    outer loop
      vertex 101.9 100.113 4
      vertex 104.4 101.557 3.5
      vertex 101.9 100.113 3.5
    endloop
  endfacet
  facet normal -1 0 0
    outer loop
      vertex 104.4 101.557 3.5
      vertex 104.4 103 4
      vertex 104.4 103 3.5
    endloop
  endfacet
  facet normal -1 -0 0
    outer loop
      vertex 104.4 103 4
      vertex 104.4 101.557 3.5
      vertex 104.4 101.557 4
    endloop
  endfacet
  facet normal 0.500162 0.865932 -0
    outer loop
      vertex 101.9 100.113 3.5
      vertex 99.4 101.557 4
      vertex 101.9 100.113 4
    endloop
  endfacet
  facet normal 0.500162 0.865932 0
    outer loop
      vertex 99.4 101.557 4
      vertex 101.9 100.113 3.5
      vertex 99.4 101.557 3.5
    endloop
  endfacet
  facet normal 0 0 1
    outer loop
      vertex 104.4 103 3.5
      vertex 101.9 100.113 3.5
      vertex 104.4 101.557 3.5
    endloop
  endfacet
  facet normal -0 0 1
    outer loop
      vertex 99.4 103 3.5
      vertex 101.9 100.113 3.5
      vertex 104.4 103 3.5
    endloop
  endfacet
  facet normal 0 0 1
    outer loop
      vertex 101.9 100.113 3.5
      vertex 99.4 103 3.5
      vertex 99.4 101.557 3.5
    endloop
  endfacet
  facet normal 1 -0 0
    outer loop
      vertex 106 101.557 4
      vertex 106 103 3.5
      vertex 106 103 4
    endloop
  endfacet
  facet normal 1 0 0
    outer loop
      vertex 106 103 3.5
      vertex 106 101.557 4
      vertex 106 101.557 3.5
    endloop
  endfacet
  facet normal -0.500162 0.865932 0
    outer loop
      vertex 111 101.557 3.5
      vertex 108.5 100.113 4
      vertex 111 101.557 4
    endloop
  endfacet
  facet normal -0.500162 0.865932 0
    outer loop
      vertex 108.5 100.113 4
      vertex 111 101.557 3.5
      vertex 108.5 100.113 3.5
    endloop
  endfacet
  facet normal -1 0 0
    outer loop
      vertex 111 101.557 3.5
      vertex 111 103 4
      vertex 111 103 3.5
    endloop
  endfacet
  facet normal -1 -0 0
    outer loop
      vertex 111 103 4
      vertex 111 101.557 3.5
      vertex 111 101.557 4
    endloop
  endfacet
  facet normal 0.500162 0.865932 -0
    outer loop
      vertex 108.5 100.113 3.5
      vertex 106 101.557 4
      vertex 108.5 100.113 4
    endloop
  endfacet
  facet normal 0.500162 0.865932 0
    outer loop
      vertex 106 101.557 4
      vertex 108.5 100.113 3.5
      vertex 106 101.557 3.5
    endloop
  endfacet
  facet normal 0 0 1
    outer loop
      vertex 111 103 3.5
      vertex 108.5 100.113 3.5
      vertex 111 101.557 3.5
    endloop
  endfacet
  facet normal -0 0 1
    outer loop
      vertex 106 103 3.5
      vertex 108.5 100.113 3.5
      vertex 111 103 3.5
    endloop
  endfacet
  facet normal 0 0 1
    outer loop
      vertex 108.5 100.113 3.5
      vertex 106 103 3.5
      vertex 106 101.557 3.5
    endloop
  endfacet
  facet normal 1 -0 0
    outer loop
      vertex 112.6 101.557 4
      vertex 112.6 103 3.5
      vertex 112.6 103 4
    endloop
  endfacet
  facet normal 1 0 0
    outer loop
      vertex 112.6 103 3.5
      vertex 112.6 101.557 4
      vertex 112.6 101.557 3.5
    endloop
  endfacet
  facet normal -0.500162 0.865932 0
    outer loop
      vertex 117.6 101.557 3.5
      vertex 115.1 100.113 4
      vertex 117.6 101.557 4
    endloop
  endfacet
  facet normal -0.500162 0.865932 0
    outer loop
      vertex 115.1 100.113 4
      vertex 117.6 101.557 3.5
      vertex 115.1 100.113 3.5
    endloop
  endfacet
  facet normal -1 0 0
    outer loop
      vertex 117.6 101.557 3.5
      vertex 117.6 103 4
      vertex 117.6 103 3.5
    endloop
  endfacet
  facet normal -1 -0 0
    outer loop
      vertex 117.6 103 4
      vertex 117.6 101.557 3.5
      vertex 117.6 101.557 4
    endloop
  endfacet
  facet normal 0.500162 0.865932 -0
    outer loop
      vertex 115.1 100.113 3.5
      vertex 112.6 101.557 4
      vertex 115.1 100.113 4
    endloop
  endfacet
  facet normal 0.500162 0.865932 0
    outer loop
      vertex 112.6 101.557 4
      vertex 115.1 100.113 3.5
      vertex 112.6 101.557 3.5
    endloop
  endfacet
  facet normal 0 0 1
    outer loop
      vertex 117.6 103 3.5
      vertex 115.1 100.113 3.5
      vertex 117.6 101.557 3.5
    endloop
  endfacet
  facet normal -0 0 1
    outer loop
      vertex 112.6 103 3.5
      vertex 115.1 100.113 3.5
      vertex 117.6 103 3.5
    endloop
  endfacet
  facet normal 0 0 1
    outer loop
      vertex 115.1 100.113 3.5
      vertex 112.6 103 3.5
      vertex 112.6 101.557 3.5
    endloop
  endfacet
  facet normal 1 -0 0
    outer loop
      vertex 119.2 101.557 4
      vertex 119.2 103 3.5
      vertex 119.2 103 4
    endloop
  endfacet
  facet normal 1 0 0
    outer loop
      vertex 119.2 103 3.5
      vertex 119.2 101.557 4
      vertex 119.2 101.557 3.5
    endloop
  endfacet
  facet normal -0.500162 0.865932 0
    outer loop
      vertex 124.2 101.557 3.5
      vertex 121.7 100.113 4
      vertex 124.2 101.557 4
    endloop
  endfacet
  facet normal -0.500162 0.865932 0
    outer loop
      vertex 121.7 100.113 4
      vertex 124.2 101.557 3.5
      vertex 121.7 100.113 3.5
    endloop
  endfacet
  facet normal -1 0 0
    outer loop
      vertex 124.2 101.557 3.5
      vertex 124.2 103 4
      vertex 124.2 103 3.5
    endloop
  endfacet
  facet normal -1 -0 0
    outer loop
      vertex 124.2 103 4
      vertex 124.2 101.557 3.5
      vertex 124.2 101.557 4
    endloop
  endfacet
  facet normal 0.500162 0.865932 -0
    outer loop
      vertex 121.7 100.113 3.5
      vertex 119.2 101.557 4
      vertex 121.7 100.113 4
    endloop
  endfacet
  facet normal 0.500162 0.865932 0
    outer loop
      vertex 119.2 101.557 4
      vertex 121.7 100.113 3.5
      vertex 119.2 101.557 3.5
    endloop
  endfacet
  facet normal 0 0 1
    outer loop
      vertex 124.2 103 3.5
      vertex 121.7 100.113 3.5
      vertex 124.2 101.557 3.5
    endloop
  endfacet
  facet normal -0 0 1
    outer loop
      vertex 119.2 103 3.5
      vertex 121.7 100.113 3.5
      vertex 124.2 103 3.5
    endloop
  endfacet
  facet normal 0 0 1
    outer loop
      vertex 121.7 100.113 3.5
      vertex 119.2 103 3.5
      vertex 119.2 101.557 3.5
    endloop
  endfacet
  facet normal 1 -0 0
    outer loop
      vertex 125.8 101.557 4
      vertex 125.8 103 3.5
      vertex 125.8 103 4
    endloop
  endfacet
  facet normal 1 0 0
    outer loop
      vertex 125.8 103 3.5
      vertex 125.8 101.557 4
      vertex 125.8 101.557 3.5
    endloop
  endfacet
  facet normal -0.500162 0.865932 0
    outer loop
      vertex 130.8 101.557 3.5
      vertex 128.3 100.113 4
      vertex 130.8 101.557 4
    endloop
  endfacet
  facet normal -0.500162 0.865932 0
    outer loop
      vertex 128.3 100.113 4
      vertex 130.8 101.557 3.5
      vertex 128.3 100.113 3.5
    endloop
  endfacet
  facet normal -1 0 0
    outer loop
      vertex 130.8 101.557 3.5
      vertex 130.8 103 4
      vertex 130.8 103 3.5
    endloop
  endfacet
  facet normal -1 -0 0
    outer loop
      vertex 130.8 103 4
      vertex 130.8 101.557 3.5
      vertex 130.8 101.557 4
    endloop
  endfacet
  facet normal 0.500162 0.865932 -0
    outer loop
      vertex 128.3 100.113 3.5
      vertex 125.8 101.557 4
      vertex 128.3 100.113 4
    endloop
  endfacet
  facet normal 0.500162 0.865932 0
    outer loop
      vertex 125.8 101.557 4
      vertex 128.3 100.113 3.5
      vertex 125.8 101.557 3.5
    endloop
  endfacet
  facet normal 0 0 1
    outer loop
      vertex 130.8 103 3.5
      vertex 128.3 100.113 3.5
      vertex 130.8 101.557 3.5
    endloop
  endfacet
  facet normal -0 0 1
    outer loop
      vertex 125.8 103 3.5
      vertex 128.3 100.113 3.5
      vertex 130.8 103 3.5
    endloop
  endfacet
  facet normal 0 0 1
    outer loop
      vertex 128.3 100.113 3.5
      vertex 125.8 103 3.5
      vertex 125.8 101.557 3.5
    endloop
  endfacet
  facet normal 1 -0 0
    outer loop
      vertex 132.4 101.557 4
      vertex 132.4 103 3.5
      vertex 132.4 103 4
    endloop
  endfacet
  facet normal 1 0 0
    outer loop
      vertex 132.4 103 3.5
      vertex 132.4 101.557 4
      vertex 132.4 101.557 3.5
    endloop
  endfacet
  facet normal -0.500162 0.865932 0
    outer loop
      vertex 137.4 101.557 3.5
      vertex 134.9 100.113 4
      vertex 137.4 101.557 4
    endloop
  endfacet
  facet normal -0.500162 0.865932 0
    outer loop
      vertex 134.9 100.113 4
      vertex 137.4 101.557 3.5
      vertex 134.9 100.113 3.5
    endloop
  endfacet
  facet normal -1 0 0
    outer loop
      vertex 137.4 101.557 3.5
      vertex 137.4 103 4
      vertex 137.4 103 3.5
    endloop
  endfacet
  facet normal -1 -0 0
    outer loop
      vertex 137.4 103 4
      vertex 137.4 101.557 3.5
      vertex 137.4 101.557 4
    endloop
  endfacet
  facet normal 0.500162 0.865932 -0
    outer loop
      vertex 134.9 100.113 3.5
      vertex 132.4 101.557 4
      vertex 134.9 100.113 4
    endloop
  endfacet
  facet normal 0.500162 0.865932 0
    outer loop
      vertex 132.4 101.557 4
      vertex 134.9 100.113 3.5
      vertex 132.4 101.557 3.5
    endloop
  endfacet
  facet normal 0 0 1
    outer loop
      vertex 137.4 103 3.5
      vertex 134.9 100.113 3.5
      vertex 137.4 101.557 3.5
    endloop
  endfacet
  facet normal -0 0 1
    outer loop
      vertex 132.4 103 3.5
      vertex 134.9 100.113 3.5
      vertex 137.4 103 3.5
    endloop
  endfacet
  facet normal 0 0 1
    outer loop
      vertex 134.9 100.113 3.5
      vertex 132.4 103 3.5
      vertex 132.4 101.557 3.5
    endloop
  endfacet
  facet normal 1 -0 0
    outer loop
      vertex 139 101.557 4
      vertex 139 103 3.5
      vertex 139 103 4
    endloop
  endfacet
  facet normal 1 0 0
    outer loop
      vertex 139 103 3.5
      vertex 139 101.557 4
      vertex 139 101.557 3.5
    endloop
  endfacet
  facet normal -0.500162 0.865932 0
    outer loop
      vertex 144 101.557 3.5
      vertex 141.5 100.113 4
      vertex 144 101.557 4
    endloop
  endfacet
  facet normal -0.500162 0.865932 0
    outer loop
      vertex 141.5 100.113 4
      vertex 144 101.557 3.5
      vertex 141.5 100.113 3.5
    endloop
  endfacet
  facet normal -1 0 0
    outer loop
      vertex 144 101.557 3.5
      vertex 144 103 4
      vertex 144 103 3.5
    endloop
  endfacet
  facet normal -1 -0 0
    outer loop
      vertex 144 103 4
      vertex 144 101.557 3.5
      vertex 144 101.557 4
    endloop
  endfacet
  facet normal 0.500162 0.865932 -0
    outer loop
      vertex 141.5 100.113 3.5
      vertex 139 101.557 4
      vertex 141.5 100.113 4
    endloop
  endfacet
  facet normal 0.500162 0.865932 0
    outer loop
      vertex 139 101.557 4
      vertex 141.5 100.113 3.5
      vertex 139 101.557 3.5
    endloop
  endfacet
  facet normal 0 0 1
    outer loop
      vertex 144 103 3.5
      vertex 141.5 100.113 3.5
      vertex 144 101.557 3.5
    endloop
  endfacet
  facet normal -0 0 1
    outer loop
      vertex 139 103 3.5
      vertex 141.5 100.113 3.5
      vertex 144 103 3.5
    endloop
  endfacet
  facet normal 0 0 1
    outer loop
      vertex 141.5 100.113 3.5
      vertex 139 103 3.5
      vertex 139 101.557 3.5
    endloop
  endfacet
  facet normal 0 0 1
    outer loop
      vertex 13.6 103 4
      vertex 12 103 4
      vertex 13.6 101.557 4
    endloop
  endfacet
  facet normal 0 0 1
    outer loop
      vertex 20.2 103 4
      vertex 18.6 103 4
      vertex 20.2 101.557 4
    endloop
  endfacet
  facet normal 0 0 1
    outer loop
      vertex 26.8 103 4
      vertex 25.2 103 4
      vertex 26.8 101.557 4
    endloop
  endfacet
  facet normal 0 0 1
    outer loop
      vertex 33.4 103 4
      vertex 31.8 103 4
      vertex 33.4 101.557 4
    endloop
  endfacet
  facet normal 0 0 1
    outer loop
      vertex 40 103 4
      vertex 38.4 103 4
      vertex 40 101.557 4
    endloop
  endfacet
  facet normal 0 0 1
    outer loop
      vertex 46.6 103 4
      vertex 45 103 4
      vertex 46.6 101.557 4
    endloop
  endfacet
  facet normal 0 0 1
    outer loop
      vertex 53.2 103 4
      vertex 51.6 103 4
      vertex 53.2 101.557 4
    endloop
  endfacet
  facet normal 0 0 1
    outer loop
      vertex 59.8 103 4
      vertex 58.2 103 4
      vertex 59.8 101.557 4
    endloop
  endfacet
  facet normal 0 0 1
    outer loop
      vertex 66.4 103 4
      vertex 64.8 103 4
      vertex 66.4 101.557 4
    endloop
  endfacet
  facet normal 0 0 1
    outer loop
      vertex 71.4 101.557 4
      vertex 73 101.557 4
      vertex 73 103 4
    endloop
  endfacet
  facet normal 0 0 1
    outer loop
      vertex 71.4 101.557 4
      vertex 73 103 4
      vertex 71.4 103 4
    endloop
  endfacet
  facet normal 0 0 1
    outer loop
      vertex 73 101.557 4
      vertex 71.4 101.557 4
      vertex 72 99 4
    endloop
  endfacet
  facet normal -0 0 1
    outer loop
      vertex 68.9 100.113 4
      vertex 72 99 4
      vertex 71.4 101.557 4
    endloop
  endfacet
  facet normal 0 0 1
    outer loop
      vertex 64.8 101.557 4
      vertex 66.4 101.557 4
      vertex 64.8 103 4
    endloop
  endfacet
  facet normal -0 0 1
    outer loop
      vertex 64.8 101.557 4
      vertex 68.9 100.113 4
      vertex 66.4 101.557 4
    endloop
  endfacet
  facet normal 0 0 1
    outer loop
      vertex 62.3 100.113 4
      vertex 68.9 100.113 4
      vertex 64.8 101.557 4
    endloop
  endfacet
  facet normal 0 0 1
    outer loop
      vertex 68.9 100.113 4
      vertex 62.3 100.113 4
      vertex 72 99 4
    endloop
  endfacet
  facet normal 0 0 1
    outer loop
      vertex 58.2 101.557 4
      vertex 59.8 101.557 4
      vertex 58.2 103 4
    endloop
  endfacet
  facet normal -0 0 1
    outer loop
      vertex 58.2 101.557 4
      vertex 62.3 100.113 4
      vertex 59.8 101.557 4
    endloop
  endfacet
  facet normal 0 0 1
    outer loop
      vertex 55.7 100.113 4
      vertex 62.3 100.113 4
      vertex 58.2 101.557 4
    endloop
  endfacet
  facet normal -0 0 1
    outer loop
      vertex 55.7 100.113 4
      vertex 72 99 4
      vertex 62.3 100.113 4
    endloop
  endfacet
  facet normal 0 0 1
    outer loop
      vertex 51.6 101.557 4
      vertex 53.2 101.557 4
      vertex 51.6 103 4
    endloop
  endfacet
  facet normal -0 0 1
    outer loop
      vertex 51.6 101.557 4
      vertex 55.7 100.113 4
      vertex 53.2 101.557 4
    endloop
  endfacet
  facet normal 0 0 1
    outer loop
      vertex 49.1 100.113 4
      vertex 55.7 100.113 4
      vertex 51.6 101.557 4
    endloop
  endfacet
  facet normal -0 0 1
    outer loop
      vertex 49.1 100.113 4
      vertex 72 99 4
      vertex 55.7 100.113 4
    endloop
  endfacet
  facet normal 0 0 1
    outer loop
      vertex 45 101.557 4
      vertex 46.6 101.557 4
      vertex 45 103 4
    endloop
  endfacet
  facet normal -0 0 1
    outer loop
      vertex 45 101.557 4
      vertex 49.1 100.113 4
      vertex 46.6 101.557 4
    endloop
  endfacet
  facet normal 0 0 1
    outer loop
      vertex 42.5 100.113 4
      vertex 49.1 100.113 4
      vertex 45 101.557 4
    endloop
  endfacet
  facet normal -0 0 1
    outer loop
      vertex 42.5 100.113 4
      vertex 72 99 4
      vertex 49.1 100.113 4
    endloop
  endfacet
  facet normal 0 0 1
    outer loop
      vertex 38.4 101.557 4
      vertex 40 101.557 4
      vertex 38.4 103 4
    endloop
  endfacet
  facet normal -0 0 1
    outer loop
      vertex 38.4 101.557 4
      vertex 42.5 100.113 4
      vertex 40 101.557 4
    endloop
  endfacet
  facet normal 0 0 1
    outer loop
      vertex 35.9 100.113 4
      vertex 42.5 100.113 4
      vertex 38.4 101.557 4
    endloop
  endfacet
  facet normal -0 0 1
    outer loop
      vertex 35.9 100.113 4
      vertex 72 99 4
      vertex 42.5 100.113 4
    endloop
  endfacet
  facet normal 0 0 1
    outer loop
      vertex 31.8 101.557 4
      vertex 33.4 101.557 4
      vertex 31.8 103 4
    endloop
  endfacet
  facet normal -0 0 1
    outer loop
      vertex 31.8 101.557 4
      vertex 35.9 100.113 4
      vertex 33.4 101.557 4
    endloop
  endfacet
  facet normal 0 0 1
    outer loop
      vertex 29.3 100.113 4
      vertex 35.9 100.113 4
      vertex 31.8 101.557 4
    endloop
  endfacet
  facet normal -0 0 1
    outer loop
      vertex 29.3 100.113 4
      vertex 72 99 4
      vertex 35.9 100.113 4
    endloop
  endfacet
  facet normal 0 0 1
    outer loop
      vertex 25.2 101.557 4
      vertex 26.8 101.557 4
      vertex 25.2 103 4
    endloop
  endfacet
  facet normal -0 0 1
    outer loop
      vertex 25.2 101.557 4
      vertex 29.3 100.113 4
      vertex 26.8 101.557 4
    endloop
  endfacet
  facet normal 0 0 1
    outer loop
      vertex 22.7 100.113 4
      vertex 29.3 100.113 4
      vertex 25.2 101.557 4
    endloop
  endfacet
  facet normal 0 0 1
    outer loop
      vertex 2 99 4
      vertex 29.3 100.113 4
      vertex 22.7 100.113 4
    endloop
  endfacet
  facet normal 0 0 1
    outer loop
      vertex 18.6 101.557 4
      vertex 20.2 101.557 4
      vertex 18.6 103 4
    endloop
  endfacet
  facet normal -0 0 1
    outer loop
      vertex 18.6 101.557 4
      vertex 22.7 100.113 4
      vertex 20.2 101.557 4
    endloop
  endfacet
  facet normal 0 0 1
    outer loop
      vertex 16.1 100.113 4
      vertex 22.7 100.113 4
      vertex 18.6 101.557 4
    endloop
  endfacet
  facet normal 0 0 1
    outer loop
      vertex 2 99 4
      vertex 22.7 100.113 4
      vertex 16.1 100.113 4
    endloop
  endfacet
  facet normal 0 0 1
    outer loop
      vertex 12 101.557 4
      vertex 13.6 101.557 4
      vertex 12 103 4
    endloop
  endfacet
  facet normal -0 0 1
    outer loop
      vertex 12 101.557 4
      vertex 16.1 100.113 4
      vertex 13.6 101.557 4
    endloop
  endfacet
  facet normal 0 0 1
    outer loop
      vertex 9.5 100.113 4
      vertex 16.1 100.113 4
      vertex 12 101.557 4
    endloop
  endfacet
  facet normal 0 0 1
    outer loop
      vertex 2 99 4
      vertex 16.1 100.113 4
      vertex 9.5 100.113 4
    endloop
  endfacet
  facet normal 0 0 1
    outer loop
      vertex 29.3 100.113 4
      vertex 2 99 4
      vertex 72 99 4
    endloop
  endfacet
  facet normal 0 0 1
    outer loop
      vertex 2 99 4
      vertex 9.5 100.113 4
      vertex 7 101.557 4
    endloop
  endfacet
  facet normal 0 0 1
    outer loop
      vertex 79.6 103 4
      vertex 78 103 4
      vertex 79.6 101.557 4
    endloop
  endfacet
  facet normal 0 0 1
    outer loop
      vertex 86.2 103 4
      vertex 84.6 103 4
      vertex 86.2 101.557 4
    endloop
  endfacet
  facet normal 0 0 1
    outer loop
      vertex 92.8 103 4
      vertex 91.2 103 4
      vertex 92.8 101.557 4
    endloop
  endfacet
  facet normal 0 0 1
    outer loop
      vertex 99.4 103 4
      vertex 97.8 103 4
      vertex 99.4 101.557 4
    endloop
  endfacet
  facet normal 0 0 1
    outer loop
      vertex 106 103 4
      vertex 104.4 103 4
      vertex 106 101.557 4
    endloop
  endfacet
  facet normal 0 0 1
    outer loop
      vertex 112.6 103 4
      vertex 111 103 4
      vertex 112.6 101.557 4
    endloop
  endfacet
  facet normal 0 0 1
    outer loop
      vertex 119.2 103 4
      vertex 117.6 103 4
      vertex 119.2 101.557 4
    endloop
  endfacet
  facet normal 0 0 1
    outer loop
      vertex 125.8 103 4
      vertex 124.2 103 4
      vertex 125.8 101.557 4
    endloop
  endfacet
  facet normal 0 0 1
    outer loop
      vertex 132.4 103 4
      vertex 130.8 103 4
      vertex 132.4 101.557 4
    endloop
  endfacet
  facet normal 0 0 1
    outer loop
      vertex 139 103 4
      vertex 137.4 103 4
      vertex 139 101.557 4
    endloop
  endfacet
  facet normal -0 0 1
    outer loop
      vertex 141.5 100.113 4
      vertex 144 99 4
      vertex 144 101.557 4
    endloop
  endfacet
  facet normal 0 0 1
    outer loop
      vertex 137.4 101.557 4
      vertex 139 101.557 4
      vertex 137.4 103 4
    endloop
  endfacet
  facet normal -0 0 1
    outer loop
      vertex 137.4 101.557 4
      vertex 141.5 100.113 4
      vertex 139 101.557 4
    endloop
  endfacet
  facet normal 0 0 1
    outer loop
      vertex 134.9 100.113 4
      vertex 141.5 100.113 4
      vertex 137.4 101.557 4
    endloop
  endfacet
  facet normal 0 0 1
    outer loop
      vertex 141.5 100.113 4
      vertex 134.9 100.113 4
      vertex 144 99 4
    endloop
  endfacet
  facet normal 0 0 1
    outer loop
      vertex 130.8 101.557 4
      vertex 132.4 101.557 4
      vertex 130.8 103 4
    endloop
  endfacet
  facet normal -0 0 1
    outer loop
      vertex 130.8 101.557 4
      vertex 134.9 100.113 4
      vertex 132.4 101.557 4
    endloop
  endfacet
  facet normal 0 0 1
    outer loop
      vertex 128.3 100.113 4
      vertex 134.9 100.113 4
      vertex 130.8 101.557 4
    endloop
  endfacet
  facet normal -0 0 1
    outer loop
      vertex 128.3 100.113 4
      vertex 144 99 4
      vertex 134.9 100.113 4
    endloop
  endfacet
  facet normal 0 0 1
    outer loop
      vertex 124.2 101.557 4
      vertex 125.8 101.557 4
      vertex 124.2 103 4
    endloop
  endfacet
  facet normal -0 0 1
    outer loop
      vertex 124.2 101.557 4
      vertex 128.3 100.113 4
      vertex 125.8 101.557 4
    endloop
  endfacet
  facet normal 0 0 1
    outer loop
      vertex 121.7 100.113 4
      vertex 128.3 100.113 4
      vertex 124.2 101.557 4
    endloop
  endfacet
  facet normal -0 0 1
    outer loop
      vertex 121.7 100.113 4
      vertex 144 99 4
      vertex 128.3 100.113 4
    endloop
  endfacet
  facet normal 0 0 1
    outer loop
      vertex 117.6 101.557 4
      vertex 119.2 101.557 4
      vertex 117.6 103 4
    endloop
  endfacet
  facet normal -0 0 1
    outer loop
      vertex 117.6 101.557 4
      vertex 121.7 100.113 4
      vertex 119.2 101.557 4
    endloop
  endfacet
  facet normal 0 0 1
    outer loop
      vertex 115.1 100.113 4
      vertex 121.7 100.113 4
      vertex 117.6 101.557 4
    endloop
  endfacet
  facet normal -0 0 1
    outer loop
      vertex 115.1 100.113 4
      vertex 144 99 4
      vertex 121.7 100.113 4
    endloop
  endfacet
  facet normal 0 0 1
    outer loop
      vertex 111 101.557 4
      vertex 112.6 101.557 4
      vertex 111 103 4
    endloop
  endfacet
  facet normal -0 0 1
    outer loop
      vertex 111 101.557 4
      vertex 115.1 100.113 4
      vertex 112.6 101.557 4
    endloop
  endfacet
  facet normal 0 0 1
    outer loop
      vertex 108.5 100.113 4
      vertex 115.1 100.113 4
      vertex 111 101.557 4
    endloop
  endfacet
  facet normal -0 0 1
    outer loop
      vertex 108.5 100.113 4
      vertex 144 99 4
      vertex 115.1 100.113 4
    endloop
  endfacet
  facet normal 0 0 1
    outer loop
      vertex 104.4 101.557 4
      vertex 106 101.557 4
      vertex 104.4 103 4
    endloop
  endfacet
  facet normal -0 0 1
    outer loop
      vertex 104.4 101.557 4
      vertex 108.5 100.113 4
      vertex 106 101.557 4
    endloop
  endfacet
  facet normal 0 0 1
    outer loop
      vertex 101.9 100.113 4
      vertex 108.5 100.113 4
      vertex 104.4 101.557 4
    endloop
  endfacet
  facet normal -0 0 1
    outer loop
      vertex 101.9 100.113 4
      vertex 144 99 4
      vertex 108.5 100.113 4
    endloop
  endfacet
  facet normal 0 0 1
    outer loop
      vertex 97.8 101.557 4
      vertex 99.4 101.557 4
      vertex 97.8 103 4
    endloop
  endfacet
  facet normal -0 0 1
    outer loop
      vertex 97.8 101.557 4
      vertex 101.9 100.113 4
      vertex 99.4 101.557 4
    endloop
  endfacet
  facet normal 0 0 1
    outer loop
      vertex 95.3 100.113 4
      vertex 101.9 100.113 4
      vertex 97.8 101.557 4
    endloop
  endfacet
  facet normal 0 0 1
    outer loop
      vertex 74 99 4
      vertex 101.9 100.113 4
      vertex 95.3 100.113 4
    endloop
  endfacet
  facet normal 0 0 1
    outer loop
      vertex 91.2 101.557 4
      vertex 92.8 101.557 4
      vertex 91.2 103 4
    endloop
  endfacet
  facet normal -0 0 1
    outer loop
      vertex 91.2 101.557 4
      vertex 95.3 100.113 4
      vertex 92.8 101.557 4
    endloop
  endfacet
  facet normal 0 0 1
    outer loop
      vertex 88.7 100.113 4
      vertex 95.3 100.113 4
      vertex 91.2 101.557 4
    endloop
  endfacet
  facet normal 0 0 1
    outer loop
      vertex 74 99 4
      vertex 95.3 100.113 4
      vertex 88.7 100.113 4
    endloop
  endfacet
  facet normal 0 0 1
    outer loop
      vertex 84.6 101.557 4
      vertex 86.2 101.557 4
      vertex 84.6 103 4
    endloop
  endfacet
  facet normal -0 0 1
    outer loop
      vertex 84.6 101.557 4
      vertex 88.7 100.113 4
      vertex 86.2 101.557 4
    endloop
  endfacet
  facet normal 0 0 1
    outer loop
      vertex 82.1 100.113 4
      vertex 88.7 100.113 4
      vertex 84.6 101.557 4
    endloop
  endfacet
  facet normal 0 0 1
    outer loop
      vertex 74 99 4
      vertex 88.7 100.113 4
      vertex 82.1 100.113 4
    endloop
  endfacet
  facet normal 0 0 1
    outer loop
      vertex 78 101.557 4
      vertex 79.6 101.557 4
      vertex 78 103 4
    endloop
  endfacet
  facet normal -0 0 1
    outer loop
      vertex 78 101.557 4
      vertex 82.1 100.113 4
      vertex 79.6 101.557 4
    endloop
  endfacet
  facet normal 0 0 1
    outer loop
      vertex 75.5 100.113 4
      vertex 82.1 100.113 4
      vertex 78 101.557 4
    endloop
  endfacet
  facet normal 0 0 1
    outer loop
      vertex 74 99 4
      vertex 82.1 100.113 4
      vertex 75.5 100.113 4
    endloop
  endfacet
  facet normal 0 0 1
    outer loop
      vertex 101.9 100.113 4
      vertex 74 99 4
      vertex 144 99 4
    endloop
  endfacet
  facet normal 0 0 1
    outer loop
      vertex 72 99 4
      vertex 74 99 4
      vertex 73 101.557 4
    endloop
  endfacet
  facet normal 0 0 1
    outer loop
      vertex 73 101.557 4
      vertex 74 99 4
      vertex 75.5 100.113 4
    endloop
  endfacet
  facet normal 0 0 1
    outer loop
      vertex 144 101.557 4
      vertex 146 103 4
      vertex 144 103 4
    endloop
  endfacet
  facet normal 0 0 1
    outer loop
      vertex 144 99 4
      vertex 146 103 4
      vertex 144 101.557 4
    endloop
  endfacet
  facet normal 0 0 1
    outer loop
      vertex 146 103 4
      vertex 144 99 4
      vertex 146 0 4
    endloop
  endfacet
  facet normal -0 0 1
    outer loop
      vertex 144 4 4
      vertex 146 0 4
      vertex 144 99 4
    endloop
  endfacet
  facet normal -0 0 1
    outer loop
      vertex 74 4 4
      vertex 146 0 4
      vertex 144 4 4
    endloop
  endfacet
  facet normal 0 0 1
    outer loop
      vertex 74 99 4
      vertex 72 99 4
      vertex 74 4 4
    endloop
  endfacet
  facet normal 0 0 1
    outer loop
      vertex 72 4 4
      vertex 74 4 4
      vertex 72 99 4
    endloop
  endfacet
  facet normal -0 0 1
    outer loop
      vertex 72 4 4
      vertex 146 0 4
      vertex 74 4 4
    endloop
  endfacet
  facet normal 0 0 1
    outer loop
      vertex 0 0 4
      vertex 72 4 4
      vertex 2 4 4
    endloop
  endfacet
  facet normal 0 0 1
    outer loop
      vertex 72 4 4
      vertex 0 0 4
      vertex 146 0 4
    endloop
  endfacet
  facet normal 0 0 1
    outer loop
      vertex 0 0 4
      vertex 2 4 4
      vertex 0 103 4
    endloop
  endfacet
  facet normal 0 0 1
    outer loop
      vertex 7 103 4
      vertex 2 99 4
      vertex 7 101.557 4
    endloop
  endfacet
  facet normal 0 0 1
    outer loop
      vertex 2 99 4
      vertex 0 103 4
      vertex 2 4 4
    endloop
  endfacet
  facet normal -0 0 1
    outer loop
      vertex 0 103 4
      vertex 2 99 4
      vertex 7 103 4
    endloop
  endfacet
  facet normal 0 0 -1
    outer loop
      vertex 0 61.7 0
      vertex 5.2 67.05 0
      vertex 5.2 61.7 0
    endloop
  endfacet
  facet normal -0 0 -1
    outer loop
      vertex 5.2 67.05 0
      vertex 0 61.7 0
      vertex 0 67.05 0
    endloop
  endfacet
  facet normal 0 0 -1
    outer loop
      vertex 0 35.95 0
      vertex 5.2 41.3 0
      vertex 5.2 35.95 0
    endloop
  endfacet
  facet normal -0 0 -1
    outer loop
      vertex 5.2 41.3 0
      vertex 0 35.95 0
      vertex 0 41.3 0
    endloop
  endfacet
  facet normal 0 0 -1
    outer loop
      vertex 5.2 15.55 0
      vertex 146 15.75 0
      vertex 146 0 0
    endloop
  endfacet
  facet normal -0 0 -1
    outer loop
      vertex 146 15.75 0
      vertex 5.2 15.55 0
      vertex 146 35.75 0
    endloop
  endfacet
  facet normal 0 0 -1
    outer loop
      vertex 5.2 35.95 0
      vertex 146 35.75 0
      vertex 5.2 15.55 0
    endloop
  endfacet
  facet normal -0 -0 -1
    outer loop
      vertex 99.5 103 0
      vertex 146 41.5 0
      vertex 83 103 0
    endloop
  endfacet
  facet normal 0 0 -1
    outer loop
      vertex 146 41.5 0
      vertex 99.5 103 0
      vertex 146 61.5 0
    endloop
  endfacet
  facet normal -0 -0 -1
    outer loop
      vertex 119.5 103 0
      vertex 146 67.25 0
      vertex 99.5 103 0
    endloop
  endfacet
  facet normal 0 0 -1
    outer loop
      vertex 146 87.25 0
      vertex 119.5 103 0
      vertex 146 103 0
    endloop
  endfacet
  facet normal 0 0 -1
    outer loop
      vertex 119.5 103 0
      vertex 99.5 103 0
      vertex 119.5 108 0
    endloop
  endfacet
  facet normal 0 0 -1
    outer loop
      vertex 146 67.25 0
      vertex 119.5 103 0
      vertex 146 87.25 0
    endloop
  endfacet
  facet normal 0 0 -1
    outer loop
      vertex 146 61.5 0
      vertex 99.5 103 0
      vertex 146 67.25 0
    endloop
  endfacet
  facet normal 0 0 -1
    outer loop
      vertex 83 103 0
      vertex 63 103 0
      vertex 83 108 0
    endloop
  endfacet
  facet normal 0 0 -1
    outer loop
      vertex 146 35.75 0
      vertex 83 103 0
      vertex 146 41.5 0
    endloop
  endfacet
  facet normal -0 0 -1
    outer loop
      vertex 83 103 0
      vertex 5.2 35.95 0
      vertex 63 103 0
    endloop
  endfacet
  facet normal 0 0 -1
    outer loop
      vertex 46.5 103 0
      vertex 26.5 103 0
      vertex 46.5 108 0
    endloop
  endfacet
  facet normal 0 0 -1
    outer loop
      vertex 5.2 41.3 0
      vertex 63 103 0
      vertex 5.2 35.95 0
    endloop
  endfacet
  facet normal 0 -0 -1
    outer loop
      vertex 83 103 0
      vertex 146 35.75 0
      vertex 5.2 35.95 0
    endloop
  endfacet
  facet normal 0 0 -1
    outer loop
      vertex 0 0 0
      vertex 5.2 15.55 0
      vertex 146 0 0
    endloop
  endfacet
  facet normal -0 0 -1
    outer loop
      vertex 5.2 15.55 0
      vertex 0 0 0
      vertex 0 15.55 0
    endloop
  endfacet
  facet normal 0 0 -1
    outer loop
      vertex 146 15.75 0
      vertex 151 35.75 0
      vertex 151 15.75 0
    endloop
  endfacet
  facet normal -0 0 -1
    outer loop
      vertex 151 35.75 0
      vertex 146 15.75 0
      vertex 146 35.75 0
    endloop
  endfacet
  facet normal 0 0 -1
    outer loop
      vertex 146 41.5 0
      vertex 151 61.5 0
      vertex 151 41.5 0
    endloop
  endfacet
  facet normal -0 0 -1
    outer loop
      vertex 151 61.5 0
      vertex 146 41.5 0
      vertex 146 61.5 0
    endloop
  endfacet
  facet normal 0 0 -1
    outer loop
      vertex 146 67.25 0
      vertex 151 87.25 0
      vertex 151 67.25 0
    endloop
  endfacet
  facet normal -0 0 -1
    outer loop
      vertex 151 87.25 0
      vertex 146 67.25 0
      vertex 146 87.25 0
    endloop
  endfacet
  facet normal -0 0 -1
    outer loop
      vertex 119.5 108 0
      vertex 99.5 103 0
      vertex 99.5 108 0
    endloop
  endfacet
  facet normal -0 0 -1
    outer loop
      vertex 83 108 0
      vertex 63 103 0
      vertex 63 108 0
    endloop
  endfacet
  facet normal -0 0 -1
    outer loop
      vertex 46.5 108 0
      vertex 26.5 103 0
      vertex 26.5 108 0
    endloop
  endfacet
  facet normal 0 0 -1
    outer loop
      vertex 5.2 61.7 0
      vertex 63 103 0
      vertex 5.2 41.3 0
    endloop
  endfacet
  facet normal -0 0 -1
    outer loop
      vertex 63 103 0
      vertex 5.2 61.7 0
      vertex 46.5 103 0
    endloop
  endfacet
  facet normal 0 0 -1
    outer loop
      vertex 5.2 67.05 0
      vertex 46.5 103 0
      vertex 5.2 61.7 0
    endloop
  endfacet
  facet normal -0 0 -1
    outer loop
      vertex 46.5 103 0
      vertex 5.2 67.05 0
      vertex 26.5 103 0
    endloop
  endfacet
  facet normal 0 0 -1
    outer loop
      vertex 5.2 87.45 0
      vertex 26.5 103 0
      vertex 5.2 67.05 0
    endloop
  endfacet
  facet normal 0 0 -1
    outer loop
      vertex 0 103 0
      vertex 5.2 87.45 0
      vertex 0 87.45 0
    endloop
  endfacet
  facet normal 0 0 -1
    outer loop
      vertex 5.2 87.45 0
      vertex 0 103 0
      vertex 26.5 103 0
    endloop
  endfacet
  facet normal 0 -1 0
    outer loop
      vertex 0 0 0
      vertex 146 0 4
      vertex 0 0 4
    endloop
  endfacet
  facet normal 0 -1 -0
    outer loop
      vertex 146 0 4
      vertex 0 0 0
      vertex 146 0 0
    endloop
  endfacet
  facet normal 1 0 0
    outer loop
      vertex 146 103 4
      vertex 146 87.25 1.2
      vertex 146 103 0
    endloop
  endfacet
  facet normal 1 0 0
    outer loop
      vertex 146 103 4
      vertex 146 67.25 1.2
      vertex 146 87.25 1.2
    endloop
  endfacet
  facet normal 1 0 0
    outer loop
      vertex 146 67.25 1.2
      vertex 146 61.5 1.2
      vertex 146 67.25 0
    endloop
  endfacet
  facet normal 1 0 0
    outer loop
      vertex 146 103 4
      vertex 146 61.5 1.2
      vertex 146 67.25 1.2
    endloop
  endfacet
  facet normal 1 0 0
    outer loop
      vertex 146 103 4
      vertex 146 41.5 1.2
      vertex 146 61.5 1.2
    endloop
  endfacet
  facet normal 1 0 0
    outer loop
      vertex 146 41.5 1.2
      vertex 146 35.75 1.2
      vertex 146 41.5 0
    endloop
  endfacet
  facet normal 1 -0 0
    outer loop
      vertex 146 0 4
      vertex 146 41.5 1.2
      vertex 146 103 4
    endloop
  endfacet
  facet normal 1 0 0
    outer loop
      vertex 146 41.5 1.2
      vertex 146 0 4
      vertex 146 35.75 1.2
    endloop
  endfacet
  facet normal 1 0 0
    outer loop
      vertex 146 35.75 1.2
      vertex 146 0 4
      vertex 146 15.75 1.2
    endloop
  endfacet
  facet normal 1 0 0
    outer loop
      vertex 146 0 0
      vertex 146 15.75 1.2
      vertex 146 0 4
    endloop
  endfacet
  facet normal 1 0 0
    outer loop
      vertex 146 15.75 1.2
      vertex 146 0 0
      vertex 146 15.75 0
    endloop
  endfacet
  facet normal 1 0 0
    outer loop
      vertex 146 103 0
      vertex 146 87.25 1.2
      vertex 146 87.25 0
    endloop
  endfacet
  facet normal 1 0 0
    outer loop
      vertex 146 67.25 0
      vertex 146 61.5 1.2
      vertex 146 61.5 0
    endloop
  endfacet
  facet normal 1 0 0
    outer loop
      vertex 146 41.5 0
      vertex 146 35.75 1.2
      vertex 146 35.75 0
    endloop
  endfacet
  facet normal -1 0 0
    outer loop
      vertex 0 15.55 0
      vertex 0 0 0
      vertex 0 15.55 1.8
    endloop
  endfacet
  facet normal -1 0 0
    outer loop
      vertex 0 41.3 0
      vertex 0 35.95 0
      vertex 0 41.3 1.8
    endloop
  endfacet
  facet normal -1 0 0
    outer loop
      vertex 0 67.05 0
      vertex 0 61.7 0
      vertex 0 67.05 1.8
    endloop
  endfacet
  facet normal -1 0 0
    outer loop
      vertex 0 87.45 1.8
      vertex 0 103 0
      vertex 0 87.45 0
    endloop
  endfacet
  facet normal -1 0 0
    outer loop
      vertex 0 103 0
      vertex 0 87.45 1.8
      vertex 0 103 4
    endloop
  endfacet
  facet normal -1 0 0
    outer loop
      vertex 0 67.05 1.8
      vertex 0 103 4
      vertex 0 87.45 1.8
    endloop
  endfacet
  facet normal -1 0 0
    outer loop
      vertex 0 61.7 1.8
      vertex 0 67.05 1.8
      vertex 0 61.7 0
    endloop
  endfacet
  facet normal -1 0 0
    outer loop
      vertex 0 61.7 1.8
      vertex 0 103 4
      vertex 0 67.05 1.8
    endloop
  endfacet
  facet normal -1 0 0
    outer loop
      vertex 0 41.3 1.8
      vertex 0 103 4
      vertex 0 61.7 1.8
    endloop
  endfacet
  facet normal -1 0 0
    outer loop
      vertex 0 35.95 1.8
      vertex 0 41.3 1.8
      vertex 0 35.95 0
    endloop
  endfacet
  facet normal -1 0 0
    outer loop
      vertex 0 0 4
      vertex 0 41.3 1.8
      vertex 0 35.95 1.8
    endloop
  endfacet
  facet normal -1 0 0
    outer loop
      vertex 0 0 4
      vertex 0 35.95 1.8
      vertex 0 15.55 1.8
    endloop
  endfacet
  facet normal -1 0 0
    outer loop
      vertex 0 41.3 1.8
      vertex 0 0 4
      vertex 0 103 4
    endloop
  endfacet
  facet normal -1 0 0
    outer loop
      vertex 0 0 4
      vertex 0 15.55 1.8
      vertex 0 0 0
    endloop
  endfacet
  facet normal 0 1 0
    outer loop
      vertex 46.5 103 0
      vertex 53.2 103 3.5
      vertex 63 103 0
    endloop
  endfacet
  facet normal 0 1 0
    outer loop
      vertex 53.2 103 3.5
      vertex 46.5 103 0
      vertex 46.5 103 1.2
    endloop
  endfacet
  facet normal 0 1 0
    outer loop
      vertex 83 103 0
      vertex 91.2 103 3.5
      vertex 99.5 103 0
    endloop
  endfacet
  facet normal 0 1 0
    outer loop
      vertex 91.2 103 3.5
      vertex 83 103 0
      vertex 83 103 1.2
    endloop
  endfacet
  facet normal 0 1 0
    outer loop
      vertex 146 103 4
      vertex 144 103 3.5
      vertex 144 103 4
    endloop
  endfacet
  facet normal 0 1 0
    outer loop
      vertex 146 103 0
      vertex 139 103 3.5
      vertex 144 103 3.5
    endloop
  endfacet
  facet normal 0 1 0
    outer loop
      vertex 139 103 3.5
      vertex 146 103 0
      vertex 137.4 103 3.5
    endloop
  endfacet
  facet normal 0 1 0
    outer loop
      vertex 137.4 103 3.5
      vertex 146 103 0
      vertex 132.4 103 3.5
    endloop
  endfacet
  facet normal 0 1 0
    outer loop
      vertex 119.5 103 0
      vertex 132.4 103 3.5
      vertex 146 103 0
    endloop
  endfacet
  facet normal 0 1 0
    outer loop
      vertex 132.4 103 3.5
      vertex 119.5 103 0
      vertex 130.8 103 3.5
    endloop
  endfacet
  facet normal 0 1 0
    outer loop
      vertex 130.8 103 3.5
      vertex 119.5 103 0
      vertex 125.8 103 3.5
    endloop
  endfacet
  facet normal 0 1 0
    outer loop
      vertex 124.2 103 3.5
      vertex 119.5 103 1.2
      vertex 119.2 103 3.5
    endloop
  endfacet
  facet normal 0 1 0
    outer loop
      vertex 119.2 103 3.5
      vertex 119.5 103 1.2
      vertex 117.6 103 3.5
    endloop
  endfacet
  facet normal 0 1 0
    outer loop
      vertex 117.6 103 3.5
      vertex 119.5 103 1.2
      vertex 112.6 103 3.5
    endloop
  endfacet
  facet normal 0 1 0
    outer loop
      vertex 112.6 103 3.5
      vertex 119.5 103 1.2
      vertex 111 103 3.5
    endloop
  endfacet
  facet normal 0 1 0
    outer loop
      vertex 99.5 103 1.2
      vertex 111 103 3.5
      vertex 119.5 103 1.2
    endloop
  endfacet
  facet normal 0 1 0
    outer loop
      vertex 111 103 3.5
      vertex 99.5 103 1.2
      vertex 106 103 3.5
    endloop
  endfacet
  facet normal 0 1 0
    outer loop
      vertex 106 103 3.5
      vertex 99.5 103 1.2
      vertex 104.4 103 3.5
    endloop
  endfacet
  facet normal 0 1 0
    outer loop
      vertex 104.4 103 3.5
      vertex 99.5 103 1.2
      vertex 99.4 103 3.5
    endloop
  endfacet
  facet normal 0 1 0
    outer loop
      vertex 99.4 103 3.5
      vertex 99.5 103 1.2
      vertex 97.8 103 3.5
    endloop
  endfacet
  facet normal 0 1 -0
    outer loop
      vertex 99.5 103 0
      vertex 97.8 103 3.5
      vertex 99.5 103 1.2
    endloop
  endfacet
  facet normal 0 1 0
    outer loop
      vertex 97.8 103 3.5
      vertex 99.5 103 0
      vertex 92.8 103 3.5
    endloop
  endfacet
  facet normal 0 1 0
    outer loop
      vertex 92.8 103 3.5
      vertex 99.5 103 0
      vertex 91.2 103 3.5
    endloop
  endfacet
  facet normal 0 1 0
    outer loop
      vertex 91.2 103 3.5
      vertex 83 103 1.2
      vertex 86.2 103 3.5
    endloop
  endfacet
  facet normal 0 1 0
    outer loop
      vertex 86.2 103 3.5
      vertex 83 103 1.2
      vertex 84.6 103 3.5
    endloop
  endfacet
  facet normal 0 1 0
    outer loop
      vertex 79.6 103 3.5
      vertex 83 103 1.2
      vertex 78 103 3.5
    endloop
  endfacet
  facet normal 0 1 0
    outer loop
      vertex 78 103 3.5
      vertex 83 103 1.2
      vertex 73 103 3.5
    endloop
  endfacet
  facet normal 0 1 0
    outer loop
      vertex 63 103 1.2
      vertex 73 103 3.5
      vertex 83 103 1.2
    endloop
  endfacet
  facet normal 0 1 0
    outer loop
      vertex 73 103 3.5
      vertex 63 103 1.2
      vertex 71.4 103 3.5
    endloop
  endfacet
  facet normal 0 1 0
    outer loop
      vertex 71.4 103 3.5
      vertex 63 103 1.2
      vertex 66.4 103 3.5
    endloop
  endfacet
  facet normal 0 1 0
    outer loop
      vertex 66.4 103 3.5
      vertex 63 103 1.2
      vertex 64.8 103 3.5
    endloop
  endfacet
  facet normal 0 1 0
    outer loop
      vertex 64.8 103 3.5
      vertex 63 103 1.2
      vertex 59.8 103 3.5
    endloop
  endfacet
  facet normal 0 1 -0
    outer loop
      vertex 63 103 0
      vertex 59.8 103 3.5
      vertex 63 103 1.2
    endloop
  endfacet
  facet normal 0 1 0
    outer loop
      vertex 59.8 103 3.5
      vertex 63 103 0
      vertex 58.2 103 3.5
    endloop
  endfacet
  facet normal 0 1 0
    outer loop
      vertex 53.2 103 3.5
      vertex 46.5 103 1.2
      vertex 51.6 103 3.5
    endloop
  endfacet
  facet normal 0 1 0
    outer loop
      vertex 51.6 103 3.5
      vertex 46.5 103 1.2
      vertex 46.6 103 3.5
    endloop
  endfacet
  facet normal 0 1 0
    outer loop
      vertex 46.6 103 3.5
      vertex 46.5 103 1.2
      vertex 45 103 3.5
    endloop
  endfacet
  facet normal 0 1 0
    outer loop
      vertex 45 103 3.5
      vertex 46.5 103 1.2
      vertex 40 103 3.5
    endloop
  endfacet
  facet normal 0 1 0
    outer loop
      vertex 40 103 3.5
      vertex 46.5 103 1.2
      vertex 38.4 103 3.5
    endloop
  endfacet
  facet normal 0 1 0
    outer loop
      vertex 26.5 103 1.2
      vertex 38.4 103 3.5
      vertex 46.5 103 1.2
    endloop
  endfacet
  facet normal 0 1 0
    outer loop
      vertex 38.4 103 3.5
      vertex 26.5 103 1.2
      vertex 33.4 103 3.5
    endloop
  endfacet
  facet normal 0 1 0
    outer loop
      vertex 33.4 103 3.5
      vertex 26.5 103 1.2
      vertex 31.8 103 3.5
    endloop
  endfacet
  facet normal 0 1 0
    outer loop
      vertex 31.8 103 3.5
      vertex 26.5 103 1.2
      vertex 26.8 103 3.5
    endloop
  endfacet
  facet normal 0 1 0
    outer loop
      vertex 26.8 103 3.5
      vertex 26.5 103 1.2
      vertex 25.2 103 3.5
    endloop
  endfacet
  facet normal 0 1 0
    outer loop
      vertex 25.2 103 3.5
      vertex 26.5 103 1.2
      vertex 20.2 103 3.5
    endloop
  endfacet
  facet normal 0 1 0
    outer loop
      vertex 84.6 103 3.5
      vertex 83 103 1.2
      vertex 79.6 103 3.5
    endloop
  endfacet
  facet normal 0 1 -0
    outer loop
      vertex 146 103 0
      vertex 144 103 3.5
      vertex 146 103 4
    endloop
  endfacet
  facet normal 0 1 0
    outer loop
      vertex 125.8 103 3.5
      vertex 119.5 103 0
      vertex 124.2 103 3.5
    endloop
  endfacet
  facet normal 0 1 0
    outer loop
      vertex 124.2 103 3.5
      vertex 119.5 103 0
      vertex 119.5 103 1.2
    endloop
  endfacet
  facet normal 0 1 -0
    outer loop
      vertex 139 103 3.5
      vertex 137.4 103 4
      vertex 139 103 4
    endloop
  endfacet
  facet normal 0 1 0
    outer loop
      vertex 137.4 103 4
      vertex 139 103 3.5
      vertex 137.4 103 3.5
    endloop
  endfacet
  facet normal 0 1 -0
    outer loop
      vertex 132.4 103 3.5
      vertex 130.8 103 4
      vertex 132.4 103 4
    endloop
  endfacet
  facet normal 0 1 0
    outer loop
      vertex 130.8 103 4
      vertex 132.4 103 3.5
      vertex 130.8 103 3.5
    endloop
  endfacet
  facet normal 0 1 -0
    outer loop
      vertex 125.8 103 3.5
      vertex 124.2 103 4
      vertex 125.8 103 4
    endloop
  endfacet
  facet normal 0 1 0
    outer loop
      vertex 124.2 103 4
      vertex 125.8 103 3.5
      vertex 124.2 103 3.5
    endloop
  endfacet
  facet normal 0 1 -0
    outer loop
      vertex 119.2 103 3.5
      vertex 117.6 103 4
      vertex 119.2 103 4
    endloop
  endfacet
  facet normal 0 1 0
    outer loop
      vertex 117.6 103 4
      vertex 119.2 103 3.5
      vertex 117.6 103 3.5
    endloop
  endfacet
  facet normal 0 1 -0
    outer loop
      vertex 112.6 103 3.5
      vertex 111 103 4
      vertex 112.6 103 4
    endloop
  endfacet
  facet normal 0 1 0
    outer loop
      vertex 111 103 4
      vertex 112.6 103 3.5
      vertex 111 103 3.5
    endloop
  endfacet
  facet normal 0 1 -0
    outer loop
      vertex 106 103 3.5
      vertex 104.4 103 4
      vertex 106 103 4
    endloop
  endfacet
  facet normal 0 1 0
    outer loop
      vertex 104.4 103 4
      vertex 106 103 3.5
      vertex 104.4 103 3.5
    endloop
  endfacet
  facet normal 0 1 -0
    outer loop
      vertex 99.4 103 3.5
      vertex 97.8 103 4
      vertex 99.4 103 4
    endloop
  endfacet
  facet normal 0 1 0
    outer loop
      vertex 97.8 103 4
      vertex 99.4 103 3.5
      vertex 97.8 103 3.5
    endloop
  endfacet
  facet normal 0 1 -0
    outer loop
      vertex 92.8 103 3.5
      vertex 91.2 103 4
      vertex 92.8 103 4
    endloop
  endfacet
  facet normal 0 1 0
    outer loop
      vertex 91.2 103 4
      vertex 92.8 103 3.5
      vertex 91.2 103 3.5
    endloop
  endfacet
  facet normal 0 1 -0
    outer loop
      vertex 86.2 103 3.5
      vertex 84.6 103 4
      vertex 86.2 103 4
    endloop
  endfacet
  facet normal 0 1 0
    outer loop
      vertex 84.6 103 4
      vertex 86.2 103 3.5
      vertex 84.6 103 3.5
    endloop
  endfacet
  facet normal 0 1 -0
    outer loop
      vertex 79.6 103 3.5
      vertex 78 103 4
      vertex 79.6 103 4
    endloop
  endfacet
  facet normal 0 1 0
    outer loop
      vertex 78 103 4
      vertex 79.6 103 3.5
      vertex 78 103 3.5
    endloop
  endfacet
  facet normal 0 1 -0
    outer loop
      vertex 73 103 3.5
      vertex 71.4 103 4
      vertex 73 103 4
    endloop
  endfacet
  facet normal 0 1 0
    outer loop
      vertex 71.4 103 4
      vertex 73 103 3.5
      vertex 71.4 103 3.5
    endloop
  endfacet
  facet normal 0 1 -0
    outer loop
      vertex 66.4 103 3.5
      vertex 64.8 103 4
      vertex 66.4 103 4
    endloop
  endfacet
  facet normal 0 1 0
    outer loop
      vertex 64.8 103 4
      vertex 66.4 103 3.5
      vertex 64.8 103 3.5
    endloop
  endfacet
  facet normal 0 1 -0
    outer loop
      vertex 59.8 103 3.5
      vertex 58.2 103 4
      vertex 59.8 103 4
    endloop
  endfacet
  facet normal 0 1 0
    outer loop
      vertex 58.2 103 4
      vertex 59.8 103 3.5
      vertex 58.2 103 3.5
    endloop
  endfacet
  facet normal 0 1 -0
    outer loop
      vertex 53.2 103 3.5
      vertex 51.6 103 4
      vertex 53.2 103 4
    endloop
  endfacet
  facet normal 0 1 0
    outer loop
      vertex 51.6 103 4
      vertex 53.2 103 3.5
      vertex 51.6 103 3.5
    endloop
  endfacet
  facet normal 0 1 -0
    outer loop
      vertex 46.6 103 3.5
      vertex 45 103 4
      vertex 46.6 103 4
    endloop
  endfacet
  facet normal 0 1 0
    outer loop
      vertex 45 103 4
      vertex 46.6 103 3.5
      vertex 45 103 3.5
    endloop
  endfacet
  facet normal 0 1 -0
    outer loop
      vertex 40 103 3.5
      vertex 38.4 103 4
      vertex 40 103 4
    endloop
  endfacet
  facet normal 0 1 0
    outer loop
      vertex 38.4 103 4
      vertex 40 103 3.5
      vertex 38.4 103 3.5
    endloop
  endfacet
  facet normal 0 1 -0
    outer loop
      vertex 33.4 103 3.5
      vertex 31.8 103 4
      vertex 33.4 103 4
    endloop
  endfacet
  facet normal 0 1 0
    outer loop
      vertex 31.8 103 4
      vertex 33.4 103 3.5
      vertex 31.8 103 3.5
    endloop
  endfacet
  facet normal 0 1 -0
    outer loop
      vertex 26.8 103 3.5
      vertex 25.2 103 4
      vertex 26.8 103 4
    endloop
  endfacet
  facet normal 0 1 0
    outer loop
      vertex 25.2 103 4
      vertex 26.8 103 3.5
      vertex 25.2 103 3.5
    endloop
  endfacet
  facet normal 0 1 -0
    outer loop
      vertex 20.2 103 3.5
      vertex 18.6 103 4
      vertex 20.2 103 4
    endloop
  endfacet
  facet normal 0 1 0
    outer loop
      vertex 18.6 103 4
      vertex 20.2 103 3.5
      vertex 18.6 103 3.5
    endloop
  endfacet
  facet normal 0 1 -0
    outer loop
      vertex 13.6 103 3.5
      vertex 12 103 4
      vertex 13.6 103 4
    endloop
  endfacet
  facet normal 0 1 0
    outer loop
      vertex 12 103 4
      vertex 13.6 103 3.5
      vertex 12 103 3.5
    endloop
  endfacet
  facet normal 0 1 -0
    outer loop
      vertex 7 103 3.5
      vertex 0 103 4
      vertex 7 103 4
    endloop
  endfacet
  facet normal 0 1 0
    outer loop
      vertex 58.2 103 3.5
      vertex 63 103 0
      vertex 53.2 103 3.5
    endloop
  endfacet
  facet normal 0 1 -0
    outer loop
      vertex 26.5 103 0
      vertex 20.2 103 3.5
      vertex 26.5 103 1.2
    endloop
  endfacet
  facet normal 0 1 0
    outer loop
      vertex 20.2 103 3.5
      vertex 26.5 103 0
      vertex 18.6 103 3.5
    endloop
  endfacet
  facet normal 0 1 0
    outer loop
      vertex 18.6 103 3.5
      vertex 26.5 103 0
      vertex 13.6 103 3.5
    endloop
  endfacet
  facet normal 0 1 0
    outer loop
      vertex 0 103 0
      vertex 13.6 103 3.5
      vertex 26.5 103 0
    endloop
  endfacet
  facet normal 0 1 0
    outer loop
      vertex 13.6 103 3.5
      vertex 0 103 0
      vertex 12 103 3.5
    endloop
  endfacet
  facet normal 0 1 0
    outer loop
      vertex 12 103 3.5
      vertex 0 103 0
      vertex 7 103 3.5
    endloop
  endfacet
  facet normal 0 1 0
    outer loop
      vertex 7 103 3.5
      vertex 0 103 0
      vertex 0 103 4
    endloop
  endfacet
  facet normal 1 -0 0
    outer loop
      vertex 151 15.75 1.2
      vertex 151 35.75 0
      vertex 151 35.75 1.2
    endloop
  endfacet
  facet normal 1 0 0
    outer loop
      vertex 151 35.75 0
      vertex 151 15.75 1.2
      vertex 151 15.75 0
    endloop
  endfacet
  facet normal -0 0 1
    outer loop
      vertex 146 35.75 1.2
      vertex 151 15.75 1.2
      vertex 151 35.75 1.2
    endloop
  endfacet
  facet normal 0 0 1
    outer loop
      vertex 151 15.75 1.2
      vertex 146 35.75 1.2
      vertex 146 15.75 1.2
    endloop
  endfacet
  facet normal 0 1 -0
    outer loop
      vertex 151 35.75 0
      vertex 146 35.75 1.2
      vertex 151 35.75 1.2
    endloop
  endfacet
  facet normal 0 1 0
    outer loop
      vertex 146 35.75 1.2
      vertex 151 35.75 0
      vertex 146 35.75 0
    endloop
  endfacet
  facet normal 0 -1 0
    outer loop
      vertex 146 15.75 0
      vertex 151 15.75 1.2
      vertex 146 15.75 1.2
    endloop
  endfacet
  facet normal 0 -1 -0
    outer loop
      vertex 151 15.75 1.2
      vertex 146 15.75 0
      vertex 151 15.75 0
    endloop
  endfacet
  facet normal 1 -0 0
    outer loop
      vertex 151 41.5 1.2
      vertex 151 61.5 0
      vertex 151 61.5 1.2
    endloop
  endfacet
  facet normal 1 0 0
    outer loop
      vertex 151 61.5 0
      vertex 151 41.5 1.2
      vertex 151 41.5 0
    endloop
  endfacet
  facet normal -0 0 1
    outer loop
      vertex 146 61.5 1.2
      vertex 151 41.5 1.2
      vertex 151 61.5 1.2
    endloop
  endfacet
  facet normal 0 0 1
    outer loop
      vertex 151 41.5 1.2
      vertex 146 61.5 1.2
      vertex 146 41.5 1.2
    endloop
  endfacet
  facet normal 0 1 -0
    outer loop
      vertex 151 61.5 0
      vertex 146 61.5 1.2
      vertex 151 61.5 1.2
    endloop
  endfacet
  facet normal 0 1 0
    outer loop
      vertex 146 61.5 1.2
      vertex 151 61.5 0
      vertex 146 61.5 0
    endloop
  endfacet
  facet normal 0 -1 0
    outer loop
      vertex 146 41.5 0
      vertex 151 41.5 1.2
      vertex 146 41.5 1.2
    endloop
  endfacet
  facet normal 0 -1 -0
    outer loop
      vertex 151 41.5 1.2
      vertex 146 41.5 0
      vertex 151 41.5 0
    endloop
  endfacet
  facet normal 1 -0 0
    outer loop
      vertex 151 67.25 1.2
      vertex 151 87.25 0
      vertex 151 87.25 1.2
    endloop
  endfacet
  facet normal 1 0 0
    outer loop
      vertex 151 87.25 0
      vertex 151 67.25 1.2
      vertex 151 67.25 0
    endloop
  endfacet
  facet normal -0 0 1
    outer loop
      vertex 146 87.25 1.2
      vertex 151 67.25 1.2
      vertex 151 87.25 1.2
    endloop
  endfacet
  facet normal 0 0 1
    outer loop
      vertex 151 67.25 1.2
      vertex 146 87.25 1.2
      vertex 146 67.25 1.2
    endloop
  endfacet
  facet normal 0 1 -0
    outer loop
      vertex 151 87.25 0
      vertex 146 87.25 1.2
      vertex 151 87.25 1.2
    endloop
  endfacet
  facet normal 0 1 0
    outer loop
      vertex 146 87.25 1.2
      vertex 151 87.25 0
      vertex 146 87.25 0
    endloop
  endfacet
  facet normal 0 -1 0
    outer loop
      vertex 146 67.25 0
      vertex 151 67.25 1.2
      vertex 146 67.25 1.2
    endloop
  endfacet
  facet normal 0 -1 -0
    outer loop
      vertex 151 67.25 1.2
      vertex 146 67.25 0
      vertex 151 67.25 0
    endloop
  endfacet
  facet normal 1 -0 0
    outer loop
      vertex 46.5 103 1.2
      vertex 46.5 108 0
      vertex 46.5 108 1.2
    endloop
  endfacet
  facet normal 1 0 0
    outer loop
      vertex 46.5 108 0
      vertex 46.5 103 1.2
      vertex 46.5 103 0
    endloop
  endfacet
  facet normal -0 0 1
    outer loop
      vertex 26.5 108 1.2
      vertex 46.5 103 1.2
      vertex 46.5 108 1.2
    endloop
  endfacet
  facet normal 0 0 1
    outer loop
      vertex 46.5 103 1.2
      vertex 26.5 108 1.2
      vertex 26.5 103 1.2
    endloop
  endfacet
  facet normal -1 0 0
    outer loop
      vertex 26.5 103 0
      vertex 26.5 108 1.2
      vertex 26.5 108 0
    endloop
  endfacet
  facet normal -1 -0 0
    outer loop
      vertex 26.5 108 1.2
      vertex 26.5 103 0
      vertex 26.5 103 1.2
    endloop
  endfacet
  facet normal 0 1 -0
    outer loop
      vertex 46.5 108 0
      vertex 26.5 108 1.2
      vertex 46.5 108 1.2
    endloop
  endfacet
  facet normal 0 1 0
    outer loop
      vertex 26.5 108 1.2
      vertex 46.5 108 0
      vertex 26.5 108 0
    endloop
  endfacet
  facet normal 1 -0 0
    outer loop
      vertex 83 103 1.2
      vertex 83 108 0
      vertex 83 108 1.2
    endloop
  endfacet
  facet normal 1 0 0
    outer loop
      vertex 83 108 0
      vertex 83 103 1.2
      vertex 83 103 0
    endloop
  endfacet
  facet normal -0 0 1
    outer loop
      vertex 63 108 1.2
      vertex 83 103 1.2
      vertex 83 108 1.2
    endloop
  endfacet
  facet normal 0 0 1
    outer loop
      vertex 83 103 1.2
      vertex 63 108 1.2
      vertex 63 103 1.2
    endloop
  endfacet
  facet normal -1 0 0
    outer loop
      vertex 63 103 0
      vertex 63 108 1.2
      vertex 63 108 0
    endloop
  endfacet
  facet normal -1 -0 0
    outer loop
      vertex 63 108 1.2
      vertex 63 103 0
      vertex 63 103 1.2
    endloop
  endfacet
  facet normal 0 1 -0
    outer loop
      vertex 83 108 0
      vertex 63 108 1.2
      vertex 83 108 1.2
    endloop
  endfacet
  facet normal 0 1 0
    outer loop
      vertex 63 108 1.2
      vertex 83 108 0
      vertex 63 108 0
    endloop
  endfacet
  facet normal 1 -0 0
    outer loop
      vertex 119.5 103 1.2
      vertex 119.5 108 0
      vertex 119.5 108 1.2
    endloop
  endfacet
  facet normal 1 0 0
    outer loop
      vertex 119.5 108 0
      vertex 119.5 103 1.2
      vertex 119.5 103 0
    endloop
  endfacet
  facet normal -0 0 1
    outer loop
      vertex 99.5 108 1.2
      vertex 119.5 103 1.2
      vertex 119.5 108 1.2
    endloop
  endfacet
  facet normal 0 0 1
    outer loop
      vertex 119.5 103 1.2
      vertex 99.5 108 1.2
      vertex 99.5 103 1.2
    endloop
  endfacet
  facet normal -1 0 0
    outer loop
      vertex 99.5 103 0
      vertex 99.5 108 1.2
      vertex 99.5 108 0
    endloop
  endfacet
  facet normal -1 -0 0
    outer loop
      vertex 99.5 108 1.2
      vertex 99.5 103 0
      vertex 99.5 103 1.2
    endloop
  endfacet
  facet normal 0 1 -0
    outer loop
      vertex 119.5 108 0
      vertex 99.5 108 1.2
      vertex 119.5 108 1.2
    endloop
  endfacet
  facet normal 0 1 0
    outer loop
      vertex 99.5 108 1.2
      vertex 119.5 108 0
      vertex 99.5 108 0
    endloop
  endfacet
  facet normal -1 0 0
    outer loop
      vertex 5.2 15.55 0
      vertex 5.2 35.95 1.8
      vertex 5.2 35.95 0
    endloop
  endfacet
  facet normal -1 -0 0
    outer loop
      vertex 5.2 35.95 1.8
      vertex 5.2 15.55 0
      vertex 5.2 15.55 1.8
    endloop
  endfacet
  facet normal 0 0 -1
    outer loop
      vertex 0 15.55 1.8
      vertex 5.2 35.95 1.8
      vertex 5.2 15.55 1.8
    endloop
  endfacet
  facet normal -0 0 -1
    outer loop
      vertex 5.2 35.95 1.8
      vertex 0 15.55 1.8
      vertex 0 35.95 1.8
    endloop
  endfacet
  facet normal 0 -1 0
    outer loop
      vertex 0 35.95 0
      vertex 5.2 35.95 1.8
      vertex 0 35.95 1.8
    endloop
  endfacet
  facet normal 0 -1 -0
    outer loop
      vertex 5.2 35.95 1.8
      vertex 0 35.95 0
      vertex 5.2 35.95 0
    endloop
  endfacet
  facet normal 0 1 -0
    outer loop
      vertex 5.2 15.55 0
      vertex 0 15.55 1.8
      vertex 5.2 15.55 1.8
    endloop
  endfacet
  facet normal 0 1 0
    outer loop
      vertex 0 15.55 1.8
      vertex 5.2 15.55 0
      vertex 0 15.55 0
    endloop
  endfacet
  facet normal -1 0 0
    outer loop
      vertex 5.2 41.3 0
      vertex 5.2 61.7 1.8
      vertex 5.2 61.7 0
    endloop
  endfacet
  facet normal -1 -0 0
    outer loop
      vertex 5.2 61.7 1.8
      vertex 5.2 41.3 0
      vertex 5.2 41.3 1.8
    endloop
  endfacet
  facet normal 0 0 -1
    outer loop
      vertex 0 41.3 1.8
      vertex 5.2 61.7 1.8
      vertex 5.2 41.3 1.8
    endloop
  endfacet
  facet normal -0 0 -1
    outer loop
      vertex 5.2 61.7 1.8
      vertex 0 41.3 1.8
      vertex 0 61.7 1.8
    endloop
  endfacet
  facet normal 0 -1 0
    outer loop
      vertex 0 61.7 0
      vertex 5.2 61.7 1.8
      vertex 0 61.7 1.8
    endloop
  endfacet
  facet normal 0 -1 -0
    outer loop
      vertex 5.2 61.7 1.8
      vertex 0 61.7 0
      vertex 5.2 61.7 0
    endloop
  endfacet
  facet normal 0 1 -0
    outer loop
      vertex 5.2 41.3 0
      vertex 0 41.3 1.8
      vertex 5.2 41.3 1.8
    endloop
  endfacet
  facet normal 0 1 0
    outer loop
      vertex 0 41.3 1.8
      vertex 5.2 41.3 0
      vertex 0 41.3 0
    endloop
  endfacet
  facet normal -1 0 0
    outer loop
      vertex 5.2 67.05 0
      vertex 5.2 87.45 1.8
      vertex 5.2 87.45 0
    endloop
  endfacet
  facet normal -1 -0 0
    outer loop
      vertex 5.2 87.45 1.8
      vertex 5.2 67.05 0
      vertex 5.2 67.05 1.8
    endloop
  endfacet
  facet normal 0 0 -1
    outer loop
      vertex 0 67.05 1.8
      vertex 5.2 87.45 1.8
      vertex 5.2 67.05 1.8
    endloop
  endfacet
  facet normal -0 0 -1
    outer loop
      vertex 5.2 87.45 1.8
      vertex 0 67.05 1.8
      vertex 0 87.45 1.8
    endloop
  endfacet
  facet normal 0 -1 0
    outer loop
      vertex 0 87.45 0
      vertex 5.2 87.45 1.8
      vertex 0 87.45 1.8
    endloop
  endfacet
  facet normal 0 -1 -0
    outer loop
      vertex 5.2 87.45 1.8
      vertex 0 87.45 0
      vertex 5.2 87.45 0
    endloop
  endfacet
  facet normal 0 1 -0
    outer loop
      vertex 5.2 67.05 0
      vertex 0 67.05 1.8
      vertex 5.2 67.05 1.8
    endloop
  endfacet
  facet normal 0 1 0
    outer loop
      vertex 0 67.05 1.8
      vertex 5.2 67.05 0
      vertex 0 67.05 0
    endloop
  endfacet
endsolid OpenSCAD_Model
